<?xml version="1.0" encoding="utf-8" standalone="no"?>
<!DOCTYPE svg PUBLIC "-//W3C//DTD SVG 1.1//EN"
  "http://www.w3.org/Graphics/SVG/1.1/DTD/svg11.dtd">
<svg xmlns:xlink="http://www.w3.org/1999/xlink" width="864pt" height="432pt" viewBox="0 0 864 432" xmlns="http://www.w3.org/2000/svg" version="1.1">
 <metadata>
  <rdf:RDF xmlns:dc="http://purl.org/dc/elements/1.1/" xmlns:cc="http://creativecommons.org/ns#" xmlns:rdf="http://www.w3.org/1999/02/22-rdf-syntax-ns#">
   <cc:Work>
    <dc:type rdf:resource="http://purl.org/dc/dcmitype/StillImage"/>
    <dc:date>2026-01-24T23:53:04.906960</dc:date>
    <dc:format>image/svg+xml</dc:format>
    <dc:creator>
     <cc:Agent>
      <dc:title>Matplotlib v3.10.7, https://matplotlib.org/</dc:title>
     </cc:Agent>
    </dc:creator>
   </cc:Work>
  </rdf:RDF>
 </metadata>
 <defs>
  <style type="text/css">*{stroke-linejoin: round; stroke-linecap: butt}</style>
 </defs>
 <g id="figure_1">
  <g id="patch_1">
   <path d="M 0 432 
L 864 432 
L 864 0 
L 0 0 
z
" style="fill: #ffffff"/>
  </g>
  <g id="axes_1">
   <g id="patch_2">
    <path d="M 108 384.48 
L 777.6 384.48 
L 777.6 51.84 
L 108 51.84 
z
" style="fill: #ffffff"/>
   </g>
   <g id="matplotlib.axis_1">
    <g id="xtick_1">
     <g id="line2d_1">
      <path d="M 137.235718 384.48 
L 137.235718 51.84 
" clip-path="url(#pa770603bd8)" style="fill: none; stroke: #b0b0b0; stroke-opacity: 0.3; stroke-width: 0.8; stroke-linecap: square"/>
     </g>
     <g id="line2d_2">
      <defs>
       <path id="mfc4574825c" d="M 0 0 
L 0 3.5 
" style="stroke: #000000; stroke-width: 0.8"/>
      </defs>
      <g>
       <use xlink:href="#mfc4574825c" x="137.235718" y="384.48" style="stroke: #000000; stroke-width: 0.8"/>
      </g>
     </g>
     <g id="text_1">
      <!-- 2024-09 -->
      <g transform="translate(116.344312 399.078438) scale(0.1 -0.1)">
       <defs>
        <path id="DejaVuSans-32" d="M 1228 531 
L 3431 531 
L 3431 0 
L 469 0 
L 469 531 
Q 828 903 1448 1529 
Q 2069 2156 2228 2338 
Q 2531 2678 2651 2914 
Q 2772 3150 2772 3378 
Q 2772 3750 2511 3984 
Q 2250 4219 1831 4219 
Q 1534 4219 1204 4116 
Q 875 4013 500 3803 
L 500 4441 
Q 881 4594 1212 4672 
Q 1544 4750 1819 4750 
Q 2544 4750 2975 4387 
Q 3406 4025 3406 3419 
Q 3406 3131 3298 2873 
Q 3191 2616 2906 2266 
Q 2828 2175 2409 1742 
Q 1991 1309 1228 531 
z
" transform="scale(0.015625)"/>
        <path id="DejaVuSans-30" d="M 2034 4250 
Q 1547 4250 1301 3770 
Q 1056 3291 1056 2328 
Q 1056 1369 1301 889 
Q 1547 409 2034 409 
Q 2525 409 2770 889 
Q 3016 1369 3016 2328 
Q 3016 3291 2770 3770 
Q 2525 4250 2034 4250 
z
M 2034 4750 
Q 2819 4750 3233 4129 
Q 3647 3509 3647 2328 
Q 3647 1150 3233 529 
Q 2819 -91 2034 -91 
Q 1250 -91 836 529 
Q 422 1150 422 2328 
Q 422 3509 836 4129 
Q 1250 4750 2034 4750 
z
" transform="scale(0.015625)"/>
        <path id="DejaVuSans-34" d="M 2419 4116 
L 825 1625 
L 2419 1625 
L 2419 4116 
z
M 2253 4666 
L 3047 4666 
L 3047 1625 
L 3713 1625 
L 3713 1100 
L 3047 1100 
L 3047 0 
L 2419 0 
L 2419 1100 
L 313 1100 
L 313 1709 
L 2253 4666 
z
" transform="scale(0.015625)"/>
        <path id="DejaVuSans-2d" d="M 313 2009 
L 1997 2009 
L 1997 1497 
L 313 1497 
L 313 2009 
z
" transform="scale(0.015625)"/>
        <path id="DejaVuSans-39" d="M 703 97 
L 703 672 
Q 941 559 1184 500 
Q 1428 441 1663 441 
Q 2288 441 2617 861 
Q 2947 1281 2994 2138 
Q 2813 1869 2534 1725 
Q 2256 1581 1919 1581 
Q 1219 1581 811 2004 
Q 403 2428 403 3163 
Q 403 3881 828 4315 
Q 1253 4750 1959 4750 
Q 2769 4750 3195 4129 
Q 3622 3509 3622 2328 
Q 3622 1225 3098 567 
Q 2575 -91 1691 -91 
Q 1453 -91 1209 -44 
Q 966 3 703 97 
z
M 1959 2075 
Q 2384 2075 2632 2365 
Q 2881 2656 2881 3163 
Q 2881 3666 2632 3958 
Q 2384 4250 1959 4250 
Q 1534 4250 1286 3958 
Q 1038 3666 1038 3163 
Q 1038 2656 1286 2365 
Q 1534 2075 1959 2075 
z
" transform="scale(0.015625)"/>
       </defs>
       <use xlink:href="#DejaVuSans-32"/>
       <use xlink:href="#DejaVuSans-30" transform="translate(63.623047 0)"/>
       <use xlink:href="#DejaVuSans-32" transform="translate(127.246094 0)"/>
       <use xlink:href="#DejaVuSans-34" transform="translate(190.869141 0)"/>
       <use xlink:href="#DejaVuSans-2d" transform="translate(254.492188 0)"/>
       <use xlink:href="#DejaVuSans-30" transform="translate(290.576172 0)"/>
       <use xlink:href="#DejaVuSans-39" transform="translate(354.199219 0)"/>
      </g>
     </g>
    </g>
    <g id="xtick_2">
     <g id="line2d_3">
      <path d="M 210.475094 384.48 
L 210.475094 51.84 
" clip-path="url(#pa770603bd8)" style="fill: none; stroke: #b0b0b0; stroke-opacity: 0.3; stroke-width: 0.8; stroke-linecap: square"/>
     </g>
     <g id="line2d_4">
      <g>
       <use xlink:href="#mfc4574825c" x="210.475094" y="384.48" style="stroke: #000000; stroke-width: 0.8"/>
      </g>
     </g>
     <g id="text_2">
      <!-- 2024-11 -->
      <g transform="translate(189.583688 399.078438) scale(0.1 -0.1)">
       <defs>
        <path id="DejaVuSans-31" d="M 794 531 
L 1825 531 
L 1825 4091 
L 703 3866 
L 703 4441 
L 1819 4666 
L 2450 4666 
L 2450 531 
L 3481 531 
L 3481 0 
L 794 0 
L 794 531 
z
" transform="scale(0.015625)"/>
       </defs>
       <use xlink:href="#DejaVuSans-32"/>
       <use xlink:href="#DejaVuSans-30" transform="translate(63.623047 0)"/>
       <use xlink:href="#DejaVuSans-32" transform="translate(127.246094 0)"/>
       <use xlink:href="#DejaVuSans-34" transform="translate(190.869141 0)"/>
       <use xlink:href="#DejaVuSans-2d" transform="translate(254.492188 0)"/>
       <use xlink:href="#DejaVuSans-31" transform="translate(290.576172 0)"/>
       <use xlink:href="#DejaVuSans-31" transform="translate(354.199219 0)"/>
      </g>
     </g>
    </g>
    <g id="xtick_3">
     <g id="line2d_5">
      <path d="M 283.71447 384.48 
L 283.71447 51.84 
" clip-path="url(#pa770603bd8)" style="fill: none; stroke: #b0b0b0; stroke-opacity: 0.3; stroke-width: 0.8; stroke-linecap: square"/>
     </g>
     <g id="line2d_6">
      <g>
       <use xlink:href="#mfc4574825c" x="283.71447" y="384.48" style="stroke: #000000; stroke-width: 0.8"/>
      </g>
     </g>
     <g id="text_3">
      <!-- 2025-01 -->
      <g transform="translate(262.823064 399.078438) scale(0.1 -0.1)">
       <defs>
        <path id="DejaVuSans-35" d="M 691 4666 
L 3169 4666 
L 3169 4134 
L 1269 4134 
L 1269 2991 
Q 1406 3038 1543 3061 
Q 1681 3084 1819 3084 
Q 2600 3084 3056 2656 
Q 3513 2228 3513 1497 
Q 3513 744 3044 326 
Q 2575 -91 1722 -91 
Q 1428 -91 1123 -41 
Q 819 9 494 109 
L 494 744 
Q 775 591 1075 516 
Q 1375 441 1709 441 
Q 2250 441 2565 725 
Q 2881 1009 2881 1497 
Q 2881 1984 2565 2268 
Q 2250 2553 1709 2553 
Q 1456 2553 1204 2497 
Q 953 2441 691 2322 
L 691 4666 
z
" transform="scale(0.015625)"/>
       </defs>
       <use xlink:href="#DejaVuSans-32"/>
       <use xlink:href="#DejaVuSans-30" transform="translate(63.623047 0)"/>
       <use xlink:href="#DejaVuSans-32" transform="translate(127.246094 0)"/>
       <use xlink:href="#DejaVuSans-35" transform="translate(190.869141 0)"/>
       <use xlink:href="#DejaVuSans-2d" transform="translate(254.492188 0)"/>
       <use xlink:href="#DejaVuSans-30" transform="translate(290.576172 0)"/>
       <use xlink:href="#DejaVuSans-31" transform="translate(354.199219 0)"/>
      </g>
     </g>
    </g>
    <g id="xtick_4">
     <g id="line2d_7">
      <path d="M 354.552555 384.48 
L 354.552555 51.84 
" clip-path="url(#pa770603bd8)" style="fill: none; stroke: #b0b0b0; stroke-opacity: 0.3; stroke-width: 0.8; stroke-linecap: square"/>
     </g>
     <g id="line2d_8">
      <g>
       <use xlink:href="#mfc4574825c" x="354.552555" y="384.48" style="stroke: #000000; stroke-width: 0.8"/>
      </g>
     </g>
     <g id="text_4">
      <!-- 2025-03 -->
      <g transform="translate(333.661149 399.078438) scale(0.1 -0.1)">
       <defs>
        <path id="DejaVuSans-33" d="M 2597 2516 
Q 3050 2419 3304 2112 
Q 3559 1806 3559 1356 
Q 3559 666 3084 287 
Q 2609 -91 1734 -91 
Q 1441 -91 1130 -33 
Q 819 25 488 141 
L 488 750 
Q 750 597 1062 519 
Q 1375 441 1716 441 
Q 2309 441 2620 675 
Q 2931 909 2931 1356 
Q 2931 1769 2642 2001 
Q 2353 2234 1838 2234 
L 1294 2234 
L 1294 2753 
L 1863 2753 
Q 2328 2753 2575 2939 
Q 2822 3125 2822 3475 
Q 2822 3834 2567 4026 
Q 2313 4219 1838 4219 
Q 1578 4219 1281 4162 
Q 984 4106 628 3988 
L 628 4550 
Q 988 4650 1302 4700 
Q 1616 4750 1894 4750 
Q 2613 4750 3031 4423 
Q 3450 4097 3450 3541 
Q 3450 3153 3228 2886 
Q 3006 2619 2597 2516 
z
" transform="scale(0.015625)"/>
       </defs>
       <use xlink:href="#DejaVuSans-32"/>
       <use xlink:href="#DejaVuSans-30" transform="translate(63.623047 0)"/>
       <use xlink:href="#DejaVuSans-32" transform="translate(127.246094 0)"/>
       <use xlink:href="#DejaVuSans-35" transform="translate(190.869141 0)"/>
       <use xlink:href="#DejaVuSans-2d" transform="translate(254.492188 0)"/>
       <use xlink:href="#DejaVuSans-30" transform="translate(290.576172 0)"/>
       <use xlink:href="#DejaVuSans-33" transform="translate(354.199219 0)"/>
      </g>
     </g>
    </g>
    <g id="xtick_5">
     <g id="line2d_9">
      <path d="M 427.791931 384.48 
L 427.791931 51.84 
" clip-path="url(#pa770603bd8)" style="fill: none; stroke: #b0b0b0; stroke-opacity: 0.3; stroke-width: 0.8; stroke-linecap: square"/>
     </g>
     <g id="line2d_10">
      <g>
       <use xlink:href="#mfc4574825c" x="427.791931" y="384.48" style="stroke: #000000; stroke-width: 0.8"/>
      </g>
     </g>
     <g id="text_5">
      <!-- 2025-05 -->
      <g transform="translate(406.900525 399.078438) scale(0.1 -0.1)">
       <use xlink:href="#DejaVuSans-32"/>
       <use xlink:href="#DejaVuSans-30" transform="translate(63.623047 0)"/>
       <use xlink:href="#DejaVuSans-32" transform="translate(127.246094 0)"/>
       <use xlink:href="#DejaVuSans-35" transform="translate(190.869141 0)"/>
       <use xlink:href="#DejaVuSans-2d" transform="translate(254.492188 0)"/>
       <use xlink:href="#DejaVuSans-30" transform="translate(290.576172 0)"/>
       <use xlink:href="#DejaVuSans-35" transform="translate(354.199219 0)"/>
      </g>
     </g>
    </g>
    <g id="xtick_6">
     <g id="line2d_11">
      <path d="M 501.031307 384.48 
L 501.031307 51.84 
" clip-path="url(#pa770603bd8)" style="fill: none; stroke: #b0b0b0; stroke-opacity: 0.3; stroke-width: 0.8; stroke-linecap: square"/>
     </g>
     <g id="line2d_12">
      <g>
       <use xlink:href="#mfc4574825c" x="501.031307" y="384.48" style="stroke: #000000; stroke-width: 0.8"/>
      </g>
     </g>
     <g id="text_6">
      <!-- 2025-07 -->
      <g transform="translate(480.139901 399.078438) scale(0.1 -0.1)">
       <defs>
        <path id="DejaVuSans-37" d="M 525 4666 
L 3525 4666 
L 3525 4397 
L 1831 0 
L 1172 0 
L 2766 4134 
L 525 4134 
L 525 4666 
z
" transform="scale(0.015625)"/>
       </defs>
       <use xlink:href="#DejaVuSans-32"/>
       <use xlink:href="#DejaVuSans-30" transform="translate(63.623047 0)"/>
       <use xlink:href="#DejaVuSans-32" transform="translate(127.246094 0)"/>
       <use xlink:href="#DejaVuSans-35" transform="translate(190.869141 0)"/>
       <use xlink:href="#DejaVuSans-2d" transform="translate(254.492188 0)"/>
       <use xlink:href="#DejaVuSans-30" transform="translate(290.576172 0)"/>
       <use xlink:href="#DejaVuSans-37" transform="translate(354.199219 0)"/>
      </g>
     </g>
    </g>
    <g id="xtick_7">
     <g id="line2d_13">
      <path d="M 575.471329 384.48 
L 575.471329 51.84 
" clip-path="url(#pa770603bd8)" style="fill: none; stroke: #b0b0b0; stroke-opacity: 0.3; stroke-width: 0.8; stroke-linecap: square"/>
     </g>
     <g id="line2d_14">
      <g>
       <use xlink:href="#mfc4574825c" x="575.471329" y="384.48" style="stroke: #000000; stroke-width: 0.8"/>
      </g>
     </g>
     <g id="text_7">
      <!-- 2025-09 -->
      <g transform="translate(554.579922 399.078438) scale(0.1 -0.1)">
       <use xlink:href="#DejaVuSans-32"/>
       <use xlink:href="#DejaVuSans-30" transform="translate(63.623047 0)"/>
       <use xlink:href="#DejaVuSans-32" transform="translate(127.246094 0)"/>
       <use xlink:href="#DejaVuSans-35" transform="translate(190.869141 0)"/>
       <use xlink:href="#DejaVuSans-2d" transform="translate(254.492188 0)"/>
       <use xlink:href="#DejaVuSans-30" transform="translate(290.576172 0)"/>
       <use xlink:href="#DejaVuSans-39" transform="translate(354.199219 0)"/>
      </g>
     </g>
    </g>
    <g id="xtick_8">
     <g id="line2d_15">
      <path d="M 648.710705 384.48 
L 648.710705 51.84 
" clip-path="url(#pa770603bd8)" style="fill: none; stroke: #b0b0b0; stroke-opacity: 0.3; stroke-width: 0.8; stroke-linecap: square"/>
     </g>
     <g id="line2d_16">
      <g>
       <use xlink:href="#mfc4574825c" x="648.710705" y="384.48" style="stroke: #000000; stroke-width: 0.8"/>
      </g>
     </g>
     <g id="text_8">
      <!-- 2025-11 -->
      <g transform="translate(627.819298 399.078438) scale(0.1 -0.1)">
       <use xlink:href="#DejaVuSans-32"/>
       <use xlink:href="#DejaVuSans-30" transform="translate(63.623047 0)"/>
       <use xlink:href="#DejaVuSans-32" transform="translate(127.246094 0)"/>
       <use xlink:href="#DejaVuSans-35" transform="translate(190.869141 0)"/>
       <use xlink:href="#DejaVuSans-2d" transform="translate(254.492188 0)"/>
       <use xlink:href="#DejaVuSans-31" transform="translate(290.576172 0)"/>
       <use xlink:href="#DejaVuSans-31" transform="translate(354.199219 0)"/>
      </g>
     </g>
    </g>
    <g id="xtick_9">
     <g id="line2d_17">
      <path d="M 721.950081 384.48 
L 721.950081 51.84 
" clip-path="url(#pa770603bd8)" style="fill: none; stroke: #b0b0b0; stroke-opacity: 0.3; stroke-width: 0.8; stroke-linecap: square"/>
     </g>
     <g id="line2d_18">
      <g>
       <use xlink:href="#mfc4574825c" x="721.950081" y="384.48" style="stroke: #000000; stroke-width: 0.8"/>
      </g>
     </g>
     <g id="text_9">
      <!-- 2026-01 -->
      <g transform="translate(701.058674 399.078438) scale(0.1 -0.1)">
       <defs>
        <path id="DejaVuSans-36" d="M 2113 2584 
Q 1688 2584 1439 2293 
Q 1191 2003 1191 1497 
Q 1191 994 1439 701 
Q 1688 409 2113 409 
Q 2538 409 2786 701 
Q 3034 994 3034 1497 
Q 3034 2003 2786 2293 
Q 2538 2584 2113 2584 
z
M 3366 4563 
L 3366 3988 
Q 3128 4100 2886 4159 
Q 2644 4219 2406 4219 
Q 1781 4219 1451 3797 
Q 1122 3375 1075 2522 
Q 1259 2794 1537 2939 
Q 1816 3084 2150 3084 
Q 2853 3084 3261 2657 
Q 3669 2231 3669 1497 
Q 3669 778 3244 343 
Q 2819 -91 2113 -91 
Q 1303 -91 875 529 
Q 447 1150 447 2328 
Q 447 3434 972 4092 
Q 1497 4750 2381 4750 
Q 2619 4750 2861 4703 
Q 3103 4656 3366 4563 
z
" transform="scale(0.015625)"/>
       </defs>
       <use xlink:href="#DejaVuSans-32"/>
       <use xlink:href="#DejaVuSans-30" transform="translate(63.623047 0)"/>
       <use xlink:href="#DejaVuSans-32" transform="translate(127.246094 0)"/>
       <use xlink:href="#DejaVuSans-36" transform="translate(190.869141 0)"/>
       <use xlink:href="#DejaVuSans-2d" transform="translate(254.492188 0)"/>
       <use xlink:href="#DejaVuSans-30" transform="translate(290.576172 0)"/>
       <use xlink:href="#DejaVuSans-31" transform="translate(354.199219 0)"/>
      </g>
     </g>
    </g>
   </g>
   <g id="matplotlib.axis_2">
    <g id="ytick_1">
     <g id="line2d_19">
      <path d="M 108 380.004985 
L 777.6 380.004985 
" clip-path="url(#pa770603bd8)" style="fill: none; stroke: #b0b0b0; stroke-opacity: 0.3; stroke-width: 0.8; stroke-linecap: square"/>
     </g>
     <g id="line2d_20">
      <defs>
       <path id="m684d0769d4" d="M 0 0 
L -3.5 0 
" style="stroke: #000000; stroke-width: 0.8"/>
      </defs>
      <g>
       <use xlink:href="#m684d0769d4" x="108" y="380.004985" style="stroke: #000000; stroke-width: 0.8"/>
      </g>
     </g>
     <g id="text_10">
      <!-- 0.8 -->
      <g transform="translate(85.096875 383.804204) scale(0.1 -0.1)">
       <defs>
        <path id="DejaVuSans-2e" d="M 684 794 
L 1344 794 
L 1344 0 
L 684 0 
L 684 794 
z
" transform="scale(0.015625)"/>
        <path id="DejaVuSans-38" d="M 2034 2216 
Q 1584 2216 1326 1975 
Q 1069 1734 1069 1313 
Q 1069 891 1326 650 
Q 1584 409 2034 409 
Q 2484 409 2743 651 
Q 3003 894 3003 1313 
Q 3003 1734 2745 1975 
Q 2488 2216 2034 2216 
z
M 1403 2484 
Q 997 2584 770 2862 
Q 544 3141 544 3541 
Q 544 4100 942 4425 
Q 1341 4750 2034 4750 
Q 2731 4750 3128 4425 
Q 3525 4100 3525 3541 
Q 3525 3141 3298 2862 
Q 3072 2584 2669 2484 
Q 3125 2378 3379 2068 
Q 3634 1759 3634 1313 
Q 3634 634 3220 271 
Q 2806 -91 2034 -91 
Q 1263 -91 848 271 
Q 434 634 434 1313 
Q 434 1759 690 2068 
Q 947 2378 1403 2484 
z
M 1172 3481 
Q 1172 3119 1398 2916 
Q 1625 2713 2034 2713 
Q 2441 2713 2670 2916 
Q 2900 3119 2900 3481 
Q 2900 3844 2670 4047 
Q 2441 4250 2034 4250 
Q 1625 4250 1398 4047 
Q 1172 3844 1172 3481 
z
" transform="scale(0.015625)"/>
       </defs>
       <use xlink:href="#DejaVuSans-30"/>
       <use xlink:href="#DejaVuSans-2e" transform="translate(63.623047 0)"/>
       <use xlink:href="#DejaVuSans-38" transform="translate(95.410156 0)"/>
      </g>
     </g>
    </g>
    <g id="ytick_2">
     <g id="line2d_21">
      <path d="M 108 341.309705 
L 777.6 341.309705 
" clip-path="url(#pa770603bd8)" style="fill: none; stroke: #b0b0b0; stroke-opacity: 0.3; stroke-width: 0.8; stroke-linecap: square"/>
     </g>
     <g id="line2d_22">
      <g>
       <use xlink:href="#m684d0769d4" x="108" y="341.309705" style="stroke: #000000; stroke-width: 0.8"/>
      </g>
     </g>
     <g id="text_11">
      <!-- 1.0 -->
      <g transform="translate(85.096875 345.108924) scale(0.1 -0.1)">
       <use xlink:href="#DejaVuSans-31"/>
       <use xlink:href="#DejaVuSans-2e" transform="translate(63.623047 0)"/>
       <use xlink:href="#DejaVuSans-30" transform="translate(95.410156 0)"/>
      </g>
     </g>
    </g>
    <g id="ytick_3">
     <g id="line2d_23">
      <path d="M 108 302.614425 
L 777.6 302.614425 
" clip-path="url(#pa770603bd8)" style="fill: none; stroke: #b0b0b0; stroke-opacity: 0.3; stroke-width: 0.8; stroke-linecap: square"/>
     </g>
     <g id="line2d_24">
      <g>
       <use xlink:href="#m684d0769d4" x="108" y="302.614425" style="stroke: #000000; stroke-width: 0.8"/>
      </g>
     </g>
     <g id="text_12">
      <!-- 1.2 -->
      <g transform="translate(85.096875 306.413644) scale(0.1 -0.1)">
       <use xlink:href="#DejaVuSans-31"/>
       <use xlink:href="#DejaVuSans-2e" transform="translate(63.623047 0)"/>
       <use xlink:href="#DejaVuSans-32" transform="translate(95.410156 0)"/>
      </g>
     </g>
    </g>
    <g id="ytick_4">
     <g id="line2d_25">
      <path d="M 108 263.919145 
L 777.6 263.919145 
" clip-path="url(#pa770603bd8)" style="fill: none; stroke: #b0b0b0; stroke-opacity: 0.3; stroke-width: 0.8; stroke-linecap: square"/>
     </g>
     <g id="line2d_26">
      <g>
       <use xlink:href="#m684d0769d4" x="108" y="263.919145" style="stroke: #000000; stroke-width: 0.8"/>
      </g>
     </g>
     <g id="text_13">
      <!-- 1.4 -->
      <g transform="translate(85.096875 267.718364) scale(0.1 -0.1)">
       <use xlink:href="#DejaVuSans-31"/>
       <use xlink:href="#DejaVuSans-2e" transform="translate(63.623047 0)"/>
       <use xlink:href="#DejaVuSans-34" transform="translate(95.410156 0)"/>
      </g>
     </g>
    </g>
    <g id="ytick_5">
     <g id="line2d_27">
      <path d="M 108 225.223865 
L 777.6 225.223865 
" clip-path="url(#pa770603bd8)" style="fill: none; stroke: #b0b0b0; stroke-opacity: 0.3; stroke-width: 0.8; stroke-linecap: square"/>
     </g>
     <g id="line2d_28">
      <g>
       <use xlink:href="#m684d0769d4" x="108" y="225.223865" style="stroke: #000000; stroke-width: 0.8"/>
      </g>
     </g>
     <g id="text_14">
      <!-- 1.6 -->
      <g transform="translate(85.096875 229.023084) scale(0.1 -0.1)">
       <use xlink:href="#DejaVuSans-31"/>
       <use xlink:href="#DejaVuSans-2e" transform="translate(63.623047 0)"/>
       <use xlink:href="#DejaVuSans-36" transform="translate(95.410156 0)"/>
      </g>
     </g>
    </g>
    <g id="ytick_6">
     <g id="line2d_29">
      <path d="M 108 186.528585 
L 777.6 186.528585 
" clip-path="url(#pa770603bd8)" style="fill: none; stroke: #b0b0b0; stroke-opacity: 0.3; stroke-width: 0.8; stroke-linecap: square"/>
     </g>
     <g id="line2d_30">
      <g>
       <use xlink:href="#m684d0769d4" x="108" y="186.528585" style="stroke: #000000; stroke-width: 0.8"/>
      </g>
     </g>
     <g id="text_15">
      <!-- 1.8 -->
      <g transform="translate(85.096875 190.327804) scale(0.1 -0.1)">
       <use xlink:href="#DejaVuSans-31"/>
       <use xlink:href="#DejaVuSans-2e" transform="translate(63.623047 0)"/>
       <use xlink:href="#DejaVuSans-38" transform="translate(95.410156 0)"/>
      </g>
     </g>
    </g>
    <g id="ytick_7">
     <g id="line2d_31">
      <path d="M 108 147.833305 
L 777.6 147.833305 
" clip-path="url(#pa770603bd8)" style="fill: none; stroke: #b0b0b0; stroke-opacity: 0.3; stroke-width: 0.8; stroke-linecap: square"/>
     </g>
     <g id="line2d_32">
      <g>
       <use xlink:href="#m684d0769d4" x="108" y="147.833305" style="stroke: #000000; stroke-width: 0.8"/>
      </g>
     </g>
     <g id="text_16">
      <!-- 2.0 -->
      <g transform="translate(85.096875 151.632524) scale(0.1 -0.1)">
       <use xlink:href="#DejaVuSans-32"/>
       <use xlink:href="#DejaVuSans-2e" transform="translate(63.623047 0)"/>
       <use xlink:href="#DejaVuSans-30" transform="translate(95.410156 0)"/>
      </g>
     </g>
    </g>
    <g id="ytick_8">
     <g id="line2d_33">
      <path d="M 108 109.138025 
L 777.6 109.138025 
" clip-path="url(#pa770603bd8)" style="fill: none; stroke: #b0b0b0; stroke-opacity: 0.3; stroke-width: 0.8; stroke-linecap: square"/>
     </g>
     <g id="line2d_34">
      <g>
       <use xlink:href="#m684d0769d4" x="108" y="109.138025" style="stroke: #000000; stroke-width: 0.8"/>
      </g>
     </g>
     <g id="text_17">
      <!-- 2.2 -->
      <g transform="translate(85.096875 112.937243) scale(0.1 -0.1)">
       <use xlink:href="#DejaVuSans-32"/>
       <use xlink:href="#DejaVuSans-2e" transform="translate(63.623047 0)"/>
       <use xlink:href="#DejaVuSans-32" transform="translate(95.410156 0)"/>
      </g>
     </g>
    </g>
    <g id="ytick_9">
     <g id="line2d_35">
      <path d="M 108 70.442745 
L 777.6 70.442745 
" clip-path="url(#pa770603bd8)" style="fill: none; stroke: #b0b0b0; stroke-opacity: 0.3; stroke-width: 0.8; stroke-linecap: square"/>
     </g>
     <g id="line2d_36">
      <g>
       <use xlink:href="#m684d0769d4" x="108" y="70.442745" style="stroke: #000000; stroke-width: 0.8"/>
      </g>
     </g>
     <g id="text_18">
      <!-- 2.4 -->
      <g transform="translate(85.096875 74.241963) scale(0.1 -0.1)">
       <use xlink:href="#DejaVuSans-32"/>
       <use xlink:href="#DejaVuSans-2e" transform="translate(63.623047 0)"/>
       <use xlink:href="#DejaVuSans-34" transform="translate(95.410156 0)"/>
      </g>
     </g>
    </g>
   </g>
   <g id="line2d_37">
    <path d="M 138.436364 339.805864 
L 139.637009 340.418092 
L 140.837655 339.512362 
L 142.0383 342.113181 
L 143.238946 342.989938 
L 146.840882 343.053321 
L 148.041528 342.244656 
L 149.242173 342.759111 
L 150.442819 344.210556 
L 151.643464 344.2311 
L 157.646692 342.486386 
L 158.847337 342.917606 
L 160.047983 343.099216 
L 163.649919 333.40393 
L 164.850565 330.563702 
L 166.05121 320.864331 
L 167.251856 303.096519 
L 168.452501 269.028752 
L 172.054438 236.857788 
L 181.659602 274.27811 
L 182.860247 276.156054 
L 184.060893 286.386716 
L 185.261538 281.042959 
L 188.863475 288.723032 
L 190.06412 292.212763 
L 191.264766 293.851193 
L 192.465412 279.357963 
L 193.666057 278.70636 
L 197.267994 277.468474 
L 198.468639 277.759781 
L 199.669285 280.937516 
L 200.86993 276.209712 
L 202.070576 276.488724 
L 205.672512 280.670435 
L 206.873158 283.428504 
L 208.073803 282.773617 
L 209.274449 284.776254 
L 210.475094 279.452223 
L 214.077031 269.937655 
L 215.277676 272.300821 
L 216.478322 263.026935 
L 217.678967 266.16841 
L 218.879613 261.552536 
L 222.481549 263.276152 
L 223.682195 260.866454 
L 226.083486 275.162864 
L 227.284131 278.946488 
L 230.886068 274.384247 
L 232.086713 273.593149 
L 233.287359 273.432634 
L 234.488004 282.396868 
L 235.68865 283.335515 
L 239.290586 284.947687 
L 240.491232 279.592782 
L 241.691877 282.701526 
L 242.892523 278.311439 
L 244.093168 275.466663 
L 247.695105 276.100368 
L 248.89575 278.421174 
L 250.096396 278.23123 
L 251.297041 273.861122 
L 252.497687 275.013514 
L 256.099623 273.137129 
L 257.300269 273.634091 
L 258.500914 270.522147 
L 259.70156 276.868067 
L 260.902205 279.696125 
L 264.504142 279.28592 
L 265.704788 278.803094 
L 266.905433 277.841214 
L 268.106079 278.342124 
L 269.306724 279.515031 
L 272.908661 276.656209 
L 274.109306 277.39371 
L 275.309952 276.76521 
L 276.510597 277.133914 
L 277.711243 276.412966 
L 281.313179 282.19569 
L 282.513825 290.730944 
L 284.915116 294.457638 
L 286.115761 295.076071 
L 289.717698 293.387005 
L 290.918343 294.908025 
L 292.118989 294.972855 
L 293.319634 298.314103 
L 294.52028 298.533974 
L 298.122216 289.77624 
L 299.322862 292.723876 
L 300.523507 291.99552 
L 301.724153 290.622994 
L 302.924798 287.858645 
L 306.526735 287.222041 
L 307.72738 289.016008 
L 308.928026 289.085931 
L 310.128671 286.161395 
L 311.329317 290.197888 
L 314.931253 291.065118 
L 325.737063 286.282714 
L 326.937708 281.466565 
L 328.138354 280.685694 
L 331.74029 282.915015 
L 332.940936 279.506186 
L 334.141581 280.714681 
L 335.342227 277.442317 
L 336.542873 276.745568 
L 340.144809 280.154891 
L 341.345455 276.811287 
L 342.5461 277.254125 
L 343.746746 272.282122 
L 344.947391 273.75603 
L 348.549328 276.48372 
L 349.749973 273.895363 
L 350.950619 274.122525 
L 352.151264 281.411232 
L 353.35191 280.275694 
L 356.953846 280.698941 
L 358.154492 280.155909 
L 359.355137 275.91444 
L 360.555783 278.065471 
L 361.756428 278.633381 
L 365.358365 278.251373 
L 366.55901 279.163362 
L 367.759656 281.225838 
L 368.960301 274.389296 
L 370.160947 275.544099 
L 373.762883 274.543316 
L 374.963529 274.769894 
L 376.164174 277.007847 
L 377.36482 281.842285 
L 378.565465 281.306113 
L 382.167402 281.663221 
L 383.368047 282.586693 
L 384.568693 281.846262 
L 385.769338 283.284883 
L 386.969984 285.542813 
L 391.772566 285.699163 
L 392.973211 288.557771 
L 394.173857 312.073211 
L 398.976439 309.199081 
L 400.177084 306.922505 
L 401.37773 302.516678 
L 402.578375 300.375287 
L 403.779021 299.945249 
L 407.380958 299.977646 
L 408.581603 301.129707 
L 409.782249 300.851497 
L 410.982894 300.236466 
L 412.18354 298.302494 
L 415.785476 298.76871 
L 416.986122 297.404114 
L 418.186767 298.146319 
L 419.387413 297.339734 
L 420.588058 298.388958 
L 424.189995 298.788443 
L 425.39064 297.763803 
L 426.591286 294.346959 
L 433.795159 293.055137 
L 434.995804 290.258046 
L 436.19645 291.451566 
L 437.397095 286.813525 
L 440.999032 287.115306 
L 442.199677 284.069948 
L 443.400323 287.686962 
L 444.600968 288.610251 
L 445.801614 289.163189 
L 449.40355 287.565008 
L 450.604196 286.090839 
L 451.804841 287.253153 
L 453.005487 289.497304 
L 454.206132 291.188738 
L 457.808069 292.449546 
L 459.008714 293.065201 
L 460.20936 290.478502 
L 461.410005 291.738164 
L 462.610651 291.491444 
L 467.413233 289.553598 
L 468.613878 287.834969 
L 469.814524 288.139186 
L 471.015169 286.821329 
L 474.617106 288.87614 
L 475.817751 286.29665 
L 477.018397 286.112682 
L 478.219042 288.138645 
L 479.419688 286.790917 
L 483.021625 287.369854 
L 484.22227 286.849673 
L 485.422916 289.601548 
L 486.623561 290.482714 
L 487.824207 289.458787 
L 491.426143 285.216062 
L 492.626789 279.187122 
L 493.827434 280.63582 
L 495.02808 280.883364 
L 496.228725 278.341126 
L 499.830662 278.568706 
L 501.031307 279.765892 
L 502.231953 276.788927 
L 503.432598 276.724713 
L 504.633244 278.692078 
L 508.23518 274.633876 
L 509.435826 274.489272 
L 510.636471 273.484761 
L 511.837117 272.07102 
L 513.037762 272.584174 
L 516.639699 270.476442 
L 517.840344 271.126572 
L 519.04099 267.607254 
L 520.241635 266.333021 
L 521.442281 264.150005 
L 525.044217 261.884992 
L 526.244863 262.069191 
L 527.445508 258.959181 
L 528.646154 260.092536 
L 529.846799 258.311002 
L 533.448736 255.202074 
L 534.649381 257.530287 
L 535.850027 262.653694 
L 537.050672 263.255877 
L 538.251318 262.042218 
L 541.853254 260.611309 
L 543.0539 259.305396 
L 544.254545 260.281674 
L 545.455191 261.08227 
L 546.655836 257.797009 
L 550.257773 255.294823 
L 551.458419 248.981787 
L 552.659064 250.776617 
L 555.060355 240.537566 
L 558.662292 241.684431 
L 559.862937 238.936098 
L 561.063583 239.376065 
L 562.264228 230.799988 
L 563.464874 223.599355 
L 567.06681 225.611165 
L 568.267456 228.996332 
L 569.468101 219.888043 
L 570.668747 215.126965 
L 571.869392 211.147089 
L 575.471329 216.426074 
L 576.671974 216.618339 
L 577.87262 226.4668 
L 579.073265 212.261137 
L 580.273911 214.197713 
L 583.875847 218.620511 
L 585.076493 216.604424 
L 586.277138 204.027014 
L 587.477784 207.051256 
L 588.678429 204.46956 
L 592.280366 203.594269 
L 593.481011 199.163415 
L 594.681657 204.088999 
L 595.882302 203.998626 
L 597.082948 202.379488 
L 600.684884 201.678354 
L 601.88553 196.593041 
L 603.086175 192.703507 
L 604.286821 198.674374 
L 605.487466 191.380553 
L 609.089403 190.694683 
L 610.290048 187.010361 
L 621.095858 198.037971 
L 622.296503 201.231821 
L 625.89844 209.455559 
L 627.099086 203.49391 
L 628.299731 202.359147 
L 629.500377 211.233832 
L 630.701022 207.566186 
L 634.302959 200.086649 
L 635.503604 201.876626 
L 636.70425 201.293265 
L 637.904895 193.29392 
L 639.105541 187.9254 
L 642.707477 189.004079 
L 643.908123 181.719153 
L 645.108768 186.398391 
L 646.309414 192.744182 
L 647.510059 191.952303 
L 651.111996 200.489019 
L 652.312641 195.969597 
L 653.513287 192.06431 
L 654.713932 193.398697 
L 655.914578 193.628817 
L 659.516514 196.035597 
L 660.71716 197.289962 
L 661.917805 186.609753 
L 663.118451 192.2936 
L 664.319096 194.130509 
L 667.921033 200.29263 
L 669.121678 201.005582 
L 670.322324 203.15034 
L 671.522969 216.480417 
L 672.723615 213.634078 
L 676.325551 207.722763 
L 677.526197 204.281814 
L 678.726842 205.568386 
L 679.927488 203.267046 
L 681.128133 201.842 
L 684.73007 203.719288 
L 685.930715 204.869397 
L 687.131361 203.162608 
L 688.332006 196.822615 
L 689.532652 188.955511 
L 693.134588 190.346216 
L 694.335234 186.651132 
L 695.53588 193.197563 
L 696.736525 188.747258 
L 697.937171 190.769096 
L 701.539107 198.275654 
L 702.739753 186.876127 
L 703.940398 188.265665 
L 705.141044 183.947662 
L 706.341689 174.021232 
L 709.943626 176.290118 
L 711.144271 171.149943 
L 712.344917 170.014739 
L 713.545562 164.298064 
L 714.746208 166.855189 
L 718.348144 166.843794 
L 719.54879 155.846242 
L 720.749435 147.415984 
L 726.752663 130.698361 
L 727.953308 132.612682 
L 729.153954 121.641395 
L 730.354599 105.60136 
L 731.555245 78.778296 
L 735.157181 100.736463 
L 736.357827 97.030745 
L 737.558472 110.827734 
L 738.759118 112.896348 
L 739.959763 106.781415 
L 743.5617 117.175779 
L 744.762345 113.792881 
L 745.962991 104.380164 
L 747.163636 87.964461 
L 747.163636 87.964461 
" clip-path="url(#pa770603bd8)" style="fill: none; stroke: #1f77b4; stroke-width: 1.5; stroke-linecap: square"/>
   </g>
   <g id="line2d_38">
    <path d="M 138.436364 341.309705 
L 181.659602 341.309705 
L 182.860247 342.704433 
L 184.060893 350.302633 
L 185.261538 346.333884 
L 188.863475 352.037789 
L 190.06412 354.629573 
L 191.264766 355.846417 
L 192.465412 345.082456 
L 193.666057 344.598518 
L 197.267994 343.679153 
L 198.468639 343.895504 
L 199.669285 346.255573 
L 200.86993 342.744285 
L 202.070576 342.951504 
L 205.672512 346.057215 
L 206.873158 348.105601 
L 208.073803 347.619224 
L 209.274449 349.10656 
L 210.475094 345.152461 
L 214.077031 338.086097 
L 215.277676 339.841195 
L 216.478322 332.953582 
L 217.678967 335.286721 
L 218.879613 331.858563 
L 222.481549 333.138673 
L 223.682195 331.349017 
L 226.083486 341.966802 
L 227.284131 344.776858 
L 230.886068 341.388532 
L 232.086713 340.800993 
L 233.287359 340.68178 
L 234.488004 347.339417 
L 235.68865 348.03654 
L 239.290586 349.233882 
L 240.491232 345.256854 
L 241.691877 347.565683 
L 242.892523 344.305214 
L 244.093168 342.192431 
L 247.695105 342.663076 
L 248.89575 344.386713 
L 250.096396 344.245643 
L 251.297041 341.000013 
L 252.497687 341.855882 
L 256.099623 340.462311 
L 257.300269 340.8314 
L 258.500914 338.520193 
L 259.70156 343.233238 
L 260.902205 345.333605 
L 264.504142 345.02895 
L 265.704788 344.670361 
L 266.905433 343.955983 
L 268.106079 344.328004 
L 269.306724 345.199108 
L 272.908661 343.075893 
L 274.109306 343.623627 
L 275.309952 343.156847 
L 276.510597 343.430679 
L 277.711243 342.895239 
L 281.313179 347.190004 
L 332.940936 347.190004 
L 334.141581 348.078084 
L 335.342227 345.67334 
L 336.542873 345.161324 
L 340.144809 347.666714 
L 341.345455 345.209619 
L 342.5461 345.535044 
L 343.746746 341.881297 
L 344.947391 342.964419 
L 348.549328 344.968902 
L 349.749973 343.06681 
L 350.950619 343.233744 
L 352.151264 348.589954 
L 353.35191 347.755487 
L 358.154492 347.755487 
L 359.355137 344.640049 
L 360.555783 346.220021 
L 361.756428 346.637162 
L 365.358365 346.35657 
L 366.55901 347.026443 
L 367.759656 348.54137 
L 368.960301 343.519803 
L 370.160947 344.368027 
L 373.762883 343.632933 
L 374.963529 343.799359 
L 376.164174 345.443177 
L 377.36482 348.994162 
L 378.565465 348.600333 
L 382.167402 348.862636 
L 383.368047 349.540944 
L 384.568693 348.997083 
L 385.769338 350.053777 
L 386.969984 351.712268 
L 392.973211 351.846904 
L 437.397095 351.846904 
L 440.999032 352.06954 
L 442.199677 349.822858 
L 443.400323 352.491273 
L 444.600968 353.17242 
L 445.801614 353.580344 
L 449.40355 352.401303 
L 450.604196 351.31375 
L 451.804841 352.171235 
L 453.005487 353.826834 
L 454.206132 355.074672 
L 457.808069 356.00482 
L 460.20936 356.00482 
L 461.410005 356.926625 
L 462.610651 356.746078 
L 467.413233 355.327987 
L 468.613878 354.070315 
L 469.814524 354.292937 
L 471.015169 353.328546 
L 474.617106 354.832231 
L 475.817751 352.944593 
L 477.018397 352.809967 
L 478.219042 354.292542 
L 479.419688 353.306291 
L 483.021625 353.72995 
L 484.22227 353.349288 
L 485.422916 355.363076 
L 486.623561 356.007902 
L 487.824207 355.258605 
L 491.426143 352.153831 
L 492.626789 347.741927 
L 493.827434 348.802067 
L 495.02808 348.983216 
L 496.228725 347.122838 
L 499.830662 347.289378 
L 501.031307 348.165464 
L 502.231953 345.986958 
L 503.432598 345.939967 
L 504.633244 347.37966 
L 508.23518 344.409918 
L 509.435826 344.304099 
L 510.636471 343.56901 
L 511.837117 342.534452 
L 513.037762 342.909972 
L 516.639699 341.367559 
L 517.840344 341.843317 
L 519.04099 339.267923 
L 520.241635 338.335455 
L 521.442281 336.737951 
L 525.044217 335.080442 
L 526.244863 335.215237 
L 527.445508 332.93937 
L 528.646154 333.768746 
L 529.846799 332.465041 
L 533.448736 330.189965 
L 534.649381 331.893723 
L 535.850027 335.642969 
L 537.050672 336.083639 
L 538.251318 335.195498 
L 541.853254 334.148377 
L 543.0539 333.192726 
L 545.455191 334.493021 
L 546.655836 332.088907 
L 550.257773 330.257838 
L 551.458419 325.638036 
L 552.659064 326.951471 
L 555.060355 319.45866 
L 558.662292 320.297921 
L 559.862937 318.286725 
L 561.063583 318.608688 
L 562.264228 312.332821 
L 563.464874 307.063486 
L 567.06681 308.535704 
L 568.267456 311.012927 
L 569.468101 304.347594 
L 570.668747 300.863496 
L 571.869392 297.951072 
L 575.471329 301.814168 
L 576.671974 301.954865 
L 577.87262 309.161847 
L 579.073265 298.766318 
L 580.273911 300.183481 
L 583.875847 303.42003 
L 585.076493 301.944682 
L 586.277138 292.740689 
L 587.477784 294.953792 
L 588.678429 293.064538 
L 592.280366 292.424011 
L 593.481011 289.181567 
L 594.681657 292.786049 
L 595.882302 292.719915 
L 597.082948 291.53505 
L 600.684884 291.021969 
L 601.88553 287.3006 
L 603.086175 284.454286 
L 604.286821 288.823693 
L 605.487466 283.486165 
L 609.089403 282.984254 
L 610.290048 280.288112 
L 621.095858 288.357981 
L 622.296503 290.695201 
L 625.89844 296.713232 
L 627.099086 292.35057 
L 628.299731 291.520165 
L 629.500377 298.014549 
L 630.701022 295.330611 
L 634.302959 289.857179 
L 635.503604 291.167062 
L 636.70425 290.740165 
L 637.904895 284.886344 
L 639.105541 280.957726 
L 642.707477 281.747091 
L 643.908123 276.416072 
L 645.108768 279.840281 
L 646.309414 284.484052 
L 647.510059 283.904565 
L 651.111996 290.151628 
L 652.312641 286.84437 
L 653.513287 283.98653 
L 654.713932 284.963018 
L 655.914578 285.131417 
L 659.516514 286.892668 
L 660.71716 287.810598 
L 661.917805 279.994952 
L 663.118451 284.154321 
L 664.319096 285.498549 
L 667.921033 290.007913 
L 669.121678 290.529642 
L 670.322324 292.09915 
L 671.522969 301.853936 
L 681.128133 301.853936 
L 684.73007 303.167311 
L 688.332006 303.167311 
L 689.532652 297.775696 
L 693.134588 298.728797 
L 694.335234 296.19642 
L 695.53588 300.68293 
L 706.341689 300.68293 
L 709.943626 302.155228 
L 711.144271 298.819728 
L 712.344917 298.083085 
L 713.545562 294.373489 
L 714.746208 296.032828 
L 718.348144 296.025434 
L 719.54879 288.889036 
L 720.749435 283.418575 
L 726.752663 272.570377 
L 727.953308 273.812595 
L 729.153954 266.69324 
L 730.354599 256.284735 
L 731.555245 238.879037 
L 735.157181 253.127865 
L 736.357827 250.723195 
L 737.558472 259.676171 
L 738.759118 261.01851 
L 739.959763 257.050482 
L 743.5617 263.795467 
L 744.762345 261.600278 
L 745.962991 255.492291 
L 747.163636 244.840012 
L 747.163636 244.840012 
" clip-path="url(#pa770603bd8)" style="fill: none; stroke: #ff7f0e; stroke-width: 1.5; stroke-linecap: square"/>
   </g>
   <g id="line2d_39">
    <path d="M 138.436364 341.309705 
L 181.659602 341.309705 
L 182.860247 342.704433 
L 184.060893 350.302633 
L 185.261538 346.333884 
L 188.863475 352.037789 
L 190.06412 354.629573 
L 191.264766 355.846417 
L 192.465412 345.082456 
L 193.666057 344.598518 
L 197.267994 343.679153 
L 198.468639 343.895504 
L 199.669285 346.255573 
L 200.86993 342.744285 
L 202.070576 342.951504 
L 205.672512 346.057215 
L 206.873158 348.105601 
L 208.073803 347.619224 
L 209.274449 349.10656 
L 210.475094 345.152461 
L 214.077031 338.086097 
L 215.277676 339.841195 
L 216.478322 333.344615 
L 217.678967 335.905323 
L 218.879613 334.909448 
L 222.481549 337.090818 
L 223.682195 335.857893 
L 226.083486 342.496712 
L 227.284131 343.302868 
L 230.886068 342.354473 
L 232.086713 341.880275 
L 233.287359 341.643176 
L 234.488004 347.333599 
L 235.68865 348.376854 
L 239.290586 348.756193 
L 240.491232 345.721287 
L 241.691877 347.0965 
L 242.892523 345.05742 
L 244.093168 343.634827 
L 247.695105 343.445157 
L 248.89575 344.440933 
L 326.937708 344.440933 
L 328.138354 343.854184 
L 331.74029 345.529304 
L 332.940936 342.967898 
L 334.141581 343.875965 
L 335.342227 341.4171 
L 336.542873 340.89356 
L 340.144809 343.455337 
L 341.345455 340.942941 
L 342.5461 341.275691 
L 343.746746 337.539711 
L 344.947391 338.647211 
L 348.549328 340.696806 
L 349.749973 338.751906 
L 350.950619 338.922597 
L 352.151264 344.399356 
L 353.35191 343.546108 
L 356.953846 343.864138 
L 358.154492 343.456102 
L 359.355137 340.269048 
L 360.555783 341.885339 
L 361.756428 342.312069 
L 365.358365 342.025027 
L 366.55901 342.710298 
L 367.759656 344.26005 
L 368.960301 339.123049 
L 370.160947 339.990772 
L 373.762883 339.23878 
L 374.963529 339.409031 
L 376.164174 341.090637 
L 377.36482 344.723251 
L 378.565465 344.320369 
L 382.167402 344.588701 
L 383.368047 345.282602 
L 384.568693 344.726239 
L 385.769338 345.807224 
L 386.969984 347.50384 
L 391.772566 347.621322 
L 392.973211 349.76929 
L 394.173857 367.438872 
L 434.995804 367.438872 
L 436.19645 368.255679 
L 437.397095 365.081552 
L 440.999032 365.288081 
L 442.199677 363.203934 
L 443.400323 365.679304 
L 444.600968 366.311174 
L 445.801614 366.689587 
L 449.40355 365.595842 
L 450.604196 364.586968 
L 451.804841 365.382419 
L 453.005487 366.918245 
L 454.206132 368.075808 
L 457.808069 368.938665 
L 459.008714 369.36 
L 460.20936 367.589745 
L 461.410005 368.451818 
L 462.610651 368.282971 
L 467.413233 366.956771 
L 468.613878 365.780595 
L 469.814524 365.988792 
L 471.015169 365.086892 
L 474.617106 366.49314 
L 475.817751 364.727819 
L 477.018397 364.601917 
L 478.219042 365.988422 
L 479.419688 365.066079 
L 483.021625 365.462286 
L 484.22227 365.10629 
L 485.422916 366.989586 
L 486.623561 367.592628 
L 487.824207 366.891884 
L 491.426143 363.988299 
L 492.626789 359.862283 
L 493.827434 360.853727 
L 495.02808 361.023138 
L 496.228725 359.283311 
L 499.830662 359.439059 
L 501.031307 360.258376 
L 502.231953 358.221035 
L 503.432598 358.177089 
L 504.633244 359.523491 
L 508.23518 356.746186 
L 509.435826 356.647225 
L 510.636471 355.959769 
L 511.837117 354.99225 
L 513.037762 355.343436 
L 516.639699 353.900971 
L 517.840344 354.3459 
L 519.04099 351.93739 
L 520.241635 351.065346 
L 521.442281 349.571358 
L 525.044217 348.021255 
L 526.244863 348.147315 
L 527.445508 346.018924 
L 528.646154 346.794556 
L 529.846799 345.575331 
L 533.448736 343.447679 
L 534.649381 345.041034 
L 535.850027 348.547331 
L 537.050672 348.959446 
L 538.251318 348.128856 
L 541.853254 347.149587 
L 543.0539 346.255862 
L 545.455191 347.471899 
L 546.655836 345.22357 
L 550.257773 343.511154 
L 551.458419 339.190712 
L 552.659064 340.419037 
L 555.060355 333.411755 
L 558.662292 334.196633 
L 559.862937 332.315762 
L 561.063583 332.616861 
L 562.264228 326.747667 
L 563.464874 321.819782 
L 567.06681 323.196601 
L 568.267456 325.513302 
L 569.468101 319.279878 
L 570.668747 316.021548 
L 571.869392 313.297847 
L 575.471329 316.910617 
L 576.671974 317.042197 
L 577.87262 323.782171 
L 579.073265 314.060266 
L 580.273911 315.385598 
L 583.875847 318.41242 
L 585.076493 317.032674 
L 586.277138 308.425094 
L 587.477784 310.494789 
L 588.678429 308.727958 
L 592.280366 308.128937 
L 593.481011 305.096601 
L 594.681657 308.467515 
L 595.882302 308.405666 
L 597.082948 307.29758 
L 600.684884 306.817746 
L 601.88553 303.337519 
L 603.086175 300.675645 
L 604.286821 304.761917 
L 605.487466 299.770258 
L 609.089403 299.300871 
L 610.290048 296.779437 
L 621.095858 304.326383 
L 622.296503 306.512153 
L 625.89844 312.140218 
L 627.099086 308.060255 
L 628.299731 307.283659 
L 629.500377 313.357211 
L 630.701022 310.847191 
L 634.302959 305.728433 
L 635.503604 306.953437 
L 636.70425 306.554203 
L 637.904895 301.079706 
L 639.105541 297.405661 
L 642.707477 298.143875 
L 643.908123 293.158303 
L 645.108768 296.360625 
L 646.309414 300.703482 
L 647.510059 300.161546 
L 651.111996 306.32664 
L 652.312641 302.338314 
L 653.513287 296.692464 
L 654.713932 295.337981 
L 655.914578 295.73109 
L 659.516514 298.0421 
L 660.71716 300.380915 
L 661.917805 292.458061 
L 663.118451 297.108054 
L 664.319096 297.61059 
L 667.921033 303.862826 
L 669.121678 300.947064 
L 670.322324 302.64377 
L 671.522969 314.482262 
L 672.723615 315.277756 
L 676.325551 310.805052 
L 677.526197 309.663014 
L 678.726842 310.060777 
L 679.927488 306.904326 
L 681.128133 302.971288 
L 685.930715 305.171072 
L 687.131361 304.208637 
L 689.532652 295.154625 
L 693.134588 297.135318 
L 694.335234 294.585478 
L 695.53588 298.506436 
L 696.736525 295.771969 
L 697.937171 296.474601 
L 701.539107 301.510325 
L 702.739753 294.035483 
L 703.940398 294.49561 
L 705.141044 291.089965 
L 706.341689 284.857557 
L 709.943626 286.277938 
L 711.144271 282.897555 
L 712.344917 281.90061 
L 713.545562 277.193938 
L 714.746208 279.510959 
L 718.348144 279.503053 
L 719.54879 271.872811 
L 720.749435 266.023791 
L 726.752663 254.424892 
L 727.953308 255.753072 
L 729.153954 248.141053 
L 730.354599 237.012273 
L 731.555245 218.402091 
L 735.157181 233.636946 
L 736.357827 231.065872 
L 737.558472 240.638398 
L 738.759118 242.073629 
L 739.959763 237.831011 
L 743.5617 245.042752 
L 744.762345 242.695655 
L 745.962991 236.164992 
L 747.163636 224.775569 
L 747.163636 224.775569 
" clip-path="url(#pa770603bd8)" style="fill: none; stroke: #2ca02c; stroke-width: 1.5; stroke-linecap: square"/>
   </g>
   <g id="line2d_40">
    <path d="M 138.436364 339.805864 
L 139.637009 340.418092 
L 140.837655 339.512362 
L 142.0383 342.113181 
L 143.238946 342.989938 
L 146.840882 343.053321 
L 148.041528 342.244656 
L 149.242173 342.759111 
L 150.442819 344.210556 
L 151.643464 344.2311 
L 157.646692 342.486386 
L 158.847337 342.917606 
L 160.047983 343.099216 
L 163.649919 333.40393 
L 164.850565 330.563702 
L 166.05121 320.864331 
L 167.251856 303.096519 
L 168.452501 269.028752 
L 172.054438 236.857788 
L 181.659602 274.27811 
L 182.860247 276.156054 
L 184.060893 286.386716 
L 185.261538 281.042959 
L 188.863475 288.723032 
L 190.06412 292.212763 
L 191.264766 293.851193 
L 192.465412 279.357963 
L 193.666057 278.70636 
L 197.267994 277.468474 
L 198.468639 277.759781 
L 199.669285 280.937516 
L 200.86993 276.209712 
L 202.070576 276.488724 
L 205.672512 280.670435 
L 206.873158 283.428504 
L 208.073803 282.773617 
L 209.274449 284.776254 
L 210.475094 279.452223 
L 214.077031 269.937655 
L 215.277676 272.300821 
L 216.478322 263.026935 
L 217.678967 266.16841 
L 218.879613 261.552536 
L 222.481549 263.276152 
L 223.682195 260.866454 
L 226.083486 275.162864 
L 227.284131 278.946488 
L 230.886068 274.384247 
L 232.086713 273.593149 
L 233.287359 273.432634 
L 234.488004 282.396868 
L 235.68865 283.335515 
L 239.290586 284.947687 
L 240.491232 279.592782 
L 241.691877 282.701526 
L 242.892523 278.311439 
L 244.093168 275.466663 
L 247.695105 276.100368 
L 248.89575 278.421174 
L 250.096396 278.23123 
L 251.297041 273.861122 
L 252.497687 275.013514 
L 256.099623 273.137129 
L 257.300269 273.634091 
L 258.500914 270.522147 
L 259.70156 276.868067 
L 260.902205 279.696125 
L 264.504142 279.28592 
L 265.704788 278.803094 
L 266.905433 277.841214 
L 268.106079 278.342124 
L 269.306724 279.515031 
L 272.908661 276.656209 
L 274.109306 277.39371 
L 275.309952 276.76521 
L 276.510597 277.133914 
L 277.711243 276.412966 
L 281.313179 282.19569 
L 282.513825 290.730944 
L 284.915116 294.457638 
L 286.115761 295.076071 
L 289.717698 293.387005 
L 290.918343 294.908025 
L 292.118989 294.972855 
L 293.319634 298.314103 
L 294.52028 298.533974 
L 298.122216 289.77624 
L 299.322862 292.723876 
L 300.523507 291.99552 
L 301.724153 290.622994 
L 302.924798 287.858645 
L 306.526735 287.222041 
L 307.72738 289.016008 
L 308.928026 289.085931 
L 310.128671 286.161395 
L 311.329317 290.197888 
L 314.931253 291.065118 
L 325.737063 286.282714 
L 326.937708 281.466565 
L 328.138354 280.685694 
L 331.74029 282.915015 
L 332.940936 279.506186 
L 334.141581 280.714681 
L 335.342227 277.442317 
L 336.542873 276.745568 
L 340.144809 280.154891 
L 341.345455 276.811287 
L 342.5461 277.254125 
L 343.746746 272.282122 
L 344.947391 273.75603 
L 348.549328 276.48372 
L 349.749973 273.895363 
L 350.950619 274.122525 
L 352.151264 281.411232 
L 353.35191 280.275694 
L 356.953846 280.698941 
L 358.154492 280.155909 
L 359.355137 275.91444 
L 360.555783 278.065471 
L 361.756428 278.633381 
L 365.358365 278.251373 
L 366.55901 279.163362 
L 367.759656 281.225838 
L 368.960301 274.389296 
L 370.160947 275.544099 
L 373.762883 274.543316 
L 374.963529 274.769894 
L 376.164174 277.007847 
L 377.36482 281.842285 
L 378.565465 281.306113 
L 382.167402 281.663221 
L 383.368047 282.586693 
L 384.568693 281.846262 
L 385.769338 283.284883 
L 386.969984 285.542813 
L 391.772566 285.699163 
L 392.973211 288.557771 
L 394.173857 312.073211 
L 398.976439 309.199081 
L 400.177084 306.922505 
L 401.37773 302.516678 
L 402.578375 300.375287 
L 403.779021 299.945249 
L 407.380958 299.977646 
L 408.581603 301.129707 
L 409.782249 300.851497 
L 410.982894 300.236466 
L 412.18354 298.302494 
L 415.785476 298.76871 
L 416.986122 297.404114 
L 418.186767 298.146319 
L 419.387413 297.339734 
L 420.588058 298.388958 
L 424.189995 298.788443 
L 425.39064 297.763803 
L 426.591286 294.346959 
L 433.795159 293.055137 
L 434.995804 290.258046 
L 436.19645 291.451566 
L 437.397095 286.813525 
L 440.999032 287.115306 
L 442.199677 284.069948 
L 443.400323 287.686962 
L 444.600968 288.610251 
L 445.801614 289.163189 
L 449.40355 287.565008 
L 450.604196 286.090839 
L 451.804841 287.253153 
L 453.005487 289.497304 
L 454.206132 291.188738 
L 457.808069 292.449546 
L 459.008714 293.065201 
L 460.20936 290.478502 
L 461.410005 291.738164 
L 462.610651 291.491444 
L 467.413233 289.553598 
L 468.613878 287.834969 
L 469.814524 288.139186 
L 471.015169 286.821329 
L 474.617106 288.87614 
L 475.817751 286.29665 
L 477.018397 286.112682 
L 478.219042 288.138645 
L 479.419688 286.790917 
L 483.021625 287.369854 
L 484.22227 286.849673 
L 485.422916 289.601548 
L 486.623561 290.482714 
L 487.824207 289.458787 
L 491.426143 285.216062 
L 492.626789 279.187122 
L 493.827434 280.63582 
L 495.02808 280.883364 
L 496.228725 278.341126 
L 499.830662 278.568706 
L 501.031307 279.765892 
L 502.231953 276.788927 
L 503.432598 276.724713 
L 504.633244 278.692078 
L 508.23518 274.633876 
L 509.435826 274.489272 
L 510.636471 273.484761 
L 511.837117 272.07102 
L 513.037762 272.584174 
L 516.639699 270.476442 
L 517.840344 271.126572 
L 519.04099 267.607254 
L 520.241635 266.333021 
L 521.442281 264.150005 
L 525.044217 261.884992 
L 526.244863 262.069191 
L 527.445508 258.959181 
L 528.646154 260.092536 
L 529.846799 258.311002 
L 533.448736 255.202074 
L 534.649381 257.530287 
L 535.850027 262.653694 
L 537.050672 263.255877 
L 538.251318 262.042218 
L 541.853254 260.611309 
L 543.0539 259.305396 
L 544.254545 260.281674 
L 545.455191 261.08227 
L 546.655836 257.797009 
L 550.257773 255.294823 
L 551.458419 248.981787 
L 552.659064 250.776617 
L 555.060355 240.537566 
L 558.662292 241.684431 
L 559.862937 238.936098 
L 561.063583 239.376065 
L 562.264228 230.799988 
L 563.464874 223.599355 
L 567.06681 225.611165 
L 568.267456 228.996332 
L 569.468101 219.888043 
L 570.668747 215.126965 
L 571.869392 211.147089 
L 575.471329 216.426074 
L 576.671974 216.618339 
L 577.87262 226.4668 
L 579.073265 212.261137 
L 580.273911 214.197713 
L 583.875847 218.620511 
L 585.076493 216.604424 
L 586.277138 204.027014 
L 587.477784 207.051256 
L 588.678429 204.46956 
L 592.280366 203.594269 
L 593.481011 199.163415 
L 594.681657 204.088999 
L 595.882302 203.998626 
L 597.082948 202.379488 
L 600.684884 201.678354 
L 601.88553 196.593041 
L 603.086175 192.703507 
L 604.286821 198.674374 
L 605.487466 191.380553 
L 609.089403 190.694683 
L 610.290048 187.010361 
L 621.095858 198.037971 
L 622.296503 201.231821 
L 625.89844 209.455559 
L 627.099086 203.49391 
L 628.299731 202.359147 
L 629.500377 211.233832 
L 630.701022 207.566186 
L 634.302959 200.086649 
L 635.503604 201.876626 
L 636.70425 201.293265 
L 637.904895 193.29392 
L 639.105541 187.9254 
L 642.707477 189.004079 
L 643.908123 181.719153 
L 645.108768 186.398391 
L 646.309414 192.744182 
L 647.510059 191.952303 
L 651.111996 201.203576 
L 652.312641 195.915225 
L 653.513287 193.251815 
L 654.713932 195.847972 
L 655.914578 194.729895 
L 659.516514 196.54054 
L 660.71716 198.361863 
L 661.917805 190.008548 
L 663.118451 194.49311 
L 664.319096 199.660143 
L 667.921033 204.171687 
L 669.121678 207.109183 
L 670.322324 209.411039 
L 671.522969 220.732954 
L 672.723615 215.429078 
L 676.325551 208.720935 
L 677.526197 205.532862 
L 678.726842 207.45728 
L 679.927488 205.518328 
L 681.128133 205.450151 
L 684.73007 207.80728 
L 685.930715 208.36942 
L 687.131361 207.869537 
L 688.332006 202.482748 
L 689.532652 195.223358 
L 693.134588 197.6882 
L 694.335234 193.402761 
L 695.53588 200.596395 
L 696.736525 195.804055 
L 697.937171 197.693587 
L 701.539107 205.347075 
L 702.739753 193.810149 
L 703.940398 195.700703 
L 705.141044 191.260195 
L 706.341689 181.480039 
L 709.943626 183.559309 
L 711.144271 181.048824 
L 712.344917 182.103349 
L 713.545562 177.318556 
L 714.746208 180.780009 
L 718.348144 183.90195 
L 719.54879 167.35933 
L 720.749435 159.192929 
L 726.752663 139.61502 
L 727.953308 145.273452 
L 729.153954 124.037458 
L 730.354599 105.582504 
L 731.555245 66.96 
L 735.157181 100.95618 
L 736.357827 97.098758 
L 737.558472 124.450596 
L 738.759118 124.620829 
L 739.959763 114.967582 
L 743.5617 129.972117 
L 744.762345 130.797152 
L 745.962991 116.331626 
L 747.163636 92.996208 
L 747.163636 92.996208 
" clip-path="url(#pa770603bd8)" style="fill: none; stroke: #d62728; stroke-width: 1.5; stroke-linecap: square"/>
   </g>
   <g id="line2d_41">
    <path d="M 138.436364 341.309705 
L 181.659602 341.309705 
L 182.860247 342.704433 
L 184.060893 350.302633 
L 185.261538 346.333884 
L 188.863475 352.037789 
L 190.06412 354.629573 
L 191.264766 355.846417 
L 192.465412 345.082456 
L 193.666057 344.598518 
L 197.267994 343.679153 
L 198.468639 343.895504 
L 199.669285 346.255573 
L 200.86993 342.744285 
L 202.070576 342.951504 
L 205.672512 346.057215 
L 206.873158 348.105601 
L 208.073803 347.619224 
L 209.274449 349.10656 
L 210.475094 345.152461 
L 214.077031 338.086097 
L 215.277676 339.841195 
L 216.478322 333.344615 
L 217.678967 335.905323 
L 218.879613 334.909448 
L 222.481549 337.090818 
L 223.682195 335.857893 
L 226.083486 342.496712 
L 227.284131 343.302868 
L 230.886068 342.354473 
L 232.086713 341.880275 
L 233.287359 341.643176 
L 234.488004 347.333599 
L 235.68865 348.376854 
L 239.290586 348.756193 
L 240.491232 345.721287 
L 241.691877 347.0965 
L 242.892523 345.05742 
L 244.093168 343.634827 
L 247.695105 343.445157 
L 248.89575 344.440933 
L 360.555783 344.440933 
L 361.756428 344.86201 
L 365.358365 344.57877 
L 366.55901 345.254963 
L 367.759656 346.784183 
L 368.960301 341.715239 
L 370.160947 342.571465 
L 373.762883 341.829436 
L 374.963529 341.997432 
L 376.164174 343.656759 
L 377.36482 347.241247 
L 378.565465 346.843703 
L 382.167402 347.108481 
L 383.368047 347.793188 
L 384.568693 347.244196 
L 385.769338 348.31086 
L 386.969984 349.984998 
L 392.973211 350.120904 
L 437.397095 350.120904 
L 440.999032 350.345641 
L 442.199677 348.077762 
L 443.400323 350.771353 
L 444.600968 351.458926 
L 445.801614 351.870699 
L 449.40355 350.680534 
L 450.604196 349.58272 
L 451.804841 350.448295 
L 453.005487 352.119515 
L 454.206132 353.379126 
L 457.808069 354.31805 
L 460.20936 354.31805 
L 461.410005 355.248552 
L 462.610651 355.066301 
L 467.413233 353.63483 
L 468.613878 352.365293 
L 469.814524 352.590015 
L 471.015169 351.616525 
L 474.617106 353.134398 
L 475.817751 351.228949 
L 477.018397 351.093054 
L 478.219042 352.589616 
L 479.419688 351.59406 
L 483.021625 352.021716 
L 484.22227 351.637463 
L 485.422916 353.670251 
L 486.623561 354.321161 
L 487.824207 353.564794 
L 491.426143 350.430728 
L 492.626789 345.977198 
L 493.827434 347.04734 
L 495.02808 347.230198 
L 496.228725 345.352267 
L 499.830662 345.520379 
L 501.031307 346.404731 
L 502.231953 344.205671 
L 503.432598 344.158236 
L 504.633244 345.611513 
L 508.23518 342.613752 
L 509.435826 342.506934 
L 510.636471 341.76491 
L 511.837117 340.720591 
L 513.037762 341.099654 
L 516.639699 339.542689 
L 517.840344 340.022935 
L 519.04099 337.423243 
L 520.241635 336.481978 
L 521.442281 334.869401 
L 525.044217 333.196254 
L 526.244863 333.33232 
L 527.445508 331.034981 
L 528.646154 331.872182 
L 529.846799 330.556177 
L 533.448736 328.259636 
L 534.649381 329.979469 
L 535.850027 333.764088 
L 537.050672 334.208916 
L 538.251318 333.312395 
L 541.853254 332.255395 
L 543.0539 331.290728 
L 544.254545 332.011896 
L 545.455191 332.60329 
L 546.655836 330.176494 
L 550.257773 328.32815 
L 551.458419 323.66476 
L 552.659064 324.990587 
L 555.060355 317.427082 
L 558.662292 318.274262 
L 559.862937 316.244091 
L 561.063583 316.569091 
L 562.264228 310.234012 
L 563.464874 304.914963 
L 567.06681 306.401071 
L 568.267456 308.901666 
L 569.468101 302.173447 
L 570.668747 298.656477 
L 571.869392 295.716574 
L 575.471329 299.616118 
L 576.671974 299.758143 
L 577.87262 307.033122 
L 579.073265 296.539513 
L 580.273911 297.970046 
L 583.875847 301.237131 
L 585.076493 299.747864 
L 586.277138 290.457033 
L 587.477784 292.691016 
L 588.678429 290.783937 
L 592.280366 290.137367 
L 593.481011 286.864331 
L 594.681657 290.502821 
L 595.882302 290.436062 
L 597.082948 289.240018 
L 600.684884 288.722096 
L 601.88553 284.965617 
L 603.086175 282.092449 
L 604.286821 286.50308 
L 605.487466 281.115194 
L 609.089403 280.608547 
L 610.290048 277.886968 
L 621.095858 286.032975 
L 622.296503 288.392246 
L 625.89844 294.467055 
L 627.099086 290.063233 
L 628.299731 289.224993 
L 629.500377 295.780651 
L 630.701022 293.07139 
L 634.302959 287.546317 
L 635.503604 288.868558 
L 636.70425 288.437634 
L 637.904895 282.528583 
L 639.105541 278.5629 
L 642.707477 279.359712 
L 643.908123 273.978395 
L 645.108768 277.434911 
L 646.309414 282.122495 
L 647.510059 281.537541 
L 651.111996 287.451645 
L 652.312641 279.926909 
L 653.513287 275.367587 
L 654.713932 273.822958 
L 655.914578 275.572091 
L 659.516514 277.358864 
L 660.71716 282.191505 
L 661.917805 275.451605 
L 663.118451 280.534955 
L 664.319096 282.289317 
L 667.921033 288.194078 
L 669.121678 287.940487 
L 670.322324 291.064805 
L 671.522969 302.232112 
L 681.128133 302.232112 
L 684.73007 303.896552 
L 688.332006 303.896552 
L 689.532652 298.852614 
L 693.134588 300.565225 
L 694.335234 297.587635 
L 695.53588 302.585884 
L 706.341689 302.585884 
L 709.943626 303.952424 
L 711.144271 302.302481 
L 712.344917 302.995536 
L 713.545562 299.850869 
L 714.746208 302.125809 
L 718.348144 304.177615 
L 719.54879 293.305455 
L 720.749435 287.938324 
L 726.752663 275.071308 
L 727.953308 278.790149 
L 729.153954 264.833405 
L 730.354599 252.704418 
L 731.555245 227.320891 
L 735.157181 249.6639 
L 736.357827 247.128721 
L 737.558472 265.104928 
L 738.759118 265.216808 
L 739.959763 258.87249 
L 743.5617 268.733788 
L 744.762345 269.276019 
L 745.962991 259.768969 
L 747.163636 244.432438 
L 747.163636 244.432438 
" clip-path="url(#pa770603bd8)" style="fill: none; stroke: #9467bd; stroke-width: 1.5; stroke-linecap: square"/>
   </g>
   <g id="patch_3">
    <path d="M 108 384.48 
L 108 51.84 
" style="fill: none; stroke: #000000; stroke-width: 0.8; stroke-linejoin: miter; stroke-linecap: square"/>
   </g>
   <g id="patch_4">
    <path d="M 777.6 384.48 
L 777.6 51.84 
" style="fill: none; stroke: #000000; stroke-width: 0.8; stroke-linejoin: miter; stroke-linecap: square"/>
   </g>
   <g id="patch_5">
    <path d="M 108 384.48 
L 777.6 384.48 
" style="fill: none; stroke: #000000; stroke-width: 0.8; stroke-linejoin: miter; stroke-linecap: square"/>
   </g>
   <g id="patch_6">
    <path d="M 108 51.84 
L 777.6 51.84 
" style="fill: none; stroke: #000000; stroke-width: 0.8; stroke-linejoin: miter; stroke-linecap: square"/>
   </g>
   <g id="text_19">
    <!-- Advanced Yield Optimization -->
    <g transform="translate(356.684062 45.84) scale(0.12 -0.12)">
     <defs>
      <path id="DejaVuSans-41" d="M 2188 4044 
L 1331 1722 
L 3047 1722 
L 2188 4044 
z
M 1831 4666 
L 2547 4666 
L 4325 0 
L 3669 0 
L 3244 1197 
L 1141 1197 
L 716 0 
L 50 0 
L 1831 4666 
z
" transform="scale(0.015625)"/>
      <path id="DejaVuSans-64" d="M 2906 2969 
L 2906 4863 
L 3481 4863 
L 3481 0 
L 2906 0 
L 2906 525 
Q 2725 213 2448 61 
Q 2172 -91 1784 -91 
Q 1150 -91 751 415 
Q 353 922 353 1747 
Q 353 2572 751 3078 
Q 1150 3584 1784 3584 
Q 2172 3584 2448 3432 
Q 2725 3281 2906 2969 
z
M 947 1747 
Q 947 1113 1208 752 
Q 1469 391 1925 391 
Q 2381 391 2643 752 
Q 2906 1113 2906 1747 
Q 2906 2381 2643 2742 
Q 2381 3103 1925 3103 
Q 1469 3103 1208 2742 
Q 947 2381 947 1747 
z
" transform="scale(0.015625)"/>
      <path id="DejaVuSans-76" d="M 191 3500 
L 800 3500 
L 1894 563 
L 2988 3500 
L 3597 3500 
L 2284 0 
L 1503 0 
L 191 3500 
z
" transform="scale(0.015625)"/>
      <path id="DejaVuSans-61" d="M 2194 1759 
Q 1497 1759 1228 1600 
Q 959 1441 959 1056 
Q 959 750 1161 570 
Q 1363 391 1709 391 
Q 2188 391 2477 730 
Q 2766 1069 2766 1631 
L 2766 1759 
L 2194 1759 
z
M 3341 1997 
L 3341 0 
L 2766 0 
L 2766 531 
Q 2569 213 2275 61 
Q 1981 -91 1556 -91 
Q 1019 -91 701 211 
Q 384 513 384 1019 
Q 384 1609 779 1909 
Q 1175 2209 1959 2209 
L 2766 2209 
L 2766 2266 
Q 2766 2663 2505 2880 
Q 2244 3097 1772 3097 
Q 1472 3097 1187 3025 
Q 903 2953 641 2809 
L 641 3341 
Q 956 3463 1253 3523 
Q 1550 3584 1831 3584 
Q 2591 3584 2966 3190 
Q 3341 2797 3341 1997 
z
" transform="scale(0.015625)"/>
      <path id="DejaVuSans-6e" d="M 3513 2113 
L 3513 0 
L 2938 0 
L 2938 2094 
Q 2938 2591 2744 2837 
Q 2550 3084 2163 3084 
Q 1697 3084 1428 2787 
Q 1159 2491 1159 1978 
L 1159 0 
L 581 0 
L 581 3500 
L 1159 3500 
L 1159 2956 
Q 1366 3272 1645 3428 
Q 1925 3584 2291 3584 
Q 2894 3584 3203 3211 
Q 3513 2838 3513 2113 
z
" transform="scale(0.015625)"/>
      <path id="DejaVuSans-63" d="M 3122 3366 
L 3122 2828 
Q 2878 2963 2633 3030 
Q 2388 3097 2138 3097 
Q 1578 3097 1268 2742 
Q 959 2388 959 1747 
Q 959 1106 1268 751 
Q 1578 397 2138 397 
Q 2388 397 2633 464 
Q 2878 531 3122 666 
L 3122 134 
Q 2881 22 2623 -34 
Q 2366 -91 2075 -91 
Q 1284 -91 818 406 
Q 353 903 353 1747 
Q 353 2603 823 3093 
Q 1294 3584 2113 3584 
Q 2378 3584 2631 3529 
Q 2884 3475 3122 3366 
z
" transform="scale(0.015625)"/>
      <path id="DejaVuSans-65" d="M 3597 1894 
L 3597 1613 
L 953 1613 
Q 991 1019 1311 708 
Q 1631 397 2203 397 
Q 2534 397 2845 478 
Q 3156 559 3463 722 
L 3463 178 
Q 3153 47 2828 -22 
Q 2503 -91 2169 -91 
Q 1331 -91 842 396 
Q 353 884 353 1716 
Q 353 2575 817 3079 
Q 1281 3584 2069 3584 
Q 2775 3584 3186 3129 
Q 3597 2675 3597 1894 
z
M 3022 2063 
Q 3016 2534 2758 2815 
Q 2500 3097 2075 3097 
Q 1594 3097 1305 2825 
Q 1016 2553 972 2059 
L 3022 2063 
z
" transform="scale(0.015625)"/>
      <path id="DejaVuSans-20" transform="scale(0.015625)"/>
      <path id="DejaVuSans-59" d="M -13 4666 
L 666 4666 
L 1959 2747 
L 3244 4666 
L 3922 4666 
L 2272 2222 
L 2272 0 
L 1638 0 
L 1638 2222 
L -13 4666 
z
" transform="scale(0.015625)"/>
      <path id="DejaVuSans-69" d="M 603 3500 
L 1178 3500 
L 1178 0 
L 603 0 
L 603 3500 
z
M 603 4863 
L 1178 4863 
L 1178 4134 
L 603 4134 
L 603 4863 
z
" transform="scale(0.015625)"/>
      <path id="DejaVuSans-6c" d="M 603 4863 
L 1178 4863 
L 1178 0 
L 603 0 
L 603 4863 
z
" transform="scale(0.015625)"/>
      <path id="DejaVuSans-4f" d="M 2522 4238 
Q 1834 4238 1429 3725 
Q 1025 3213 1025 2328 
Q 1025 1447 1429 934 
Q 1834 422 2522 422 
Q 3209 422 3611 934 
Q 4013 1447 4013 2328 
Q 4013 3213 3611 3725 
Q 3209 4238 2522 4238 
z
M 2522 4750 
Q 3503 4750 4090 4092 
Q 4678 3434 4678 2328 
Q 4678 1225 4090 567 
Q 3503 -91 2522 -91 
Q 1538 -91 948 565 
Q 359 1222 359 2328 
Q 359 3434 948 4092 
Q 1538 4750 2522 4750 
z
" transform="scale(0.015625)"/>
      <path id="DejaVuSans-70" d="M 1159 525 
L 1159 -1331 
L 581 -1331 
L 581 3500 
L 1159 3500 
L 1159 2969 
Q 1341 3281 1617 3432 
Q 1894 3584 2278 3584 
Q 2916 3584 3314 3078 
Q 3713 2572 3713 1747 
Q 3713 922 3314 415 
Q 2916 -91 2278 -91 
Q 1894 -91 1617 61 
Q 1341 213 1159 525 
z
M 3116 1747 
Q 3116 2381 2855 2742 
Q 2594 3103 2138 3103 
Q 1681 3103 1420 2742 
Q 1159 2381 1159 1747 
Q 1159 1113 1420 752 
Q 1681 391 2138 391 
Q 2594 391 2855 752 
Q 3116 1113 3116 1747 
z
" transform="scale(0.015625)"/>
      <path id="DejaVuSans-74" d="M 1172 4494 
L 1172 3500 
L 2356 3500 
L 2356 3053 
L 1172 3053 
L 1172 1153 
Q 1172 725 1289 603 
Q 1406 481 1766 481 
L 2356 481 
L 2356 0 
L 1766 0 
Q 1100 0 847 248 
Q 594 497 594 1153 
L 594 3053 
L 172 3053 
L 172 3500 
L 594 3500 
L 594 4494 
L 1172 4494 
z
" transform="scale(0.015625)"/>
      <path id="DejaVuSans-6d" d="M 3328 2828 
Q 3544 3216 3844 3400 
Q 4144 3584 4550 3584 
Q 5097 3584 5394 3201 
Q 5691 2819 5691 2113 
L 5691 0 
L 5113 0 
L 5113 2094 
Q 5113 2597 4934 2840 
Q 4756 3084 4391 3084 
Q 3944 3084 3684 2787 
Q 3425 2491 3425 1978 
L 3425 0 
L 2847 0 
L 2847 2094 
Q 2847 2600 2669 2842 
Q 2491 3084 2119 3084 
Q 1678 3084 1418 2786 
Q 1159 2488 1159 1978 
L 1159 0 
L 581 0 
L 581 3500 
L 1159 3500 
L 1159 2956 
Q 1356 3278 1631 3431 
Q 1906 3584 2284 3584 
Q 2666 3584 2933 3390 
Q 3200 3197 3328 2828 
z
" transform="scale(0.015625)"/>
      <path id="DejaVuSans-7a" d="M 353 3500 
L 3084 3500 
L 3084 2975 
L 922 459 
L 3084 459 
L 3084 0 
L 275 0 
L 275 525 
L 2438 3041 
L 353 3041 
L 353 3500 
z
" transform="scale(0.015625)"/>
      <path id="DejaVuSans-6f" d="M 1959 3097 
Q 1497 3097 1228 2736 
Q 959 2375 959 1747 
Q 959 1119 1226 758 
Q 1494 397 1959 397 
Q 2419 397 2687 759 
Q 2956 1122 2956 1747 
Q 2956 2369 2687 2733 
Q 2419 3097 1959 3097 
z
M 1959 3584 
Q 2709 3584 3137 3096 
Q 3566 2609 3566 1747 
Q 3566 888 3137 398 
Q 2709 -91 1959 -91 
Q 1206 -91 779 398 
Q 353 888 353 1747 
Q 353 2609 779 3096 
Q 1206 3584 1959 3584 
z
" transform="scale(0.015625)"/>
     </defs>
     <use xlink:href="#DejaVuSans-41"/>
     <use xlink:href="#DejaVuSans-64" transform="translate(66.658203 0)"/>
     <use xlink:href="#DejaVuSans-76" transform="translate(130.134766 0)"/>
     <use xlink:href="#DejaVuSans-61" transform="translate(189.314453 0)"/>
     <use xlink:href="#DejaVuSans-6e" transform="translate(250.59375 0)"/>
     <use xlink:href="#DejaVuSans-63" transform="translate(313.972656 0)"/>
     <use xlink:href="#DejaVuSans-65" transform="translate(368.953125 0)"/>
     <use xlink:href="#DejaVuSans-64" transform="translate(430.476562 0)"/>
     <use xlink:href="#DejaVuSans-20" transform="translate(493.953125 0)"/>
     <use xlink:href="#DejaVuSans-59" transform="translate(525.740234 0)"/>
     <use xlink:href="#DejaVuSans-69" transform="translate(583.199219 0)"/>
     <use xlink:href="#DejaVuSans-65" transform="translate(610.982422 0)"/>
     <use xlink:href="#DejaVuSans-6c" transform="translate(672.505859 0)"/>
     <use xlink:href="#DejaVuSans-64" transform="translate(700.289062 0)"/>
     <use xlink:href="#DejaVuSans-20" transform="translate(763.765625 0)"/>
     <use xlink:href="#DejaVuSans-4f" transform="translate(795.552734 0)"/>
     <use xlink:href="#DejaVuSans-70" transform="translate(874.263672 0)"/>
     <use xlink:href="#DejaVuSans-74" transform="translate(937.740234 0)"/>
     <use xlink:href="#DejaVuSans-69" transform="translate(976.949219 0)"/>
     <use xlink:href="#DejaVuSans-6d" transform="translate(1004.732422 0)"/>
     <use xlink:href="#DejaVuSans-69" transform="translate(1102.144531 0)"/>
     <use xlink:href="#DejaVuSans-7a" transform="translate(1129.927734 0)"/>
     <use xlink:href="#DejaVuSans-61" transform="translate(1182.417969 0)"/>
     <use xlink:href="#DejaVuSans-74" transform="translate(1243.697266 0)"/>
     <use xlink:href="#DejaVuSans-69" transform="translate(1282.90625 0)"/>
     <use xlink:href="#DejaVuSans-6f" transform="translate(1310.689453 0)"/>
     <use xlink:href="#DejaVuSans-6e" transform="translate(1371.871094 0)"/>
    </g>
   </g>
   <g id="legend_1">
    <g id="patch_7">
     <path d="M 115 133.230625 
L 303.11875 133.230625 
Q 305.11875 133.230625 305.11875 131.230625 
L 305.11875 58.84 
Q 305.11875 56.84 303.11875 56.84 
L 115 56.84 
Q 113 56.84 113 58.84 
L 113 131.230625 
Q 113 133.230625 115 133.230625 
z
" style="fill: #ffffff; opacity: 0.8; stroke: #cccccc; stroke-linejoin: miter"/>
    </g>
    <g id="line2d_42">
     <path d="M 117 64.938437 
L 127 64.938437 
L 137 64.938437 
" style="fill: none; stroke: #1f77b4; stroke-width: 1.5; stroke-linecap: square"/>
    </g>
    <g id="text_20">
     <!-- Baseline (T=20, Top10) (131%) -->
     <g transform="translate(145 68.438437) scale(0.1 -0.1)">
      <defs>
       <path id="DejaVuSans-42" d="M 1259 2228 
L 1259 519 
L 2272 519 
Q 2781 519 3026 730 
Q 3272 941 3272 1375 
Q 3272 1813 3026 2020 
Q 2781 2228 2272 2228 
L 1259 2228 
z
M 1259 4147 
L 1259 2741 
L 2194 2741 
Q 2656 2741 2882 2914 
Q 3109 3088 3109 3444 
Q 3109 3797 2882 3972 
Q 2656 4147 2194 4147 
L 1259 4147 
z
M 628 4666 
L 2241 4666 
Q 2963 4666 3353 4366 
Q 3744 4066 3744 3513 
Q 3744 3084 3544 2831 
Q 3344 2578 2956 2516 
Q 3422 2416 3680 2098 
Q 3938 1781 3938 1306 
Q 3938 681 3513 340 
Q 3088 0 2303 0 
L 628 0 
L 628 4666 
z
" transform="scale(0.015625)"/>
       <path id="DejaVuSans-73" d="M 2834 3397 
L 2834 2853 
Q 2591 2978 2328 3040 
Q 2066 3103 1784 3103 
Q 1356 3103 1142 2972 
Q 928 2841 928 2578 
Q 928 2378 1081 2264 
Q 1234 2150 1697 2047 
L 1894 2003 
Q 2506 1872 2764 1633 
Q 3022 1394 3022 966 
Q 3022 478 2636 193 
Q 2250 -91 1575 -91 
Q 1294 -91 989 -36 
Q 684 19 347 128 
L 347 722 
Q 666 556 975 473 
Q 1284 391 1588 391 
Q 1994 391 2212 530 
Q 2431 669 2431 922 
Q 2431 1156 2273 1281 
Q 2116 1406 1581 1522 
L 1381 1569 
Q 847 1681 609 1914 
Q 372 2147 372 2553 
Q 372 3047 722 3315 
Q 1072 3584 1716 3584 
Q 2034 3584 2315 3537 
Q 2597 3491 2834 3397 
z
" transform="scale(0.015625)"/>
       <path id="DejaVuSans-28" d="M 1984 4856 
Q 1566 4138 1362 3434 
Q 1159 2731 1159 2009 
Q 1159 1288 1364 580 
Q 1569 -128 1984 -844 
L 1484 -844 
Q 1016 -109 783 600 
Q 550 1309 550 2009 
Q 550 2706 781 3412 
Q 1013 4119 1484 4856 
L 1984 4856 
z
" transform="scale(0.015625)"/>
       <path id="DejaVuSans-54" d="M -19 4666 
L 3928 4666 
L 3928 4134 
L 2272 4134 
L 2272 0 
L 1638 0 
L 1638 4134 
L -19 4134 
L -19 4666 
z
" transform="scale(0.015625)"/>
       <path id="DejaVuSans-3d" d="M 678 2906 
L 4684 2906 
L 4684 2381 
L 678 2381 
L 678 2906 
z
M 678 1631 
L 4684 1631 
L 4684 1100 
L 678 1100 
L 678 1631 
z
" transform="scale(0.015625)"/>
       <path id="DejaVuSans-2c" d="M 750 794 
L 1409 794 
L 1409 256 
L 897 -744 
L 494 -744 
L 750 256 
L 750 794 
z
" transform="scale(0.015625)"/>
       <path id="DejaVuSans-29" d="M 513 4856 
L 1013 4856 
Q 1481 4119 1714 3412 
Q 1947 2706 1947 2009 
Q 1947 1309 1714 600 
Q 1481 -109 1013 -844 
L 513 -844 
Q 928 -128 1133 580 
Q 1338 1288 1338 2009 
Q 1338 2731 1133 3434 
Q 928 4138 513 4856 
z
" transform="scale(0.015625)"/>
       <path id="DejaVuSans-25" d="M 4653 2053 
Q 4381 2053 4226 1822 
Q 4072 1591 4072 1178 
Q 4072 772 4226 539 
Q 4381 306 4653 306 
Q 4919 306 5073 539 
Q 5228 772 5228 1178 
Q 5228 1588 5073 1820 
Q 4919 2053 4653 2053 
z
M 4653 2450 
Q 5147 2450 5437 2106 
Q 5728 1763 5728 1178 
Q 5728 594 5436 251 
Q 5144 -91 4653 -91 
Q 4153 -91 3862 251 
Q 3572 594 3572 1178 
Q 3572 1766 3864 2108 
Q 4156 2450 4653 2450 
z
M 1428 4353 
Q 1159 4353 1004 4120 
Q 850 3888 850 3481 
Q 850 3069 1003 2837 
Q 1156 2606 1428 2606 
Q 1700 2606 1854 2837 
Q 2009 3069 2009 3481 
Q 2009 3884 1853 4118 
Q 1697 4353 1428 4353 
z
M 4250 4750 
L 4750 4750 
L 1831 -91 
L 1331 -91 
L 4250 4750 
z
M 1428 4750 
Q 1922 4750 2215 4408 
Q 2509 4066 2509 3481 
Q 2509 2891 2217 2550 
Q 1925 2209 1428 2209 
Q 931 2209 642 2551 
Q 353 2894 353 3481 
Q 353 4063 643 4406 
Q 934 4750 1428 4750 
z
" transform="scale(0.015625)"/>
      </defs>
      <use xlink:href="#DejaVuSans-42"/>
      <use xlink:href="#DejaVuSans-61" transform="translate(68.603516 0)"/>
      <use xlink:href="#DejaVuSans-73" transform="translate(129.882812 0)"/>
      <use xlink:href="#DejaVuSans-65" transform="translate(181.982422 0)"/>
      <use xlink:href="#DejaVuSans-6c" transform="translate(243.505859 0)"/>
      <use xlink:href="#DejaVuSans-69" transform="translate(271.289062 0)"/>
      <use xlink:href="#DejaVuSans-6e" transform="translate(299.072266 0)"/>
      <use xlink:href="#DejaVuSans-65" transform="translate(362.451172 0)"/>
      <use xlink:href="#DejaVuSans-20" transform="translate(423.974609 0)"/>
      <use xlink:href="#DejaVuSans-28" transform="translate(455.761719 0)"/>
      <use xlink:href="#DejaVuSans-54" transform="translate(494.775391 0)"/>
      <use xlink:href="#DejaVuSans-3d" transform="translate(555.859375 0)"/>
      <use xlink:href="#DejaVuSans-32" transform="translate(639.648438 0)"/>
      <use xlink:href="#DejaVuSans-30" transform="translate(703.271484 0)"/>
      <use xlink:href="#DejaVuSans-2c" transform="translate(766.894531 0)"/>
      <use xlink:href="#DejaVuSans-20" transform="translate(798.681641 0)"/>
      <use xlink:href="#DejaVuSans-54" transform="translate(830.46875 0)"/>
      <use xlink:href="#DejaVuSans-6f" transform="translate(874.552734 0)"/>
      <use xlink:href="#DejaVuSans-70" transform="translate(935.734375 0)"/>
      <use xlink:href="#DejaVuSans-31" transform="translate(999.210938 0)"/>
      <use xlink:href="#DejaVuSans-30" transform="translate(1062.833984 0)"/>
      <use xlink:href="#DejaVuSans-29" transform="translate(1126.457031 0)"/>
      <use xlink:href="#DejaVuSans-20" transform="translate(1165.470703 0)"/>
      <use xlink:href="#DejaVuSans-28" transform="translate(1197.257812 0)"/>
      <use xlink:href="#DejaVuSans-31" transform="translate(1236.271484 0)"/>
      <use xlink:href="#DejaVuSans-33" transform="translate(1299.894531 0)"/>
      <use xlink:href="#DejaVuSans-31" transform="translate(1363.517578 0)"/>
      <use xlink:href="#DejaVuSans-25" transform="translate(1427.140625 0)"/>
      <use xlink:href="#DejaVuSans-29" transform="translate(1522.160156 0)"/>
     </g>
    </g>
    <g id="line2d_43">
     <path d="M 117 79.616562 
L 127 79.616562 
L 137 79.616562 
" style="fill: none; stroke: #ff7f0e; stroke-width: 1.5; stroke-linecap: square"/>
    </g>
    <g id="text_21">
     <!-- Market Timing (50%) -->
     <g transform="translate(145 83.116562) scale(0.1 -0.1)">
      <defs>
       <path id="DejaVuSans-4d" d="M 628 4666 
L 1569 4666 
L 2759 1491 
L 3956 4666 
L 4897 4666 
L 4897 0 
L 4281 0 
L 4281 4097 
L 3078 897 
L 2444 897 
L 1241 4097 
L 1241 0 
L 628 0 
L 628 4666 
z
" transform="scale(0.015625)"/>
       <path id="DejaVuSans-72" d="M 2631 2963 
Q 2534 3019 2420 3045 
Q 2306 3072 2169 3072 
Q 1681 3072 1420 2755 
Q 1159 2438 1159 1844 
L 1159 0 
L 581 0 
L 581 3500 
L 1159 3500 
L 1159 2956 
Q 1341 3275 1631 3429 
Q 1922 3584 2338 3584 
Q 2397 3584 2469 3576 
Q 2541 3569 2628 3553 
L 2631 2963 
z
" transform="scale(0.015625)"/>
       <path id="DejaVuSans-6b" d="M 581 4863 
L 1159 4863 
L 1159 1991 
L 2875 3500 
L 3609 3500 
L 1753 1863 
L 3688 0 
L 2938 0 
L 1159 1709 
L 1159 0 
L 581 0 
L 581 4863 
z
" transform="scale(0.015625)"/>
       <path id="DejaVuSans-67" d="M 2906 1791 
Q 2906 2416 2648 2759 
Q 2391 3103 1925 3103 
Q 1463 3103 1205 2759 
Q 947 2416 947 1791 
Q 947 1169 1205 825 
Q 1463 481 1925 481 
Q 2391 481 2648 825 
Q 2906 1169 2906 1791 
z
M 3481 434 
Q 3481 -459 3084 -895 
Q 2688 -1331 1869 -1331 
Q 1566 -1331 1297 -1286 
Q 1028 -1241 775 -1147 
L 775 -588 
Q 1028 -725 1275 -790 
Q 1522 -856 1778 -856 
Q 2344 -856 2625 -561 
Q 2906 -266 2906 331 
L 2906 616 
Q 2728 306 2450 153 
Q 2172 0 1784 0 
Q 1141 0 747 490 
Q 353 981 353 1791 
Q 353 2603 747 3093 
Q 1141 3584 1784 3584 
Q 2172 3584 2450 3431 
Q 2728 3278 2906 2969 
L 2906 3500 
L 3481 3500 
L 3481 434 
z
" transform="scale(0.015625)"/>
      </defs>
      <use xlink:href="#DejaVuSans-4d"/>
      <use xlink:href="#DejaVuSans-61" transform="translate(86.279297 0)"/>
      <use xlink:href="#DejaVuSans-72" transform="translate(147.558594 0)"/>
      <use xlink:href="#DejaVuSans-6b" transform="translate(188.671875 0)"/>
      <use xlink:href="#DejaVuSans-65" transform="translate(242.957031 0)"/>
      <use xlink:href="#DejaVuSans-74" transform="translate(304.480469 0)"/>
      <use xlink:href="#DejaVuSans-20" transform="translate(343.689453 0)"/>
      <use xlink:href="#DejaVuSans-54" transform="translate(375.476562 0)"/>
      <use xlink:href="#DejaVuSans-69" transform="translate(433.435547 0)"/>
      <use xlink:href="#DejaVuSans-6d" transform="translate(461.21875 0)"/>
      <use xlink:href="#DejaVuSans-69" transform="translate(558.630859 0)"/>
      <use xlink:href="#DejaVuSans-6e" transform="translate(586.414062 0)"/>
      <use xlink:href="#DejaVuSans-67" transform="translate(649.792969 0)"/>
      <use xlink:href="#DejaVuSans-20" transform="translate(713.269531 0)"/>
      <use xlink:href="#DejaVuSans-28" transform="translate(745.056641 0)"/>
      <use xlink:href="#DejaVuSans-35" transform="translate(784.070312 0)"/>
      <use xlink:href="#DejaVuSans-30" transform="translate(847.693359 0)"/>
      <use xlink:href="#DejaVuSans-25" transform="translate(911.316406 0)"/>
      <use xlink:href="#DejaVuSans-29" transform="translate(1006.335938 0)"/>
     </g>
    </g>
    <g id="line2d_44">
     <path d="M 117 94.294687 
L 127 94.294687 
L 137 94.294687 
" style="fill: none; stroke: #2ca02c; stroke-width: 1.5; stroke-linecap: square"/>
    </g>
    <g id="text_22">
     <!-- Dual Momentum (60%) -->
     <g transform="translate(145 97.794687) scale(0.1 -0.1)">
      <defs>
       <path id="DejaVuSans-44" d="M 1259 4147 
L 1259 519 
L 2022 519 
Q 2988 519 3436 956 
Q 3884 1394 3884 2338 
Q 3884 3275 3436 3711 
Q 2988 4147 2022 4147 
L 1259 4147 
z
M 628 4666 
L 1925 4666 
Q 3281 4666 3915 4102 
Q 4550 3538 4550 2338 
Q 4550 1131 3912 565 
Q 3275 0 1925 0 
L 628 0 
L 628 4666 
z
" transform="scale(0.015625)"/>
       <path id="DejaVuSans-75" d="M 544 1381 
L 544 3500 
L 1119 3500 
L 1119 1403 
Q 1119 906 1312 657 
Q 1506 409 1894 409 
Q 2359 409 2629 706 
Q 2900 1003 2900 1516 
L 2900 3500 
L 3475 3500 
L 3475 0 
L 2900 0 
L 2900 538 
Q 2691 219 2414 64 
Q 2138 -91 1772 -91 
Q 1169 -91 856 284 
Q 544 659 544 1381 
z
M 1991 3584 
L 1991 3584 
z
" transform="scale(0.015625)"/>
      </defs>
      <use xlink:href="#DejaVuSans-44"/>
      <use xlink:href="#DejaVuSans-75" transform="translate(77.001953 0)"/>
      <use xlink:href="#DejaVuSans-61" transform="translate(140.380859 0)"/>
      <use xlink:href="#DejaVuSans-6c" transform="translate(201.660156 0)"/>
      <use xlink:href="#DejaVuSans-20" transform="translate(229.443359 0)"/>
      <use xlink:href="#DejaVuSans-4d" transform="translate(261.230469 0)"/>
      <use xlink:href="#DejaVuSans-6f" transform="translate(347.509766 0)"/>
      <use xlink:href="#DejaVuSans-6d" transform="translate(408.691406 0)"/>
      <use xlink:href="#DejaVuSans-65" transform="translate(506.103516 0)"/>
      <use xlink:href="#DejaVuSans-6e" transform="translate(567.626953 0)"/>
      <use xlink:href="#DejaVuSans-74" transform="translate(631.005859 0)"/>
      <use xlink:href="#DejaVuSans-75" transform="translate(670.214844 0)"/>
      <use xlink:href="#DejaVuSans-6d" transform="translate(733.59375 0)"/>
      <use xlink:href="#DejaVuSans-20" transform="translate(831.005859 0)"/>
      <use xlink:href="#DejaVuSans-28" transform="translate(862.792969 0)"/>
      <use xlink:href="#DejaVuSans-36" transform="translate(901.806641 0)"/>
      <use xlink:href="#DejaVuSans-30" transform="translate(965.429688 0)"/>
      <use xlink:href="#DejaVuSans-25" transform="translate(1029.052734 0)"/>
      <use xlink:href="#DejaVuSans-29" transform="translate(1124.072266 0)"/>
     </g>
    </g>
    <g id="line2d_45">
     <path d="M 117 108.972812 
L 127 108.972812 
L 137 108.972812 
" style="fill: none; stroke: #d62728; stroke-width: 1.5; stroke-linecap: square"/>
    </g>
    <g id="text_23">
     <!-- Concentration (Top5) (128%) -->
     <g transform="translate(145 112.472812) scale(0.1 -0.1)">
      <defs>
       <path id="DejaVuSans-43" d="M 4122 4306 
L 4122 3641 
Q 3803 3938 3442 4084 
Q 3081 4231 2675 4231 
Q 1875 4231 1450 3742 
Q 1025 3253 1025 2328 
Q 1025 1406 1450 917 
Q 1875 428 2675 428 
Q 3081 428 3442 575 
Q 3803 722 4122 1019 
L 4122 359 
Q 3791 134 3420 21 
Q 3050 -91 2638 -91 
Q 1578 -91 968 557 
Q 359 1206 359 2328 
Q 359 3453 968 4101 
Q 1578 4750 2638 4750 
Q 3056 4750 3426 4639 
Q 3797 4528 4122 4306 
z
" transform="scale(0.015625)"/>
      </defs>
      <use xlink:href="#DejaVuSans-43"/>
      <use xlink:href="#DejaVuSans-6f" transform="translate(69.824219 0)"/>
      <use xlink:href="#DejaVuSans-6e" transform="translate(131.005859 0)"/>
      <use xlink:href="#DejaVuSans-63" transform="translate(194.384766 0)"/>
      <use xlink:href="#DejaVuSans-65" transform="translate(249.365234 0)"/>
      <use xlink:href="#DejaVuSans-6e" transform="translate(310.888672 0)"/>
      <use xlink:href="#DejaVuSans-74" transform="translate(374.267578 0)"/>
      <use xlink:href="#DejaVuSans-72" transform="translate(413.476562 0)"/>
      <use xlink:href="#DejaVuSans-61" transform="translate(454.589844 0)"/>
      <use xlink:href="#DejaVuSans-74" transform="translate(515.869141 0)"/>
      <use xlink:href="#DejaVuSans-69" transform="translate(555.078125 0)"/>
      <use xlink:href="#DejaVuSans-6f" transform="translate(582.861328 0)"/>
      <use xlink:href="#DejaVuSans-6e" transform="translate(644.042969 0)"/>
      <use xlink:href="#DejaVuSans-20" transform="translate(707.421875 0)"/>
      <use xlink:href="#DejaVuSans-28" transform="translate(739.208984 0)"/>
      <use xlink:href="#DejaVuSans-54" transform="translate(778.222656 0)"/>
      <use xlink:href="#DejaVuSans-6f" transform="translate(822.306641 0)"/>
      <use xlink:href="#DejaVuSans-70" transform="translate(883.488281 0)"/>
      <use xlink:href="#DejaVuSans-35" transform="translate(946.964844 0)"/>
      <use xlink:href="#DejaVuSans-29" transform="translate(1010.587891 0)"/>
      <use xlink:href="#DejaVuSans-20" transform="translate(1049.601562 0)"/>
      <use xlink:href="#DejaVuSans-28" transform="translate(1081.388672 0)"/>
      <use xlink:href="#DejaVuSans-31" transform="translate(1120.402344 0)"/>
      <use xlink:href="#DejaVuSans-32" transform="translate(1184.025391 0)"/>
      <use xlink:href="#DejaVuSans-38" transform="translate(1247.648438 0)"/>
      <use xlink:href="#DejaVuSans-25" transform="translate(1311.271484 0)"/>
      <use xlink:href="#DejaVuSans-29" transform="translate(1406.291016 0)"/>
     </g>
    </g>
    <g id="line2d_46">
     <path d="M 117 123.650937 
L 127 123.650937 
L 137 123.650937 
" style="fill: none; stroke: #9467bd; stroke-width: 1.5; stroke-linecap: square"/>
    </g>
    <g id="text_24">
     <!-- TimingDualTop5 (50%) -->
     <g transform="translate(145 127.150937) scale(0.1 -0.1)">
      <use xlink:href="#DejaVuSans-54"/>
      <use xlink:href="#DejaVuSans-69" transform="translate(57.958984 0)"/>
      <use xlink:href="#DejaVuSans-6d" transform="translate(85.742188 0)"/>
      <use xlink:href="#DejaVuSans-69" transform="translate(183.154297 0)"/>
      <use xlink:href="#DejaVuSans-6e" transform="translate(210.9375 0)"/>
      <use xlink:href="#DejaVuSans-67" transform="translate(274.316406 0)"/>
      <use xlink:href="#DejaVuSans-44" transform="translate(337.792969 0)"/>
      <use xlink:href="#DejaVuSans-75" transform="translate(414.794922 0)"/>
      <use xlink:href="#DejaVuSans-61" transform="translate(478.173828 0)"/>
      <use xlink:href="#DejaVuSans-6c" transform="translate(539.453125 0)"/>
      <use xlink:href="#DejaVuSans-54" transform="translate(567.236328 0)"/>
      <use xlink:href="#DejaVuSans-6f" transform="translate(611.320312 0)"/>
      <use xlink:href="#DejaVuSans-70" transform="translate(672.501953 0)"/>
      <use xlink:href="#DejaVuSans-35" transform="translate(735.978516 0)"/>
      <use xlink:href="#DejaVuSans-20" transform="translate(799.601562 0)"/>
      <use xlink:href="#DejaVuSans-28" transform="translate(831.388672 0)"/>
      <use xlink:href="#DejaVuSans-35" transform="translate(870.402344 0)"/>
      <use xlink:href="#DejaVuSans-30" transform="translate(934.025391 0)"/>
      <use xlink:href="#DejaVuSans-25" transform="translate(997.648438 0)"/>
      <use xlink:href="#DejaVuSans-29" transform="translate(1092.667969 0)"/>
     </g>
    </g>
   </g>
  </g>
 </g>
 <defs>
  <clipPath id="pa770603bd8">
   <rect x="108" y="51.84" width="669.6" height="332.64"/>
  </clipPath>
 </defs>
</svg>
