<?xml version="1.0" encoding="utf-8" standalone="no"?>
<!DOCTYPE svg PUBLIC "-//W3C//DTD SVG 1.1//EN"
  "http://www.w3.org/Graphics/SVG/1.1/DTD/svg11.dtd">
<svg xmlns:xlink="http://www.w3.org/1999/xlink" width="864pt" height="432pt" viewBox="0 0 864 432" xmlns="http://www.w3.org/2000/svg" version="1.1">
 <metadata>
  <rdf:RDF xmlns:dc="http://purl.org/dc/elements/1.1/" xmlns:cc="http://creativecommons.org/ns#" xmlns:rdf="http://www.w3.org/1999/02/22-rdf-syntax-ns#">
   <cc:Work>
    <dc:type rdf:resource="http://purl.org/dc/dcmitype/StillImage"/>
    <dc:date>2026-01-24T20:49:12.720490</dc:date>
    <dc:format>image/svg+xml</dc:format>
    <dc:creator>
     <cc:Agent>
      <dc:title>Matplotlib v3.10.7, https://matplotlib.org/</dc:title>
     </cc:Agent>
    </dc:creator>
   </cc:Work>
  </rdf:RDF>
 </metadata>
 <defs>
  <style type="text/css">*{stroke-linejoin: round; stroke-linecap: butt}</style>
 </defs>
 <g id="figure_1">
  <g id="patch_1">
   <path d="M 0 432 
L 864 432 
L 864 0 
L 0 0 
z
" style="fill: #ffffff"/>
  </g>
  <g id="axes_1">
   <g id="patch_2">
    <path d="M 108 384.48 
L 777.6 384.48 
L 777.6 51.84 
L 108 51.84 
z
" style="fill: #ffffff"/>
   </g>
   <g id="matplotlib.axis_1">
    <g id="xtick_1">
     <g id="line2d_1">
      <path d="M 136.035073 384.48 
L 136.035073 51.84 
" clip-path="url(#pc7ea69d859)" style="fill: none; stroke: #b0b0b0; stroke-opacity: 0.3; stroke-width: 0.8; stroke-linecap: square"/>
     </g>
     <g id="line2d_2">
      <defs>
       <path id="m47b8b266e9" d="M 0 0 
L 0 3.5 
" style="stroke: #000000; stroke-width: 0.8"/>
      </defs>
      <g>
       <use xlink:href="#m47b8b266e9" x="136.035073" y="384.48" style="stroke: #000000; stroke-width: 0.8"/>
      </g>
     </g>
     <g id="text_1">
      <!-- 2024-09 -->
      <g transform="translate(115.143666 399.078438) scale(0.1 -0.1)">
       <defs>
        <path id="DejaVuSans-32" d="M 1228 531 
L 3431 531 
L 3431 0 
L 469 0 
L 469 531 
Q 828 903 1448 1529 
Q 2069 2156 2228 2338 
Q 2531 2678 2651 2914 
Q 2772 3150 2772 3378 
Q 2772 3750 2511 3984 
Q 2250 4219 1831 4219 
Q 1534 4219 1204 4116 
Q 875 4013 500 3803 
L 500 4441 
Q 881 4594 1212 4672 
Q 1544 4750 1819 4750 
Q 2544 4750 2975 4387 
Q 3406 4025 3406 3419 
Q 3406 3131 3298 2873 
Q 3191 2616 2906 2266 
Q 2828 2175 2409 1742 
Q 1991 1309 1228 531 
z
" transform="scale(0.015625)"/>
        <path id="DejaVuSans-30" d="M 2034 4250 
Q 1547 4250 1301 3770 
Q 1056 3291 1056 2328 
Q 1056 1369 1301 889 
Q 1547 409 2034 409 
Q 2525 409 2770 889 
Q 3016 1369 3016 2328 
Q 3016 3291 2770 3770 
Q 2525 4250 2034 4250 
z
M 2034 4750 
Q 2819 4750 3233 4129 
Q 3647 3509 3647 2328 
Q 3647 1150 3233 529 
Q 2819 -91 2034 -91 
Q 1250 -91 836 529 
Q 422 1150 422 2328 
Q 422 3509 836 4129 
Q 1250 4750 2034 4750 
z
" transform="scale(0.015625)"/>
        <path id="DejaVuSans-34" d="M 2419 4116 
L 825 1625 
L 2419 1625 
L 2419 4116 
z
M 2253 4666 
L 3047 4666 
L 3047 1625 
L 3713 1625 
L 3713 1100 
L 3047 1100 
L 3047 0 
L 2419 0 
L 2419 1100 
L 313 1100 
L 313 1709 
L 2253 4666 
z
" transform="scale(0.015625)"/>
        <path id="DejaVuSans-2d" d="M 313 2009 
L 1997 2009 
L 1997 1497 
L 313 1497 
L 313 2009 
z
" transform="scale(0.015625)"/>
        <path id="DejaVuSans-39" d="M 703 97 
L 703 672 
Q 941 559 1184 500 
Q 1428 441 1663 441 
Q 2288 441 2617 861 
Q 2947 1281 2994 2138 
Q 2813 1869 2534 1725 
Q 2256 1581 1919 1581 
Q 1219 1581 811 2004 
Q 403 2428 403 3163 
Q 403 3881 828 4315 
Q 1253 4750 1959 4750 
Q 2769 4750 3195 4129 
Q 3622 3509 3622 2328 
Q 3622 1225 3098 567 
Q 2575 -91 1691 -91 
Q 1453 -91 1209 -44 
Q 966 3 703 97 
z
M 1959 2075 
Q 2384 2075 2632 2365 
Q 2881 2656 2881 3163 
Q 2881 3666 2632 3958 
Q 2384 4250 1959 4250 
Q 1534 4250 1286 3958 
Q 1038 3666 1038 3163 
Q 1038 2656 1286 2365 
Q 1534 2075 1959 2075 
z
" transform="scale(0.015625)"/>
       </defs>
       <use xlink:href="#DejaVuSans-32"/>
       <use xlink:href="#DejaVuSans-30" transform="translate(63.623047 0)"/>
       <use xlink:href="#DejaVuSans-32" transform="translate(127.246094 0)"/>
       <use xlink:href="#DejaVuSans-34" transform="translate(190.869141 0)"/>
       <use xlink:href="#DejaVuSans-2d" transform="translate(254.492188 0)"/>
       <use xlink:href="#DejaVuSans-30" transform="translate(290.576172 0)"/>
       <use xlink:href="#DejaVuSans-39" transform="translate(354.199219 0)"/>
      </g>
     </g>
    </g>
    <g id="xtick_2">
     <g id="line2d_3">
      <path d="M 209.274449 384.48 
L 209.274449 51.84 
" clip-path="url(#pc7ea69d859)" style="fill: none; stroke: #b0b0b0; stroke-opacity: 0.3; stroke-width: 0.8; stroke-linecap: square"/>
     </g>
     <g id="line2d_4">
      <g>
       <use xlink:href="#m47b8b266e9" x="209.274449" y="384.48" style="stroke: #000000; stroke-width: 0.8"/>
      </g>
     </g>
     <g id="text_2">
      <!-- 2024-11 -->
      <g transform="translate(188.383042 399.078438) scale(0.1 -0.1)">
       <defs>
        <path id="DejaVuSans-31" d="M 794 531 
L 1825 531 
L 1825 4091 
L 703 3866 
L 703 4441 
L 1819 4666 
L 2450 4666 
L 2450 531 
L 3481 531 
L 3481 0 
L 794 0 
L 794 531 
z
" transform="scale(0.015625)"/>
       </defs>
       <use xlink:href="#DejaVuSans-32"/>
       <use xlink:href="#DejaVuSans-30" transform="translate(63.623047 0)"/>
       <use xlink:href="#DejaVuSans-32" transform="translate(127.246094 0)"/>
       <use xlink:href="#DejaVuSans-34" transform="translate(190.869141 0)"/>
       <use xlink:href="#DejaVuSans-2d" transform="translate(254.492188 0)"/>
       <use xlink:href="#DejaVuSans-31" transform="translate(290.576172 0)"/>
       <use xlink:href="#DejaVuSans-31" transform="translate(354.199219 0)"/>
      </g>
     </g>
    </g>
    <g id="xtick_3">
     <g id="line2d_5">
      <path d="M 282.513825 384.48 
L 282.513825 51.84 
" clip-path="url(#pc7ea69d859)" style="fill: none; stroke: #b0b0b0; stroke-opacity: 0.3; stroke-width: 0.8; stroke-linecap: square"/>
     </g>
     <g id="line2d_6">
      <g>
       <use xlink:href="#m47b8b266e9" x="282.513825" y="384.48" style="stroke: #000000; stroke-width: 0.8"/>
      </g>
     </g>
     <g id="text_3">
      <!-- 2025-01 -->
      <g transform="translate(261.622418 399.078438) scale(0.1 -0.1)">
       <defs>
        <path id="DejaVuSans-35" d="M 691 4666 
L 3169 4666 
L 3169 4134 
L 1269 4134 
L 1269 2991 
Q 1406 3038 1543 3061 
Q 1681 3084 1819 3084 
Q 2600 3084 3056 2656 
Q 3513 2228 3513 1497 
Q 3513 744 3044 326 
Q 2575 -91 1722 -91 
Q 1428 -91 1123 -41 
Q 819 9 494 109 
L 494 744 
Q 775 591 1075 516 
Q 1375 441 1709 441 
Q 2250 441 2565 725 
Q 2881 1009 2881 1497 
Q 2881 1984 2565 2268 
Q 2250 2553 1709 2553 
Q 1456 2553 1204 2497 
Q 953 2441 691 2322 
L 691 4666 
z
" transform="scale(0.015625)"/>
       </defs>
       <use xlink:href="#DejaVuSans-32"/>
       <use xlink:href="#DejaVuSans-30" transform="translate(63.623047 0)"/>
       <use xlink:href="#DejaVuSans-32" transform="translate(127.246094 0)"/>
       <use xlink:href="#DejaVuSans-35" transform="translate(190.869141 0)"/>
       <use xlink:href="#DejaVuSans-2d" transform="translate(254.492188 0)"/>
       <use xlink:href="#DejaVuSans-30" transform="translate(290.576172 0)"/>
       <use xlink:href="#DejaVuSans-31" transform="translate(354.199219 0)"/>
      </g>
     </g>
    </g>
    <g id="xtick_4">
     <g id="line2d_7">
      <path d="M 353.35191 384.48 
L 353.35191 51.84 
" clip-path="url(#pc7ea69d859)" style="fill: none; stroke: #b0b0b0; stroke-opacity: 0.3; stroke-width: 0.8; stroke-linecap: square"/>
     </g>
     <g id="line2d_8">
      <g>
       <use xlink:href="#m47b8b266e9" x="353.35191" y="384.48" style="stroke: #000000; stroke-width: 0.8"/>
      </g>
     </g>
     <g id="text_4">
      <!-- 2025-03 -->
      <g transform="translate(332.460503 399.078438) scale(0.1 -0.1)">
       <defs>
        <path id="DejaVuSans-33" d="M 2597 2516 
Q 3050 2419 3304 2112 
Q 3559 1806 3559 1356 
Q 3559 666 3084 287 
Q 2609 -91 1734 -91 
Q 1441 -91 1130 -33 
Q 819 25 488 141 
L 488 750 
Q 750 597 1062 519 
Q 1375 441 1716 441 
Q 2309 441 2620 675 
Q 2931 909 2931 1356 
Q 2931 1769 2642 2001 
Q 2353 2234 1838 2234 
L 1294 2234 
L 1294 2753 
L 1863 2753 
Q 2328 2753 2575 2939 
Q 2822 3125 2822 3475 
Q 2822 3834 2567 4026 
Q 2313 4219 1838 4219 
Q 1578 4219 1281 4162 
Q 984 4106 628 3988 
L 628 4550 
Q 988 4650 1302 4700 
Q 1616 4750 1894 4750 
Q 2613 4750 3031 4423 
Q 3450 4097 3450 3541 
Q 3450 3153 3228 2886 
Q 3006 2619 2597 2516 
z
" transform="scale(0.015625)"/>
       </defs>
       <use xlink:href="#DejaVuSans-32"/>
       <use xlink:href="#DejaVuSans-30" transform="translate(63.623047 0)"/>
       <use xlink:href="#DejaVuSans-32" transform="translate(127.246094 0)"/>
       <use xlink:href="#DejaVuSans-35" transform="translate(190.869141 0)"/>
       <use xlink:href="#DejaVuSans-2d" transform="translate(254.492188 0)"/>
       <use xlink:href="#DejaVuSans-30" transform="translate(290.576172 0)"/>
       <use xlink:href="#DejaVuSans-33" transform="translate(354.199219 0)"/>
      </g>
     </g>
    </g>
    <g id="xtick_5">
     <g id="line2d_9">
      <path d="M 426.591286 384.48 
L 426.591286 51.84 
" clip-path="url(#pc7ea69d859)" style="fill: none; stroke: #b0b0b0; stroke-opacity: 0.3; stroke-width: 0.8; stroke-linecap: square"/>
     </g>
     <g id="line2d_10">
      <g>
       <use xlink:href="#m47b8b266e9" x="426.591286" y="384.48" style="stroke: #000000; stroke-width: 0.8"/>
      </g>
     </g>
     <g id="text_5">
      <!-- 2025-05 -->
      <g transform="translate(405.699879 399.078438) scale(0.1 -0.1)">
       <use xlink:href="#DejaVuSans-32"/>
       <use xlink:href="#DejaVuSans-30" transform="translate(63.623047 0)"/>
       <use xlink:href="#DejaVuSans-32" transform="translate(127.246094 0)"/>
       <use xlink:href="#DejaVuSans-35" transform="translate(190.869141 0)"/>
       <use xlink:href="#DejaVuSans-2d" transform="translate(254.492188 0)"/>
       <use xlink:href="#DejaVuSans-30" transform="translate(290.576172 0)"/>
       <use xlink:href="#DejaVuSans-35" transform="translate(354.199219 0)"/>
      </g>
     </g>
    </g>
    <g id="xtick_6">
     <g id="line2d_11">
      <path d="M 499.830662 384.48 
L 499.830662 51.84 
" clip-path="url(#pc7ea69d859)" style="fill: none; stroke: #b0b0b0; stroke-opacity: 0.3; stroke-width: 0.8; stroke-linecap: square"/>
     </g>
     <g id="line2d_12">
      <g>
       <use xlink:href="#m47b8b266e9" x="499.830662" y="384.48" style="stroke: #000000; stroke-width: 0.8"/>
      </g>
     </g>
     <g id="text_6">
      <!-- 2025-07 -->
      <g transform="translate(478.939255 399.078438) scale(0.1 -0.1)">
       <defs>
        <path id="DejaVuSans-37" d="M 525 4666 
L 3525 4666 
L 3525 4397 
L 1831 0 
L 1172 0 
L 2766 4134 
L 525 4134 
L 525 4666 
z
" transform="scale(0.015625)"/>
       </defs>
       <use xlink:href="#DejaVuSans-32"/>
       <use xlink:href="#DejaVuSans-30" transform="translate(63.623047 0)"/>
       <use xlink:href="#DejaVuSans-32" transform="translate(127.246094 0)"/>
       <use xlink:href="#DejaVuSans-35" transform="translate(190.869141 0)"/>
       <use xlink:href="#DejaVuSans-2d" transform="translate(254.492188 0)"/>
       <use xlink:href="#DejaVuSans-30" transform="translate(290.576172 0)"/>
       <use xlink:href="#DejaVuSans-37" transform="translate(354.199219 0)"/>
      </g>
     </g>
    </g>
    <g id="xtick_7">
     <g id="line2d_13">
      <path d="M 574.270683 384.48 
L 574.270683 51.84 
" clip-path="url(#pc7ea69d859)" style="fill: none; stroke: #b0b0b0; stroke-opacity: 0.3; stroke-width: 0.8; stroke-linecap: square"/>
     </g>
     <g id="line2d_14">
      <g>
       <use xlink:href="#m47b8b266e9" x="574.270683" y="384.48" style="stroke: #000000; stroke-width: 0.8"/>
      </g>
     </g>
     <g id="text_7">
      <!-- 2025-09 -->
      <g transform="translate(553.379277 399.078438) scale(0.1 -0.1)">
       <use xlink:href="#DejaVuSans-32"/>
       <use xlink:href="#DejaVuSans-30" transform="translate(63.623047 0)"/>
       <use xlink:href="#DejaVuSans-32" transform="translate(127.246094 0)"/>
       <use xlink:href="#DejaVuSans-35" transform="translate(190.869141 0)"/>
       <use xlink:href="#DejaVuSans-2d" transform="translate(254.492188 0)"/>
       <use xlink:href="#DejaVuSans-30" transform="translate(290.576172 0)"/>
       <use xlink:href="#DejaVuSans-39" transform="translate(354.199219 0)"/>
      </g>
     </g>
    </g>
    <g id="xtick_8">
     <g id="line2d_15">
      <path d="M 647.510059 384.48 
L 647.510059 51.84 
" clip-path="url(#pc7ea69d859)" style="fill: none; stroke: #b0b0b0; stroke-opacity: 0.3; stroke-width: 0.8; stroke-linecap: square"/>
     </g>
     <g id="line2d_16">
      <g>
       <use xlink:href="#m47b8b266e9" x="647.510059" y="384.48" style="stroke: #000000; stroke-width: 0.8"/>
      </g>
     </g>
     <g id="text_8">
      <!-- 2025-11 -->
      <g transform="translate(626.618653 399.078438) scale(0.1 -0.1)">
       <use xlink:href="#DejaVuSans-32"/>
       <use xlink:href="#DejaVuSans-30" transform="translate(63.623047 0)"/>
       <use xlink:href="#DejaVuSans-32" transform="translate(127.246094 0)"/>
       <use xlink:href="#DejaVuSans-35" transform="translate(190.869141 0)"/>
       <use xlink:href="#DejaVuSans-2d" transform="translate(254.492188 0)"/>
       <use xlink:href="#DejaVuSans-31" transform="translate(290.576172 0)"/>
       <use xlink:href="#DejaVuSans-31" transform="translate(354.199219 0)"/>
      </g>
     </g>
    </g>
    <g id="xtick_9">
     <g id="line2d_17">
      <path d="M 720.749435 384.48 
L 720.749435 51.84 
" clip-path="url(#pc7ea69d859)" style="fill: none; stroke: #b0b0b0; stroke-opacity: 0.3; stroke-width: 0.8; stroke-linecap: square"/>
     </g>
     <g id="line2d_18">
      <g>
       <use xlink:href="#m47b8b266e9" x="720.749435" y="384.48" style="stroke: #000000; stroke-width: 0.8"/>
      </g>
     </g>
     <g id="text_9">
      <!-- 2026-01 -->
      <g transform="translate(699.858029 399.078438) scale(0.1 -0.1)">
       <defs>
        <path id="DejaVuSans-36" d="M 2113 2584 
Q 1688 2584 1439 2293 
Q 1191 2003 1191 1497 
Q 1191 994 1439 701 
Q 1688 409 2113 409 
Q 2538 409 2786 701 
Q 3034 994 3034 1497 
Q 3034 2003 2786 2293 
Q 2538 2584 2113 2584 
z
M 3366 4563 
L 3366 3988 
Q 3128 4100 2886 4159 
Q 2644 4219 2406 4219 
Q 1781 4219 1451 3797 
Q 1122 3375 1075 2522 
Q 1259 2794 1537 2939 
Q 1816 3084 2150 3084 
Q 2853 3084 3261 2657 
Q 3669 2231 3669 1497 
Q 3669 778 3244 343 
Q 2819 -91 2113 -91 
Q 1303 -91 875 529 
Q 447 1150 447 2328 
Q 447 3434 972 4092 
Q 1497 4750 2381 4750 
Q 2619 4750 2861 4703 
Q 3103 4656 3366 4563 
z
" transform="scale(0.015625)"/>
       </defs>
       <use xlink:href="#DejaVuSans-32"/>
       <use xlink:href="#DejaVuSans-30" transform="translate(63.623047 0)"/>
       <use xlink:href="#DejaVuSans-32" transform="translate(127.246094 0)"/>
       <use xlink:href="#DejaVuSans-36" transform="translate(190.869141 0)"/>
       <use xlink:href="#DejaVuSans-2d" transform="translate(254.492188 0)"/>
       <use xlink:href="#DejaVuSans-30" transform="translate(290.576172 0)"/>
       <use xlink:href="#DejaVuSans-31" transform="translate(354.199219 0)"/>
      </g>
     </g>
    </g>
   </g>
   <g id="matplotlib.axis_2">
    <g id="ytick_1">
     <g id="line2d_19">
      <path d="M 108 360.043626 
L 777.6 360.043626 
" clip-path="url(#pc7ea69d859)" style="fill: none; stroke: #b0b0b0; stroke-opacity: 0.3; stroke-width: 0.8; stroke-linecap: square"/>
     </g>
     <g id="line2d_20">
      <defs>
       <path id="m6fe9c72e4c" d="M 0 0 
L -3.5 0 
" style="stroke: #000000; stroke-width: 0.8"/>
      </defs>
      <g>
       <use xlink:href="#m6fe9c72e4c" x="108" y="360.043626" style="stroke: #000000; stroke-width: 0.8"/>
      </g>
     </g>
     <g id="text_10">
      <!-- 1.0 -->
      <g transform="translate(85.096875 363.842845) scale(0.1 -0.1)">
       <defs>
        <path id="DejaVuSans-2e" d="M 684 794 
L 1344 794 
L 1344 0 
L 684 0 
L 684 794 
z
" transform="scale(0.015625)"/>
       </defs>
       <use xlink:href="#DejaVuSans-31"/>
       <use xlink:href="#DejaVuSans-2e" transform="translate(63.623047 0)"/>
       <use xlink:href="#DejaVuSans-30" transform="translate(95.410156 0)"/>
      </g>
     </g>
    </g>
    <g id="ytick_2">
     <g id="line2d_21">
      <path d="M 108 312.653387 
L 777.6 312.653387 
" clip-path="url(#pc7ea69d859)" style="fill: none; stroke: #b0b0b0; stroke-opacity: 0.3; stroke-width: 0.8; stroke-linecap: square"/>
     </g>
     <g id="line2d_22">
      <g>
       <use xlink:href="#m6fe9c72e4c" x="108" y="312.653387" style="stroke: #000000; stroke-width: 0.8"/>
      </g>
     </g>
     <g id="text_11">
      <!-- 1.2 -->
      <g transform="translate(85.096875 316.452606) scale(0.1 -0.1)">
       <use xlink:href="#DejaVuSans-31"/>
       <use xlink:href="#DejaVuSans-2e" transform="translate(63.623047 0)"/>
       <use xlink:href="#DejaVuSans-32" transform="translate(95.410156 0)"/>
      </g>
     </g>
    </g>
    <g id="ytick_3">
     <g id="line2d_23">
      <path d="M 108 265.263149 
L 777.6 265.263149 
" clip-path="url(#pc7ea69d859)" style="fill: none; stroke: #b0b0b0; stroke-opacity: 0.3; stroke-width: 0.8; stroke-linecap: square"/>
     </g>
     <g id="line2d_24">
      <g>
       <use xlink:href="#m6fe9c72e4c" x="108" y="265.263149" style="stroke: #000000; stroke-width: 0.8"/>
      </g>
     </g>
     <g id="text_12">
      <!-- 1.4 -->
      <g transform="translate(85.096875 269.062367) scale(0.1 -0.1)">
       <use xlink:href="#DejaVuSans-31"/>
       <use xlink:href="#DejaVuSans-2e" transform="translate(63.623047 0)"/>
       <use xlink:href="#DejaVuSans-34" transform="translate(95.410156 0)"/>
      </g>
     </g>
    </g>
    <g id="ytick_4">
     <g id="line2d_25">
      <path d="M 108 217.87291 
L 777.6 217.87291 
" clip-path="url(#pc7ea69d859)" style="fill: none; stroke: #b0b0b0; stroke-opacity: 0.3; stroke-width: 0.8; stroke-linecap: square"/>
     </g>
     <g id="line2d_26">
      <g>
       <use xlink:href="#m6fe9c72e4c" x="108" y="217.87291" style="stroke: #000000; stroke-width: 0.8"/>
      </g>
     </g>
     <g id="text_13">
      <!-- 1.6 -->
      <g transform="translate(85.096875 221.672129) scale(0.1 -0.1)">
       <use xlink:href="#DejaVuSans-31"/>
       <use xlink:href="#DejaVuSans-2e" transform="translate(63.623047 0)"/>
       <use xlink:href="#DejaVuSans-36" transform="translate(95.410156 0)"/>
      </g>
     </g>
    </g>
    <g id="ytick_5">
     <g id="line2d_27">
      <path d="M 108 170.482671 
L 777.6 170.482671 
" clip-path="url(#pc7ea69d859)" style="fill: none; stroke: #b0b0b0; stroke-opacity: 0.3; stroke-width: 0.8; stroke-linecap: square"/>
     </g>
     <g id="line2d_28">
      <g>
       <use xlink:href="#m6fe9c72e4c" x="108" y="170.482671" style="stroke: #000000; stroke-width: 0.8"/>
      </g>
     </g>
     <g id="text_14">
      <!-- 1.8 -->
      <g transform="translate(85.096875 174.28189) scale(0.1 -0.1)">
       <defs>
        <path id="DejaVuSans-38" d="M 2034 2216 
Q 1584 2216 1326 1975 
Q 1069 1734 1069 1313 
Q 1069 891 1326 650 
Q 1584 409 2034 409 
Q 2484 409 2743 651 
Q 3003 894 3003 1313 
Q 3003 1734 2745 1975 
Q 2488 2216 2034 2216 
z
M 1403 2484 
Q 997 2584 770 2862 
Q 544 3141 544 3541 
Q 544 4100 942 4425 
Q 1341 4750 2034 4750 
Q 2731 4750 3128 4425 
Q 3525 4100 3525 3541 
Q 3525 3141 3298 2862 
Q 3072 2584 2669 2484 
Q 3125 2378 3379 2068 
Q 3634 1759 3634 1313 
Q 3634 634 3220 271 
Q 2806 -91 2034 -91 
Q 1263 -91 848 271 
Q 434 634 434 1313 
Q 434 1759 690 2068 
Q 947 2378 1403 2484 
z
M 1172 3481 
Q 1172 3119 1398 2916 
Q 1625 2713 2034 2713 
Q 2441 2713 2670 2916 
Q 2900 3119 2900 3481 
Q 2900 3844 2670 4047 
Q 2441 4250 2034 4250 
Q 1625 4250 1398 4047 
Q 1172 3844 1172 3481 
z
" transform="scale(0.015625)"/>
       </defs>
       <use xlink:href="#DejaVuSans-31"/>
       <use xlink:href="#DejaVuSans-2e" transform="translate(63.623047 0)"/>
       <use xlink:href="#DejaVuSans-38" transform="translate(95.410156 0)"/>
      </g>
     </g>
    </g>
    <g id="ytick_6">
     <g id="line2d_29">
      <path d="M 108 123.092433 
L 777.6 123.092433 
" clip-path="url(#pc7ea69d859)" style="fill: none; stroke: #b0b0b0; stroke-opacity: 0.3; stroke-width: 0.8; stroke-linecap: square"/>
     </g>
     <g id="line2d_30">
      <g>
       <use xlink:href="#m6fe9c72e4c" x="108" y="123.092433" style="stroke: #000000; stroke-width: 0.8"/>
      </g>
     </g>
     <g id="text_15">
      <!-- 2.0 -->
      <g transform="translate(85.096875 126.891651) scale(0.1 -0.1)">
       <use xlink:href="#DejaVuSans-32"/>
       <use xlink:href="#DejaVuSans-2e" transform="translate(63.623047 0)"/>
       <use xlink:href="#DejaVuSans-30" transform="translate(95.410156 0)"/>
      </g>
     </g>
    </g>
    <g id="ytick_7">
     <g id="line2d_31">
      <path d="M 108 75.702194 
L 777.6 75.702194 
" clip-path="url(#pc7ea69d859)" style="fill: none; stroke: #b0b0b0; stroke-opacity: 0.3; stroke-width: 0.8; stroke-linecap: square"/>
     </g>
     <g id="line2d_32">
      <g>
       <use xlink:href="#m6fe9c72e4c" x="108" y="75.702194" style="stroke: #000000; stroke-width: 0.8"/>
      </g>
     </g>
     <g id="text_16">
      <!-- 2.2 -->
      <g transform="translate(85.096875 79.501413) scale(0.1 -0.1)">
       <use xlink:href="#DejaVuSans-32"/>
       <use xlink:href="#DejaVuSans-2e" transform="translate(63.623047 0)"/>
       <use xlink:href="#DejaVuSans-32" transform="translate(95.410156 0)"/>
      </g>
     </g>
    </g>
   </g>
   <g id="line2d_33">
    <path d="M 138.436364 359.340017 
L 139.637009 361.778258 
L 140.837655 363.016627 
L 142.0383 365.094171 
L 145.640237 368.694169 
L 146.840882 368.281572 
L 148.041528 369.205645 
L 149.242173 368.95522 
L 150.442819 369.36 
L 156.446046 368.916493 
L 157.646692 366.699931 
L 158.847337 366.586736 
L 162.449274 365.276147 
L 163.649919 354.858197 
L 164.850565 351.945993 
L 166.05121 344.095899 
L 167.251856 328.118897 
L 170.853792 299.613904 
L 180.458956 274.454495 
L 181.659602 307.114891 
L 182.860247 303.682048 
L 184.060893 312.65734 
L 187.662829 306.549886 
L 188.863475 315.455006 
L 190.06412 318.11692 
L 191.264766 320.076918 
L 192.465412 307.965145 
L 196.067348 308.201096 
L 197.267994 306.85188 
L 198.468639 307.175534 
L 199.669285 309.668974 
L 200.86993 307.036339 
L 204.471867 307.244922 
L 205.672512 311.747425 
L 206.873158 314.973516 
L 208.073803 313.743453 
L 209.274449 315.033286 
L 212.876385 311.134976 
L 214.077031 303.183782 
L 215.277676 305.689031 
L 216.478322 296.989366 
L 217.678967 301.487193 
L 221.280904 299.312542 
L 222.481549 302.135908 
L 223.682195 299.374551 
L 224.88284 306.034037 
L 226.083486 309.873543 
L 229.685422 311.464058 
L 230.886068 308.390777 
L 232.086713 307.589088 
L 233.287359 307.796434 
L 234.488004 315.825334 
L 238.089941 316.200007 
L 239.290586 318.14901 
L 240.491232 313.414993 
L 241.691877 316.690296 
L 242.892523 313.22016 
L 246.494459 311.012789 
L 247.695105 308.955643 
L 248.89575 309.602037 
L 250.096396 310.097319 
L 251.297041 305.665287 
L 254.898978 306.094801 
L 256.099623 304.37467 
L 257.300269 304.104874 
L 258.500914 300.929165 
L 259.70156 307.157735 
L 263.303497 308.747913 
L 264.504142 308.543453 
L 265.704788 306.923182 
L 266.905433 306.61241 
L 268.106079 308.453214 
L 271.708015 307.856571 
L 272.908661 303.616206 
L 274.109306 303.968262 
L 275.309952 302.460918 
L 276.510597 304.381226 
L 280.112534 303.317652 
L 281.313179 307.079349 
L 283.71447 315.841249 
L 284.915116 317.898057 
L 288.517052 317.980548 
L 289.717698 318.14927 
L 290.918343 319.420746 
L 292.118989 320.269238 
L 293.319634 324.144432 
L 296.921571 324.012406 
L 298.122216 315.864758 
L 299.322862 318.728707 
L 300.523507 317.260155 
L 301.724153 316.407299 
L 305.326089 314.998027 
L 306.526735 315.230896 
L 307.72738 317.727405 
L 308.928026 317.780374 
L 310.128671 314.736524 
L 313.730608 317.480347 
L 324.536417 318.960151 
L 325.737063 314.398278 
L 326.937708 310.333405 
L 330.539645 309.431019 
L 331.74029 309.859951 
L 332.940936 306.342985 
L 334.141581 307.157109 
L 335.342227 305.798999 
L 338.944164 304.019589 
L 340.144809 306.703971 
L 341.345455 304.265668 
L 342.5461 305.639823 
L 343.746746 301.262575 
L 347.348682 302.580411 
L 348.549328 306.209238 
L 349.749973 304.161072 
L 350.950619 303.799986 
L 352.151264 310.534788 
L 355.753201 308.841306 
L 356.953846 310.204808 
L 358.154492 308.745675 
L 359.355137 305.022517 
L 360.555783 306.534677 
L 364.157719 306.753927 
L 365.358365 306.673872 
L 366.55901 307.152923 
L 367.759656 308.399645 
L 368.960301 301.86894 
L 372.562238 302.741486 
L 373.762883 301.36077 
L 374.963529 301.324901 
L 376.164174 303.849661 
L 377.36482 307.825337 
L 380.966756 307.723993 
L 382.167402 308.304078 
L 383.368047 309.417917 
L 384.568693 308.1343 
L 385.769338 310.153453 
L 389.371275 311.973174 
L 390.57192 310.67962 
L 391.772566 310.456337 
L 392.973211 313.053331 
L 397.775793 340.092692 
L 398.976439 336.373048 
L 400.177084 334.418999 
L 401.37773 329.320125 
L 402.578375 327.67492 
L 406.180312 325.621072 
L 407.380958 325.846602 
L 408.581603 327.135211 
L 409.782249 326.419021 
L 410.982894 326.144984 
L 414.584831 324.354853 
L 415.785476 324.813933 
L 416.986122 323.563427 
L 418.186767 324.738972 
L 419.387413 324.019149 
L 422.989349 324.62064 
L 424.189995 325.633648 
L 425.39064 324.949483 
L 432.594513 321.826696 
L 434.995804 317.576023 
L 436.19645 318.280071 
L 439.798386 313.513357 
L 440.999032 312.923446 
L 442.199677 309.678462 
L 443.400323 312.543808 
L 444.600968 313.656717 
L 448.202905 313.170911 
L 449.40355 310.735836 
L 450.604196 308.698628 
L 451.804841 310.195008 
L 453.005487 312.128033 
L 456.607423 312.543658 
L 457.808069 313.721676 
L 459.008714 313.61314 
L 460.20936 311.493973 
L 461.410005 312.965892 
L 466.212587 312.773678 
L 467.413233 311.166279 
L 468.613878 310.028127 
L 469.814524 309.27152 
L 473.41646 308.148169 
L 474.617106 308.756379 
L 475.817751 305.667746 
L 477.018397 305.621452 
L 478.219042 306.423121 
L 481.820979 305.364628 
L 483.021625 306.30309 
L 484.22227 306.478197 
L 485.422916 310.775484 
L 486.623561 310.969462 
L 490.225498 309.681327 
L 492.626789 301.813492 
L 493.827434 303.032861 
L 495.02808 303.431123 
L 498.630016 301.575332 
L 499.830662 301.12289 
L 501.031307 301.420335 
L 502.231953 299.326638 
L 503.432598 299.381466 
L 507.034535 300.998384 
L 508.23518 297.663655 
L 509.435826 297.447922 
L 511.837117 293.812329 
L 515.439053 293.477826 
L 516.639699 291.954821 
L 517.840344 291.068592 
L 520.241635 287.363442 
L 523.843572 284.762085 
L 525.044217 282.646873 
L 526.244863 281.412116 
L 527.445508 278.783696 
L 528.646154 279.539536 
L 532.24809 276.886672 
L 533.448736 272.408258 
L 534.649381 274.340172 
L 535.850027 278.739351 
L 537.050672 280.705324 
L 540.652609 279.605578 
L 541.853254 276.377458 
L 543.0539 274.189162 
L 544.254545 275.877497 
L 545.455191 278.727028 
L 550.257773 275.965031 
L 551.458419 267.703136 
L 552.659064 268.660356 
L 553.85971 264.811311 
L 557.461646 259.720146 
L 558.662292 263.264854 
L 559.862937 263.076639 
L 561.063583 263.2479 
L 562.264228 256.917178 
L 565.866165 250.71484 
L 567.06681 253.895858 
L 568.267456 259.373039 
L 569.468101 256.358262 
L 570.668747 251.493881 
L 574.270683 246.834851 
L 575.471329 249.598957 
L 576.671974 249.899596 
L 577.87262 258.93327 
L 579.073265 246.886445 
L 582.675202 246.76882 
L 583.875847 248.458488 
L 585.076493 246.701052 
L 586.277138 241.430613 
L 587.477784 242.544897 
L 591.07972 241.103214 
L 592.280366 241.20614 
L 593.481011 236.841717 
L 594.681657 240.796031 
L 595.882302 241.259194 
L 599.484239 239.748832 
L 600.684884 242.034292 
L 601.88553 237.331439 
L 603.086175 235.383258 
L 604.286821 240.560073 
L 607.888757 236.029801 
L 609.089403 232.672813 
L 619.895212 230.268925 
L 621.095858 239.268444 
L 624.697795 244.204699 
L 625.89844 253.176826 
L 627.099086 247.171899 
L 628.299731 245.003025 
L 629.500377 254.272524 
L 633.102313 251.126472 
L 634.302959 247.262167 
L 635.503604 249.061441 
L 636.70425 248.115174 
L 637.904895 239.433179 
L 641.506832 229.267208 
L 642.707477 230.27903 
L 643.908123 226.592568 
L 645.108768 228.386856 
L 646.309414 232.75672 
L 649.91135 230.878056 
L 651.111996 235.788585 
L 652.312641 235.945366 
L 653.513287 232.371734 
L 658.315869 236.147589 
L 659.516514 236.830997 
L 660.71716 239.342502 
L 661.917805 237.990082 
L 663.118451 245.362023 
L 666.720387 247.390981 
L 667.921033 257.186695 
L 669.121678 259.546214 
L 670.322324 262.550826 
L 671.522969 271.008134 
L 675.124906 270.902788 
L 676.325551 268.54979 
L 677.526197 270.93151 
L 678.726842 271.902914 
L 679.927488 269.139278 
L 683.529424 263.160614 
L 684.73007 266.185279 
L 685.930715 267.889803 
L 687.131361 268.028327 
L 688.332006 263.528146 
L 691.933943 261.458541 
L 693.134588 256.467814 
L 694.335234 255.788388 
L 695.53588 262.198951 
L 696.736525 256.936504 
L 700.338462 256.959707 
L 701.539107 260.693323 
L 702.739753 260.073437 
L 703.940398 262.843961 
L 705.141044 259.369461 
L 708.74298 256.113132 
L 709.943626 257.553375 
L 711.144271 255.96239 
L 712.344917 249.149358 
L 713.545562 245.475617 
L 717.147499 247.949605 
L 718.348144 249.953243 
L 719.54879 245.08126 
L 725.552017 236.78477 
L 726.752663 221.900255 
L 727.953308 223.647626 
L 729.153954 223.593177 
L 730.354599 211.33774 
L 733.956536 180.743838 
L 735.157181 203.371366 
L 736.357827 195.865858 
L 737.558472 207.139049 
L 738.759118 207.013384 
L 742.361054 209.71646 
L 743.5617 213.87603 
L 744.762345 204.880753 
L 745.962991 209.286982 
L 747.163636 204.580996 
L 747.163636 204.580996 
" clip-path="url(#pc7ea69d859)" style="fill: none; stroke: #1f77b4; stroke-width: 2; stroke-linecap: square"/>
   </g>
   <g id="line2d_34">
    <path d="M 138.436364 359.190315 
L 139.637009 360.683702 
L 140.837655 360.185882 
L 142.0383 362.17709 
L 145.640237 365.092738 
L 146.840882 365.092738 
L 148.041528 365.590558 
L 149.242173 366.372816 
L 150.442819 367.439511 
L 156.446046 366.728381 
L 157.646692 364.808301 
L 158.847337 364.168224 
L 162.449274 363.528222 
L 163.649919 353.287817 
L 164.850565 349.945477 
L 166.05121 338.140631 
L 167.251856 321.855548 
L 170.853792 295.970137 
L 180.458956 283.240703 
L 181.659602 310.975142 
L 182.860247 306.423851 
L 184.060893 314.175226 
L 187.662829 309.695063 
L 188.863475 317.446513 
L 190.06412 319.224338 
L 191.264766 322.282241 
L 192.465412 311.401834 
L 196.067348 311.401834 
L 197.267994 309.695063 
L 198.468639 308.628368 
L 199.669285 311.757399 
L 200.86993 309.695063 
L 204.471867 309.268445 
L 205.672512 311.615144 
L 206.873158 314.601919 
L 208.073803 314.601919 
L 209.274449 314.033045 
L 212.876385 310.264012 
L 214.077031 302.797073 
L 215.277676 304.646026 
L 216.478322 294.903442 
L 217.678967 298.743603 
L 221.280904 297.250141 
L 222.481549 300.521428 
L 223.682195 298.672475 
L 226.083486 308.628368 
L 229.685422 309.837319 
L 230.886068 308.415059 
L 232.086713 307.703929 
L 233.287359 307.348364 
L 234.488004 315.881997 
L 239.290586 318.015387 
L 240.491232 313.464096 
L 241.691877 315.526433 
L 242.892523 312.468529 
L 246.494459 310.33514 
L 247.695105 310.050703 
L 248.89575 311.544016 
L 250.096396 312.041836 
L 251.297041 308.486112 
L 254.898978 308.699496 
L 256.099623 306.494979 
L 257.300269 307.206108 
L 258.500914 304.219333 
L 259.70156 311.117397 
L 263.303497 312.824094 
L 264.504142 312.041836 
L 265.704788 310.832886 
L 266.905433 310.406193 
L 268.106079 311.259579 
L 271.708015 310.975142 
L 272.908661 307.632801 
L 274.109306 307.419418 
L 275.309952 307.348364 
L 276.510597 307.774982 
L 280.112534 306.423851 
L 281.313179 310.975142 
L 283.71447 319.011029 
L 284.915116 321.855548 
L 288.517052 322.993371 
L 289.717698 321.07329 
L 290.918343 321.499983 
L 292.118989 322.068857 
L 293.319634 325.126761 
L 296.921571 326.193455 
L 298.122216 319.224338 
L 299.322862 320.859981 
L 300.523507 320.717725 
L 301.724153 319.793286 
L 306.526735 318.086515 
L 307.72738 320.646598 
L 308.928026 319.86434 
L 310.128671 317.588769 
L 313.730608 319.15321 
L 324.536417 320.57547 
L 325.737063 317.375385 
L 326.937708 313.393043 
L 330.539645 313.108531 
L 331.74029 314.246354 
L 332.940936 311.544016 
L 334.141581 312.255146 
L 335.342227 310.121756 
L 338.944164 309.62401 
L 340.144809 311.686271 
L 341.345455 310.192884 
L 342.5461 311.046269 
L 343.746746 307.206108 
L 347.348682 308.130622 
L 348.549328 311.046269 
L 349.749973 308.699496 
L 350.950619 307.774982 
L 352.151264 312.96635 
L 356.953846 314.175226 
L 358.154492 312.96635 
L 359.355137 309.055061 
L 360.555783 309.766191 
L 364.157719 310.904014 
L 365.358365 310.050703 
L 366.55901 310.761832 
L 367.759656 312.184092 
L 368.960301 305.001591 
L 372.562238 305.854977 
L 373.762883 305.2149 
L 374.963529 304.788207 
L 376.164174 307.134981 
L 377.36482 311.828527 
L 380.966756 310.619577 
L 382.167402 310.477321 
L 383.368047 311.615144 
L 384.568693 310.619577 
L 385.769338 311.970708 
L 389.371275 313.67748 
L 391.772566 314.033045 
L 392.973211 315.455305 
L 397.775793 334.229342 
L 400.177084 329.180305 
L 401.37773 324.700068 
L 402.578375 323.917885 
L 407.380958 323.135627 
L 408.581603 322.49555 
L 409.782249 322.282241 
L 410.982894 321.571111 
L 414.584831 321.428855 
L 416.986122 320.931035 
L 419.387413 320.931035 
L 422.989349 321.357802 
L 424.189995 321.855548 
L 425.39064 322.068857 
L 432.594513 319.437647 
L 434.995804 316.095307 
L 436.19645 316.450946 
L 439.798386 313.250787 
L 440.999032 312.96635 
L 442.199677 309.339498 
L 443.400323 311.757399 
L 444.600968 313.321915 
L 448.202905 313.748608 
L 449.40355 312.326348 
L 450.604196 311.188451 
L 451.804841 311.330707 
L 453.005487 313.393043 
L 456.607423 314.886431 
L 457.808069 316.379744 
L 459.008714 316.664255 
L 460.20936 314.957484 
L 461.410005 315.455305 
L 466.212587 315.59756 
L 467.413233 314.38861 
L 468.613878 313.67748 
L 469.814524 313.535224 
L 473.41646 312.895222 
L 474.617106 314.530866 
L 475.817751 312.255146 
L 477.018397 312.112964 
L 478.219042 313.961917 
L 481.820979 313.250787 
L 483.021625 313.321915 
L 484.22227 312.968365 
L 485.422916 315.22371 
L 486.623561 314.859935 
L 490.225498 313.91415 
L 491.426143 310.640251 
L 492.626789 305.911327 
L 493.827434 307.002651 
L 495.02808 308.675986 
L 499.830662 306.857111 
L 501.031307 306.566106 
L 502.231953 304.892847 
L 503.432598 303.655982 
L 507.034535 304.965542 
L 508.23518 302.491962 
L 509.435826 302.710197 
L 510.636471 301.255172 
L 511.837117 300.236618 
L 516.639699 300.309388 
L 517.840344 300.964167 
L 520.241635 296.380783 
L 523.843572 294.561909 
L 525.044217 291.360779 
L 526.244863 291.506319 
L 527.445508 289.614749 
L 528.646154 291.215314 
L 532.24809 290.414994 
L 533.448736 288.8872 
L 534.649381 289.105509 
L 535.850027 294.707448 
L 537.050672 296.308013 
L 540.652609 294.925684 
L 541.853254 292.670339 
L 543.0539 291.870094 
L 544.254545 291.942864 
L 545.455191 292.670339 
L 549.057127 291.288009 
L 550.257773 289.39644 
L 551.458419 286.850165 
L 552.659064 287.359405 
L 553.85971 284.52205 
L 557.461646 282.194011 
L 558.662292 283.794501 
L 559.862937 279.502121 
L 561.063583 278.483567 
L 562.264228 271.135523 
L 565.866165 264.878879 
L 567.06681 266.624909 
L 568.267456 271.426603 
L 569.468101 265.315349 
L 570.668747 262.259759 
L 574.270683 261.168435 
L 575.471329 263.060004 
L 576.671974 266.042899 
L 577.87262 272.808858 
L 579.073265 265.679124 
L 582.675202 265.606428 
L 583.875847 267.570693 
L 585.076493 266.843144 
L 586.277138 257.967305 
L 587.477784 260.804734 
L 591.07972 260.22265 
L 592.280366 260.87743 
L 593.481011 258.47662 
L 594.681657 262.768999 
L 595.882302 262.04145 
L 599.484239 260.9502 
L 600.684884 260.731964 
L 601.88553 257.74907 
L 603.086175 255.420956 
L 604.286821 258.622085 
L 607.888757 253.020146 
L 609.089403 252.074361 
L 619.895212 246.617887 
L 621.095858 253.674926 
L 624.697795 255.639265 
L 625.89844 259.05863 
L 627.099086 254.620711 
L 628.299731 253.529386 
L 629.500377 260.586425 
L 633.102313 259.422405 
L 634.302959 254.329706 
L 635.503604 255.420956 
L 636.70425 254.111471 
L 637.904895 249.964556 
L 641.506832 245.890338 
L 642.707477 247.636442 
L 643.908123 243.271293 
L 645.108768 246.108647 
L 646.309414 250.983037 
L 649.91135 250.473797 
L 651.111996 252.947376 
L 652.312641 252.510906 
L 653.513287 247.418207 
L 654.713932 248.145757 
L 658.315869 247.272667 
L 659.516514 250.473797 
L 660.71716 250.328331 
L 661.917805 246.908967 
L 663.118451 252.074361 
L 666.720387 254.329706 
L 667.921033 256.293971 
L 669.121678 255.275491 
L 670.322324 256.803285 
L 671.522969 264.951574 
L 675.124906 265.460814 
L 676.325551 262.550764 
L 677.526197 260.440885 
L 678.726842 260.731964 
L 679.927488 259.78618 
L 683.529424 256.00304 
L 685.930715 259.05863 
L 687.131361 258.185615 
L 688.332006 255.202721 
L 691.933943 252.729141 
L 693.134588 254.475171 
L 694.335234 254.911716 
L 695.53588 257.385295 
L 696.736525 255.493726 
L 700.338462 257.458065 
L 701.539107 260.87743 
L 702.739753 255.129951 
L 703.940398 257.385295 
L 705.141044 255.93027 
L 708.74298 252.874606 
L 709.943626 252.147131 
L 711.144271 250.910341 
L 712.344917 250.255561 
L 713.545562 248.946002 
L 717.147499 250.473797 
L 718.348144 249.746321 
L 719.54879 251.201346 
L 725.552017 244.580852 
L 726.752663 239.124379 
L 727.953308 240.433938 
L 729.153954 243.198523 
L 730.354599 241.597958 
L 733.956536 239.560849 
L 735.157181 240.797713 
L 736.357827 242.980288 
L 737.558472 242.325508 
L 738.759118 243.489528 
L 742.361054 243.370409 
L 743.5617 244.41531 
L 744.762345 243.967496 
L 745.962991 244.191403 
L 747.163636 245.908026 
L 747.163636 245.908026 
" clip-path="url(#pc7ea69d859)" style="fill: none; stroke: #ff7f0e; stroke-opacity: 0.7; stroke-width: 1.5; stroke-linecap: square"/>
   </g>
   <g id="line2d_35">
    <path d="M 138.436364 357.213419 
L 139.637009 357.213419 
L 140.837655 355.483848 
L 142.0383 359.886392 
L 145.640237 359.100224 
L 146.840882 359.257457 
L 148.041528 356.741718 
L 149.242173 357.213419 
L 150.442819 359.729158 
L 156.446046 360.515327 
L 157.646692 358.156821 
L 158.847337 359.886392 
L 162.449274 360.987028 
L 163.649919 347.464929 
L 164.850565 343.848554 
L 166.05121 331.898793 
L 167.251856 304.540128 
L 170.853792 246.04919 
L 180.458956 175.922957 
L 181.659602 244.476853 
L 182.860247 255.168745 
L 184.060893 273.093387 
L 187.662829 264.2883 
L 188.863475 275.451893 
L 190.06412 282.527409 
L 191.264766 283.313578 
L 192.465412 257.998951 
L 196.067348 256.269381 
L 197.267994 255.011511 
L 198.468639 257.055549 
L 199.669285 261.77256 
L 200.86993 251.709603 
L 204.471867 252.967473 
L 205.672512 261.300859 
L 206.873158 265.074468 
L 208.073803 263.344897 
L 209.274449 269.319778 
L 212.876385 259.728522 
L 214.077031 243.376217 
L 215.277676 247.464293 
L 216.478322 234.413896 
L 217.678967 238.187505 
L 221.280904 227.652846 
L 222.481549 228.281781 
L 223.682195 224.036471 
L 226.083486 250.451734 
L 229.685422 259.099587 
L 230.886068 248.722163 
L 232.086713 247.464293 
L 233.287359 247.464293 
L 234.488004 261.143625 
L 238.089941 261.77256 
L 239.290586 265.388936 
L 240.491232 256.583848 
L 241.691877 262.401495 
L 242.892523 254.382576 
L 246.494459 249.351098 
L 247.695105 251.395136 
L 248.89575 255.79768 
L 250.096396 254.697044 
L 251.297041 247.307059 
L 254.898978 250.137266 
L 256.099623 247.778761 
L 257.300269 248.250462 
L 258.500914 243.533451 
L 259.70156 252.181304 
L 263.303497 257.684484 
L 264.504142 257.52725 
L 265.704788 257.684484 
L 266.905433 255.640446 
L 268.106079 255.954913 
L 271.708015 259.414055 
L 272.908661 255.79768 
L 274.109306 257.998951 
L 275.309952 256.426614 
L 276.510597 256.898315 
L 280.112534 256.583848 
L 281.313179 266.489571 
L 284.915116 285.986551 
L 288.517052 286.301018 
L 289.717698 284.099746 
L 290.918343 287.558888 
L 292.118989 287.087187 
L 293.319634 292.275899 
L 296.921571 291.646964 
L 298.122216 276.866996 
L 299.322862 282.684643 
L 300.523507 280.955072 
L 301.724153 278.439333 
L 305.326089 272.77892 
L 306.526735 271.52105 
L 307.72738 273.250621 
L 308.928026 274.351257 
L 310.128671 269.319778 
L 313.730608 278.124866 
L 324.536417 278.7538 
L 326.937708 261.929794 
L 330.539645 260.200223 
L 331.74029 264.760001 
L 332.940936 258.942354 
L 334.141581 261.300859 
L 335.342227 255.168745 
L 338.944164 253.910875 
L 340.144809 260.514691 
L 341.345455 253.439174 
L 342.5461 253.596408 
L 343.746746 244.948554 
L 347.348682 247.778761 
L 348.549328 251.552369 
L 349.749973 247.464293 
L 350.950619 249.193864 
L 352.151264 262.401495 
L 355.753201 258.313419 
L 356.953846 259.099587 
L 358.154492 259.099587 
L 359.355137 252.495772 
L 360.555783 257.370017 
L 365.358365 257.52725 
L 366.55901 259.099587 
L 367.759656 262.873196 
L 368.960301 253.28194 
L 372.562238 255.325978 
L 373.762883 253.439174 
L 374.963529 254.53981 
L 376.164174 257.684484 
L 377.36482 264.917234 
L 380.966756 264.917234 
L 383.368047 267.118506 
L 384.568693 266.332338 
L 385.769338 268.53361 
L 389.371275 272.464452 
L 390.57192 272.77892 
L 391.772566 272.464452 
L 392.973211 278.282099 
L 397.775793 317.904993 
L 398.976439 313.345216 
L 400.177084 310.357775 
L 401.37773 304.068427 
L 402.578375 299.508649 
L 406.180312 299.036948 
L 407.380958 299.351416 
L 408.581603 302.967791 
L 409.782249 302.49609 
L 410.982894 301.709921 
L 414.584831 296.99291 
L 415.785476 298.408014 
L 416.986122 295.263339 
L 418.186767 297.150144 
L 419.387413 295.106106 
L 422.989349 297.307378 
L 424.189995 297.779079 
L 425.39064 294.948872 
L 432.594513 289.131225 
L 433.795159 287.716122 
L 434.995804 282.370176 
L 436.19645 285.043149 
L 439.798386 276.709762 
L 440.999032 277.810398 
L 442.199677 274.036789 
L 443.400323 280.640605 
L 444.600968 281.26954 
L 448.202905 282.212942 
L 450.604196 277.181463 
L 451.804841 280.01167 
L 453.005487 283.470812 
L 456.607423 286.143785 
L 457.808069 287.716122 
L 459.008714 288.973991 
L 460.20936 284.25698 
L 461.410005 286.929953 
L 466.212587 286.143785 
L 468.613878 278.911034 
L 469.814524 279.854436 
L 473.41646 277.181463 
L 474.617106 280.640605 
L 475.817751 276.552529 
L 477.018397 276.238061 
L 478.219042 279.382735 
L 481.820979 276.709762 
L 483.021625 278.124866 
L 484.22227 277.181463 
L 485.422916 281.741241 
L 486.623561 284.414214 
L 490.225498 282.841877 
L 491.426143 275.609126 
L 492.626789 265.388936 
L 493.827434 267.904675 
L 495.02808 266.646805 
L 498.630016 261.615327 
L 499.830662 262.715963 
L 501.031307 266.175104 
L 502.231953 260.357457 
L 507.034535 265.231702 
L 508.23518 257.52725 
L 509.435826 256.898315 
L 510.636471 255.954913 
L 511.837117 253.439174 
L 515.439053 254.697044 
L 516.639699 249.193864 
L 517.840344 250.137266 
L 519.04099 243.690684 
L 520.241635 242.904516 
L 523.843572 239.288141 
L 525.044217 237.086869 
L 526.244863 237.401336 
L 527.445508 231.426455 
L 528.646154 232.527091 
L 532.24809 228.753482 
L 533.448736 222.3069 
L 534.649381 228.281781 
L 535.850027 235.200064 
L 537.050672 234.885597 
L 540.652609 233.31326 
L 541.853254 232.212624 
L 543.0539 229.696885 
L 544.254545 232.212624 
L 545.455191 233.470493 
L 549.057127 226.394977 
L 550.257773 221.992433 
L 551.458419 208.155867 
L 552.659064 212.401177 
L 553.85971 202.495454 
L 557.461646 191.017393 
L 558.662292 192.118029 
L 559.862937 190.073991 
L 561.063583 192.58973 
L 562.264228 178.438697 
L 565.866165 166.646169 
L 568.267456 173.092751 
L 569.468101 155.797043 
L 570.668747 146.520255 
L 574.270683 136.771765 
L 575.471329 149.193228 
L 576.671974 145.734086 
L 577.87262 164.444897 
L 579.073265 134.098792 
L 582.675202 139.759205 
L 583.875847 149.664929 
L 585.076493 144.947918 
L 586.277138 121.362862 
L 587.477784 126.079873 
L 591.07972 119.476057 
L 592.280366 116.016916 
L 593.481011 106.582894 
L 594.681657 114.759046 
L 595.882302 115.545215 
L 599.484239 112.400541 
L 600.684884 110.67097 
L 601.88553 100.136312 
L 603.086175 92.117393 
L 604.286821 105.010557 
L 607.888757 91.802925 
L 609.089403 91.173991 
L 619.895212 88.343784 
L 621.095858 110.356503 
L 624.697795 116.803084 
L 625.89844 135.671129 
L 627.099086 124.822003 
L 628.299731 123.092433 
L 629.500377 138.658569 
L 633.102313 129.853482 
L 634.302959 115.545215 
L 635.503604 119.16159 
L 636.70425 119.318824 
L 637.904895 102.18035 
L 641.506832 92.43186 
L 642.707477 93.060795 
L 643.908123 78.123593 
L 645.108768 87.714849 
L 646.309414 99.192909 
L 649.91135 97.620572 
L 651.111996 107.68353 
L 652.312641 102.966518 
L 653.513287 93.68973 
L 654.713932 96.205469 
L 658.315869 100.450779 
L 659.516514 107.526296 
L 660.71716 108.312464 
L 661.917805 96.67717 
L 663.118451 110.67097 
L 666.720387 112.086073 
L 667.921033 117.274786 
L 669.121678 116.331383 
L 670.322324 121.205628 
L 671.522969 140.38814 
L 675.124906 139.759205 
L 676.325551 131.425819 
L 677.526197 121.048394 
L 678.726842 123.4069 
L 679.927488 119.790525 
L 683.529424 113.815644 
L 684.73007 117.117552 
L 685.930715 122.306264 
L 687.131361 117.274786 
L 688.332006 111.299905 
L 691.933943 98.406741 
L 693.134588 95.733768 
L 694.335234 95.104833 
L 695.53588 102.337584 
L 696.736525 97.93504 
L 700.338462 106.42566 
L 701.539107 115.859682 
L 702.739753 99.507377 
L 703.940398 110.828204 
L 705.141044 108.469698 
L 708.74298 97.777806 
L 709.943626 96.205469 
L 711.144271 91.960159 
L 712.344917 90.387822 
L 713.545562 89.758887 
L 717.147499 93.060795 
L 718.348144 89.287186 
L 719.54879 96.048235 
L 725.552017 81.111033 
L 726.752663 77.651892 
L 727.953308 76.394022 
L 729.153954 80.167631 
L 730.354599 75.922321 
L 733.956536 66.96 
L 735.157181 77.180191 
L 736.357827 73.092114 
L 737.558472 69.94744 
L 738.759118 70.890843 
L 742.361054 75.293386 
L 743.5617 83.94124 
L 744.762345 81.111033 
L 745.962991 75.765087 
L 747.163636 72.305946 
L 747.163636 72.305946 
" clip-path="url(#pc7ea69d859)" style="fill: none; stroke: #2ca02c; stroke-opacity: 0.7; stroke-width: 1.5; stroke-linecap: square"/>
   </g>
   <g id="patch_3">
    <path d="M 108 384.48 
L 108 51.84 
" style="fill: none; stroke: #000000; stroke-width: 0.8; stroke-linejoin: miter; stroke-linecap: square"/>
   </g>
   <g id="patch_4">
    <path d="M 777.6 384.48 
L 777.6 51.84 
" style="fill: none; stroke: #000000; stroke-width: 0.8; stroke-linejoin: miter; stroke-linecap: square"/>
   </g>
   <g id="patch_5">
    <path d="M 108 384.48 
L 777.6 384.48 
" style="fill: none; stroke: #000000; stroke-width: 0.8; stroke-linejoin: miter; stroke-linecap: square"/>
   </g>
   <g id="patch_6">
    <path d="M 108 51.84 
L 777.6 51.84 
" style="fill: none; stroke: #000000; stroke-width: 0.8; stroke-linejoin: miter; stroke-linecap: square"/>
   </g>
   <g id="text_17">
    <!-- ETF Strategy vs Benchmarks (2024-09-01 ~ Present) -->
    <g transform="translate(283.678125 45.84) scale(0.12 -0.12)">
     <defs>
      <path id="DejaVuSans-45" d="M 628 4666 
L 3578 4666 
L 3578 4134 
L 1259 4134 
L 1259 2753 
L 3481 2753 
L 3481 2222 
L 1259 2222 
L 1259 531 
L 3634 531 
L 3634 0 
L 628 0 
L 628 4666 
z
" transform="scale(0.015625)"/>
      <path id="DejaVuSans-54" d="M -19 4666 
L 3928 4666 
L 3928 4134 
L 2272 4134 
L 2272 0 
L 1638 0 
L 1638 4134 
L -19 4134 
L -19 4666 
z
" transform="scale(0.015625)"/>
      <path id="DejaVuSans-46" d="M 628 4666 
L 3309 4666 
L 3309 4134 
L 1259 4134 
L 1259 2759 
L 3109 2759 
L 3109 2228 
L 1259 2228 
L 1259 0 
L 628 0 
L 628 4666 
z
" transform="scale(0.015625)"/>
      <path id="DejaVuSans-20" transform="scale(0.015625)"/>
      <path id="DejaVuSans-53" d="M 3425 4513 
L 3425 3897 
Q 3066 4069 2747 4153 
Q 2428 4238 2131 4238 
Q 1616 4238 1336 4038 
Q 1056 3838 1056 3469 
Q 1056 3159 1242 3001 
Q 1428 2844 1947 2747 
L 2328 2669 
Q 3034 2534 3370 2195 
Q 3706 1856 3706 1288 
Q 3706 609 3251 259 
Q 2797 -91 1919 -91 
Q 1588 -91 1214 -16 
Q 841 59 441 206 
L 441 856 
Q 825 641 1194 531 
Q 1563 422 1919 422 
Q 2459 422 2753 634 
Q 3047 847 3047 1241 
Q 3047 1584 2836 1778 
Q 2625 1972 2144 2069 
L 1759 2144 
Q 1053 2284 737 2584 
Q 422 2884 422 3419 
Q 422 4038 858 4394 
Q 1294 4750 2059 4750 
Q 2388 4750 2728 4690 
Q 3069 4631 3425 4513 
z
" transform="scale(0.015625)"/>
      <path id="DejaVuSans-74" d="M 1172 4494 
L 1172 3500 
L 2356 3500 
L 2356 3053 
L 1172 3053 
L 1172 1153 
Q 1172 725 1289 603 
Q 1406 481 1766 481 
L 2356 481 
L 2356 0 
L 1766 0 
Q 1100 0 847 248 
Q 594 497 594 1153 
L 594 3053 
L 172 3053 
L 172 3500 
L 594 3500 
L 594 4494 
L 1172 4494 
z
" transform="scale(0.015625)"/>
      <path id="DejaVuSans-72" d="M 2631 2963 
Q 2534 3019 2420 3045 
Q 2306 3072 2169 3072 
Q 1681 3072 1420 2755 
Q 1159 2438 1159 1844 
L 1159 0 
L 581 0 
L 581 3500 
L 1159 3500 
L 1159 2956 
Q 1341 3275 1631 3429 
Q 1922 3584 2338 3584 
Q 2397 3584 2469 3576 
Q 2541 3569 2628 3553 
L 2631 2963 
z
" transform="scale(0.015625)"/>
      <path id="DejaVuSans-61" d="M 2194 1759 
Q 1497 1759 1228 1600 
Q 959 1441 959 1056 
Q 959 750 1161 570 
Q 1363 391 1709 391 
Q 2188 391 2477 730 
Q 2766 1069 2766 1631 
L 2766 1759 
L 2194 1759 
z
M 3341 1997 
L 3341 0 
L 2766 0 
L 2766 531 
Q 2569 213 2275 61 
Q 1981 -91 1556 -91 
Q 1019 -91 701 211 
Q 384 513 384 1019 
Q 384 1609 779 1909 
Q 1175 2209 1959 2209 
L 2766 2209 
L 2766 2266 
Q 2766 2663 2505 2880 
Q 2244 3097 1772 3097 
Q 1472 3097 1187 3025 
Q 903 2953 641 2809 
L 641 3341 
Q 956 3463 1253 3523 
Q 1550 3584 1831 3584 
Q 2591 3584 2966 3190 
Q 3341 2797 3341 1997 
z
" transform="scale(0.015625)"/>
      <path id="DejaVuSans-65" d="M 3597 1894 
L 3597 1613 
L 953 1613 
Q 991 1019 1311 708 
Q 1631 397 2203 397 
Q 2534 397 2845 478 
Q 3156 559 3463 722 
L 3463 178 
Q 3153 47 2828 -22 
Q 2503 -91 2169 -91 
Q 1331 -91 842 396 
Q 353 884 353 1716 
Q 353 2575 817 3079 
Q 1281 3584 2069 3584 
Q 2775 3584 3186 3129 
Q 3597 2675 3597 1894 
z
M 3022 2063 
Q 3016 2534 2758 2815 
Q 2500 3097 2075 3097 
Q 1594 3097 1305 2825 
Q 1016 2553 972 2059 
L 3022 2063 
z
" transform="scale(0.015625)"/>
      <path id="DejaVuSans-67" d="M 2906 1791 
Q 2906 2416 2648 2759 
Q 2391 3103 1925 3103 
Q 1463 3103 1205 2759 
Q 947 2416 947 1791 
Q 947 1169 1205 825 
Q 1463 481 1925 481 
Q 2391 481 2648 825 
Q 2906 1169 2906 1791 
z
M 3481 434 
Q 3481 -459 3084 -895 
Q 2688 -1331 1869 -1331 
Q 1566 -1331 1297 -1286 
Q 1028 -1241 775 -1147 
L 775 -588 
Q 1028 -725 1275 -790 
Q 1522 -856 1778 -856 
Q 2344 -856 2625 -561 
Q 2906 -266 2906 331 
L 2906 616 
Q 2728 306 2450 153 
Q 2172 0 1784 0 
Q 1141 0 747 490 
Q 353 981 353 1791 
Q 353 2603 747 3093 
Q 1141 3584 1784 3584 
Q 2172 3584 2450 3431 
Q 2728 3278 2906 2969 
L 2906 3500 
L 3481 3500 
L 3481 434 
z
" transform="scale(0.015625)"/>
      <path id="DejaVuSans-79" d="M 2059 -325 
Q 1816 -950 1584 -1140 
Q 1353 -1331 966 -1331 
L 506 -1331 
L 506 -850 
L 844 -850 
Q 1081 -850 1212 -737 
Q 1344 -625 1503 -206 
L 1606 56 
L 191 3500 
L 800 3500 
L 1894 763 
L 2988 3500 
L 3597 3500 
L 2059 -325 
z
" transform="scale(0.015625)"/>
      <path id="DejaVuSans-76" d="M 191 3500 
L 800 3500 
L 1894 563 
L 2988 3500 
L 3597 3500 
L 2284 0 
L 1503 0 
L 191 3500 
z
" transform="scale(0.015625)"/>
      <path id="DejaVuSans-73" d="M 2834 3397 
L 2834 2853 
Q 2591 2978 2328 3040 
Q 2066 3103 1784 3103 
Q 1356 3103 1142 2972 
Q 928 2841 928 2578 
Q 928 2378 1081 2264 
Q 1234 2150 1697 2047 
L 1894 2003 
Q 2506 1872 2764 1633 
Q 3022 1394 3022 966 
Q 3022 478 2636 193 
Q 2250 -91 1575 -91 
Q 1294 -91 989 -36 
Q 684 19 347 128 
L 347 722 
Q 666 556 975 473 
Q 1284 391 1588 391 
Q 1994 391 2212 530 
Q 2431 669 2431 922 
Q 2431 1156 2273 1281 
Q 2116 1406 1581 1522 
L 1381 1569 
Q 847 1681 609 1914 
Q 372 2147 372 2553 
Q 372 3047 722 3315 
Q 1072 3584 1716 3584 
Q 2034 3584 2315 3537 
Q 2597 3491 2834 3397 
z
" transform="scale(0.015625)"/>
      <path id="DejaVuSans-42" d="M 1259 2228 
L 1259 519 
L 2272 519 
Q 2781 519 3026 730 
Q 3272 941 3272 1375 
Q 3272 1813 3026 2020 
Q 2781 2228 2272 2228 
L 1259 2228 
z
M 1259 4147 
L 1259 2741 
L 2194 2741 
Q 2656 2741 2882 2914 
Q 3109 3088 3109 3444 
Q 3109 3797 2882 3972 
Q 2656 4147 2194 4147 
L 1259 4147 
z
M 628 4666 
L 2241 4666 
Q 2963 4666 3353 4366 
Q 3744 4066 3744 3513 
Q 3744 3084 3544 2831 
Q 3344 2578 2956 2516 
Q 3422 2416 3680 2098 
Q 3938 1781 3938 1306 
Q 3938 681 3513 340 
Q 3088 0 2303 0 
L 628 0 
L 628 4666 
z
" transform="scale(0.015625)"/>
      <path id="DejaVuSans-6e" d="M 3513 2113 
L 3513 0 
L 2938 0 
L 2938 2094 
Q 2938 2591 2744 2837 
Q 2550 3084 2163 3084 
Q 1697 3084 1428 2787 
Q 1159 2491 1159 1978 
L 1159 0 
L 581 0 
L 581 3500 
L 1159 3500 
L 1159 2956 
Q 1366 3272 1645 3428 
Q 1925 3584 2291 3584 
Q 2894 3584 3203 3211 
Q 3513 2838 3513 2113 
z
" transform="scale(0.015625)"/>
      <path id="DejaVuSans-63" d="M 3122 3366 
L 3122 2828 
Q 2878 2963 2633 3030 
Q 2388 3097 2138 3097 
Q 1578 3097 1268 2742 
Q 959 2388 959 1747 
Q 959 1106 1268 751 
Q 1578 397 2138 397 
Q 2388 397 2633 464 
Q 2878 531 3122 666 
L 3122 134 
Q 2881 22 2623 -34 
Q 2366 -91 2075 -91 
Q 1284 -91 818 406 
Q 353 903 353 1747 
Q 353 2603 823 3093 
Q 1294 3584 2113 3584 
Q 2378 3584 2631 3529 
Q 2884 3475 3122 3366 
z
" transform="scale(0.015625)"/>
      <path id="DejaVuSans-68" d="M 3513 2113 
L 3513 0 
L 2938 0 
L 2938 2094 
Q 2938 2591 2744 2837 
Q 2550 3084 2163 3084 
Q 1697 3084 1428 2787 
Q 1159 2491 1159 1978 
L 1159 0 
L 581 0 
L 581 4863 
L 1159 4863 
L 1159 2956 
Q 1366 3272 1645 3428 
Q 1925 3584 2291 3584 
Q 2894 3584 3203 3211 
Q 3513 2838 3513 2113 
z
" transform="scale(0.015625)"/>
      <path id="DejaVuSans-6d" d="M 3328 2828 
Q 3544 3216 3844 3400 
Q 4144 3584 4550 3584 
Q 5097 3584 5394 3201 
Q 5691 2819 5691 2113 
L 5691 0 
L 5113 0 
L 5113 2094 
Q 5113 2597 4934 2840 
Q 4756 3084 4391 3084 
Q 3944 3084 3684 2787 
Q 3425 2491 3425 1978 
L 3425 0 
L 2847 0 
L 2847 2094 
Q 2847 2600 2669 2842 
Q 2491 3084 2119 3084 
Q 1678 3084 1418 2786 
Q 1159 2488 1159 1978 
L 1159 0 
L 581 0 
L 581 3500 
L 1159 3500 
L 1159 2956 
Q 1356 3278 1631 3431 
Q 1906 3584 2284 3584 
Q 2666 3584 2933 3390 
Q 3200 3197 3328 2828 
z
" transform="scale(0.015625)"/>
      <path id="DejaVuSans-6b" d="M 581 4863 
L 1159 4863 
L 1159 1991 
L 2875 3500 
L 3609 3500 
L 1753 1863 
L 3688 0 
L 2938 0 
L 1159 1709 
L 1159 0 
L 581 0 
L 581 4863 
z
" transform="scale(0.015625)"/>
      <path id="DejaVuSans-28" d="M 1984 4856 
Q 1566 4138 1362 3434 
Q 1159 2731 1159 2009 
Q 1159 1288 1364 580 
Q 1569 -128 1984 -844 
L 1484 -844 
Q 1016 -109 783 600 
Q 550 1309 550 2009 
Q 550 2706 781 3412 
Q 1013 4119 1484 4856 
L 1984 4856 
z
" transform="scale(0.015625)"/>
      <path id="DejaVuSans-7e" d="M 4684 2553 
L 4684 1997 
Q 4356 1750 4076 1644 
Q 3797 1538 3494 1538 
Q 3150 1538 2694 1722 
Q 2659 1734 2644 1741 
Q 2622 1750 2575 1766 
Q 2091 1959 1797 1959 
Q 1522 1959 1253 1839 
Q 984 1719 678 1459 
L 678 2016 
Q 1006 2263 1286 2370 
Q 1566 2478 1869 2478 
Q 2213 2478 2672 2291 
Q 2703 2278 2719 2272 
Q 2744 2263 2788 2247 
Q 3272 2053 3566 2053 
Q 3834 2053 4098 2172 
Q 4363 2291 4684 2553 
z
" transform="scale(0.015625)"/>
      <path id="DejaVuSans-50" d="M 1259 4147 
L 1259 2394 
L 2053 2394 
Q 2494 2394 2734 2622 
Q 2975 2850 2975 3272 
Q 2975 3691 2734 3919 
Q 2494 4147 2053 4147 
L 1259 4147 
z
M 628 4666 
L 2053 4666 
Q 2838 4666 3239 4311 
Q 3641 3956 3641 3272 
Q 3641 2581 3239 2228 
Q 2838 1875 2053 1875 
L 1259 1875 
L 1259 0 
L 628 0 
L 628 4666 
z
" transform="scale(0.015625)"/>
      <path id="DejaVuSans-29" d="M 513 4856 
L 1013 4856 
Q 1481 4119 1714 3412 
Q 1947 2706 1947 2009 
Q 1947 1309 1714 600 
Q 1481 -109 1013 -844 
L 513 -844 
Q 928 -128 1133 580 
Q 1338 1288 1338 2009 
Q 1338 2731 1133 3434 
Q 928 4138 513 4856 
z
" transform="scale(0.015625)"/>
     </defs>
     <use xlink:href="#DejaVuSans-45"/>
     <use xlink:href="#DejaVuSans-54" transform="translate(63.183594 0)"/>
     <use xlink:href="#DejaVuSans-46" transform="translate(124.267578 0)"/>
     <use xlink:href="#DejaVuSans-20" transform="translate(181.787109 0)"/>
     <use xlink:href="#DejaVuSans-53" transform="translate(213.574219 0)"/>
     <use xlink:href="#DejaVuSans-74" transform="translate(277.050781 0)"/>
     <use xlink:href="#DejaVuSans-72" transform="translate(316.259766 0)"/>
     <use xlink:href="#DejaVuSans-61" transform="translate(357.373047 0)"/>
     <use xlink:href="#DejaVuSans-74" transform="translate(418.652344 0)"/>
     <use xlink:href="#DejaVuSans-65" transform="translate(457.861328 0)"/>
     <use xlink:href="#DejaVuSans-67" transform="translate(519.384766 0)"/>
     <use xlink:href="#DejaVuSans-79" transform="translate(582.861328 0)"/>
     <use xlink:href="#DejaVuSans-20" transform="translate(642.041016 0)"/>
     <use xlink:href="#DejaVuSans-76" transform="translate(673.828125 0)"/>
     <use xlink:href="#DejaVuSans-73" transform="translate(733.007812 0)"/>
     <use xlink:href="#DejaVuSans-20" transform="translate(785.107422 0)"/>
     <use xlink:href="#DejaVuSans-42" transform="translate(816.894531 0)"/>
     <use xlink:href="#DejaVuSans-65" transform="translate(885.498047 0)"/>
     <use xlink:href="#DejaVuSans-6e" transform="translate(947.021484 0)"/>
     <use xlink:href="#DejaVuSans-63" transform="translate(1010.400391 0)"/>
     <use xlink:href="#DejaVuSans-68" transform="translate(1065.380859 0)"/>
     <use xlink:href="#DejaVuSans-6d" transform="translate(1128.759766 0)"/>
     <use xlink:href="#DejaVuSans-61" transform="translate(1226.171875 0)"/>
     <use xlink:href="#DejaVuSans-72" transform="translate(1287.451172 0)"/>
     <use xlink:href="#DejaVuSans-6b" transform="translate(1328.564453 0)"/>
     <use xlink:href="#DejaVuSans-73" transform="translate(1386.474609 0)"/>
     <use xlink:href="#DejaVuSans-20" transform="translate(1438.574219 0)"/>
     <use xlink:href="#DejaVuSans-28" transform="translate(1470.361328 0)"/>
     <use xlink:href="#DejaVuSans-32" transform="translate(1509.375 0)"/>
     <use xlink:href="#DejaVuSans-30" transform="translate(1572.998047 0)"/>
     <use xlink:href="#DejaVuSans-32" transform="translate(1636.621094 0)"/>
     <use xlink:href="#DejaVuSans-34" transform="translate(1700.244141 0)"/>
     <use xlink:href="#DejaVuSans-2d" transform="translate(1763.867188 0)"/>
     <use xlink:href="#DejaVuSans-30" transform="translate(1799.951172 0)"/>
     <use xlink:href="#DejaVuSans-39" transform="translate(1863.574219 0)"/>
     <use xlink:href="#DejaVuSans-2d" transform="translate(1927.197266 0)"/>
     <use xlink:href="#DejaVuSans-30" transform="translate(1963.28125 0)"/>
     <use xlink:href="#DejaVuSans-31" transform="translate(2026.904297 0)"/>
     <use xlink:href="#DejaVuSans-20" transform="translate(2090.527344 0)"/>
     <use xlink:href="#DejaVuSans-7e" transform="translate(2122.314453 0)"/>
     <use xlink:href="#DejaVuSans-20" transform="translate(2206.103516 0)"/>
     <use xlink:href="#DejaVuSans-50" transform="translate(2237.890625 0)"/>
     <use xlink:href="#DejaVuSans-72" transform="translate(2296.443359 0)"/>
     <use xlink:href="#DejaVuSans-65" transform="translate(2335.306641 0)"/>
     <use xlink:href="#DejaVuSans-73" transform="translate(2396.830078 0)"/>
     <use xlink:href="#DejaVuSans-65" transform="translate(2448.929688 0)"/>
     <use xlink:href="#DejaVuSans-6e" transform="translate(2510.453125 0)"/>
     <use xlink:href="#DejaVuSans-74" transform="translate(2573.832031 0)"/>
     <use xlink:href="#DejaVuSans-29" transform="translate(2613.041016 0)"/>
    </g>
   </g>
   <g id="legend_1">
    <g id="patch_7">
     <path d="M 115 103.874375 
L 243.8875 103.874375 
Q 245.8875 103.874375 245.8875 101.874375 
L 245.8875 58.84 
Q 245.8875 56.84 243.8875 56.84 
L 115 56.84 
Q 113 56.84 113 58.84 
L 113 101.874375 
Q 113 103.874375 115 103.874375 
z
" style="fill: #ffffff; opacity: 0.8; stroke: #cccccc; stroke-linejoin: miter"/>
    </g>
    <g id="line2d_36">
     <path d="M 117 64.938437 
L 127 64.938437 
L 137 64.938437 
" style="fill: none; stroke: #1f77b4; stroke-width: 2; stroke-linecap: square"/>
    </g>
    <g id="text_18">
     <!-- Strategy (+65.6%) -->
     <g transform="translate(145 68.438437) scale(0.1 -0.1)">
      <defs>
       <path id="DejaVuSans-2b" d="M 2944 4013 
L 2944 2272 
L 4684 2272 
L 4684 1741 
L 2944 1741 
L 2944 0 
L 2419 0 
L 2419 1741 
L 678 1741 
L 678 2272 
L 2419 2272 
L 2419 4013 
L 2944 4013 
z
" transform="scale(0.015625)"/>
       <path id="DejaVuSans-25" d="M 4653 2053 
Q 4381 2053 4226 1822 
Q 4072 1591 4072 1178 
Q 4072 772 4226 539 
Q 4381 306 4653 306 
Q 4919 306 5073 539 
Q 5228 772 5228 1178 
Q 5228 1588 5073 1820 
Q 4919 2053 4653 2053 
z
M 4653 2450 
Q 5147 2450 5437 2106 
Q 5728 1763 5728 1178 
Q 5728 594 5436 251 
Q 5144 -91 4653 -91 
Q 4153 -91 3862 251 
Q 3572 594 3572 1178 
Q 3572 1766 3864 2108 
Q 4156 2450 4653 2450 
z
M 1428 4353 
Q 1159 4353 1004 4120 
Q 850 3888 850 3481 
Q 850 3069 1003 2837 
Q 1156 2606 1428 2606 
Q 1700 2606 1854 2837 
Q 2009 3069 2009 3481 
Q 2009 3884 1853 4118 
Q 1697 4353 1428 4353 
z
M 4250 4750 
L 4750 4750 
L 1831 -91 
L 1331 -91 
L 4250 4750 
z
M 1428 4750 
Q 1922 4750 2215 4408 
Q 2509 4066 2509 3481 
Q 2509 2891 2217 2550 
Q 1925 2209 1428 2209 
Q 931 2209 642 2551 
Q 353 2894 353 3481 
Q 353 4063 643 4406 
Q 934 4750 1428 4750 
z
" transform="scale(0.015625)"/>
      </defs>
      <use xlink:href="#DejaVuSans-53"/>
      <use xlink:href="#DejaVuSans-74" transform="translate(63.476562 0)"/>
      <use xlink:href="#DejaVuSans-72" transform="translate(102.685547 0)"/>
      <use xlink:href="#DejaVuSans-61" transform="translate(143.798828 0)"/>
      <use xlink:href="#DejaVuSans-74" transform="translate(205.078125 0)"/>
      <use xlink:href="#DejaVuSans-65" transform="translate(244.287109 0)"/>
      <use xlink:href="#DejaVuSans-67" transform="translate(305.810547 0)"/>
      <use xlink:href="#DejaVuSans-79" transform="translate(369.287109 0)"/>
      <use xlink:href="#DejaVuSans-20" transform="translate(428.466797 0)"/>
      <use xlink:href="#DejaVuSans-28" transform="translate(460.253906 0)"/>
      <use xlink:href="#DejaVuSans-2b" transform="translate(499.267578 0)"/>
      <use xlink:href="#DejaVuSans-36" transform="translate(583.056641 0)"/>
      <use xlink:href="#DejaVuSans-35" transform="translate(646.679688 0)"/>
      <use xlink:href="#DejaVuSans-2e" transform="translate(710.302734 0)"/>
      <use xlink:href="#DejaVuSans-36" transform="translate(742.089844 0)"/>
      <use xlink:href="#DejaVuSans-25" transform="translate(805.712891 0)"/>
      <use xlink:href="#DejaVuSans-29" transform="translate(900.732422 0)"/>
     </g>
    </g>
    <g id="line2d_37">
     <path d="M 117 79.616562 
L 127 79.616562 
L 137 79.616562 
" style="fill: none; stroke: #ff7f0e; stroke-opacity: 0.7; stroke-width: 1.5; stroke-linecap: square"/>
    </g>
    <g id="text_19">
     <!-- CSI300 (+48.2%) -->
     <g transform="translate(145 83.116562) scale(0.1 -0.1)">
      <defs>
       <path id="DejaVuSans-43" d="M 4122 4306 
L 4122 3641 
Q 3803 3938 3442 4084 
Q 3081 4231 2675 4231 
Q 1875 4231 1450 3742 
Q 1025 3253 1025 2328 
Q 1025 1406 1450 917 
Q 1875 428 2675 428 
Q 3081 428 3442 575 
Q 3803 722 4122 1019 
L 4122 359 
Q 3791 134 3420 21 
Q 3050 -91 2638 -91 
Q 1578 -91 968 557 
Q 359 1206 359 2328 
Q 359 3453 968 4101 
Q 1578 4750 2638 4750 
Q 3056 4750 3426 4639 
Q 3797 4528 4122 4306 
z
" transform="scale(0.015625)"/>
       <path id="DejaVuSans-49" d="M 628 4666 
L 1259 4666 
L 1259 0 
L 628 0 
L 628 4666 
z
" transform="scale(0.015625)"/>
      </defs>
      <use xlink:href="#DejaVuSans-43"/>
      <use xlink:href="#DejaVuSans-53" transform="translate(69.824219 0)"/>
      <use xlink:href="#DejaVuSans-49" transform="translate(133.300781 0)"/>
      <use xlink:href="#DejaVuSans-33" transform="translate(162.792969 0)"/>
      <use xlink:href="#DejaVuSans-30" transform="translate(226.416016 0)"/>
      <use xlink:href="#DejaVuSans-30" transform="translate(290.039062 0)"/>
      <use xlink:href="#DejaVuSans-20" transform="translate(353.662109 0)"/>
      <use xlink:href="#DejaVuSans-28" transform="translate(385.449219 0)"/>
      <use xlink:href="#DejaVuSans-2b" transform="translate(424.462891 0)"/>
      <use xlink:href="#DejaVuSans-34" transform="translate(508.251953 0)"/>
      <use xlink:href="#DejaVuSans-38" transform="translate(571.875 0)"/>
      <use xlink:href="#DejaVuSans-2e" transform="translate(635.498047 0)"/>
      <use xlink:href="#DejaVuSans-32" transform="translate(667.285156 0)"/>
      <use xlink:href="#DejaVuSans-25" transform="translate(730.908203 0)"/>
      <use xlink:href="#DejaVuSans-29" transform="translate(825.927734 0)"/>
     </g>
    </g>
    <g id="line2d_38">
     <path d="M 117 94.294687 
L 127 94.294687 
L 137 94.294687 
" style="fill: none; stroke: #2ca02c; stroke-opacity: 0.7; stroke-width: 1.5; stroke-linecap: square"/>
    </g>
    <g id="text_20">
     <!-- ChiNext (+121.4%) -->
     <g transform="translate(145 97.794687) scale(0.1 -0.1)">
      <defs>
       <path id="DejaVuSans-69" d="M 603 3500 
L 1178 3500 
L 1178 0 
L 603 0 
L 603 3500 
z
M 603 4863 
L 1178 4863 
L 1178 4134 
L 603 4134 
L 603 4863 
z
" transform="scale(0.015625)"/>
       <path id="DejaVuSans-4e" d="M 628 4666 
L 1478 4666 
L 3547 763 
L 3547 4666 
L 4159 4666 
L 4159 0 
L 3309 0 
L 1241 3903 
L 1241 0 
L 628 0 
L 628 4666 
z
" transform="scale(0.015625)"/>
       <path id="DejaVuSans-78" d="M 3513 3500 
L 2247 1797 
L 3578 0 
L 2900 0 
L 1881 1375 
L 863 0 
L 184 0 
L 1544 1831 
L 300 3500 
L 978 3500 
L 1906 2253 
L 2834 3500 
L 3513 3500 
z
" transform="scale(0.015625)"/>
      </defs>
      <use xlink:href="#DejaVuSans-43"/>
      <use xlink:href="#DejaVuSans-68" transform="translate(69.824219 0)"/>
      <use xlink:href="#DejaVuSans-69" transform="translate(133.203125 0)"/>
      <use xlink:href="#DejaVuSans-4e" transform="translate(160.986328 0)"/>
      <use xlink:href="#DejaVuSans-65" transform="translate(235.791016 0)"/>
      <use xlink:href="#DejaVuSans-78" transform="translate(295.564453 0)"/>
      <use xlink:href="#DejaVuSans-74" transform="translate(354.744141 0)"/>
      <use xlink:href="#DejaVuSans-20" transform="translate(393.953125 0)"/>
      <use xlink:href="#DejaVuSans-28" transform="translate(425.740234 0)"/>
      <use xlink:href="#DejaVuSans-2b" transform="translate(464.753906 0)"/>
      <use xlink:href="#DejaVuSans-31" transform="translate(548.542969 0)"/>
      <use xlink:href="#DejaVuSans-32" transform="translate(612.166016 0)"/>
      <use xlink:href="#DejaVuSans-31" transform="translate(675.789062 0)"/>
      <use xlink:href="#DejaVuSans-2e" transform="translate(739.412109 0)"/>
      <use xlink:href="#DejaVuSans-34" transform="translate(771.199219 0)"/>
      <use xlink:href="#DejaVuSans-25" transform="translate(834.822266 0)"/>
      <use xlink:href="#DejaVuSans-29" transform="translate(929.841797 0)"/>
     </g>
    </g>
   </g>
  </g>
 </g>
 <defs>
  <clipPath id="pc7ea69d859">
   <rect x="108" y="51.84" width="669.6" height="332.64"/>
  </clipPath>
 </defs>
</svg>
