<?xml version="1.0" encoding="utf-8" standalone="no"?>
<!DOCTYPE svg PUBLIC "-//W3C//DTD SVG 1.1//EN"
  "http://www.w3.org/Graphics/SVG/1.1/DTD/svg11.dtd">
<svg xmlns:xlink="http://www.w3.org/1999/xlink" width="864pt" height="432pt" viewBox="0 0 864 432" xmlns="http://www.w3.org/2000/svg" version="1.1">
 <metadata>
  <rdf:RDF xmlns:dc="http://purl.org/dc/elements/1.1/" xmlns:cc="http://creativecommons.org/ns#" xmlns:rdf="http://www.w3.org/1999/02/22-rdf-syntax-ns#">
   <cc:Work>
    <dc:type rdf:resource="http://purl.org/dc/dcmitype/StillImage"/>
    <dc:date>2026-01-26T16:35:48.269329</dc:date>
    <dc:format>image/svg+xml</dc:format>
    <dc:creator>
     <cc:Agent>
      <dc:title>Matplotlib v3.10.7, https://matplotlib.org/</dc:title>
     </cc:Agent>
    </dc:creator>
   </cc:Work>
  </rdf:RDF>
 </metadata>
 <defs>
  <style type="text/css">*{stroke-linejoin: round; stroke-linecap: butt}</style>
 </defs>
 <g id="figure_1">
  <g id="patch_1">
   <path d="M 0 432 
L 864 432 
L 864 0 
L 0 0 
z
" style="fill: #ffffff"/>
  </g>
  <g id="axes_1">
   <g id="patch_2">
    <path d="M 108 384.48 
L 777.6 384.48 
L 777.6 51.84 
L 108 51.84 
z
" style="fill: #ffffff"/>
   </g>
   <g id="matplotlib.axis_1">
    <g id="xtick_1">
     <g id="line2d_1">
      <path d="M 136.035073 384.48 
L 136.035073 51.84 
" clip-path="url(#p8d380dc0c9)" style="fill: none; stroke: #b0b0b0; stroke-opacity: 0.3; stroke-width: 0.8; stroke-linecap: square"/>
     </g>
     <g id="line2d_2">
      <defs>
       <path id="m1f23820f3c" d="M 0 0 
L 0 3.5 
" style="stroke: #000000; stroke-width: 0.8"/>
      </defs>
      <g>
       <use xlink:href="#m1f23820f3c" x="136.035073" y="384.48" style="stroke: #000000; stroke-width: 0.8"/>
      </g>
     </g>
     <g id="text_1">
      <!-- 2024-09 -->
      <g transform="translate(115.143666 399.078438) scale(0.1 -0.1)">
       <defs>
        <path id="DejaVuSans-32" d="M 1228 531 
L 3431 531 
L 3431 0 
L 469 0 
L 469 531 
Q 828 903 1448 1529 
Q 2069 2156 2228 2338 
Q 2531 2678 2651 2914 
Q 2772 3150 2772 3378 
Q 2772 3750 2511 3984 
Q 2250 4219 1831 4219 
Q 1534 4219 1204 4116 
Q 875 4013 500 3803 
L 500 4441 
Q 881 4594 1212 4672 
Q 1544 4750 1819 4750 
Q 2544 4750 2975 4387 
Q 3406 4025 3406 3419 
Q 3406 3131 3298 2873 
Q 3191 2616 2906 2266 
Q 2828 2175 2409 1742 
Q 1991 1309 1228 531 
z
" transform="scale(0.015625)"/>
        <path id="DejaVuSans-30" d="M 2034 4250 
Q 1547 4250 1301 3770 
Q 1056 3291 1056 2328 
Q 1056 1369 1301 889 
Q 1547 409 2034 409 
Q 2525 409 2770 889 
Q 3016 1369 3016 2328 
Q 3016 3291 2770 3770 
Q 2525 4250 2034 4250 
z
M 2034 4750 
Q 2819 4750 3233 4129 
Q 3647 3509 3647 2328 
Q 3647 1150 3233 529 
Q 2819 -91 2034 -91 
Q 1250 -91 836 529 
Q 422 1150 422 2328 
Q 422 3509 836 4129 
Q 1250 4750 2034 4750 
z
" transform="scale(0.015625)"/>
        <path id="DejaVuSans-34" d="M 2419 4116 
L 825 1625 
L 2419 1625 
L 2419 4116 
z
M 2253 4666 
L 3047 4666 
L 3047 1625 
L 3713 1625 
L 3713 1100 
L 3047 1100 
L 3047 0 
L 2419 0 
L 2419 1100 
L 313 1100 
L 313 1709 
L 2253 4666 
z
" transform="scale(0.015625)"/>
        <path id="DejaVuSans-2d" d="M 313 2009 
L 1997 2009 
L 1997 1497 
L 313 1497 
L 313 2009 
z
" transform="scale(0.015625)"/>
        <path id="DejaVuSans-39" d="M 703 97 
L 703 672 
Q 941 559 1184 500 
Q 1428 441 1663 441 
Q 2288 441 2617 861 
Q 2947 1281 2994 2138 
Q 2813 1869 2534 1725 
Q 2256 1581 1919 1581 
Q 1219 1581 811 2004 
Q 403 2428 403 3163 
Q 403 3881 828 4315 
Q 1253 4750 1959 4750 
Q 2769 4750 3195 4129 
Q 3622 3509 3622 2328 
Q 3622 1225 3098 567 
Q 2575 -91 1691 -91 
Q 1453 -91 1209 -44 
Q 966 3 703 97 
z
M 1959 2075 
Q 2384 2075 2632 2365 
Q 2881 2656 2881 3163 
Q 2881 3666 2632 3958 
Q 2384 4250 1959 4250 
Q 1534 4250 1286 3958 
Q 1038 3666 1038 3163 
Q 1038 2656 1286 2365 
Q 1534 2075 1959 2075 
z
" transform="scale(0.015625)"/>
       </defs>
       <use xlink:href="#DejaVuSans-32"/>
       <use xlink:href="#DejaVuSans-30" transform="translate(63.623047 0)"/>
       <use xlink:href="#DejaVuSans-32" transform="translate(127.246094 0)"/>
       <use xlink:href="#DejaVuSans-34" transform="translate(190.869141 0)"/>
       <use xlink:href="#DejaVuSans-2d" transform="translate(254.492188 0)"/>
       <use xlink:href="#DejaVuSans-30" transform="translate(290.576172 0)"/>
       <use xlink:href="#DejaVuSans-39" transform="translate(354.199219 0)"/>
      </g>
     </g>
    </g>
    <g id="xtick_2">
     <g id="line2d_3">
      <path d="M 209.274449 384.48 
L 209.274449 51.84 
" clip-path="url(#p8d380dc0c9)" style="fill: none; stroke: #b0b0b0; stroke-opacity: 0.3; stroke-width: 0.8; stroke-linecap: square"/>
     </g>
     <g id="line2d_4">
      <g>
       <use xlink:href="#m1f23820f3c" x="209.274449" y="384.48" style="stroke: #000000; stroke-width: 0.8"/>
      </g>
     </g>
     <g id="text_2">
      <!-- 2024-11 -->
      <g transform="translate(188.383042 399.078438) scale(0.1 -0.1)">
       <defs>
        <path id="DejaVuSans-31" d="M 794 531 
L 1825 531 
L 1825 4091 
L 703 3866 
L 703 4441 
L 1819 4666 
L 2450 4666 
L 2450 531 
L 3481 531 
L 3481 0 
L 794 0 
L 794 531 
z
" transform="scale(0.015625)"/>
       </defs>
       <use xlink:href="#DejaVuSans-32"/>
       <use xlink:href="#DejaVuSans-30" transform="translate(63.623047 0)"/>
       <use xlink:href="#DejaVuSans-32" transform="translate(127.246094 0)"/>
       <use xlink:href="#DejaVuSans-34" transform="translate(190.869141 0)"/>
       <use xlink:href="#DejaVuSans-2d" transform="translate(254.492188 0)"/>
       <use xlink:href="#DejaVuSans-31" transform="translate(290.576172 0)"/>
       <use xlink:href="#DejaVuSans-31" transform="translate(354.199219 0)"/>
      </g>
     </g>
    </g>
    <g id="xtick_3">
     <g id="line2d_5">
      <path d="M 282.513825 384.48 
L 282.513825 51.84 
" clip-path="url(#p8d380dc0c9)" style="fill: none; stroke: #b0b0b0; stroke-opacity: 0.3; stroke-width: 0.8; stroke-linecap: square"/>
     </g>
     <g id="line2d_6">
      <g>
       <use xlink:href="#m1f23820f3c" x="282.513825" y="384.48" style="stroke: #000000; stroke-width: 0.8"/>
      </g>
     </g>
     <g id="text_3">
      <!-- 2025-01 -->
      <g transform="translate(261.622418 399.078438) scale(0.1 -0.1)">
       <defs>
        <path id="DejaVuSans-35" d="M 691 4666 
L 3169 4666 
L 3169 4134 
L 1269 4134 
L 1269 2991 
Q 1406 3038 1543 3061 
Q 1681 3084 1819 3084 
Q 2600 3084 3056 2656 
Q 3513 2228 3513 1497 
Q 3513 744 3044 326 
Q 2575 -91 1722 -91 
Q 1428 -91 1123 -41 
Q 819 9 494 109 
L 494 744 
Q 775 591 1075 516 
Q 1375 441 1709 441 
Q 2250 441 2565 725 
Q 2881 1009 2881 1497 
Q 2881 1984 2565 2268 
Q 2250 2553 1709 2553 
Q 1456 2553 1204 2497 
Q 953 2441 691 2322 
L 691 4666 
z
" transform="scale(0.015625)"/>
       </defs>
       <use xlink:href="#DejaVuSans-32"/>
       <use xlink:href="#DejaVuSans-30" transform="translate(63.623047 0)"/>
       <use xlink:href="#DejaVuSans-32" transform="translate(127.246094 0)"/>
       <use xlink:href="#DejaVuSans-35" transform="translate(190.869141 0)"/>
       <use xlink:href="#DejaVuSans-2d" transform="translate(254.492188 0)"/>
       <use xlink:href="#DejaVuSans-30" transform="translate(290.576172 0)"/>
       <use xlink:href="#DejaVuSans-31" transform="translate(354.199219 0)"/>
      </g>
     </g>
    </g>
    <g id="xtick_4">
     <g id="line2d_7">
      <path d="M 353.35191 384.48 
L 353.35191 51.84 
" clip-path="url(#p8d380dc0c9)" style="fill: none; stroke: #b0b0b0; stroke-opacity: 0.3; stroke-width: 0.8; stroke-linecap: square"/>
     </g>
     <g id="line2d_8">
      <g>
       <use xlink:href="#m1f23820f3c" x="353.35191" y="384.48" style="stroke: #000000; stroke-width: 0.8"/>
      </g>
     </g>
     <g id="text_4">
      <!-- 2025-03 -->
      <g transform="translate(332.460503 399.078438) scale(0.1 -0.1)">
       <defs>
        <path id="DejaVuSans-33" d="M 2597 2516 
Q 3050 2419 3304 2112 
Q 3559 1806 3559 1356 
Q 3559 666 3084 287 
Q 2609 -91 1734 -91 
Q 1441 -91 1130 -33 
Q 819 25 488 141 
L 488 750 
Q 750 597 1062 519 
Q 1375 441 1716 441 
Q 2309 441 2620 675 
Q 2931 909 2931 1356 
Q 2931 1769 2642 2001 
Q 2353 2234 1838 2234 
L 1294 2234 
L 1294 2753 
L 1863 2753 
Q 2328 2753 2575 2939 
Q 2822 3125 2822 3475 
Q 2822 3834 2567 4026 
Q 2313 4219 1838 4219 
Q 1578 4219 1281 4162 
Q 984 4106 628 3988 
L 628 4550 
Q 988 4650 1302 4700 
Q 1616 4750 1894 4750 
Q 2613 4750 3031 4423 
Q 3450 4097 3450 3541 
Q 3450 3153 3228 2886 
Q 3006 2619 2597 2516 
z
" transform="scale(0.015625)"/>
       </defs>
       <use xlink:href="#DejaVuSans-32"/>
       <use xlink:href="#DejaVuSans-30" transform="translate(63.623047 0)"/>
       <use xlink:href="#DejaVuSans-32" transform="translate(127.246094 0)"/>
       <use xlink:href="#DejaVuSans-35" transform="translate(190.869141 0)"/>
       <use xlink:href="#DejaVuSans-2d" transform="translate(254.492188 0)"/>
       <use xlink:href="#DejaVuSans-30" transform="translate(290.576172 0)"/>
       <use xlink:href="#DejaVuSans-33" transform="translate(354.199219 0)"/>
      </g>
     </g>
    </g>
    <g id="xtick_5">
     <g id="line2d_9">
      <path d="M 426.591286 384.48 
L 426.591286 51.84 
" clip-path="url(#p8d380dc0c9)" style="fill: none; stroke: #b0b0b0; stroke-opacity: 0.3; stroke-width: 0.8; stroke-linecap: square"/>
     </g>
     <g id="line2d_10">
      <g>
       <use xlink:href="#m1f23820f3c" x="426.591286" y="384.48" style="stroke: #000000; stroke-width: 0.8"/>
      </g>
     </g>
     <g id="text_5">
      <!-- 2025-05 -->
      <g transform="translate(405.699879 399.078438) scale(0.1 -0.1)">
       <use xlink:href="#DejaVuSans-32"/>
       <use xlink:href="#DejaVuSans-30" transform="translate(63.623047 0)"/>
       <use xlink:href="#DejaVuSans-32" transform="translate(127.246094 0)"/>
       <use xlink:href="#DejaVuSans-35" transform="translate(190.869141 0)"/>
       <use xlink:href="#DejaVuSans-2d" transform="translate(254.492188 0)"/>
       <use xlink:href="#DejaVuSans-30" transform="translate(290.576172 0)"/>
       <use xlink:href="#DejaVuSans-35" transform="translate(354.199219 0)"/>
      </g>
     </g>
    </g>
    <g id="xtick_6">
     <g id="line2d_11">
      <path d="M 499.830662 384.48 
L 499.830662 51.84 
" clip-path="url(#p8d380dc0c9)" style="fill: none; stroke: #b0b0b0; stroke-opacity: 0.3; stroke-width: 0.8; stroke-linecap: square"/>
     </g>
     <g id="line2d_12">
      <g>
       <use xlink:href="#m1f23820f3c" x="499.830662" y="384.48" style="stroke: #000000; stroke-width: 0.8"/>
      </g>
     </g>
     <g id="text_6">
      <!-- 2025-07 -->
      <g transform="translate(478.939255 399.078438) scale(0.1 -0.1)">
       <defs>
        <path id="DejaVuSans-37" d="M 525 4666 
L 3525 4666 
L 3525 4397 
L 1831 0 
L 1172 0 
L 2766 4134 
L 525 4134 
L 525 4666 
z
" transform="scale(0.015625)"/>
       </defs>
       <use xlink:href="#DejaVuSans-32"/>
       <use xlink:href="#DejaVuSans-30" transform="translate(63.623047 0)"/>
       <use xlink:href="#DejaVuSans-32" transform="translate(127.246094 0)"/>
       <use xlink:href="#DejaVuSans-35" transform="translate(190.869141 0)"/>
       <use xlink:href="#DejaVuSans-2d" transform="translate(254.492188 0)"/>
       <use xlink:href="#DejaVuSans-30" transform="translate(290.576172 0)"/>
       <use xlink:href="#DejaVuSans-37" transform="translate(354.199219 0)"/>
      </g>
     </g>
    </g>
    <g id="xtick_7">
     <g id="line2d_13">
      <path d="M 574.270683 384.48 
L 574.270683 51.84 
" clip-path="url(#p8d380dc0c9)" style="fill: none; stroke: #b0b0b0; stroke-opacity: 0.3; stroke-width: 0.8; stroke-linecap: square"/>
     </g>
     <g id="line2d_14">
      <g>
       <use xlink:href="#m1f23820f3c" x="574.270683" y="384.48" style="stroke: #000000; stroke-width: 0.8"/>
      </g>
     </g>
     <g id="text_7">
      <!-- 2025-09 -->
      <g transform="translate(553.379277 399.078438) scale(0.1 -0.1)">
       <use xlink:href="#DejaVuSans-32"/>
       <use xlink:href="#DejaVuSans-30" transform="translate(63.623047 0)"/>
       <use xlink:href="#DejaVuSans-32" transform="translate(127.246094 0)"/>
       <use xlink:href="#DejaVuSans-35" transform="translate(190.869141 0)"/>
       <use xlink:href="#DejaVuSans-2d" transform="translate(254.492188 0)"/>
       <use xlink:href="#DejaVuSans-30" transform="translate(290.576172 0)"/>
       <use xlink:href="#DejaVuSans-39" transform="translate(354.199219 0)"/>
      </g>
     </g>
    </g>
    <g id="xtick_8">
     <g id="line2d_15">
      <path d="M 647.510059 384.48 
L 647.510059 51.84 
" clip-path="url(#p8d380dc0c9)" style="fill: none; stroke: #b0b0b0; stroke-opacity: 0.3; stroke-width: 0.8; stroke-linecap: square"/>
     </g>
     <g id="line2d_16">
      <g>
       <use xlink:href="#m1f23820f3c" x="647.510059" y="384.48" style="stroke: #000000; stroke-width: 0.8"/>
      </g>
     </g>
     <g id="text_8">
      <!-- 2025-11 -->
      <g transform="translate(626.618653 399.078438) scale(0.1 -0.1)">
       <use xlink:href="#DejaVuSans-32"/>
       <use xlink:href="#DejaVuSans-30" transform="translate(63.623047 0)"/>
       <use xlink:href="#DejaVuSans-32" transform="translate(127.246094 0)"/>
       <use xlink:href="#DejaVuSans-35" transform="translate(190.869141 0)"/>
       <use xlink:href="#DejaVuSans-2d" transform="translate(254.492188 0)"/>
       <use xlink:href="#DejaVuSans-31" transform="translate(290.576172 0)"/>
       <use xlink:href="#DejaVuSans-31" transform="translate(354.199219 0)"/>
      </g>
     </g>
    </g>
    <g id="xtick_9">
     <g id="line2d_17">
      <path d="M 720.749435 384.48 
L 720.749435 51.84 
" clip-path="url(#p8d380dc0c9)" style="fill: none; stroke: #b0b0b0; stroke-opacity: 0.3; stroke-width: 0.8; stroke-linecap: square"/>
     </g>
     <g id="line2d_18">
      <g>
       <use xlink:href="#m1f23820f3c" x="720.749435" y="384.48" style="stroke: #000000; stroke-width: 0.8"/>
      </g>
     </g>
     <g id="text_9">
      <!-- 2026-01 -->
      <g transform="translate(699.858029 399.078438) scale(0.1 -0.1)">
       <defs>
        <path id="DejaVuSans-36" d="M 2113 2584 
Q 1688 2584 1439 2293 
Q 1191 2003 1191 1497 
Q 1191 994 1439 701 
Q 1688 409 2113 409 
Q 2538 409 2786 701 
Q 3034 994 3034 1497 
Q 3034 2003 2786 2293 
Q 2538 2584 2113 2584 
z
M 3366 4563 
L 3366 3988 
Q 3128 4100 2886 4159 
Q 2644 4219 2406 4219 
Q 1781 4219 1451 3797 
Q 1122 3375 1075 2522 
Q 1259 2794 1537 2939 
Q 1816 3084 2150 3084 
Q 2853 3084 3261 2657 
Q 3669 2231 3669 1497 
Q 3669 778 3244 343 
Q 2819 -91 2113 -91 
Q 1303 -91 875 529 
Q 447 1150 447 2328 
Q 447 3434 972 4092 
Q 1497 4750 2381 4750 
Q 2619 4750 2861 4703 
Q 3103 4656 3366 4563 
z
" transform="scale(0.015625)"/>
       </defs>
       <use xlink:href="#DejaVuSans-32"/>
       <use xlink:href="#DejaVuSans-30" transform="translate(63.623047 0)"/>
       <use xlink:href="#DejaVuSans-32" transform="translate(127.246094 0)"/>
       <use xlink:href="#DejaVuSans-36" transform="translate(190.869141 0)"/>
       <use xlink:href="#DejaVuSans-2d" transform="translate(254.492188 0)"/>
       <use xlink:href="#DejaVuSans-30" transform="translate(290.576172 0)"/>
       <use xlink:href="#DejaVuSans-31" transform="translate(354.199219 0)"/>
      </g>
     </g>
    </g>
   </g>
   <g id="matplotlib.axis_2">
    <g id="ytick_1">
     <g id="line2d_19">
      <path d="M 108 361.916845 
L 777.6 361.916845 
" clip-path="url(#p8d380dc0c9)" style="fill: none; stroke: #b0b0b0; stroke-opacity: 0.3; stroke-width: 0.8; stroke-linecap: square"/>
     </g>
     <g id="line2d_20">
      <defs>
       <path id="m3b7f8e81e9" d="M 0 0 
L -3.5 0 
" style="stroke: #000000; stroke-width: 0.8"/>
      </defs>
      <g>
       <use xlink:href="#m3b7f8e81e9" x="108" y="361.916845" style="stroke: #000000; stroke-width: 0.8"/>
      </g>
     </g>
     <g id="text_10">
      <!-- 1.0 -->
      <g transform="translate(85.096875 365.716063) scale(0.1 -0.1)">
       <defs>
        <path id="DejaVuSans-2e" d="M 684 794 
L 1344 794 
L 1344 0 
L 684 0 
L 684 794 
z
" transform="scale(0.015625)"/>
       </defs>
       <use xlink:href="#DejaVuSans-31"/>
       <use xlink:href="#DejaVuSans-2e" transform="translate(63.623047 0)"/>
       <use xlink:href="#DejaVuSans-30" transform="translate(95.410156 0)"/>
      </g>
     </g>
    </g>
    <g id="ytick_2">
     <g id="line2d_21">
      <path d="M 108 314.223715 
L 777.6 314.223715 
" clip-path="url(#p8d380dc0c9)" style="fill: none; stroke: #b0b0b0; stroke-opacity: 0.3; stroke-width: 0.8; stroke-linecap: square"/>
     </g>
     <g id="line2d_22">
      <g>
       <use xlink:href="#m3b7f8e81e9" x="108" y="314.223715" style="stroke: #000000; stroke-width: 0.8"/>
      </g>
     </g>
     <g id="text_11">
      <!-- 1.2 -->
      <g transform="translate(85.096875 318.022934) scale(0.1 -0.1)">
       <use xlink:href="#DejaVuSans-31"/>
       <use xlink:href="#DejaVuSans-2e" transform="translate(63.623047 0)"/>
       <use xlink:href="#DejaVuSans-32" transform="translate(95.410156 0)"/>
      </g>
     </g>
    </g>
    <g id="ytick_3">
     <g id="line2d_23">
      <path d="M 108 266.530586 
L 777.6 266.530586 
" clip-path="url(#p8d380dc0c9)" style="fill: none; stroke: #b0b0b0; stroke-opacity: 0.3; stroke-width: 0.8; stroke-linecap: square"/>
     </g>
     <g id="line2d_24">
      <g>
       <use xlink:href="#m3b7f8e81e9" x="108" y="266.530586" style="stroke: #000000; stroke-width: 0.8"/>
      </g>
     </g>
     <g id="text_12">
      <!-- 1.4 -->
      <g transform="translate(85.096875 270.329805) scale(0.1 -0.1)">
       <use xlink:href="#DejaVuSans-31"/>
       <use xlink:href="#DejaVuSans-2e" transform="translate(63.623047 0)"/>
       <use xlink:href="#DejaVuSans-34" transform="translate(95.410156 0)"/>
      </g>
     </g>
    </g>
    <g id="ytick_4">
     <g id="line2d_25">
      <path d="M 108 218.837457 
L 777.6 218.837457 
" clip-path="url(#p8d380dc0c9)" style="fill: none; stroke: #b0b0b0; stroke-opacity: 0.3; stroke-width: 0.8; stroke-linecap: square"/>
     </g>
     <g id="line2d_26">
      <g>
       <use xlink:href="#m3b7f8e81e9" x="108" y="218.837457" style="stroke: #000000; stroke-width: 0.8"/>
      </g>
     </g>
     <g id="text_13">
      <!-- 1.6 -->
      <g transform="translate(85.096875 222.636676) scale(0.1 -0.1)">
       <use xlink:href="#DejaVuSans-31"/>
       <use xlink:href="#DejaVuSans-2e" transform="translate(63.623047 0)"/>
       <use xlink:href="#DejaVuSans-36" transform="translate(95.410156 0)"/>
      </g>
     </g>
    </g>
    <g id="ytick_5">
     <g id="line2d_27">
      <path d="M 108 171.144328 
L 777.6 171.144328 
" clip-path="url(#p8d380dc0c9)" style="fill: none; stroke: #b0b0b0; stroke-opacity: 0.3; stroke-width: 0.8; stroke-linecap: square"/>
     </g>
     <g id="line2d_28">
      <g>
       <use xlink:href="#m3b7f8e81e9" x="108" y="171.144328" style="stroke: #000000; stroke-width: 0.8"/>
      </g>
     </g>
     <g id="text_14">
      <!-- 1.8 -->
      <g transform="translate(85.096875 174.943546) scale(0.1 -0.1)">
       <defs>
        <path id="DejaVuSans-38" d="M 2034 2216 
Q 1584 2216 1326 1975 
Q 1069 1734 1069 1313 
Q 1069 891 1326 650 
Q 1584 409 2034 409 
Q 2484 409 2743 651 
Q 3003 894 3003 1313 
Q 3003 1734 2745 1975 
Q 2488 2216 2034 2216 
z
M 1403 2484 
Q 997 2584 770 2862 
Q 544 3141 544 3541 
Q 544 4100 942 4425 
Q 1341 4750 2034 4750 
Q 2731 4750 3128 4425 
Q 3525 4100 3525 3541 
Q 3525 3141 3298 2862 
Q 3072 2584 2669 2484 
Q 3125 2378 3379 2068 
Q 3634 1759 3634 1313 
Q 3634 634 3220 271 
Q 2806 -91 2034 -91 
Q 1263 -91 848 271 
Q 434 634 434 1313 
Q 434 1759 690 2068 
Q 947 2378 1403 2484 
z
M 1172 3481 
Q 1172 3119 1398 2916 
Q 1625 2713 2034 2713 
Q 2441 2713 2670 2916 
Q 2900 3119 2900 3481 
Q 2900 3844 2670 4047 
Q 2441 4250 2034 4250 
Q 1625 4250 1398 4047 
Q 1172 3844 1172 3481 
z
" transform="scale(0.015625)"/>
       </defs>
       <use xlink:href="#DejaVuSans-31"/>
       <use xlink:href="#DejaVuSans-2e" transform="translate(63.623047 0)"/>
       <use xlink:href="#DejaVuSans-38" transform="translate(95.410156 0)"/>
      </g>
     </g>
    </g>
    <g id="ytick_6">
     <g id="line2d_29">
      <path d="M 108 123.451198 
L 777.6 123.451198 
" clip-path="url(#p8d380dc0c9)" style="fill: none; stroke: #b0b0b0; stroke-opacity: 0.3; stroke-width: 0.8; stroke-linecap: square"/>
     </g>
     <g id="line2d_30">
      <g>
       <use xlink:href="#m3b7f8e81e9" x="108" y="123.451198" style="stroke: #000000; stroke-width: 0.8"/>
      </g>
     </g>
     <g id="text_15">
      <!-- 2.0 -->
      <g transform="translate(85.096875 127.250417) scale(0.1 -0.1)">
       <use xlink:href="#DejaVuSans-32"/>
       <use xlink:href="#DejaVuSans-2e" transform="translate(63.623047 0)"/>
       <use xlink:href="#DejaVuSans-30" transform="translate(95.410156 0)"/>
      </g>
     </g>
    </g>
    <g id="ytick_7">
     <g id="line2d_31">
      <path d="M 108 75.758069 
L 777.6 75.758069 
" clip-path="url(#p8d380dc0c9)" style="fill: none; stroke: #b0b0b0; stroke-opacity: 0.3; stroke-width: 0.8; stroke-linecap: square"/>
     </g>
     <g id="line2d_32">
      <g>
       <use xlink:href="#m3b7f8e81e9" x="108" y="75.758069" style="stroke: #000000; stroke-width: 0.8"/>
      </g>
     </g>
     <g id="text_16">
      <!-- 2.2 -->
      <g transform="translate(85.096875 79.557288) scale(0.1 -0.1)">
       <use xlink:href="#DejaVuSans-32"/>
       <use xlink:href="#DejaVuSans-2e" transform="translate(63.623047 0)"/>
       <use xlink:href="#DejaVuSans-32" transform="translate(95.410156 0)"/>
      </g>
     </g>
    </g>
   </g>
   <g id="line2d_33">
    <path d="M 138.436364 361.32489 
L 139.637009 363.269035 
L 140.837655 362.401775 
L 142.0383 365.483019 
L 145.640237 368.177045 
L 146.840882 366.772768 
L 148.041528 367.650949 
L 149.242173 367.94526 
L 150.442819 368.385898 
L 156.446046 367.018401 
L 157.646692 364.417089 
L 158.847337 363.149572 
L 162.449274 363.213795 
L 163.649919 353.038243 
L 164.850565 350.013614 
L 166.05121 340.547425 
L 167.251856 324.780079 
L 170.853792 299.961489 
L 180.458956 275.732871 
L 181.659602 296.323144 
L 182.860247 295.935329 
L 184.060893 308.000061 
L 187.662829 300.094508 
L 188.863475 308.360195 
L 190.06412 308.693348 
L 191.264766 311.10252 
L 192.465412 297.833703 
L 196.067348 296.416797 
L 197.267994 298.778533 
L 198.468639 297.687236 
L 199.669285 301.51561 
L 200.86993 299.681052 
L 204.471867 299.356719 
L 205.672512 303.235764 
L 206.873158 306.118989 
L 208.073803 303.128274 
L 209.274449 309.641951 
L 212.876385 306.69436 
L 214.077031 297.438745 
L 215.277676 297.0254 
L 216.478322 286.923789 
L 217.678967 291.102627 
L 221.280904 289.227626 
L 222.481549 294.861777 
L 223.682195 293.890291 
L 224.88284 302.265521 
L 226.083486 308.730022 
L 229.685422 311.51979 
L 230.886068 308.592614 
L 232.086713 307.534639 
L 233.287359 308.520772 
L 234.488004 318.477802 
L 238.089941 318.459171 
L 239.290586 320.666816 
L 240.491232 315.414749 
L 241.691877 317.587514 
L 242.892523 314.533768 
L 247.695105 310.300034 
L 248.89575 311.409786 
L 250.096396 310.84843 
L 251.297041 307.196222 
L 254.898978 308.546238 
L 256.099623 306.137544 
L 257.300269 305.930974 
L 258.500914 303.617608 
L 259.70156 310.096644 
L 263.303497 311.977157 
L 264.504142 313.316601 
L 265.704788 311.000915 
L 266.905433 311.043745 
L 268.106079 311.307792 
L 271.708015 313.662961 
L 272.908661 309.508016 
L 274.109306 309.980637 
L 275.309952 306.463341 
L 276.510597 308.216473 
L 280.112534 307.523597 
L 281.313179 314.197731 
L 283.71447 322.916497 
L 284.915116 325.296498 
L 288.517052 325.642624 
L 289.717698 324.290259 
L 290.918343 325.731998 
L 292.118989 326.418644 
L 293.319634 329.949422 
L 296.921571 330.514598 
L 298.122216 322.051755 
L 299.322862 323.596916 
L 300.523507 322.801534 
L 301.724153 321.381105 
L 305.326089 318.76069 
L 306.526735 316.21434 
L 307.72738 317.21492 
L 308.928026 320.938564 
L 310.128671 316.308641 
L 313.730608 320.028257 
L 324.536417 318.438368 
L 325.737063 311.300141 
L 326.937708 306.897522 
L 330.539645 304.203806 
L 331.74029 306.872339 
L 332.940936 303.422081 
L 334.141581 305.868332 
L 335.342227 300.35149 
L 338.944164 298.138696 
L 340.144809 301.537611 
L 341.345455 297.685969 
L 342.5461 298.643576 
L 343.746746 289.056525 
L 347.348682 289.550228 
L 348.549328 291.201124 
L 349.749973 284.166273 
L 350.950619 284.187859 
L 352.151264 296.64182 
L 355.753201 297.246847 
L 356.953846 296.581728 
L 358.154492 293.588117 
L 359.355137 286.469192 
L 360.555783 288.600199 
L 364.157719 289.093296 
L 365.358365 289.766282 
L 366.55901 289.962614 
L 367.759656 292.100734 
L 368.960301 286.442755 
L 372.562238 286.498457 
L 373.762883 284.589041 
L 374.963529 285.830928 
L 376.164174 287.97329 
L 377.36482 292.726055 
L 380.966756 292.483371 
L 382.167402 293.772534 
L 383.368047 294.463951 
L 384.568693 294.378696 
L 385.769338 296.488539 
L 389.371275 297.797545 
L 390.57192 295.610697 
L 391.772566 296.602284 
L 392.973211 301.433289 
L 397.775793 323.754926 
L 398.976439 324.690843 
L 400.177084 323.354401 
L 401.37773 318.779656 
L 402.578375 312.868395 
L 406.180312 308.515626 
L 407.380958 309.792227 
L 408.581603 312.85733 
L 409.782249 312.041224 
L 410.982894 312.588368 
L 414.584831 311.142958 
L 415.785476 311.949505 
L 416.986122 309.438788 
L 418.186767 312.366526 
L 419.387413 312.081627 
L 422.989349 313.44051 
L 424.189995 314.340727 
L 425.39064 311.153089 
L 432.594513 304.688143 
L 433.795159 306.306334 
L 434.995804 302.465517 
L 436.19645 306.46443 
L 439.798386 303.253766 
L 440.999032 304.522633 
L 442.199677 302.472181 
L 443.400323 306.839369 
L 444.600968 307.478958 
L 448.202905 308.140735 
L 449.40355 305.695693 
L 450.604196 303.585558 
L 451.804841 305.80491 
L 453.005487 308.344356 
L 456.607423 311.189813 
L 457.808069 310.761582 
L 459.008714 310.81331 
L 460.20936 306.738041 
L 461.410005 308.504534 
L 466.212587 307.378614 
L 467.413233 305.669713 
L 468.613878 304.178701 
L 469.814524 303.31288 
L 473.41646 299.074923 
L 474.617106 299.598648 
L 475.817751 297.148678 
L 477.018397 292.752286 
L 478.219042 295.6561 
L 481.820979 295.686043 
L 483.021625 298.739579 
L 484.22227 298.245196 
L 485.422916 300.981643 
L 486.623561 302.361938 
L 490.225498 298.153345 
L 491.426143 293.774788 
L 492.626789 286.682435 
L 493.827434 289.552331 
L 495.02808 287.760002 
L 498.630016 282.002713 
L 499.830662 281.171658 
L 501.031307 286.215912 
L 502.231953 284.589709 
L 503.432598 287.257136 
L 507.034535 288.396615 
L 508.23518 284.706716 
L 509.435826 285.758395 
L 510.636471 284.706097 
L 511.837117 280.843125 
L 515.439053 280.939449 
L 517.840344 278.637872 
L 519.04099 271.436247 
L 520.241635 270.300589 
L 523.843572 267.542447 
L 525.044217 262.739307 
L 526.244863 266.798876 
L 527.445508 260.984023 
L 528.646154 260.92188 
L 532.24809 259.715646 
L 533.448736 253.643198 
L 534.649381 255.913259 
L 535.850027 259.863423 
L 537.050672 262.495165 
L 540.652609 259.65258 
L 541.853254 257.592349 
L 543.0539 253.172257 
L 544.254545 253.455556 
L 545.455191 255.455495 
L 549.057127 252.185053 
L 550.257773 249.241121 
L 551.458419 240.239157 
L 552.659064 243.71667 
L 553.85971 237.16344 
L 557.461646 229.62307 
L 558.662292 232.427868 
L 559.862937 231.959419 
L 561.063583 234.48757 
L 562.264228 226.763114 
L 565.866165 219.906558 
L 567.06681 223.867733 
L 568.267456 229.092163 
L 569.468101 213.893459 
L 570.668747 213.189441 
L 574.270683 201.438633 
L 575.471329 211.02772 
L 576.671974 209.505626 
L 577.87262 230.087155 
L 579.073265 212.7844 
L 582.675202 217.09498 
L 583.875847 223.601014 
L 585.076493 221.678247 
L 586.277138 211.23178 
L 587.477784 212.646014 
L 591.07972 213.734282 
L 592.280366 211.756181 
L 593.481011 205.033705 
L 595.882302 211.282161 
L 599.484239 208.611157 
L 600.684884 209.699473 
L 601.88553 200.935095 
L 603.086175 199.062081 
L 604.286821 206.772963 
L 607.888757 199.196865 
L 609.089403 196.312074 
L 619.895212 187.391613 
L 621.095858 200.137966 
L 624.697795 202.065797 
L 625.89844 214.881351 
L 627.099086 211.98992 
L 628.299731 213.076226 
L 629.500377 224.44552 
L 633.102313 220.444625 
L 634.302959 212.172691 
L 635.503604 215.762534 
L 636.70425 214.356746 
L 637.904895 211.223686 
L 641.506832 202.546102 
L 642.707477 206.531702 
L 643.908123 203.551365 
L 645.108768 210.665488 
L 646.309414 218.954587 
L 649.91135 217.56778 
L 651.111996 223.217562 
L 652.312641 218.772018 
L 653.513287 213.224994 
L 654.713932 213.759986 
L 658.315869 213.3886 
L 659.516514 214.652838 
L 660.71716 217.202698 
L 661.917805 212.270974 
L 663.118451 219.989042 
L 666.720387 221.238402 
L 667.921033 229.023692 
L 669.121678 228.514578 
L 670.322324 230.838107 
L 671.522969 244.340912 
L 675.124906 241.693036 
L 676.325551 238.602663 
L 677.526197 237.199627 
L 678.726842 237.031088 
L 679.927488 234.230234 
L 683.529424 229.919832 
L 684.73007 232.057502 
L 685.930715 235.124055 
L 687.131361 233.845469 
L 688.332006 229.127317 
L 691.933943 224.485595 
L 693.134588 222.01041 
L 694.335234 220.832983 
L 695.53588 227.620991 
L 696.736525 219.915246 
L 700.338462 223.727763 
L 701.539107 228.863392 
L 702.739753 224.284101 
L 703.940398 226.204864 
L 705.141044 224.181533 
L 708.74298 221.342129 
L 709.943626 223.11369 
L 711.144271 220.435348 
L 712.344917 214.160283 
L 713.545562 210.698169 
L 717.147499 212.246544 
L 718.348144 210.055572 
L 719.54879 206.996329 
L 725.552017 201.340414 
L 726.752663 190.040784 
L 727.953308 183.988933 
L 729.153954 181.518735 
L 730.354599 167.182709 
L 733.956536 144.639561 
L 735.157181 161.049339 
L 736.357827 156.268509 
L 737.558472 167.863809 
L 738.759118 162.67768 
L 742.361054 159.06469 
L 743.5617 163.481176 
L 744.762345 161.406864 
L 745.962991 160.162079 
L 747.163636 156.248315 
L 747.163636 156.248315 
" clip-path="url(#p8d380dc0c9)" style="fill: none; stroke: #1f77b4; stroke-width: 2; stroke-linecap: square"/>
   </g>
   <g id="line2d_34">
    <path d="M 138.436364 361.05808 
L 139.637009 362.561012 
L 140.837655 362.06001 
L 142.0383 364.063945 
L 145.640237 366.998227 
L 146.840882 366.998227 
L 148.041528 367.49923 
L 149.242173 368.286487 
L 150.442819 369.36 
L 156.446046 368.644325 
L 157.646692 366.711972 
L 158.847337 366.067805 
L 162.449274 365.423712 
L 163.649919 355.117857 
L 164.850565 351.754154 
L 166.05121 339.873859 
L 167.251856 323.484691 
L 170.853792 297.433836 
L 180.458956 284.623043 
L 181.659602 312.534743 
L 182.860247 307.954363 
L 184.060893 315.755281 
L 187.662829 311.246483 
L 188.863475 319.047476 
L 190.06412 320.836664 
L 191.264766 323.914111 
L 192.465412 312.964163 
L 196.067348 312.964163 
L 197.267994 311.246483 
L 198.468639 310.172971 
L 199.669285 313.322001 
L 200.86993 311.246483 
L 204.471867 310.817138 
L 205.672512 313.178836 
L 206.873158 316.184701 
L 208.073803 316.184701 
L 209.274449 315.612191 
L 212.876385 311.819068 
L 214.077031 304.304406 
L 215.277676 306.165176 
L 216.478322 296.360323 
L 217.678967 300.225028 
L 221.280904 298.722021 
L 222.481549 302.014216 
L 223.682195 300.153446 
L 226.083486 310.172971 
L 229.685422 311.389648 
L 230.886068 309.958298 
L 232.086713 309.242623 
L 233.287359 308.884786 
L 234.488004 317.472961 
L 239.290586 319.619986 
L 240.491232 315.039606 
L 241.691877 317.115124 
L 242.892523 314.037676 
L 246.494459 311.890651 
L 247.695105 311.604396 
L 248.89575 313.107253 
L 250.096396 313.608256 
L 251.297041 310.029806 
L 254.898978 310.244553 
L 256.099623 308.025946 
L 257.300269 308.741621 
L 258.500914 305.735756 
L 259.70156 312.677908 
L 263.303497 314.395513 
L 264.504142 313.608256 
L 265.704788 312.391578 
L 266.905433 311.962158 
L 268.106079 312.820998 
L 271.708015 312.534743 
L 272.908661 309.171041 
L 274.109306 308.956293 
L 275.309952 308.884786 
L 276.510597 309.314131 
L 280.112534 307.954363 
L 281.313179 312.534743 
L 283.71447 320.621991 
L 284.915116 323.484691 
L 288.517052 324.629786 
L 289.717698 322.697434 
L 290.918343 323.126854 
L 292.118989 323.699364 
L 293.319634 326.776811 
L 296.921571 327.850324 
L 298.122216 320.836664 
L 299.322862 322.482761 
L 300.523507 322.339596 
L 301.724153 321.409249 
L 306.526735 319.691569 
L 307.72738 322.268014 
L 308.928026 321.480756 
L 310.128671 319.190641 
L 313.730608 320.765081 
L 324.536417 322.196431 
L 325.737063 318.975894 
L 326.937708 314.968099 
L 330.539645 314.681768 
L 331.74029 315.826864 
L 332.940936 313.107253 
L 334.141581 313.822928 
L 335.342227 311.675903 
L 338.944164 311.174976 
L 340.144809 313.250418 
L 341.345455 311.747486 
L 342.5461 312.606326 
L 343.746746 308.741621 
L 347.348682 309.672043 
L 348.549328 312.606326 
L 349.749973 310.244553 
L 350.950619 309.314131 
L 352.151264 314.538679 
L 356.953846 315.755281 
L 358.154492 314.538679 
L 359.355137 310.602391 
L 360.555783 311.318066 
L 364.157719 312.463161 
L 365.358365 311.604396 
L 366.55901 312.320071 
L 367.759656 313.751421 
L 368.960301 306.523013 
L 372.562238 307.381853 
L 373.762883 306.737686 
L 374.963529 306.308266 
L 376.164174 308.670038 
L 377.36482 313.393584 
L 380.966756 312.176906 
L 382.167402 312.033741 
L 383.368047 313.178836 
L 384.568693 312.176906 
L 385.769338 313.536673 
L 389.371275 315.254354 
L 391.772566 315.612191 
L 392.973211 317.043541 
L 397.775793 335.937572 
L 400.177084 330.856264 
L 401.37773 326.347391 
L 402.578375 325.560209 
L 407.380958 324.772951 
L 408.581603 324.128784 
L 409.782249 323.914111 
L 410.982894 323.198436 
L 414.584831 323.055271 
L 416.986122 322.554269 
L 419.387413 322.554269 
L 422.989349 322.983764 
L 424.189995 323.484691 
L 425.39064 323.699364 
L 432.594513 321.051336 
L 434.995804 317.687634 
L 436.19645 318.045546 
L 439.798386 314.824934 
L 440.999032 314.538679 
L 442.199677 310.888646 
L 443.400323 313.322001 
L 444.600968 314.896516 
L 448.202905 315.325936 
L 449.40355 313.894586 
L 450.604196 312.749416 
L 451.804841 312.892581 
L 453.005487 314.968099 
L 456.607423 316.471031 
L 457.808069 317.973889 
L 459.008714 318.260219 
L 460.20936 316.542539 
L 461.410005 317.043541 
L 466.212587 317.186706 
L 467.413233 315.970029 
L 468.613878 315.254354 
L 469.814524 315.111188 
L 473.41646 314.467096 
L 474.617106 316.113194 
L 475.817751 313.822928 
L 477.018397 313.679838 
L 478.219042 315.540609 
L 481.820979 314.824934 
L 483.021625 314.896516 
L 484.22227 314.540707 
L 485.422916 316.810466 
L 486.623561 316.444366 
L 490.225498 315.492536 
L 491.426143 312.197712 
L 492.626789 307.438564 
L 493.827434 308.536863 
L 495.02808 310.220893 
L 499.830662 308.390393 
L 501.031307 308.097528 
L 502.231953 306.413574 
L 503.432598 305.168804 
L 507.034535 306.486734 
L 508.23518 303.997345 
L 509.435826 304.216974 
L 510.636471 302.75265 
L 511.837117 301.727585 
L 516.639699 301.80082 
L 517.840344 302.459785 
L 520.241635 297.847106 
L 523.843572 296.016607 
L 525.044217 292.795018 
L 526.244863 292.941488 
L 527.445508 291.037828 
L 528.646154 292.648623 
L 532.24809 291.843188 
L 533.448736 290.305628 
L 534.649381 290.525333 
L 535.850027 296.163077 
L 537.050672 297.773871 
L 540.652609 296.382707 
L 541.853254 294.112947 
L 543.0539 293.307588 
L 544.254545 293.380823 
L 545.455191 294.112947 
L 549.057127 292.721783 
L 550.257773 290.818123 
L 551.458419 288.255574 
L 552.659064 288.768069 
L 553.85971 285.91258 
L 557.461646 283.56966 
L 558.662292 285.18038 
L 559.862937 280.860566 
L 561.063583 279.835501 
L 562.264228 272.440493 
L 565.866165 266.14386 
L 567.06681 267.90105 
L 568.267456 272.733433 
L 569.468101 266.58312 
L 570.668747 263.508001 
L 574.270683 262.409701 
L 575.471329 264.313361 
L 576.671974 267.31532 
L 577.87262 274.124523 
L 579.073265 266.94922 
L 582.675202 266.87606 
L 583.875847 268.852879 
L 585.076493 268.12068 
L 586.277138 259.188112 
L 587.477784 262.043676 
L 591.07972 261.457871 
L 592.280366 262.116836 
L 593.481011 259.700682 
L 594.681657 264.020496 
L 595.882302 263.288296 
L 599.484239 262.190071 
L 600.684884 261.970441 
L 601.88553 258.968482 
L 603.086175 256.625488 
L 604.286821 259.847077 
L 607.888757 254.209334 
L 609.089403 253.257504 
L 619.895212 247.766155 
L 621.095858 254.868298 
L 624.697795 256.845193 
L 625.89844 260.286412 
L 627.099086 255.820128 
L 628.299731 254.721828 
L 629.500377 261.823971 
L 633.102313 260.652512 
L 634.302959 255.527263 
L 635.503604 256.625488 
L 636.70425 255.307633 
L 637.904895 251.134214 
L 641.506832 247.033955 
L 642.707477 248.79122 
L 643.908123 244.398171 
L 645.108768 247.25366 
L 646.309414 252.159204 
L 649.91135 251.646709 
L 651.111996 254.136099 
L 652.312641 253.696839 
L 653.513287 248.57159 
L 654.713932 249.30379 
L 658.315869 248.42512 
L 659.516514 251.646709 
L 660.71716 251.500314 
L 661.917805 248.059095 
L 663.118451 253.257504 
L 666.720387 255.527263 
L 667.921033 257.504083 
L 669.121678 256.479093 
L 670.322324 258.016652 
L 671.522969 266.21702 
L 675.124906 266.729515 
L 676.325551 263.800866 
L 677.526197 261.677501 
L 678.726842 261.970441 
L 679.927488 261.018612 
L 683.529424 257.211293 
L 685.930715 260.286412 
L 687.131361 259.407817 
L 688.332006 256.405858 
L 691.933943 253.916469 
L 693.134588 255.673658 
L 694.335234 256.112993 
L 695.53588 258.602382 
L 696.736525 256.698723 
L 700.338462 258.675617 
L 701.539107 262.116836 
L 702.739753 256.332623 
L 703.940398 258.602382 
L 705.141044 257.138058 
L 708.74298 254.062864 
L 709.943626 253.330739 
L 711.144271 252.086044 
L 712.344917 251.427079 
L 713.545562 250.10915 
L 717.147499 251.646709 
L 718.348144 250.914585 
L 719.54879 252.378909 
L 725.552017 245.716101 
L 726.752663 240.224752 
L 727.953308 241.542682 
L 729.153954 244.324936 
L 730.354599 242.714142 
L 733.956536 240.664012 
L 735.157181 241.908782 
L 736.357827 244.105306 
L 737.558472 243.446342 
L 738.759118 244.617801 
L 742.361054 244.497921 
L 743.5617 245.549501 
L 744.762345 245.098824 
L 745.962991 245.324162 
L 747.163636 247.051757 
L 747.163636 247.051757 
" clip-path="url(#p8d380dc0c9)" style="fill: none; stroke: #ff7f0e; stroke-opacity: 0.7; stroke-width: 1.5; stroke-linecap: square"/>
   </g>
   <g id="line2d_35">
    <path d="M 138.436364 359.068549 
L 139.637009 359.068549 
L 140.837655 357.327924 
L 142.0383 361.758606 
L 145.640237 360.967413 
L 146.840882 361.125651 
L 148.041528 358.593833 
L 149.242173 359.068549 
L 150.442819 361.600367 
L 156.446046 362.391561 
L 157.646692 360.017981 
L 158.847337 361.758606 
L 162.449274 362.866277 
L 163.649919 349.257753 
L 164.850565 345.618264 
L 166.05121 333.592126 
L 167.251856 306.058601 
L 170.853792 247.193823 
L 180.458956 176.619385 
L 181.659602 245.611437 
L 182.860247 256.371665 
L 184.060893 274.410871 
L 187.662829 265.549507 
L 188.863475 276.784451 
L 190.06412 283.90519 
L 191.264766 284.696383 
L 192.465412 259.21996 
L 196.067348 257.479335 
L 197.267994 256.213426 
L 198.468639 258.270529 
L 199.669285 263.017688 
L 200.86993 252.890414 
L 204.471867 254.156324 
L 205.672512 262.542972 
L 206.873158 266.3407 
L 208.073803 264.600075 
L 209.274449 270.613143 
L 212.876385 260.960586 
L 214.077031 244.503766 
L 215.277676 248.617971 
L 216.478322 235.484163 
L 217.678967 239.281891 
L 221.280904 228.679901 
L 222.481549 229.312856 
L 223.682195 225.040412 
L 226.083486 251.624505 
L 229.685422 260.327631 
L 230.886068 249.88388 
L 232.086713 248.617971 
L 233.287359 248.617971 
L 234.488004 262.384733 
L 238.089941 263.017688 
L 239.290586 266.657177 
L 240.491232 257.795813 
L 241.691877 263.650643 
L 242.892523 255.580472 
L 246.494459 250.516835 
L 247.695105 252.573937 
L 248.89575 257.004619 
L 250.096396 255.896949 
L 251.297041 248.459732 
L 254.898978 251.308028 
L 256.099623 248.934448 
L 257.300269 249.409164 
L 258.500914 244.662005 
L 259.70156 253.36513 
L 263.303497 258.903483 
L 264.504142 258.745245 
L 265.704788 258.903483 
L 266.905433 256.846381 
L 268.106079 257.162858 
L 271.708015 260.644108 
L 272.908661 257.004619 
L 274.109306 259.21996 
L 275.309952 257.637574 
L 276.510597 258.11229 
L 280.112534 257.795813 
L 281.313179 267.764848 
L 284.915116 287.38644 
L 288.517052 287.702918 
L 289.717698 285.487576 
L 290.918343 288.968827 
L 292.118989 288.494111 
L 293.319634 293.715986 
L 296.921571 293.083032 
L 298.122216 278.208599 
L 299.322862 284.063429 
L 300.523507 282.322803 
L 301.724153 279.790985 
L 305.326089 274.094394 
L 306.526735 272.828484 
L 307.72738 274.56911 
L 308.928026 275.67678 
L 310.128671 270.613143 
L 313.730608 279.474508 
L 324.536417 280.107462 
L 326.937708 263.175927 
L 330.539645 261.435302 
L 331.74029 266.024222 
L 332.940936 260.169392 
L 334.141581 262.542972 
L 335.342227 256.371665 
L 338.944164 255.105756 
L 340.144809 261.751779 
L 341.345455 254.63104 
L 342.5461 254.789278 
L 343.746746 246.086152 
L 347.348682 248.934448 
L 348.549328 252.732176 
L 349.749973 248.617971 
L 350.950619 250.358596 
L 352.151264 263.650643 
L 355.753201 259.536438 
L 356.953846 260.327631 
L 358.154492 260.327631 
L 359.355137 253.681608 
L 360.555783 258.587006 
L 365.358365 258.745245 
L 366.55901 260.327631 
L 367.759656 264.125359 
L 368.960301 254.472801 
L 372.562238 256.529903 
L 373.762883 254.63104 
L 374.963529 255.73871 
L 376.164174 258.903483 
L 377.36482 266.182461 
L 380.966756 266.182461 
L 383.368047 268.397802 
L 384.568693 267.606609 
L 385.769338 269.82195 
L 389.371275 273.777916 
L 390.57192 274.094394 
L 391.772566 273.777916 
L 392.973211 279.632746 
L 397.775793 319.508886 
L 398.976439 314.919965 
L 400.177084 311.913431 
L 401.37773 305.583885 
L 402.578375 300.994964 
L 406.180312 300.520248 
L 407.380958 300.836726 
L 408.581603 304.476215 
L 409.782249 304.001499 
L 410.982894 303.210305 
L 414.584831 298.463146 
L 415.785476 299.887294 
L 416.986122 296.722521 
L 418.186767 298.621384 
L 419.387413 296.564282 
L 422.989349 298.779623 
L 424.189995 299.254339 
L 425.39064 296.406043 
L 432.594513 290.551213 
L 433.795159 289.127065 
L 434.995804 283.746951 
L 436.19645 286.437008 
L 439.798386 278.05036 
L 440.999032 279.15803 
L 442.199677 275.360303 
L 443.400323 282.006326 
L 444.600968 282.639281 
L 448.202905 283.588713 
L 450.604196 278.525076 
L 451.804841 281.373372 
L 453.005487 284.854622 
L 456.607423 287.544679 
L 457.808069 289.127065 
L 459.008714 290.392975 
L 460.20936 285.645815 
L 461.410005 288.335872 
L 466.212587 287.544679 
L 468.613878 280.265701 
L 469.814524 281.215133 
L 473.41646 278.525076 
L 474.617106 282.006326 
L 475.817751 277.892121 
L 477.018397 277.575644 
L 478.219042 280.740417 
L 481.820979 278.05036 
L 483.021625 279.474508 
L 484.22227 278.525076 
L 485.422916 283.113997 
L 486.623561 285.804054 
L 490.225498 284.221667 
L 491.426143 276.942689 
L 492.626789 266.657177 
L 493.827434 269.188995 
L 495.02808 267.923086 
L 498.630016 262.859449 
L 499.830662 263.96712 
L 501.031307 267.44837 
L 502.231953 261.59354 
L 507.034535 266.498938 
L 508.23518 258.745245 
L 509.435826 258.11229 
L 510.636471 257.162858 
L 511.837117 254.63104 
L 515.439053 255.896949 
L 516.639699 250.358596 
L 517.840344 251.308028 
L 519.04099 244.820243 
L 520.241635 244.02905 
L 523.843572 240.389561 
L 525.044217 238.17422 
L 526.244863 238.490697 
L 527.445508 232.477629 
L 528.646154 233.585299 
L 532.24809 229.787571 
L 533.448736 223.299787 
L 534.649381 229.312856 
L 535.850027 236.275356 
L 537.050672 235.958879 
L 540.652609 234.376492 
L 541.853254 233.268822 
L 543.0539 230.737003 
L 544.254545 233.268822 
L 545.455191 234.534731 
L 549.057127 227.413992 
L 550.257773 222.983309 
L 551.458419 209.058308 
L 552.659064 213.330752 
L 553.85971 203.361717 
L 557.461646 191.810295 
L 558.662292 192.917966 
L 559.862937 190.860863 
L 561.063583 193.392682 
L 562.264228 179.151203 
L 565.866165 167.283304 
L 568.267456 173.771089 
L 569.468101 156.364838 
L 570.668747 147.028757 
L 574.270683 137.217961 
L 575.471329 149.718814 
L 576.671974 146.237564 
L 577.87262 165.067963 
L 579.073265 134.527904 
L 582.675202 140.224495 
L 583.875847 150.19353 
L 585.076493 145.446371 
L 586.277138 121.710573 
L 587.477784 126.457733 
L 591.07972 119.811709 
L 592.280366 116.330459 
L 593.481011 106.83614 
L 594.681657 115.06455 
L 595.882302 115.855743 
L 599.484239 112.69097 
L 600.684884 110.950345 
L 601.88553 100.348355 
L 603.086175 92.278184 
L 604.286821 105.253753 
L 607.888757 91.961707 
L 609.089403 91.328752 
L 619.895212 88.480456 
L 621.095858 110.633868 
L 624.697795 117.121652 
L 625.89844 136.11029 
L 627.099086 125.191823 
L 628.299731 123.451198 
L 629.500377 139.116825 
L 633.102313 130.25546 
L 634.302959 115.855743 
L 635.503604 119.495232 
L 636.70425 119.653471 
L 637.904895 102.405458 
L 641.506832 92.594661 
L 642.707477 93.227616 
L 643.908123 78.194944 
L 645.108768 87.847502 
L 646.309414 99.398923 
L 649.91135 97.816537 
L 651.111996 107.943811 
L 652.312641 103.196651 
L 653.513287 93.860571 
L 654.713932 96.392389 
L 658.315869 100.664833 
L 659.516514 107.785572 
L 660.71716 108.576765 
L 661.917805 96.867105 
L 663.118451 110.950345 
L 666.720387 112.374493 
L 667.921033 117.596368 
L 669.121678 116.646936 
L 670.322324 121.552334 
L 671.522969 140.85745 
L 675.124906 140.224495 
L 676.325551 131.837847 
L 677.526197 121.394096 
L 678.726842 123.767676 
L 679.927488 120.128187 
L 683.529424 114.115118 
L 684.73007 117.43813 
L 685.930715 122.660005 
L 687.131361 117.596368 
L 688.332006 111.583299 
L 691.933943 98.60773 
L 693.134588 95.917673 
L 694.335234 95.284718 
L 695.53588 102.563696 
L 696.736525 98.133014 
L 700.338462 106.677901 
L 701.539107 116.17222 
L 702.739753 99.715401 
L 703.940398 111.108584 
L 705.141044 108.735004 
L 708.74298 97.974776 
L 709.943626 96.392389 
L 711.144271 92.119945 
L 712.344917 90.537559 
L 713.545562 89.904604 
L 717.147499 93.227616 
L 718.348144 89.429888 
L 719.54879 96.23415 
L 725.552017 81.201479 
L 726.752663 77.720228 
L 727.953308 76.454319 
L 729.153954 80.252047 
L 730.354599 75.979603 
L 733.956536 66.96 
L 735.157181 77.245512 
L 736.357827 73.131307 
L 737.558472 69.966534 
L 738.759118 70.915966 
L 742.361054 75.346648 
L 743.5617 84.049774 
L 744.762345 81.201479 
L 745.962991 75.821364 
L 747.163636 72.340114 
L 747.163636 72.340114 
" clip-path="url(#p8d380dc0c9)" style="fill: none; stroke: #2ca02c; stroke-opacity: 0.7; stroke-width: 1.5; stroke-linecap: square"/>
   </g>
   <g id="patch_3">
    <path d="M 108 384.48 
L 108 51.84 
" style="fill: none; stroke: #000000; stroke-width: 0.8; stroke-linejoin: miter; stroke-linecap: square"/>
   </g>
   <g id="patch_4">
    <path d="M 777.6 384.48 
L 777.6 51.84 
" style="fill: none; stroke: #000000; stroke-width: 0.8; stroke-linejoin: miter; stroke-linecap: square"/>
   </g>
   <g id="patch_5">
    <path d="M 108 384.48 
L 777.6 384.48 
" style="fill: none; stroke: #000000; stroke-width: 0.8; stroke-linejoin: miter; stroke-linecap: square"/>
   </g>
   <g id="patch_6">
    <path d="M 108 51.84 
L 777.6 51.84 
" style="fill: none; stroke: #000000; stroke-width: 0.8; stroke-linejoin: miter; stroke-linecap: square"/>
   </g>
   <g id="text_17">
    <!-- ETF Strategy vs Benchmarks (2024-09-01 ~ Present) -->
    <g transform="translate(283.678125 45.84) scale(0.12 -0.12)">
     <defs>
      <path id="DejaVuSans-45" d="M 628 4666 
L 3578 4666 
L 3578 4134 
L 1259 4134 
L 1259 2753 
L 3481 2753 
L 3481 2222 
L 1259 2222 
L 1259 531 
L 3634 531 
L 3634 0 
L 628 0 
L 628 4666 
z
" transform="scale(0.015625)"/>
      <path id="DejaVuSans-54" d="M -19 4666 
L 3928 4666 
L 3928 4134 
L 2272 4134 
L 2272 0 
L 1638 0 
L 1638 4134 
L -19 4134 
L -19 4666 
z
" transform="scale(0.015625)"/>
      <path id="DejaVuSans-46" d="M 628 4666 
L 3309 4666 
L 3309 4134 
L 1259 4134 
L 1259 2759 
L 3109 2759 
L 3109 2228 
L 1259 2228 
L 1259 0 
L 628 0 
L 628 4666 
z
" transform="scale(0.015625)"/>
      <path id="DejaVuSans-20" transform="scale(0.015625)"/>
      <path id="DejaVuSans-53" d="M 3425 4513 
L 3425 3897 
Q 3066 4069 2747 4153 
Q 2428 4238 2131 4238 
Q 1616 4238 1336 4038 
Q 1056 3838 1056 3469 
Q 1056 3159 1242 3001 
Q 1428 2844 1947 2747 
L 2328 2669 
Q 3034 2534 3370 2195 
Q 3706 1856 3706 1288 
Q 3706 609 3251 259 
Q 2797 -91 1919 -91 
Q 1588 -91 1214 -16 
Q 841 59 441 206 
L 441 856 
Q 825 641 1194 531 
Q 1563 422 1919 422 
Q 2459 422 2753 634 
Q 3047 847 3047 1241 
Q 3047 1584 2836 1778 
Q 2625 1972 2144 2069 
L 1759 2144 
Q 1053 2284 737 2584 
Q 422 2884 422 3419 
Q 422 4038 858 4394 
Q 1294 4750 2059 4750 
Q 2388 4750 2728 4690 
Q 3069 4631 3425 4513 
z
" transform="scale(0.015625)"/>
      <path id="DejaVuSans-74" d="M 1172 4494 
L 1172 3500 
L 2356 3500 
L 2356 3053 
L 1172 3053 
L 1172 1153 
Q 1172 725 1289 603 
Q 1406 481 1766 481 
L 2356 481 
L 2356 0 
L 1766 0 
Q 1100 0 847 248 
Q 594 497 594 1153 
L 594 3053 
L 172 3053 
L 172 3500 
L 594 3500 
L 594 4494 
L 1172 4494 
z
" transform="scale(0.015625)"/>
      <path id="DejaVuSans-72" d="M 2631 2963 
Q 2534 3019 2420 3045 
Q 2306 3072 2169 3072 
Q 1681 3072 1420 2755 
Q 1159 2438 1159 1844 
L 1159 0 
L 581 0 
L 581 3500 
L 1159 3500 
L 1159 2956 
Q 1341 3275 1631 3429 
Q 1922 3584 2338 3584 
Q 2397 3584 2469 3576 
Q 2541 3569 2628 3553 
L 2631 2963 
z
" transform="scale(0.015625)"/>
      <path id="DejaVuSans-61" d="M 2194 1759 
Q 1497 1759 1228 1600 
Q 959 1441 959 1056 
Q 959 750 1161 570 
Q 1363 391 1709 391 
Q 2188 391 2477 730 
Q 2766 1069 2766 1631 
L 2766 1759 
L 2194 1759 
z
M 3341 1997 
L 3341 0 
L 2766 0 
L 2766 531 
Q 2569 213 2275 61 
Q 1981 -91 1556 -91 
Q 1019 -91 701 211 
Q 384 513 384 1019 
Q 384 1609 779 1909 
Q 1175 2209 1959 2209 
L 2766 2209 
L 2766 2266 
Q 2766 2663 2505 2880 
Q 2244 3097 1772 3097 
Q 1472 3097 1187 3025 
Q 903 2953 641 2809 
L 641 3341 
Q 956 3463 1253 3523 
Q 1550 3584 1831 3584 
Q 2591 3584 2966 3190 
Q 3341 2797 3341 1997 
z
" transform="scale(0.015625)"/>
      <path id="DejaVuSans-65" d="M 3597 1894 
L 3597 1613 
L 953 1613 
Q 991 1019 1311 708 
Q 1631 397 2203 397 
Q 2534 397 2845 478 
Q 3156 559 3463 722 
L 3463 178 
Q 3153 47 2828 -22 
Q 2503 -91 2169 -91 
Q 1331 -91 842 396 
Q 353 884 353 1716 
Q 353 2575 817 3079 
Q 1281 3584 2069 3584 
Q 2775 3584 3186 3129 
Q 3597 2675 3597 1894 
z
M 3022 2063 
Q 3016 2534 2758 2815 
Q 2500 3097 2075 3097 
Q 1594 3097 1305 2825 
Q 1016 2553 972 2059 
L 3022 2063 
z
" transform="scale(0.015625)"/>
      <path id="DejaVuSans-67" d="M 2906 1791 
Q 2906 2416 2648 2759 
Q 2391 3103 1925 3103 
Q 1463 3103 1205 2759 
Q 947 2416 947 1791 
Q 947 1169 1205 825 
Q 1463 481 1925 481 
Q 2391 481 2648 825 
Q 2906 1169 2906 1791 
z
M 3481 434 
Q 3481 -459 3084 -895 
Q 2688 -1331 1869 -1331 
Q 1566 -1331 1297 -1286 
Q 1028 -1241 775 -1147 
L 775 -588 
Q 1028 -725 1275 -790 
Q 1522 -856 1778 -856 
Q 2344 -856 2625 -561 
Q 2906 -266 2906 331 
L 2906 616 
Q 2728 306 2450 153 
Q 2172 0 1784 0 
Q 1141 0 747 490 
Q 353 981 353 1791 
Q 353 2603 747 3093 
Q 1141 3584 1784 3584 
Q 2172 3584 2450 3431 
Q 2728 3278 2906 2969 
L 2906 3500 
L 3481 3500 
L 3481 434 
z
" transform="scale(0.015625)"/>
      <path id="DejaVuSans-79" d="M 2059 -325 
Q 1816 -950 1584 -1140 
Q 1353 -1331 966 -1331 
L 506 -1331 
L 506 -850 
L 844 -850 
Q 1081 -850 1212 -737 
Q 1344 -625 1503 -206 
L 1606 56 
L 191 3500 
L 800 3500 
L 1894 763 
L 2988 3500 
L 3597 3500 
L 2059 -325 
z
" transform="scale(0.015625)"/>
      <path id="DejaVuSans-76" d="M 191 3500 
L 800 3500 
L 1894 563 
L 2988 3500 
L 3597 3500 
L 2284 0 
L 1503 0 
L 191 3500 
z
" transform="scale(0.015625)"/>
      <path id="DejaVuSans-73" d="M 2834 3397 
L 2834 2853 
Q 2591 2978 2328 3040 
Q 2066 3103 1784 3103 
Q 1356 3103 1142 2972 
Q 928 2841 928 2578 
Q 928 2378 1081 2264 
Q 1234 2150 1697 2047 
L 1894 2003 
Q 2506 1872 2764 1633 
Q 3022 1394 3022 966 
Q 3022 478 2636 193 
Q 2250 -91 1575 -91 
Q 1294 -91 989 -36 
Q 684 19 347 128 
L 347 722 
Q 666 556 975 473 
Q 1284 391 1588 391 
Q 1994 391 2212 530 
Q 2431 669 2431 922 
Q 2431 1156 2273 1281 
Q 2116 1406 1581 1522 
L 1381 1569 
Q 847 1681 609 1914 
Q 372 2147 372 2553 
Q 372 3047 722 3315 
Q 1072 3584 1716 3584 
Q 2034 3584 2315 3537 
Q 2597 3491 2834 3397 
z
" transform="scale(0.015625)"/>
      <path id="DejaVuSans-42" d="M 1259 2228 
L 1259 519 
L 2272 519 
Q 2781 519 3026 730 
Q 3272 941 3272 1375 
Q 3272 1813 3026 2020 
Q 2781 2228 2272 2228 
L 1259 2228 
z
M 1259 4147 
L 1259 2741 
L 2194 2741 
Q 2656 2741 2882 2914 
Q 3109 3088 3109 3444 
Q 3109 3797 2882 3972 
Q 2656 4147 2194 4147 
L 1259 4147 
z
M 628 4666 
L 2241 4666 
Q 2963 4666 3353 4366 
Q 3744 4066 3744 3513 
Q 3744 3084 3544 2831 
Q 3344 2578 2956 2516 
Q 3422 2416 3680 2098 
Q 3938 1781 3938 1306 
Q 3938 681 3513 340 
Q 3088 0 2303 0 
L 628 0 
L 628 4666 
z
" transform="scale(0.015625)"/>
      <path id="DejaVuSans-6e" d="M 3513 2113 
L 3513 0 
L 2938 0 
L 2938 2094 
Q 2938 2591 2744 2837 
Q 2550 3084 2163 3084 
Q 1697 3084 1428 2787 
Q 1159 2491 1159 1978 
L 1159 0 
L 581 0 
L 581 3500 
L 1159 3500 
L 1159 2956 
Q 1366 3272 1645 3428 
Q 1925 3584 2291 3584 
Q 2894 3584 3203 3211 
Q 3513 2838 3513 2113 
z
" transform="scale(0.015625)"/>
      <path id="DejaVuSans-63" d="M 3122 3366 
L 3122 2828 
Q 2878 2963 2633 3030 
Q 2388 3097 2138 3097 
Q 1578 3097 1268 2742 
Q 959 2388 959 1747 
Q 959 1106 1268 751 
Q 1578 397 2138 397 
Q 2388 397 2633 464 
Q 2878 531 3122 666 
L 3122 134 
Q 2881 22 2623 -34 
Q 2366 -91 2075 -91 
Q 1284 -91 818 406 
Q 353 903 353 1747 
Q 353 2603 823 3093 
Q 1294 3584 2113 3584 
Q 2378 3584 2631 3529 
Q 2884 3475 3122 3366 
z
" transform="scale(0.015625)"/>
      <path id="DejaVuSans-68" d="M 3513 2113 
L 3513 0 
L 2938 0 
L 2938 2094 
Q 2938 2591 2744 2837 
Q 2550 3084 2163 3084 
Q 1697 3084 1428 2787 
Q 1159 2491 1159 1978 
L 1159 0 
L 581 0 
L 581 4863 
L 1159 4863 
L 1159 2956 
Q 1366 3272 1645 3428 
Q 1925 3584 2291 3584 
Q 2894 3584 3203 3211 
Q 3513 2838 3513 2113 
z
" transform="scale(0.015625)"/>
      <path id="DejaVuSans-6d" d="M 3328 2828 
Q 3544 3216 3844 3400 
Q 4144 3584 4550 3584 
Q 5097 3584 5394 3201 
Q 5691 2819 5691 2113 
L 5691 0 
L 5113 0 
L 5113 2094 
Q 5113 2597 4934 2840 
Q 4756 3084 4391 3084 
Q 3944 3084 3684 2787 
Q 3425 2491 3425 1978 
L 3425 0 
L 2847 0 
L 2847 2094 
Q 2847 2600 2669 2842 
Q 2491 3084 2119 3084 
Q 1678 3084 1418 2786 
Q 1159 2488 1159 1978 
L 1159 0 
L 581 0 
L 581 3500 
L 1159 3500 
L 1159 2956 
Q 1356 3278 1631 3431 
Q 1906 3584 2284 3584 
Q 2666 3584 2933 3390 
Q 3200 3197 3328 2828 
z
" transform="scale(0.015625)"/>
      <path id="DejaVuSans-6b" d="M 581 4863 
L 1159 4863 
L 1159 1991 
L 2875 3500 
L 3609 3500 
L 1753 1863 
L 3688 0 
L 2938 0 
L 1159 1709 
L 1159 0 
L 581 0 
L 581 4863 
z
" transform="scale(0.015625)"/>
      <path id="DejaVuSans-28" d="M 1984 4856 
Q 1566 4138 1362 3434 
Q 1159 2731 1159 2009 
Q 1159 1288 1364 580 
Q 1569 -128 1984 -844 
L 1484 -844 
Q 1016 -109 783 600 
Q 550 1309 550 2009 
Q 550 2706 781 3412 
Q 1013 4119 1484 4856 
L 1984 4856 
z
" transform="scale(0.015625)"/>
      <path id="DejaVuSans-7e" d="M 4684 2553 
L 4684 1997 
Q 4356 1750 4076 1644 
Q 3797 1538 3494 1538 
Q 3150 1538 2694 1722 
Q 2659 1734 2644 1741 
Q 2622 1750 2575 1766 
Q 2091 1959 1797 1959 
Q 1522 1959 1253 1839 
Q 984 1719 678 1459 
L 678 2016 
Q 1006 2263 1286 2370 
Q 1566 2478 1869 2478 
Q 2213 2478 2672 2291 
Q 2703 2278 2719 2272 
Q 2744 2263 2788 2247 
Q 3272 2053 3566 2053 
Q 3834 2053 4098 2172 
Q 4363 2291 4684 2553 
z
" transform="scale(0.015625)"/>
      <path id="DejaVuSans-50" d="M 1259 4147 
L 1259 2394 
L 2053 2394 
Q 2494 2394 2734 2622 
Q 2975 2850 2975 3272 
Q 2975 3691 2734 3919 
Q 2494 4147 2053 4147 
L 1259 4147 
z
M 628 4666 
L 2053 4666 
Q 2838 4666 3239 4311 
Q 3641 3956 3641 3272 
Q 3641 2581 3239 2228 
Q 2838 1875 2053 1875 
L 1259 1875 
L 1259 0 
L 628 0 
L 628 4666 
z
" transform="scale(0.015625)"/>
      <path id="DejaVuSans-29" d="M 513 4856 
L 1013 4856 
Q 1481 4119 1714 3412 
Q 1947 2706 1947 2009 
Q 1947 1309 1714 600 
Q 1481 -109 1013 -844 
L 513 -844 
Q 928 -128 1133 580 
Q 1338 1288 1338 2009 
Q 1338 2731 1133 3434 
Q 928 4138 513 4856 
z
" transform="scale(0.015625)"/>
     </defs>
     <use xlink:href="#DejaVuSans-45"/>
     <use xlink:href="#DejaVuSans-54" transform="translate(63.183594 0)"/>
     <use xlink:href="#DejaVuSans-46" transform="translate(124.267578 0)"/>
     <use xlink:href="#DejaVuSans-20" transform="translate(181.787109 0)"/>
     <use xlink:href="#DejaVuSans-53" transform="translate(213.574219 0)"/>
     <use xlink:href="#DejaVuSans-74" transform="translate(277.050781 0)"/>
     <use xlink:href="#DejaVuSans-72" transform="translate(316.259766 0)"/>
     <use xlink:href="#DejaVuSans-61" transform="translate(357.373047 0)"/>
     <use xlink:href="#DejaVuSans-74" transform="translate(418.652344 0)"/>
     <use xlink:href="#DejaVuSans-65" transform="translate(457.861328 0)"/>
     <use xlink:href="#DejaVuSans-67" transform="translate(519.384766 0)"/>
     <use xlink:href="#DejaVuSans-79" transform="translate(582.861328 0)"/>
     <use xlink:href="#DejaVuSans-20" transform="translate(642.041016 0)"/>
     <use xlink:href="#DejaVuSans-76" transform="translate(673.828125 0)"/>
     <use xlink:href="#DejaVuSans-73" transform="translate(733.007812 0)"/>
     <use xlink:href="#DejaVuSans-20" transform="translate(785.107422 0)"/>
     <use xlink:href="#DejaVuSans-42" transform="translate(816.894531 0)"/>
     <use xlink:href="#DejaVuSans-65" transform="translate(885.498047 0)"/>
     <use xlink:href="#DejaVuSans-6e" transform="translate(947.021484 0)"/>
     <use xlink:href="#DejaVuSans-63" transform="translate(1010.400391 0)"/>
     <use xlink:href="#DejaVuSans-68" transform="translate(1065.380859 0)"/>
     <use xlink:href="#DejaVuSans-6d" transform="translate(1128.759766 0)"/>
     <use xlink:href="#DejaVuSans-61" transform="translate(1226.171875 0)"/>
     <use xlink:href="#DejaVuSans-72" transform="translate(1287.451172 0)"/>
     <use xlink:href="#DejaVuSans-6b" transform="translate(1328.564453 0)"/>
     <use xlink:href="#DejaVuSans-73" transform="translate(1386.474609 0)"/>
     <use xlink:href="#DejaVuSans-20" transform="translate(1438.574219 0)"/>
     <use xlink:href="#DejaVuSans-28" transform="translate(1470.361328 0)"/>
     <use xlink:href="#DejaVuSans-32" transform="translate(1509.375 0)"/>
     <use xlink:href="#DejaVuSans-30" transform="translate(1572.998047 0)"/>
     <use xlink:href="#DejaVuSans-32" transform="translate(1636.621094 0)"/>
     <use xlink:href="#DejaVuSans-34" transform="translate(1700.244141 0)"/>
     <use xlink:href="#DejaVuSans-2d" transform="translate(1763.867188 0)"/>
     <use xlink:href="#DejaVuSans-30" transform="translate(1799.951172 0)"/>
     <use xlink:href="#DejaVuSans-39" transform="translate(1863.574219 0)"/>
     <use xlink:href="#DejaVuSans-2d" transform="translate(1927.197266 0)"/>
     <use xlink:href="#DejaVuSans-30" transform="translate(1963.28125 0)"/>
     <use xlink:href="#DejaVuSans-31" transform="translate(2026.904297 0)"/>
     <use xlink:href="#DejaVuSans-20" transform="translate(2090.527344 0)"/>
     <use xlink:href="#DejaVuSans-7e" transform="translate(2122.314453 0)"/>
     <use xlink:href="#DejaVuSans-20" transform="translate(2206.103516 0)"/>
     <use xlink:href="#DejaVuSans-50" transform="translate(2237.890625 0)"/>
     <use xlink:href="#DejaVuSans-72" transform="translate(2296.443359 0)"/>
     <use xlink:href="#DejaVuSans-65" transform="translate(2335.306641 0)"/>
     <use xlink:href="#DejaVuSans-73" transform="translate(2396.830078 0)"/>
     <use xlink:href="#DejaVuSans-65" transform="translate(2448.929688 0)"/>
     <use xlink:href="#DejaVuSans-6e" transform="translate(2510.453125 0)"/>
     <use xlink:href="#DejaVuSans-74" transform="translate(2573.832031 0)"/>
     <use xlink:href="#DejaVuSans-29" transform="translate(2613.041016 0)"/>
    </g>
   </g>
   <g id="legend_1">
    <g id="patch_7">
     <path d="M 115 103.874375 
L 243.8875 103.874375 
Q 245.8875 103.874375 245.8875 101.874375 
L 245.8875 58.84 
Q 245.8875 56.84 243.8875 56.84 
L 115 56.84 
Q 113 56.84 113 58.84 
L 113 101.874375 
Q 113 103.874375 115 103.874375 
z
" style="fill: #ffffff; opacity: 0.8; stroke: #cccccc; stroke-linejoin: miter"/>
    </g>
    <g id="line2d_36">
     <path d="M 117 64.938437 
L 127 64.938437 
L 137 64.938437 
" style="fill: none; stroke: #1f77b4; stroke-width: 2; stroke-linecap: square"/>
    </g>
    <g id="text_18">
     <!-- Strategy (+86.2%) -->
     <g transform="translate(145 68.438437) scale(0.1 -0.1)">
      <defs>
       <path id="DejaVuSans-2b" d="M 2944 4013 
L 2944 2272 
L 4684 2272 
L 4684 1741 
L 2944 1741 
L 2944 0 
L 2419 0 
L 2419 1741 
L 678 1741 
L 678 2272 
L 2419 2272 
L 2419 4013 
L 2944 4013 
z
" transform="scale(0.015625)"/>
       <path id="DejaVuSans-25" d="M 4653 2053 
Q 4381 2053 4226 1822 
Q 4072 1591 4072 1178 
Q 4072 772 4226 539 
Q 4381 306 4653 306 
Q 4919 306 5073 539 
Q 5228 772 5228 1178 
Q 5228 1588 5073 1820 
Q 4919 2053 4653 2053 
z
M 4653 2450 
Q 5147 2450 5437 2106 
Q 5728 1763 5728 1178 
Q 5728 594 5436 251 
Q 5144 -91 4653 -91 
Q 4153 -91 3862 251 
Q 3572 594 3572 1178 
Q 3572 1766 3864 2108 
Q 4156 2450 4653 2450 
z
M 1428 4353 
Q 1159 4353 1004 4120 
Q 850 3888 850 3481 
Q 850 3069 1003 2837 
Q 1156 2606 1428 2606 
Q 1700 2606 1854 2837 
Q 2009 3069 2009 3481 
Q 2009 3884 1853 4118 
Q 1697 4353 1428 4353 
z
M 4250 4750 
L 4750 4750 
L 1831 -91 
L 1331 -91 
L 4250 4750 
z
M 1428 4750 
Q 1922 4750 2215 4408 
Q 2509 4066 2509 3481 
Q 2509 2891 2217 2550 
Q 1925 2209 1428 2209 
Q 931 2209 642 2551 
Q 353 2894 353 3481 
Q 353 4063 643 4406 
Q 934 4750 1428 4750 
z
" transform="scale(0.015625)"/>
      </defs>
      <use xlink:href="#DejaVuSans-53"/>
      <use xlink:href="#DejaVuSans-74" transform="translate(63.476562 0)"/>
      <use xlink:href="#DejaVuSans-72" transform="translate(102.685547 0)"/>
      <use xlink:href="#DejaVuSans-61" transform="translate(143.798828 0)"/>
      <use xlink:href="#DejaVuSans-74" transform="translate(205.078125 0)"/>
      <use xlink:href="#DejaVuSans-65" transform="translate(244.287109 0)"/>
      <use xlink:href="#DejaVuSans-67" transform="translate(305.810547 0)"/>
      <use xlink:href="#DejaVuSans-79" transform="translate(369.287109 0)"/>
      <use xlink:href="#DejaVuSans-20" transform="translate(428.466797 0)"/>
      <use xlink:href="#DejaVuSans-28" transform="translate(460.253906 0)"/>
      <use xlink:href="#DejaVuSans-2b" transform="translate(499.267578 0)"/>
      <use xlink:href="#DejaVuSans-38" transform="translate(583.056641 0)"/>
      <use xlink:href="#DejaVuSans-36" transform="translate(646.679688 0)"/>
      <use xlink:href="#DejaVuSans-2e" transform="translate(710.302734 0)"/>
      <use xlink:href="#DejaVuSans-32" transform="translate(742.089844 0)"/>
      <use xlink:href="#DejaVuSans-25" transform="translate(805.712891 0)"/>
      <use xlink:href="#DejaVuSans-29" transform="translate(900.732422 0)"/>
     </g>
    </g>
    <g id="line2d_37">
     <path d="M 117 79.616562 
L 127 79.616562 
L 137 79.616562 
" style="fill: none; stroke: #ff7f0e; stroke-opacity: 0.7; stroke-width: 1.5; stroke-linecap: square"/>
    </g>
    <g id="text_19">
     <!-- CSI300 (+48.2%) -->
     <g transform="translate(145 83.116562) scale(0.1 -0.1)">
      <defs>
       <path id="DejaVuSans-43" d="M 4122 4306 
L 4122 3641 
Q 3803 3938 3442 4084 
Q 3081 4231 2675 4231 
Q 1875 4231 1450 3742 
Q 1025 3253 1025 2328 
Q 1025 1406 1450 917 
Q 1875 428 2675 428 
Q 3081 428 3442 575 
Q 3803 722 4122 1019 
L 4122 359 
Q 3791 134 3420 21 
Q 3050 -91 2638 -91 
Q 1578 -91 968 557 
Q 359 1206 359 2328 
Q 359 3453 968 4101 
Q 1578 4750 2638 4750 
Q 3056 4750 3426 4639 
Q 3797 4528 4122 4306 
z
" transform="scale(0.015625)"/>
       <path id="DejaVuSans-49" d="M 628 4666 
L 1259 4666 
L 1259 0 
L 628 0 
L 628 4666 
z
" transform="scale(0.015625)"/>
      </defs>
      <use xlink:href="#DejaVuSans-43"/>
      <use xlink:href="#DejaVuSans-53" transform="translate(69.824219 0)"/>
      <use xlink:href="#DejaVuSans-49" transform="translate(133.300781 0)"/>
      <use xlink:href="#DejaVuSans-33" transform="translate(162.792969 0)"/>
      <use xlink:href="#DejaVuSans-30" transform="translate(226.416016 0)"/>
      <use xlink:href="#DejaVuSans-30" transform="translate(290.039062 0)"/>
      <use xlink:href="#DejaVuSans-20" transform="translate(353.662109 0)"/>
      <use xlink:href="#DejaVuSans-28" transform="translate(385.449219 0)"/>
      <use xlink:href="#DejaVuSans-2b" transform="translate(424.462891 0)"/>
      <use xlink:href="#DejaVuSans-34" transform="translate(508.251953 0)"/>
      <use xlink:href="#DejaVuSans-38" transform="translate(571.875 0)"/>
      <use xlink:href="#DejaVuSans-2e" transform="translate(635.498047 0)"/>
      <use xlink:href="#DejaVuSans-32" transform="translate(667.285156 0)"/>
      <use xlink:href="#DejaVuSans-25" transform="translate(730.908203 0)"/>
      <use xlink:href="#DejaVuSans-29" transform="translate(825.927734 0)"/>
     </g>
    </g>
    <g id="line2d_38">
     <path d="M 117 94.294687 
L 127 94.294687 
L 137 94.294687 
" style="fill: none; stroke: #2ca02c; stroke-opacity: 0.7; stroke-width: 1.5; stroke-linecap: square"/>
    </g>
    <g id="text_20">
     <!-- ChiNext (+121.4%) -->
     <g transform="translate(145 97.794687) scale(0.1 -0.1)">
      <defs>
       <path id="DejaVuSans-69" d="M 603 3500 
L 1178 3500 
L 1178 0 
L 603 0 
L 603 3500 
z
M 603 4863 
L 1178 4863 
L 1178 4134 
L 603 4134 
L 603 4863 
z
" transform="scale(0.015625)"/>
       <path id="DejaVuSans-4e" d="M 628 4666 
L 1478 4666 
L 3547 763 
L 3547 4666 
L 4159 4666 
L 4159 0 
L 3309 0 
L 1241 3903 
L 1241 0 
L 628 0 
L 628 4666 
z
" transform="scale(0.015625)"/>
       <path id="DejaVuSans-78" d="M 3513 3500 
L 2247 1797 
L 3578 0 
L 2900 0 
L 1881 1375 
L 863 0 
L 184 0 
L 1544 1831 
L 300 3500 
L 978 3500 
L 1906 2253 
L 2834 3500 
L 3513 3500 
z
" transform="scale(0.015625)"/>
      </defs>
      <use xlink:href="#DejaVuSans-43"/>
      <use xlink:href="#DejaVuSans-68" transform="translate(69.824219 0)"/>
      <use xlink:href="#DejaVuSans-69" transform="translate(133.203125 0)"/>
      <use xlink:href="#DejaVuSans-4e" transform="translate(160.986328 0)"/>
      <use xlink:href="#DejaVuSans-65" transform="translate(235.791016 0)"/>
      <use xlink:href="#DejaVuSans-78" transform="translate(295.564453 0)"/>
      <use xlink:href="#DejaVuSans-74" transform="translate(354.744141 0)"/>
      <use xlink:href="#DejaVuSans-20" transform="translate(393.953125 0)"/>
      <use xlink:href="#DejaVuSans-28" transform="translate(425.740234 0)"/>
      <use xlink:href="#DejaVuSans-2b" transform="translate(464.753906 0)"/>
      <use xlink:href="#DejaVuSans-31" transform="translate(548.542969 0)"/>
      <use xlink:href="#DejaVuSans-32" transform="translate(612.166016 0)"/>
      <use xlink:href="#DejaVuSans-31" transform="translate(675.789062 0)"/>
      <use xlink:href="#DejaVuSans-2e" transform="translate(739.412109 0)"/>
      <use xlink:href="#DejaVuSans-34" transform="translate(771.199219 0)"/>
      <use xlink:href="#DejaVuSans-25" transform="translate(834.822266 0)"/>
      <use xlink:href="#DejaVuSans-29" transform="translate(929.841797 0)"/>
     </g>
    </g>
   </g>
  </g>
 </g>
 <defs>
  <clipPath id="p8d380dc0c9">
   <rect x="108" y="51.84" width="669.6" height="332.64"/>
  </clipPath>
 </defs>
</svg>
