<?xml version="1.0" encoding="utf-8" standalone="no"?>
<!DOCTYPE svg PUBLIC "-//W3C//DTD SVG 1.1//EN"
  "http://www.w3.org/Graphics/SVG/1.1/DTD/svg11.dtd">
<svg xmlns:xlink="http://www.w3.org/1999/xlink" width="864pt" height="432pt" viewBox="0 0 864 432" xmlns="http://www.w3.org/2000/svg" version="1.1">
 <metadata>
  <rdf:RDF xmlns:dc="http://purl.org/dc/elements/1.1/" xmlns:cc="http://creativecommons.org/ns#" xmlns:rdf="http://www.w3.org/1999/02/22-rdf-syntax-ns#">
   <cc:Work>
    <dc:type rdf:resource="http://purl.org/dc/dcmitype/StillImage"/>
    <dc:date>2026-01-24T23:09:37.354405</dc:date>
    <dc:format>image/svg+xml</dc:format>
    <dc:creator>
     <cc:Agent>
      <dc:title>Matplotlib v3.10.7, https://matplotlib.org/</dc:title>
     </cc:Agent>
    </dc:creator>
   </cc:Work>
  </rdf:RDF>
 </metadata>
 <defs>
  <style type="text/css">*{stroke-linejoin: round; stroke-linecap: butt}</style>
 </defs>
 <g id="figure_1">
  <g id="patch_1">
   <path d="M 0 432 
L 864 432 
L 864 0 
L 0 0 
z
" style="fill: #ffffff"/>
  </g>
  <g id="axes_1">
   <g id="patch_2">
    <path d="M 108 384.48 
L 777.6 384.48 
L 777.6 51.84 
L 108 51.84 
z
" style="fill: #ffffff"/>
   </g>
   <g id="matplotlib.axis_1">
    <g id="xtick_1">
     <g id="line2d_1">
      <path d="M 137.235718 384.48 
L 137.235718 51.84 
" clip-path="url(#p332ff1dfbd)" style="fill: none; stroke: #b0b0b0; stroke-opacity: 0.3; stroke-width: 0.8; stroke-linecap: square"/>
     </g>
     <g id="line2d_2">
      <defs>
       <path id="m07c173aaf0" d="M 0 0 
L 0 3.5 
" style="stroke: #000000; stroke-width: 0.8"/>
      </defs>
      <g>
       <use xlink:href="#m07c173aaf0" x="137.235718" y="384.48" style="stroke: #000000; stroke-width: 0.8"/>
      </g>
     </g>
     <g id="text_1">
      <!-- 2024-09 -->
      <g transform="translate(116.344312 399.078438) scale(0.1 -0.1)">
       <defs>
        <path id="DejaVuSans-32" d="M 1228 531 
L 3431 531 
L 3431 0 
L 469 0 
L 469 531 
Q 828 903 1448 1529 
Q 2069 2156 2228 2338 
Q 2531 2678 2651 2914 
Q 2772 3150 2772 3378 
Q 2772 3750 2511 3984 
Q 2250 4219 1831 4219 
Q 1534 4219 1204 4116 
Q 875 4013 500 3803 
L 500 4441 
Q 881 4594 1212 4672 
Q 1544 4750 1819 4750 
Q 2544 4750 2975 4387 
Q 3406 4025 3406 3419 
Q 3406 3131 3298 2873 
Q 3191 2616 2906 2266 
Q 2828 2175 2409 1742 
Q 1991 1309 1228 531 
z
" transform="scale(0.015625)"/>
        <path id="DejaVuSans-30" d="M 2034 4250 
Q 1547 4250 1301 3770 
Q 1056 3291 1056 2328 
Q 1056 1369 1301 889 
Q 1547 409 2034 409 
Q 2525 409 2770 889 
Q 3016 1369 3016 2328 
Q 3016 3291 2770 3770 
Q 2525 4250 2034 4250 
z
M 2034 4750 
Q 2819 4750 3233 4129 
Q 3647 3509 3647 2328 
Q 3647 1150 3233 529 
Q 2819 -91 2034 -91 
Q 1250 -91 836 529 
Q 422 1150 422 2328 
Q 422 3509 836 4129 
Q 1250 4750 2034 4750 
z
" transform="scale(0.015625)"/>
        <path id="DejaVuSans-34" d="M 2419 4116 
L 825 1625 
L 2419 1625 
L 2419 4116 
z
M 2253 4666 
L 3047 4666 
L 3047 1625 
L 3713 1625 
L 3713 1100 
L 3047 1100 
L 3047 0 
L 2419 0 
L 2419 1100 
L 313 1100 
L 313 1709 
L 2253 4666 
z
" transform="scale(0.015625)"/>
        <path id="DejaVuSans-2d" d="M 313 2009 
L 1997 2009 
L 1997 1497 
L 313 1497 
L 313 2009 
z
" transform="scale(0.015625)"/>
        <path id="DejaVuSans-39" d="M 703 97 
L 703 672 
Q 941 559 1184 500 
Q 1428 441 1663 441 
Q 2288 441 2617 861 
Q 2947 1281 2994 2138 
Q 2813 1869 2534 1725 
Q 2256 1581 1919 1581 
Q 1219 1581 811 2004 
Q 403 2428 403 3163 
Q 403 3881 828 4315 
Q 1253 4750 1959 4750 
Q 2769 4750 3195 4129 
Q 3622 3509 3622 2328 
Q 3622 1225 3098 567 
Q 2575 -91 1691 -91 
Q 1453 -91 1209 -44 
Q 966 3 703 97 
z
M 1959 2075 
Q 2384 2075 2632 2365 
Q 2881 2656 2881 3163 
Q 2881 3666 2632 3958 
Q 2384 4250 1959 4250 
Q 1534 4250 1286 3958 
Q 1038 3666 1038 3163 
Q 1038 2656 1286 2365 
Q 1534 2075 1959 2075 
z
" transform="scale(0.015625)"/>
       </defs>
       <use xlink:href="#DejaVuSans-32"/>
       <use xlink:href="#DejaVuSans-30" transform="translate(63.623047 0)"/>
       <use xlink:href="#DejaVuSans-32" transform="translate(127.246094 0)"/>
       <use xlink:href="#DejaVuSans-34" transform="translate(190.869141 0)"/>
       <use xlink:href="#DejaVuSans-2d" transform="translate(254.492188 0)"/>
       <use xlink:href="#DejaVuSans-30" transform="translate(290.576172 0)"/>
       <use xlink:href="#DejaVuSans-39" transform="translate(354.199219 0)"/>
      </g>
     </g>
    </g>
    <g id="xtick_2">
     <g id="line2d_3">
      <path d="M 210.475094 384.48 
L 210.475094 51.84 
" clip-path="url(#p332ff1dfbd)" style="fill: none; stroke: #b0b0b0; stroke-opacity: 0.3; stroke-width: 0.8; stroke-linecap: square"/>
     </g>
     <g id="line2d_4">
      <g>
       <use xlink:href="#m07c173aaf0" x="210.475094" y="384.48" style="stroke: #000000; stroke-width: 0.8"/>
      </g>
     </g>
     <g id="text_2">
      <!-- 2024-11 -->
      <g transform="translate(189.583688 399.078438) scale(0.1 -0.1)">
       <defs>
        <path id="DejaVuSans-31" d="M 794 531 
L 1825 531 
L 1825 4091 
L 703 3866 
L 703 4441 
L 1819 4666 
L 2450 4666 
L 2450 531 
L 3481 531 
L 3481 0 
L 794 0 
L 794 531 
z
" transform="scale(0.015625)"/>
       </defs>
       <use xlink:href="#DejaVuSans-32"/>
       <use xlink:href="#DejaVuSans-30" transform="translate(63.623047 0)"/>
       <use xlink:href="#DejaVuSans-32" transform="translate(127.246094 0)"/>
       <use xlink:href="#DejaVuSans-34" transform="translate(190.869141 0)"/>
       <use xlink:href="#DejaVuSans-2d" transform="translate(254.492188 0)"/>
       <use xlink:href="#DejaVuSans-31" transform="translate(290.576172 0)"/>
       <use xlink:href="#DejaVuSans-31" transform="translate(354.199219 0)"/>
      </g>
     </g>
    </g>
    <g id="xtick_3">
     <g id="line2d_5">
      <path d="M 283.71447 384.48 
L 283.71447 51.84 
" clip-path="url(#p332ff1dfbd)" style="fill: none; stroke: #b0b0b0; stroke-opacity: 0.3; stroke-width: 0.8; stroke-linecap: square"/>
     </g>
     <g id="line2d_6">
      <g>
       <use xlink:href="#m07c173aaf0" x="283.71447" y="384.48" style="stroke: #000000; stroke-width: 0.8"/>
      </g>
     </g>
     <g id="text_3">
      <!-- 2025-01 -->
      <g transform="translate(262.823064 399.078438) scale(0.1 -0.1)">
       <defs>
        <path id="DejaVuSans-35" d="M 691 4666 
L 3169 4666 
L 3169 4134 
L 1269 4134 
L 1269 2991 
Q 1406 3038 1543 3061 
Q 1681 3084 1819 3084 
Q 2600 3084 3056 2656 
Q 3513 2228 3513 1497 
Q 3513 744 3044 326 
Q 2575 -91 1722 -91 
Q 1428 -91 1123 -41 
Q 819 9 494 109 
L 494 744 
Q 775 591 1075 516 
Q 1375 441 1709 441 
Q 2250 441 2565 725 
Q 2881 1009 2881 1497 
Q 2881 1984 2565 2268 
Q 2250 2553 1709 2553 
Q 1456 2553 1204 2497 
Q 953 2441 691 2322 
L 691 4666 
z
" transform="scale(0.015625)"/>
       </defs>
       <use xlink:href="#DejaVuSans-32"/>
       <use xlink:href="#DejaVuSans-30" transform="translate(63.623047 0)"/>
       <use xlink:href="#DejaVuSans-32" transform="translate(127.246094 0)"/>
       <use xlink:href="#DejaVuSans-35" transform="translate(190.869141 0)"/>
       <use xlink:href="#DejaVuSans-2d" transform="translate(254.492188 0)"/>
       <use xlink:href="#DejaVuSans-30" transform="translate(290.576172 0)"/>
       <use xlink:href="#DejaVuSans-31" transform="translate(354.199219 0)"/>
      </g>
     </g>
    </g>
    <g id="xtick_4">
     <g id="line2d_7">
      <path d="M 354.552555 384.48 
L 354.552555 51.84 
" clip-path="url(#p332ff1dfbd)" style="fill: none; stroke: #b0b0b0; stroke-opacity: 0.3; stroke-width: 0.8; stroke-linecap: square"/>
     </g>
     <g id="line2d_8">
      <g>
       <use xlink:href="#m07c173aaf0" x="354.552555" y="384.48" style="stroke: #000000; stroke-width: 0.8"/>
      </g>
     </g>
     <g id="text_4">
      <!-- 2025-03 -->
      <g transform="translate(333.661149 399.078438) scale(0.1 -0.1)">
       <defs>
        <path id="DejaVuSans-33" d="M 2597 2516 
Q 3050 2419 3304 2112 
Q 3559 1806 3559 1356 
Q 3559 666 3084 287 
Q 2609 -91 1734 -91 
Q 1441 -91 1130 -33 
Q 819 25 488 141 
L 488 750 
Q 750 597 1062 519 
Q 1375 441 1716 441 
Q 2309 441 2620 675 
Q 2931 909 2931 1356 
Q 2931 1769 2642 2001 
Q 2353 2234 1838 2234 
L 1294 2234 
L 1294 2753 
L 1863 2753 
Q 2328 2753 2575 2939 
Q 2822 3125 2822 3475 
Q 2822 3834 2567 4026 
Q 2313 4219 1838 4219 
Q 1578 4219 1281 4162 
Q 984 4106 628 3988 
L 628 4550 
Q 988 4650 1302 4700 
Q 1616 4750 1894 4750 
Q 2613 4750 3031 4423 
Q 3450 4097 3450 3541 
Q 3450 3153 3228 2886 
Q 3006 2619 2597 2516 
z
" transform="scale(0.015625)"/>
       </defs>
       <use xlink:href="#DejaVuSans-32"/>
       <use xlink:href="#DejaVuSans-30" transform="translate(63.623047 0)"/>
       <use xlink:href="#DejaVuSans-32" transform="translate(127.246094 0)"/>
       <use xlink:href="#DejaVuSans-35" transform="translate(190.869141 0)"/>
       <use xlink:href="#DejaVuSans-2d" transform="translate(254.492188 0)"/>
       <use xlink:href="#DejaVuSans-30" transform="translate(290.576172 0)"/>
       <use xlink:href="#DejaVuSans-33" transform="translate(354.199219 0)"/>
      </g>
     </g>
    </g>
    <g id="xtick_5">
     <g id="line2d_9">
      <path d="M 427.791931 384.48 
L 427.791931 51.84 
" clip-path="url(#p332ff1dfbd)" style="fill: none; stroke: #b0b0b0; stroke-opacity: 0.3; stroke-width: 0.8; stroke-linecap: square"/>
     </g>
     <g id="line2d_10">
      <g>
       <use xlink:href="#m07c173aaf0" x="427.791931" y="384.48" style="stroke: #000000; stroke-width: 0.8"/>
      </g>
     </g>
     <g id="text_5">
      <!-- 2025-05 -->
      <g transform="translate(406.900525 399.078438) scale(0.1 -0.1)">
       <use xlink:href="#DejaVuSans-32"/>
       <use xlink:href="#DejaVuSans-30" transform="translate(63.623047 0)"/>
       <use xlink:href="#DejaVuSans-32" transform="translate(127.246094 0)"/>
       <use xlink:href="#DejaVuSans-35" transform="translate(190.869141 0)"/>
       <use xlink:href="#DejaVuSans-2d" transform="translate(254.492188 0)"/>
       <use xlink:href="#DejaVuSans-30" transform="translate(290.576172 0)"/>
       <use xlink:href="#DejaVuSans-35" transform="translate(354.199219 0)"/>
      </g>
     </g>
    </g>
    <g id="xtick_6">
     <g id="line2d_11">
      <path d="M 501.031307 384.48 
L 501.031307 51.84 
" clip-path="url(#p332ff1dfbd)" style="fill: none; stroke: #b0b0b0; stroke-opacity: 0.3; stroke-width: 0.8; stroke-linecap: square"/>
     </g>
     <g id="line2d_12">
      <g>
       <use xlink:href="#m07c173aaf0" x="501.031307" y="384.48" style="stroke: #000000; stroke-width: 0.8"/>
      </g>
     </g>
     <g id="text_6">
      <!-- 2025-07 -->
      <g transform="translate(480.139901 399.078438) scale(0.1 -0.1)">
       <defs>
        <path id="DejaVuSans-37" d="M 525 4666 
L 3525 4666 
L 3525 4397 
L 1831 0 
L 1172 0 
L 2766 4134 
L 525 4134 
L 525 4666 
z
" transform="scale(0.015625)"/>
       </defs>
       <use xlink:href="#DejaVuSans-32"/>
       <use xlink:href="#DejaVuSans-30" transform="translate(63.623047 0)"/>
       <use xlink:href="#DejaVuSans-32" transform="translate(127.246094 0)"/>
       <use xlink:href="#DejaVuSans-35" transform="translate(190.869141 0)"/>
       <use xlink:href="#DejaVuSans-2d" transform="translate(254.492188 0)"/>
       <use xlink:href="#DejaVuSans-30" transform="translate(290.576172 0)"/>
       <use xlink:href="#DejaVuSans-37" transform="translate(354.199219 0)"/>
      </g>
     </g>
    </g>
    <g id="xtick_7">
     <g id="line2d_13">
      <path d="M 575.471329 384.48 
L 575.471329 51.84 
" clip-path="url(#p332ff1dfbd)" style="fill: none; stroke: #b0b0b0; stroke-opacity: 0.3; stroke-width: 0.8; stroke-linecap: square"/>
     </g>
     <g id="line2d_14">
      <g>
       <use xlink:href="#m07c173aaf0" x="575.471329" y="384.48" style="stroke: #000000; stroke-width: 0.8"/>
      </g>
     </g>
     <g id="text_7">
      <!-- 2025-09 -->
      <g transform="translate(554.579922 399.078438) scale(0.1 -0.1)">
       <use xlink:href="#DejaVuSans-32"/>
       <use xlink:href="#DejaVuSans-30" transform="translate(63.623047 0)"/>
       <use xlink:href="#DejaVuSans-32" transform="translate(127.246094 0)"/>
       <use xlink:href="#DejaVuSans-35" transform="translate(190.869141 0)"/>
       <use xlink:href="#DejaVuSans-2d" transform="translate(254.492188 0)"/>
       <use xlink:href="#DejaVuSans-30" transform="translate(290.576172 0)"/>
       <use xlink:href="#DejaVuSans-39" transform="translate(354.199219 0)"/>
      </g>
     </g>
    </g>
    <g id="xtick_8">
     <g id="line2d_15">
      <path d="M 648.710705 384.48 
L 648.710705 51.84 
" clip-path="url(#p332ff1dfbd)" style="fill: none; stroke: #b0b0b0; stroke-opacity: 0.3; stroke-width: 0.8; stroke-linecap: square"/>
     </g>
     <g id="line2d_16">
      <g>
       <use xlink:href="#m07c173aaf0" x="648.710705" y="384.48" style="stroke: #000000; stroke-width: 0.8"/>
      </g>
     </g>
     <g id="text_8">
      <!-- 2025-11 -->
      <g transform="translate(627.819298 399.078438) scale(0.1 -0.1)">
       <use xlink:href="#DejaVuSans-32"/>
       <use xlink:href="#DejaVuSans-30" transform="translate(63.623047 0)"/>
       <use xlink:href="#DejaVuSans-32" transform="translate(127.246094 0)"/>
       <use xlink:href="#DejaVuSans-35" transform="translate(190.869141 0)"/>
       <use xlink:href="#DejaVuSans-2d" transform="translate(254.492188 0)"/>
       <use xlink:href="#DejaVuSans-31" transform="translate(290.576172 0)"/>
       <use xlink:href="#DejaVuSans-31" transform="translate(354.199219 0)"/>
      </g>
     </g>
    </g>
    <g id="xtick_9">
     <g id="line2d_17">
      <path d="M 721.950081 384.48 
L 721.950081 51.84 
" clip-path="url(#p332ff1dfbd)" style="fill: none; stroke: #b0b0b0; stroke-opacity: 0.3; stroke-width: 0.8; stroke-linecap: square"/>
     </g>
     <g id="line2d_18">
      <g>
       <use xlink:href="#m07c173aaf0" x="721.950081" y="384.48" style="stroke: #000000; stroke-width: 0.8"/>
      </g>
     </g>
     <g id="text_9">
      <!-- 2026-01 -->
      <g transform="translate(701.058674 399.078438) scale(0.1 -0.1)">
       <defs>
        <path id="DejaVuSans-36" d="M 2113 2584 
Q 1688 2584 1439 2293 
Q 1191 2003 1191 1497 
Q 1191 994 1439 701 
Q 1688 409 2113 409 
Q 2538 409 2786 701 
Q 3034 994 3034 1497 
Q 3034 2003 2786 2293 
Q 2538 2584 2113 2584 
z
M 3366 4563 
L 3366 3988 
Q 3128 4100 2886 4159 
Q 2644 4219 2406 4219 
Q 1781 4219 1451 3797 
Q 1122 3375 1075 2522 
Q 1259 2794 1537 2939 
Q 1816 3084 2150 3084 
Q 2853 3084 3261 2657 
Q 3669 2231 3669 1497 
Q 3669 778 3244 343 
Q 2819 -91 2113 -91 
Q 1303 -91 875 529 
Q 447 1150 447 2328 
Q 447 3434 972 4092 
Q 1497 4750 2381 4750 
Q 2619 4750 2861 4703 
Q 3103 4656 3366 4563 
z
" transform="scale(0.015625)"/>
       </defs>
       <use xlink:href="#DejaVuSans-32"/>
       <use xlink:href="#DejaVuSans-30" transform="translate(63.623047 0)"/>
       <use xlink:href="#DejaVuSans-32" transform="translate(127.246094 0)"/>
       <use xlink:href="#DejaVuSans-36" transform="translate(190.869141 0)"/>
       <use xlink:href="#DejaVuSans-2d" transform="translate(254.492188 0)"/>
       <use xlink:href="#DejaVuSans-30" transform="translate(290.576172 0)"/>
       <use xlink:href="#DejaVuSans-31" transform="translate(354.199219 0)"/>
      </g>
     </g>
    </g>
   </g>
   <g id="matplotlib.axis_2">
    <g id="ytick_1">
     <g id="line2d_19">
      <path d="M 108 369.237394 
L 777.6 369.237394 
" clip-path="url(#p332ff1dfbd)" style="fill: none; stroke: #b0b0b0; stroke-opacity: 0.3; stroke-width: 0.8; stroke-linecap: square"/>
     </g>
     <g id="line2d_20">
      <defs>
       <path id="m3329a5a8d6" d="M 0 0 
L -3.5 0 
" style="stroke: #000000; stroke-width: 0.8"/>
      </defs>
      <g>
       <use xlink:href="#m3329a5a8d6" x="108" y="369.237394" style="stroke: #000000; stroke-width: 0.8"/>
      </g>
     </g>
     <g id="text_10">
      <!-- 0.8 -->
      <g transform="translate(85.096875 373.036613) scale(0.1 -0.1)">
       <defs>
        <path id="DejaVuSans-2e" d="M 684 794 
L 1344 794 
L 1344 0 
L 684 0 
L 684 794 
z
" transform="scale(0.015625)"/>
        <path id="DejaVuSans-38" d="M 2034 2216 
Q 1584 2216 1326 1975 
Q 1069 1734 1069 1313 
Q 1069 891 1326 650 
Q 1584 409 2034 409 
Q 2484 409 2743 651 
Q 3003 894 3003 1313 
Q 3003 1734 2745 1975 
Q 2488 2216 2034 2216 
z
M 1403 2484 
Q 997 2584 770 2862 
Q 544 3141 544 3541 
Q 544 4100 942 4425 
Q 1341 4750 2034 4750 
Q 2731 4750 3128 4425 
Q 3525 4100 3525 3541 
Q 3525 3141 3298 2862 
Q 3072 2584 2669 2484 
Q 3125 2378 3379 2068 
Q 3634 1759 3634 1313 
Q 3634 634 3220 271 
Q 2806 -91 2034 -91 
Q 1263 -91 848 271 
Q 434 634 434 1313 
Q 434 1759 690 2068 
Q 947 2378 1403 2484 
z
M 1172 3481 
Q 1172 3119 1398 2916 
Q 1625 2713 2034 2713 
Q 2441 2713 2670 2916 
Q 2900 3119 2900 3481 
Q 2900 3844 2670 4047 
Q 2441 4250 2034 4250 
Q 1625 4250 1398 4047 
Q 1172 3844 1172 3481 
z
" transform="scale(0.015625)"/>
       </defs>
       <use xlink:href="#DejaVuSans-30"/>
       <use xlink:href="#DejaVuSans-2e" transform="translate(63.623047 0)"/>
       <use xlink:href="#DejaVuSans-38" transform="translate(95.410156 0)"/>
      </g>
     </g>
    </g>
    <g id="ytick_2">
     <g id="line2d_21">
      <path d="M 108 328.341356 
L 777.6 328.341356 
" clip-path="url(#p332ff1dfbd)" style="fill: none; stroke: #b0b0b0; stroke-opacity: 0.3; stroke-width: 0.8; stroke-linecap: square"/>
     </g>
     <g id="line2d_22">
      <g>
       <use xlink:href="#m3329a5a8d6" x="108" y="328.341356" style="stroke: #000000; stroke-width: 0.8"/>
      </g>
     </g>
     <g id="text_11">
      <!-- 1.0 -->
      <g transform="translate(85.096875 332.140575) scale(0.1 -0.1)">
       <use xlink:href="#DejaVuSans-31"/>
       <use xlink:href="#DejaVuSans-2e" transform="translate(63.623047 0)"/>
       <use xlink:href="#DejaVuSans-30" transform="translate(95.410156 0)"/>
      </g>
     </g>
    </g>
    <g id="ytick_3">
     <g id="line2d_23">
      <path d="M 108 287.445317 
L 777.6 287.445317 
" clip-path="url(#p332ff1dfbd)" style="fill: none; stroke: #b0b0b0; stroke-opacity: 0.3; stroke-width: 0.8; stroke-linecap: square"/>
     </g>
     <g id="line2d_24">
      <g>
       <use xlink:href="#m3329a5a8d6" x="108" y="287.445317" style="stroke: #000000; stroke-width: 0.8"/>
      </g>
     </g>
     <g id="text_12">
      <!-- 1.2 -->
      <g transform="translate(85.096875 291.244536) scale(0.1 -0.1)">
       <use xlink:href="#DejaVuSans-31"/>
       <use xlink:href="#DejaVuSans-2e" transform="translate(63.623047 0)"/>
       <use xlink:href="#DejaVuSans-32" transform="translate(95.410156 0)"/>
      </g>
     </g>
    </g>
    <g id="ytick_4">
     <g id="line2d_25">
      <path d="M 108 246.549279 
L 777.6 246.549279 
" clip-path="url(#p332ff1dfbd)" style="fill: none; stroke: #b0b0b0; stroke-opacity: 0.3; stroke-width: 0.8; stroke-linecap: square"/>
     </g>
     <g id="line2d_26">
      <g>
       <use xlink:href="#m3329a5a8d6" x="108" y="246.549279" style="stroke: #000000; stroke-width: 0.8"/>
      </g>
     </g>
     <g id="text_13">
      <!-- 1.4 -->
      <g transform="translate(85.096875 250.348498) scale(0.1 -0.1)">
       <use xlink:href="#DejaVuSans-31"/>
       <use xlink:href="#DejaVuSans-2e" transform="translate(63.623047 0)"/>
       <use xlink:href="#DejaVuSans-34" transform="translate(95.410156 0)"/>
      </g>
     </g>
    </g>
    <g id="ytick_5">
     <g id="line2d_27">
      <path d="M 108 205.653241 
L 777.6 205.653241 
" clip-path="url(#p332ff1dfbd)" style="fill: none; stroke: #b0b0b0; stroke-opacity: 0.3; stroke-width: 0.8; stroke-linecap: square"/>
     </g>
     <g id="line2d_28">
      <g>
       <use xlink:href="#m3329a5a8d6" x="108" y="205.653241" style="stroke: #000000; stroke-width: 0.8"/>
      </g>
     </g>
     <g id="text_14">
      <!-- 1.6 -->
      <g transform="translate(85.096875 209.45246) scale(0.1 -0.1)">
       <use xlink:href="#DejaVuSans-31"/>
       <use xlink:href="#DejaVuSans-2e" transform="translate(63.623047 0)"/>
       <use xlink:href="#DejaVuSans-36" transform="translate(95.410156 0)"/>
      </g>
     </g>
    </g>
    <g id="ytick_6">
     <g id="line2d_29">
      <path d="M 108 164.757202 
L 777.6 164.757202 
" clip-path="url(#p332ff1dfbd)" style="fill: none; stroke: #b0b0b0; stroke-opacity: 0.3; stroke-width: 0.8; stroke-linecap: square"/>
     </g>
     <g id="line2d_30">
      <g>
       <use xlink:href="#m3329a5a8d6" x="108" y="164.757202" style="stroke: #000000; stroke-width: 0.8"/>
      </g>
     </g>
     <g id="text_15">
      <!-- 1.8 -->
      <g transform="translate(85.096875 168.556421) scale(0.1 -0.1)">
       <use xlink:href="#DejaVuSans-31"/>
       <use xlink:href="#DejaVuSans-2e" transform="translate(63.623047 0)"/>
       <use xlink:href="#DejaVuSans-38" transform="translate(95.410156 0)"/>
      </g>
     </g>
    </g>
    <g id="ytick_7">
     <g id="line2d_31">
      <path d="M 108 123.861164 
L 777.6 123.861164 
" clip-path="url(#p332ff1dfbd)" style="fill: none; stroke: #b0b0b0; stroke-opacity: 0.3; stroke-width: 0.8; stroke-linecap: square"/>
     </g>
     <g id="line2d_32">
      <g>
       <use xlink:href="#m3329a5a8d6" x="108" y="123.861164" style="stroke: #000000; stroke-width: 0.8"/>
      </g>
     </g>
     <g id="text_16">
      <!-- 2.0 -->
      <g transform="translate(85.096875 127.660383) scale(0.1 -0.1)">
       <use xlink:href="#DejaVuSans-32"/>
       <use xlink:href="#DejaVuSans-2e" transform="translate(63.623047 0)"/>
       <use xlink:href="#DejaVuSans-30" transform="translate(95.410156 0)"/>
      </g>
     </g>
    </g>
    <g id="ytick_8">
     <g id="line2d_33">
      <path d="M 108 82.965126 
L 777.6 82.965126 
" clip-path="url(#p332ff1dfbd)" style="fill: none; stroke: #b0b0b0; stroke-opacity: 0.3; stroke-width: 0.8; stroke-linecap: square"/>
     </g>
     <g id="line2d_34">
      <g>
       <use xlink:href="#m3329a5a8d6" x="108" y="82.965126" style="stroke: #000000; stroke-width: 0.8"/>
      </g>
     </g>
     <g id="text_17">
      <!-- 2.2 -->
      <g transform="translate(85.096875 86.764344) scale(0.1 -0.1)">
       <use xlink:href="#DejaVuSans-32"/>
       <use xlink:href="#DejaVuSans-2e" transform="translate(63.623047 0)"/>
       <use xlink:href="#DejaVuSans-32" transform="translate(95.410156 0)"/>
      </g>
     </g>
    </g>
   </g>
   <g id="line2d_35">
    <path d="M 138.436364 326.751985 
L 139.637009 327.399033 
L 140.837655 326.44179 
L 142.0383 329.190528 
L 143.238946 330.11715 
L 146.840882 330.184138 
L 148.041528 329.329481 
L 149.242173 329.873195 
L 150.442819 331.40719 
L 151.643464 331.428902 
L 157.646692 329.584959 
L 158.847337 330.040704 
L 160.047983 330.232644 
L 163.649919 319.985947 
L 164.850565 316.984184 
L 166.05121 306.733169 
L 167.251856 287.95483 
L 168.452501 251.949491 
L 172.054438 217.948833 
L 181.659602 257.4974 
L 182.860247 259.482151 
L 184.060893 270.294673 
L 185.261538 264.646994 
L 188.863475 272.763864 
L 190.06412 276.45207 
L 191.264766 278.183685 
L 192.465412 262.866165 
L 193.666057 262.177503 
L 197.267994 260.869213 
L 198.468639 261.177088 
L 199.669285 264.535554 
L 200.86993 259.538861 
L 202.070576 259.833742 
L 205.672512 264.253284 
L 206.873158 267.168215 
L 208.073803 266.476081 
L 209.274449 268.592617 
L 210.475094 262.965786 
L 214.077031 252.910086 
L 215.277676 255.407655 
L 216.478322 245.606325 
L 217.678967 248.926469 
L 218.879613 244.048072 
L 222.481549 245.869717 
L 223.682195 243.32297 
L 226.083486 258.432474 
L 227.284131 262.431288 
L 230.886068 257.609574 
L 232.086713 256.773483 
L 233.287359 256.603839 
L 234.488004 266.077905 
L 235.68865 267.069937 
L 239.290586 268.7738 
L 240.491232 263.11434 
L 241.691877 266.399891 
L 242.892523 261.760121 
L 244.093168 258.753552 
L 247.695105 259.423298 
L 248.89575 261.876097 
L 250.096396 261.67535 
L 251.297041 257.056697 
L 252.497687 258.274631 
L 256.099623 256.291527 
L 257.300269 256.816754 
L 258.500914 253.527821 
L 259.70156 260.234659 
L 260.902205 263.223561 
L 264.504142 262.790025 
L 265.704788 262.279739 
L 266.905433 261.263153 
L 268.106079 261.792552 
L 269.306724 263.032166 
L 272.908661 260.010752 
L 274.109306 260.790197 
L 275.309952 260.125953 
L 276.510597 260.515626 
L 277.711243 259.753675 
L 281.313179 265.865285 
L 282.513825 274.885975 
L 284.915116 278.824621 
L 286.115761 279.478226 
L 289.717698 277.693096 
L 290.918343 279.300623 
L 292.118989 279.369141 
L 293.319634 282.900419 
L 294.52028 283.132794 
L 298.122216 273.876973 
L 299.322862 276.992252 
L 300.523507 276.222472 
L 301.724153 274.771885 
L 302.924798 271.850316 
L 306.526735 271.177506 
L 307.72738 273.073503 
L 308.928026 273.147403 
L 310.128671 270.056537 
L 311.329317 274.322601 
L 314.931253 275.239154 
L 325.737063 270.184756 
L 326.937708 265.094692 
L 328.138354 264.26941 
L 331.74029 266.625522 
L 332.940936 263.022819 
L 334.141581 264.300046 
L 335.342227 260.841569 
L 336.542873 260.105193 
L 340.144809 263.708418 
L 341.345455 260.174649 
L 342.5461 260.642673 
L 343.746746 255.387893 
L 344.947391 256.945628 
L 348.549328 259.828453 
L 349.749973 257.092885 
L 350.950619 257.332967 
L 352.151264 265.036212 
L 353.35191 263.836091 
L 356.953846 264.28341 
L 358.154492 263.709494 
L 359.355137 259.226796 
L 360.555783 261.500164 
L 361.756428 262.100374 
L 365.358365 261.696639 
L 366.55901 262.660497 
L 367.759656 264.840274 
L 368.960301 257.614911 
L 370.160947 258.835391 
L 373.762883 257.77769 
L 374.963529 258.017154 
L 376.164174 260.382389 
L 377.36482 265.491781 
L 378.565465 264.925114 
L 382.167402 265.302533 
L 383.368047 266.278527 
L 384.568693 265.495985 
L 385.769338 267.016426 
L 386.969984 269.402773 
L 391.772566 269.568016 
L 392.973211 272.589204 
L 394.173857 297.442063 
L 398.976439 294.404469 
L 400.177084 291.998415 
L 401.37773 287.342011 
L 402.578375 285.078831 
L 403.779021 284.624335 
L 407.380958 284.658574 
L 408.581603 285.876158 
L 409.782249 285.582125 
L 410.982894 284.932114 
L 412.18354 282.888149 
L 415.785476 283.380881 
L 416.986122 281.938675 
L 418.186767 282.723092 
L 419.387413 281.870633 
L 420.588058 282.979531 
L 424.189995 283.401736 
L 425.39064 282.318821 
L 426.591286 278.707647 
L 433.795159 277.342354 
L 434.995804 274.38618 
L 436.19645 275.647581 
L 437.397095 270.745756 
L 440.999032 271.0647 
L 442.199677 267.84614 
L 443.400323 271.668868 
L 444.600968 272.644669 
L 445.801614 273.229055 
L 449.40355 271.539979 
L 450.604196 269.981968 
L 451.804841 271.210387 
L 453.005487 273.582172 
L 454.206132 275.369805 
L 457.808069 276.70232 
L 459.008714 277.35299 
L 460.20936 274.619175 
L 461.410005 275.950479 
L 462.610651 275.689727 
L 467.413233 273.641668 
L 468.613878 271.825293 
L 469.814524 272.146812 
L 471.015169 270.754003 
L 474.617106 272.92568 
L 475.817751 270.199484 
L 477.018397 270.005053 
L 478.219042 272.146241 
L 479.419688 270.721862 
L 483.021625 271.333726 
L 484.22227 270.78396 
L 485.422916 273.692346 
L 486.623561 274.623626 
L 487.824207 273.541464 
L 491.426143 269.057439 
L 492.626789 262.685608 
L 493.827434 264.2167 
L 495.02808 264.478322 
L 496.228725 261.791497 
L 499.830662 262.03202 
L 501.031307 263.297295 
L 502.231953 260.151018 
L 503.432598 260.083152 
L 504.633244 262.162409 
L 508.23518 257.8734 
L 509.435826 257.720573 
L 510.636471 256.65893 
L 511.837117 255.164785 
L 513.037762 255.707124 
L 516.639699 253.479516 
L 517.840344 254.166622 
L 519.04099 250.447146 
L 520.241635 249.100442 
L 521.442281 246.793269 
L 525.044217 244.399435 
L 526.244863 244.59411 
L 527.445508 241.307222 
L 528.646154 242.505035 
L 529.846799 240.622179 
L 533.448736 237.336432 
L 534.649381 239.797061 
L 535.850027 245.211857 
L 537.050672 245.848288 
L 538.251318 244.565603 
L 541.853254 243.053313 
L 543.0539 241.673128 
L 544.254545 242.70493 
L 545.455191 243.55106 
L 546.655836 240.078952 
L 550.257773 237.434457 
L 551.458419 230.762372 
L 552.659064 232.659282 
L 555.060355 221.837894 
L 558.662292 223.049986 
L 559.862937 220.145344 
L 561.063583 220.610334 
L 562.264228 211.546501 
L 563.464874 203.936338 
L 567.06681 206.062568 
L 568.267456 209.640263 
L 569.468101 200.013949 
L 570.668747 194.982089 
L 571.869392 190.775861 
L 575.471329 196.355084 
L 576.671974 196.558283 
L 577.87262 206.966867 
L 579.073265 191.95327 
L 580.273911 193.999987 
L 583.875847 198.674328 
L 585.076493 196.543577 
L 586.277138 183.250839 
L 587.477784 186.447081 
L 588.678429 183.718553 
L 592.280366 182.793481 
L 593.481011 178.110626 
L 594.681657 183.316349 
L 595.882302 183.220836 
L 597.082948 181.509611 
L 600.684884 180.768601 
L 601.88553 175.394065 
L 603.086175 171.283317 
L 604.286821 177.593772 
L 605.487466 172.227072 
L 609.089403 169.818937 
L 610.290048 156.393842 
L 621.095858 168.693238 
L 622.296503 161.716769 
L 625.89844 173.559173 
L 627.099086 171.84334 
L 628.299731 171.353385 
L 629.500377 179.452653 
L 630.701022 178.746468 
L 634.302959 170.072637 
L 635.503604 171.957266 
L 636.70425 172.679112 
L 637.904895 164.852524 
L 639.105541 156.115437 
L 642.707477 156.633592 
L 643.908123 151.766837 
L 646.309414 165.48626 
L 647.510059 162.252264 
L 651.111996 170.582751 
L 652.312641 166.052323 
L 653.513287 160.684375 
L 654.713932 160.127314 
L 655.914578 160.625668 
L 659.516514 161.356142 
L 660.71716 166.262934 
L 661.917805 159.056977 
L 663.118451 166.512955 
L 664.319096 169.62312 
L 670.322324 181.01829 
L 671.522969 193.975586 
L 672.723615 194.139598 
L 676.325551 190.966602 
L 677.526197 185.611339 
L 678.726842 186.433485 
L 679.927488 184.938908 
L 681.128133 178.775002 
L 684.73007 180.929903 
L 685.930715 183.586465 
L 687.131361 182.225783 
L 689.532652 169.472593 
L 693.134588 166.893148 
L 694.335234 164.947924 
L 695.53588 172.855915 
L 696.736525 168.763379 
L 697.937171 169.049736 
L 701.539107 172.625883 
L 702.739753 170.075926 
L 703.940398 172.948886 
L 705.141044 168.040252 
L 706.341689 165.557028 
L 709.943626 167.422092 
L 711.144271 163.673442 
L 712.344917 157.657409 
L 713.545562 153.893132 
L 714.746208 153.733827 
L 718.348144 153.774409 
L 719.54879 143.801173 
L 720.749435 135.288705 
L 726.752663 124.697347 
L 727.953308 128.38101 
L 729.153954 122.672619 
L 730.354599 110.57146 
L 731.555245 75.016411 
L 735.157181 99.218056 
L 736.357827 93.158352 
L 737.558472 112.214929 
L 738.759118 112.028832 
L 739.959763 115.092944 
L 743.5617 120.48669 
L 744.762345 115.239716 
L 745.962991 116.461046 
L 747.163636 103.325206 
L 747.163636 103.325206 
" clip-path="url(#p332ff1dfbd)" style="fill: none; stroke: #1f77b4; stroke-width: 1.5; stroke-linecap: square"/>
   </g>
   <g id="line2d_36">
    <path d="M 138.436364 326.751985 
L 139.637009 327.399033 
L 140.837655 326.44179 
L 142.0383 329.190528 
L 143.238946 330.11715 
L 146.840882 330.184138 
L 148.041528 329.329481 
L 149.242173 329.873195 
L 150.442819 331.40719 
L 151.643464 331.428902 
L 157.646692 329.584959 
L 158.847337 330.040704 
L 160.047983 330.232644 
L 163.649919 319.985947 
L 164.850565 316.984184 
L 166.05121 306.733169 
L 167.251856 287.95483 
L 168.452501 251.949491 
L 172.054438 217.948833 
L 181.659602 257.4974 
L 182.860247 259.482151 
L 184.060893 270.294673 
L 185.261538 264.646994 
L 188.863475 272.763864 
L 190.06412 276.45207 
L 191.264766 278.183685 
L 192.465412 262.866165 
L 193.666057 262.177503 
L 197.267994 260.869213 
L 198.468639 261.177088 
L 199.669285 264.535554 
L 200.86993 259.538861 
L 202.070576 259.833742 
L 205.672512 264.253284 
L 206.873158 267.168215 
L 208.073803 266.476081 
L 209.274449 268.592617 
L 210.475094 262.965786 
L 214.077031 252.910086 
L 215.277676 255.407655 
L 216.478322 245.606325 
L 217.678967 248.926469 
L 218.879613 244.048072 
L 222.481549 245.869717 
L 223.682195 243.32297 
L 226.083486 258.432474 
L 227.284131 262.431288 
L 230.886068 257.609574 
L 232.086713 256.773483 
L 233.287359 256.603839 
L 234.488004 266.077905 
L 235.68865 267.069937 
L 239.290586 268.7738 
L 240.491232 263.11434 
L 241.691877 266.399891 
L 242.892523 261.760121 
L 244.093168 258.753552 
L 247.695105 259.423298 
L 248.89575 261.876097 
L 250.096396 261.67535 
L 251.297041 257.056697 
L 252.497687 258.274631 
L 256.099623 256.291527 
L 257.300269 256.816754 
L 258.500914 253.527821 
L 259.70156 260.234659 
L 260.902205 263.223561 
L 264.504142 262.790025 
L 265.704788 262.279739 
L 266.905433 261.263153 
L 268.106079 261.792552 
L 269.306724 263.032166 
L 272.908661 260.010752 
L 274.109306 260.790197 
L 275.309952 260.125953 
L 276.510597 260.515626 
L 277.711243 259.753675 
L 281.313179 265.865285 
L 282.513825 274.885975 
L 284.915116 278.824621 
L 286.115761 279.478226 
L 289.717698 277.693096 
L 290.918343 279.300623 
L 292.118989 279.369141 
L 293.319634 282.900419 
L 294.52028 283.132794 
L 298.122216 273.876973 
L 299.322862 276.992252 
L 300.523507 276.222472 
L 301.724153 274.771885 
L 302.924798 271.850316 
L 306.526735 271.177506 
L 307.72738 273.073503 
L 308.928026 273.147403 
L 310.128671 270.056537 
L 311.329317 274.322601 
L 314.931253 275.239154 
L 325.737063 270.184756 
L 326.937708 265.094692 
L 328.138354 264.26941 
L 331.74029 266.625522 
L 332.940936 263.022819 
L 334.141581 264.300046 
L 335.342227 260.841569 
L 336.542873 260.105193 
L 340.144809 263.708418 
L 341.345455 260.174649 
L 342.5461 260.642673 
L 343.746746 255.387893 
L 344.947391 256.945628 
L 348.549328 259.828453 
L 349.749973 257.092885 
L 350.950619 257.332967 
L 352.151264 265.036212 
L 353.35191 263.836091 
L 356.953846 264.28341 
L 358.154492 263.709494 
L 359.355137 259.226796 
L 360.555783 261.500164 
L 361.756428 262.100374 
L 365.358365 261.696639 
L 366.55901 262.660497 
L 367.759656 264.840274 
L 368.960301 257.614911 
L 370.160947 258.835391 
L 373.762883 257.77769 
L 374.963529 258.017154 
L 376.164174 260.382389 
L 377.36482 265.491781 
L 378.565465 264.925114 
L 382.167402 265.302533 
L 383.368047 266.278527 
L 384.568693 265.495985 
L 385.769338 267.016426 
L 386.969984 269.402773 
L 391.772566 269.568016 
L 392.973211 272.589204 
L 394.173857 297.442063 
L 398.976439 294.404469 
L 400.177084 291.998415 
L 401.37773 287.342011 
L 402.578375 285.078831 
L 403.779021 284.624335 
L 407.380958 284.658574 
L 408.581603 285.876158 
L 409.782249 285.582125 
L 410.982894 284.932114 
L 412.18354 282.888149 
L 415.785476 283.380881 
L 416.986122 281.938675 
L 418.186767 282.723092 
L 419.387413 281.870633 
L 420.588058 282.979531 
L 424.189995 283.401736 
L 425.39064 282.318821 
L 426.591286 278.707647 
L 433.795159 277.342354 
L 434.995804 274.38618 
L 436.19645 275.647581 
L 437.397095 270.745756 
L 440.999032 271.0647 
L 442.199677 267.84614 
L 443.400323 271.668868 
L 444.600968 272.644669 
L 445.801614 273.229055 
L 449.40355 271.539979 
L 450.604196 269.981968 
L 451.804841 271.210387 
L 453.005487 273.582172 
L 454.206132 275.369805 
L 457.808069 276.70232 
L 459.008714 277.35299 
L 460.20936 274.619175 
L 461.410005 275.950479 
L 462.610651 275.689727 
L 467.413233 273.641668 
L 468.613878 271.825293 
L 469.814524 272.146812 
L 471.015169 270.754003 
L 474.617106 272.92568 
L 475.817751 270.199484 
L 477.018397 270.005053 
L 478.219042 272.146241 
L 479.419688 270.721862 
L 483.021625 271.333726 
L 484.22227 270.78396 
L 485.422916 273.692346 
L 486.623561 274.623626 
L 487.824207 273.541464 
L 491.426143 269.057439 
L 492.626789 262.685608 
L 493.827434 264.2167 
L 495.02808 264.478322 
L 496.228725 261.791497 
L 499.830662 262.03202 
L 501.031307 263.297295 
L 502.231953 260.151018 
L 503.432598 260.083152 
L 504.633244 262.162409 
L 508.23518 257.8734 
L 509.435826 257.720573 
L 510.636471 256.65893 
L 511.837117 255.164785 
L 513.037762 255.707124 
L 516.639699 253.479516 
L 517.840344 254.166622 
L 519.04099 250.447146 
L 520.241635 249.100442 
L 521.442281 246.793269 
L 525.044217 244.399435 
L 526.244863 244.59411 
L 527.445508 241.307222 
L 528.646154 242.505035 
L 529.846799 240.622179 
L 533.448736 237.336432 
L 534.649381 239.797061 
L 535.850027 245.211857 
L 537.050672 245.848288 
L 538.251318 244.565603 
L 541.853254 243.053313 
L 543.0539 241.673128 
L 544.254545 242.70493 
L 545.455191 243.55106 
L 546.655836 240.078952 
L 550.257773 237.434457 
L 551.458419 230.762372 
L 552.659064 232.659282 
L 555.060355 221.837894 
L 558.662292 223.049986 
L 559.862937 220.145344 
L 561.063583 220.610334 
L 562.264228 211.546501 
L 563.464874 203.936338 
L 567.06681 206.062568 
L 568.267456 209.640263 
L 569.468101 200.013949 
L 570.668747 194.982089 
L 571.869392 190.775861 
L 575.471329 196.355084 
L 576.671974 196.558283 
L 577.87262 206.966867 
L 579.073265 191.95327 
L 580.273911 193.999987 
L 583.875847 198.674328 
L 585.076493 196.543577 
L 586.277138 183.250839 
L 587.477784 186.447081 
L 588.678429 183.718553 
L 592.280366 182.793481 
L 593.481011 178.110626 
L 594.681657 183.316349 
L 595.882302 183.220836 
L 597.082948 181.509611 
L 600.684884 180.768601 
L 601.88553 175.394065 
L 603.086175 171.283317 
L 604.286821 177.593772 
L 605.487466 170.45924 
L 609.089403 167.322463 
L 610.290048 154.300724 
L 621.095858 167.202155 
L 622.296503 158.883884 
L 625.89844 169.909605 
L 627.099086 168.176342 
L 628.299731 168.091145 
L 629.500377 177.362057 
L 630.701022 177.204054 
L 634.302959 167.461986 
L 636.70425 170.759068 
L 637.904895 162.688948 
L 639.105541 152.001121 
L 642.707477 152.1894 
L 643.908123 147.664182 
L 646.309414 163.947818 
L 647.510059 160.068259 
L 651.111996 169.349983 
L 652.312641 165.89931 
L 653.513287 160.529123 
L 654.713932 159.256524 
L 655.914578 159.071277 
L 659.516514 160.86043 
L 660.71716 165.680188 
L 661.917805 155.388527 
L 663.118451 162.379699 
L 664.319096 164.527686 
L 667.921033 172.620105 
L 669.121678 174.136381 
L 670.322324 175.840965 
L 671.522969 189.30424 
L 672.723615 189.439475 
L 676.325551 186.002485 
L 677.526197 179.551086 
L 678.726842 180.54643 
L 679.927488 178.365616 
L 681.128133 171.566772 
L 684.73007 173.603688 
L 685.930715 176.198998 
L 687.131361 174.475336 
L 688.332006 168.985522 
L 689.532652 162.21838 
L 693.134588 158.688692 
L 694.335234 156.026871 
L 695.53588 164.405762 
L 696.736525 159.169219 
L 697.937171 162.171476 
L 701.539107 165.59859 
L 702.739753 163.06762 
L 703.940398 165.322116 
L 705.141044 160.706226 
L 706.341689 157.197648 
L 709.943626 159.818709 
L 711.144271 156.652601 
L 712.344917 150.702626 
L 713.545562 146.714688 
L 714.746208 147.481415 
L 718.348144 147.469481 
L 720.749435 129.761707 
L 726.752663 117.562871 
L 727.953308 120.515491 
L 729.153954 114.063134 
L 730.354599 102.662836 
L 731.555245 66.96 
L 735.157181 91.587543 
L 736.357827 85.421201 
L 737.558472 104.813134 
L 738.759118 99.242706 
L 739.959763 104.006152 
L 743.5617 110.091003 
L 744.762345 104.025721 
L 745.962991 107.534403 
L 747.163636 94.116935 
L 747.163636 94.116935 
" clip-path="url(#p332ff1dfbd)" style="fill: none; stroke: #ff7f0e; stroke-width: 1.5; stroke-linecap: square"/>
   </g>
   <g id="line2d_37">
    <path d="M 138.436364 328.341356 
L 167.251856 328.341356 
L 168.452501 326.417583 
L 172.054438 321.420382 
L 181.659602 326.730854 
L 198.468639 326.625706 
L 199.669285 326.849446 
L 216.478322 326.893897 
L 217.678967 327.369992 
L 218.879613 327.369992 
L 223.682195 327.629199 
L 224.88284 328.703133 
L 244.093168 328.703133 
L 250.096396 328.823148 
L 342.5461 328.853988 
L 343.746746 328.549559 
L 344.947391 328.812326 
L 348.549328 328.885122 
L 349.749973 328.487197 
L 350.950619 328.487197 
L 352.151264 329.913449 
L 361.756428 329.855429 
L 366.55901 330.11699 
L 368.960301 330.11699 
L 370.160947 330.228216 
L 373.762883 330.228216 
L 374.963529 330.037921 
L 376.164174 330.25018 
L 377.36482 330.879592 
L 502.231953 330.935057 
L 504.633244 331.081087 
L 511.837117 330.322576 
L 513.037762 330.466587 
L 519.04099 330.566134 
L 520.241635 330.308389 
L 521.442281 329.623174 
L 525.044217 328.804563 
L 526.244863 329.01985 
L 527.445508 329.01985 
L 528.646154 329.249089 
L 529.846799 329.249089 
L 533.448736 328.760462 
L 534.649381 329.223622 
L 546.655836 329.223622 
L 550.257773 328.981758 
L 551.458419 328.229645 
L 552.659064 328.486609 
L 553.85971 328.486609 
L 555.060355 327.739854 
L 561.063583 327.960669 
L 562.264228 327.488056 
L 563.464874 326.515293 
L 568.267456 326.782046 
L 569.468101 326.782046 
L 571.869392 325.834687 
L 575.471329 326.509933 
L 576.671974 326.509933 
L 577.87262 327.365372 
L 579.073265 327.365372 
L 580.273911 327.616609 
L 586.277138 327.616609 
L 587.477784 327.99186 
L 592.280366 327.883307 
L 593.481011 327.481336 
L 594.681657 328.084048 
L 600.684884 328.084048 
L 601.88553 327.458933 
L 603.086175 326.986561 
L 604.286821 327.705108 
L 609.089403 327.623174 
L 610.290048 327.183746 
L 621.095858 335.209876 
L 622.296503 335.322942 
L 625.89844 343.075195 
L 627.099086 342.881529 
L 628.299731 342.281972 
L 629.500377 345.600566 
L 630.701022 350.483483 
L 634.302959 350.188848 
L 635.503604 351.257194 
L 636.70425 353.491481 
L 637.904895 350.819464 
L 639.105541 344.319426 
L 642.707477 344.012351 
L 643.908123 341.495044 
L 646.309414 347.531696 
L 647.510059 346.358437 
L 651.111996 351.111204 
L 652.312641 351.056064 
L 653.513287 349.143751 
L 654.713932 349.344912 
L 655.914578 348.87392 
L 659.516514 349.404586 
L 660.71716 352.29575 
L 661.917805 348.924838 
L 663.118451 352.3354 
L 664.319096 352.975664 
L 667.921033 355.867073 
L 669.121678 358.895439 
L 670.322324 359.218064 
L 671.522969 366.64341 
L 672.723615 366.190001 
L 676.325551 363.896519 
L 677.526197 364.545239 
L 678.726842 364.66856 
L 679.927488 363.660119 
L 681.128133 359.985018 
L 684.73007 361.459468 
L 685.930715 363.204676 
L 687.131361 362.28083 
L 688.332006 362.206024 
L 689.532652 362.945254 
L 694.335234 357.628151 
L 695.53588 362.688271 
L 696.736525 360.943509 
L 697.937171 363.482022 
L 701.539107 364.339668 
L 702.739753 366.063723 
L 703.940398 365.891238 
L 705.141044 364.155966 
L 706.341689 361.876645 
L 709.943626 365.406531 
L 711.144271 363.976773 
L 712.344917 358.038521 
L 713.545562 353.587736 
L 714.746208 352.06273 
L 718.348144 354.375202 
L 719.54879 348.273475 
L 720.749435 343.290294 
L 726.752663 333.330849 
L 727.953308 335.559817 
L 729.153954 331.727849 
L 730.354599 321.403784 
L 731.555245 300.340331 
L 735.157181 313.038251 
L 736.357827 307.957364 
L 737.558472 315.849747 
L 738.759118 317.633395 
L 739.959763 321.939213 
L 743.5617 325.09146 
L 744.762345 322.73782 
L 745.962991 325.739722 
L 747.163636 320.716392 
L 747.163636 320.716392 
" clip-path="url(#p332ff1dfbd)" style="fill: none; stroke: #2ca02c; stroke-width: 1.5; stroke-linecap: square"/>
   </g>
   <g id="line2d_38">
    <path d="M 138.436364 328.341356 
L 167.251856 328.341356 
L 168.452501 326.417583 
L 172.054438 321.420382 
L 181.659602 326.730854 
L 198.468639 326.625706 
L 199.669285 326.849446 
L 216.478322 326.893897 
L 217.678967 327.369992 
L 218.879613 327.369992 
L 223.682195 327.629199 
L 224.88284 328.703133 
L 244.093168 328.703133 
L 250.096396 328.823148 
L 342.5461 328.853988 
L 343.746746 328.549559 
L 344.947391 328.812326 
L 348.549328 328.885122 
L 349.749973 328.487197 
L 350.950619 328.487197 
L 352.151264 329.913449 
L 361.756428 329.855429 
L 366.55901 330.11699 
L 368.960301 330.11699 
L 370.160947 330.228216 
L 373.762883 330.228216 
L 374.963529 330.037921 
L 376.164174 330.25018 
L 377.36482 330.879592 
L 502.231953 330.935057 
L 504.633244 331.081087 
L 511.837117 330.322576 
L 513.037762 330.466587 
L 519.04099 330.566134 
L 520.241635 330.308389 
L 521.442281 329.623174 
L 525.044217 328.804563 
L 526.244863 329.01985 
L 527.445508 329.01985 
L 528.646154 329.249089 
L 529.846799 329.249089 
L 533.448736 328.760462 
L 534.649381 329.223622 
L 546.655836 329.223622 
L 550.257773 328.981758 
L 551.458419 328.229645 
L 552.659064 328.486609 
L 553.85971 328.486609 
L 555.060355 327.739854 
L 561.063583 327.960669 
L 562.264228 327.488056 
L 563.464874 326.515293 
L 568.267456 326.782046 
L 569.468101 326.782046 
L 571.869392 325.834687 
L 575.471329 326.509933 
L 576.671974 326.509933 
L 577.87262 327.365372 
L 579.073265 327.365372 
L 580.273911 327.616609 
L 586.277138 327.616609 
L 587.477784 327.99186 
L 592.280366 327.883307 
L 593.481011 327.481336 
L 594.681657 328.084048 
L 600.684884 328.084048 
L 601.88553 327.458933 
L 603.086175 326.986561 
L 604.286821 327.705108 
L 609.089403 327.623174 
L 610.290048 327.183746 
L 621.095858 334.973504 
L 622.296503 335.086705 
L 625.89844 342.84823 
L 627.099086 342.161097 
L 628.299731 341.658123 
L 629.500377 343.938859 
L 630.701022 349.879119 
L 634.302959 349.583507 
L 635.503604 350.19354 
L 636.70425 352.848044 
L 637.904895 348.318583 
L 639.105541 342.909241 
L 642.707477 342.458343 
L 643.908123 340.765137 
L 645.108768 343.261833 
L 646.309414 346.412947 
L 647.510059 343.298568 
L 651.111996 349.68968 
L 652.312641 350.26109 
L 653.513287 347.387236 
L 654.713932 346.324871 
L 655.914578 346.423648 
L 659.516514 347.106807 
L 660.71716 350.034191 
L 661.917805 347.76426 
L 663.118451 351.196345 
L 664.319096 351.429915 
L 667.921033 357.415572 
L 669.121678 360.438573 
L 670.322324 360.701854 
L 671.522969 367.456625 
L 672.723615 367.005435 
L 676.325551 364.723177 
L 677.526197 365.208141 
L 678.726842 366.279653 
L 679.927488 365.884169 
L 681.128133 362.134067 
L 684.73007 363.976252 
L 685.930715 365.926095 
L 687.131361 365.214412 
L 688.332006 365.66768 
L 689.532652 366.391912 
L 693.134588 361.925309 
L 694.335234 360.098395 
L 695.53588 366.165945 
L 696.736525 364.456847 
L 697.937171 365.997879 
L 701.539107 366.842782 
L 702.739753 368.541224 
L 703.940398 369.36 
L 705.141044 367.660786 
L 706.341689 365.428828 
L 709.943626 368.885365 
L 711.144271 367.559639 
L 712.344917 361.817158 
L 713.545562 357.462594 
L 714.746208 355.970557 
L 718.348144 358.233036 
L 720.749435 348.728684 
L 726.752663 339.055015 
L 727.953308 341.220025 
L 729.153954 343.035825 
L 730.354599 333.292307 
L 731.555245 313.413302 
L 735.157181 325.397188 
L 736.357827 320.602011 
L 737.558472 327.84661 
L 738.759118 327.496489 
L 739.959763 330.856537 
L 743.5617 333.041486 
L 744.762345 328.436047 
L 745.962991 332.567871 
L 747.163636 329.329647 
L 747.163636 329.329647 
" clip-path="url(#p332ff1dfbd)" style="fill: none; stroke: #d62728; stroke-width: 1.5; stroke-linecap: square"/>
   </g>
   <g id="line2d_39">
    <path d="M 138.436364 327.60498 
L 139.637009 328.893718 
L 140.837655 328.464117 
L 142.0383 330.182457 
L 143.238946 332.698554 
L 146.840882 332.698554 
L 148.041528 333.128155 
L 149.242173 333.803215 
L 150.442819 334.723734 
L 151.643464 334.110055 
L 157.646692 332.453095 
L 160.047983 331.348435 
L 164.850565 319.627024 
L 166.05121 309.439875 
L 167.251856 295.386445 
L 168.452501 273.048284 
L 172.054438 262.063249 
L 181.659602 285.997053 
L 182.860247 282.069456 
L 184.060893 288.758609 
L 185.261538 284.892392 
L 188.863475 291.581609 
L 190.06412 293.115807 
L 191.264766 295.754665 
L 192.465412 286.365273 
L 193.666057 286.365273 
L 197.267994 284.892392 
L 198.468639 283.971874 
L 199.669285 286.672113 
L 200.86993 284.892392 
L 202.070576 284.524236 
L 205.672512 286.549351 
L 206.873158 289.126829 
L 208.073803 289.126829 
L 209.274449 288.635911 
L 210.475094 285.383374 
L 214.077031 278.93968 
L 215.277676 280.535258 
L 216.478322 272.127766 
L 217.678967 275.441684 
L 218.879613 274.152881 
L 222.481549 276.975881 
L 223.682195 275.380303 
L 226.083486 283.971874 
L 227.284131 285.015154 
L 230.886068 283.787796 
L 232.086713 283.174117 
L 233.287359 282.867277 
L 234.488004 290.23149 
L 235.68865 291.581609 
L 239.290586 292.072527 
L 240.491232 288.14493 
L 241.691877 289.92465 
L 242.892523 287.285792 
L 244.093168 285.444755 
L 247.695105 285.199296 
L 248.89575 286.487971 
L 250.096396 286.917572 
L 251.297041 283.849112 
L 252.497687 284.033254 
L 256.099623 282.130837 
L 257.300269 282.744516 
L 258.500914 280.167038 
L 259.70156 286.119815 
L 260.902205 287.592631 
L 264.504142 286.917572 
L 265.704788 285.874291 
L 266.905433 285.506071 
L 268.106079 286.242512 
L 269.306724 285.997053 
L 272.908661 283.112736 
L 274.109306 282.928594 
L 275.309952 282.867277 
L 276.510597 283.235433 
L 277.711243 282.069456 
L 281.313179 285.997053 
L 282.513825 292.931729 
L 284.915116 295.386445 
L 286.115761 296.368344 
L 289.717698 294.711385 
L 290.918343 295.079606 
L 292.118989 295.570523 
L 293.319634 298.209381 
L 294.52028 299.1299 
L 298.122216 293.115807 
L 299.322862 294.527307 
L 300.523507 294.404546 
L 301.724153 293.606789 
L 302.924798 292.440747 
L 306.526735 292.133908 
L 307.72738 294.343165 
L 308.928026 293.668105 
L 310.128671 291.704371 
L 311.329317 293.054426 
L 314.931253 294.281784 
L 325.737063 291.520229 
L 326.937708 288.083613 
L 328.138354 287.83809 
L 331.74029 288.819989 
L 332.940936 286.487971 
L 334.141581 287.10165 
L 335.342227 285.260612 
L 336.542873 284.831076 
L 340.144809 286.610732 
L 341.345455 285.321993 
L 342.5461 286.058434 
L 343.746746 282.744516 
L 348.549328 286.058434 
L 349.749973 284.033254 
L 350.950619 283.235433 
L 352.151264 287.715393 
L 353.35191 288.51315 
L 356.953846 288.758609 
L 358.154492 287.715393 
L 359.355137 284.340094 
L 360.555783 284.953773 
L 361.756428 285.935672 
L 365.358365 285.199296 
L 366.55901 285.812975 
L 367.759656 287.040333 
L 368.960301 280.842098 
L 370.160947 281.578538 
L 373.762883 281.026176 
L 374.963529 280.657955 
L 376.164174 282.683135 
L 377.36482 286.733494 
L 378.565465 285.690214 
L 382.167402 285.567452 
L 383.368047 286.549351 
L 384.568693 285.690214 
L 385.769338 286.856191 
L 386.969984 288.329072 
L 390.57192 288.451769 
L 391.772566 288.635911 
L 392.973211 289.863269 
L 394.173857 306.064576 
L 398.976439 303.916699 
L 400.177084 301.707442 
L 401.37773 297.841161 
L 402.578375 297.166166 
L 403.779021 296.675184 
L 407.380958 296.491106 
L 408.581603 295.938743 
L 409.782249 295.754665 
L 410.982894 295.140986 
L 412.18354 295.018225 
L 415.785476 294.834147 
L 416.986122 294.588624 
L 419.387413 294.588624 
L 420.588058 294.956908 
L 425.39064 295.570523 
L 426.591286 293.299885 
L 433.795159 291.827068 
L 434.995804 290.415568 
L 436.19645 290.722472 
L 437.397095 287.960852 
L 440.999032 287.715393 
L 442.199677 284.585553 
L 443.400323 286.672113 
L 444.600968 288.022232 
L 445.801614 288.390453 
L 449.40355 287.163095 
L 450.604196 286.181131 
L 451.804841 286.303893 
L 453.005487 288.083613 
L 454.206132 289.372352 
L 457.808069 290.661026 
L 459.008714 290.90655 
L 460.20936 289.433668 
L 461.410005 289.863269 
L 462.610651 289.986031 
L 467.413233 288.942751 
L 468.613878 288.329072 
L 469.814524 288.20631 
L 471.015169 287.654012 
L 474.617106 289.065513 
L 475.817751 287.10165 
L 477.018397 286.978952 
L 478.219042 288.574531 
L 479.419688 287.960852 
L 483.021625 288.022232 
L 484.22227 287.717132 
L 485.422916 289.663412 
L 486.623561 289.349487 
L 487.824207 288.53331 
L 491.426143 285.708055 
L 492.626789 281.627166 
L 493.827434 282.56894 
L 495.02808 284.012966 
L 496.228725 282.820066 
L 499.830662 282.443344 
L 501.031307 282.192217 
L 502.231953 280.748255 
L 503.432598 279.680887 
L 504.633244 280.810989 
L 508.23518 278.67638 
L 509.435826 278.864709 
L 510.636471 277.609076 
L 511.837117 276.730101 
L 513.037762 276.792898 
L 516.639699 276.792898 
L 517.840344 277.357949 
L 520.241635 273.402657 
L 521.442281 271.833035 
L 525.044217 269.070578 
L 526.244863 269.196173 
L 527.445508 267.563818 
L 528.646154 268.945046 
L 529.846799 268.2544 
L 533.448736 266.935969 
L 534.649381 267.124362 
L 535.850027 271.95863 
L 537.050672 273.339859 
L 538.251318 272.146959 
L 543.0539 269.510097 
L 544.254545 269.572895 
L 545.455191 270.20068 
L 546.655836 269.00778 
L 550.257773 267.375425 
L 551.458419 265.178083 
L 552.659064 265.617538 
L 553.85971 263.169005 
L 555.060355 261.159992 
L 558.662292 262.541157 
L 559.862937 258.836991 
L 561.063583 257.958015 
L 562.264228 251.616923 
L 563.464874 246.217668 
L 567.06681 247.724428 
L 568.267456 251.868114 
L 569.468101 246.594326 
L 570.668747 243.957464 
L 571.869392 243.015691 
L 575.471329 244.648046 
L 576.671974 247.222175 
L 577.87262 253.060949 
L 579.073265 246.90825 
L 580.273911 246.845517 
L 583.875847 248.540606 
L 585.076493 247.912757 
L 586.277138 240.253234 
L 587.477784 242.701831 
L 588.678429 242.199514 
L 592.280366 242.764565 
L 593.481011 240.692754 
L 594.681657 244.39692 
L 595.882302 243.769071 
L 597.082948 242.827362 
L 600.684884 242.639033 
L 601.88553 240.064905 
L 603.086175 238.055828 
L 604.286821 240.818285 
L 605.487466 235.984017 
L 609.089403 235.167839 
L 610.290048 230.459102 
L 621.095858 236.549068 
L 622.296503 238.244221 
L 625.89844 241.195007 
L 627.099086 237.365246 
L 628.299731 236.423472 
L 629.500377 242.513438 
L 630.701022 241.508931 
L 634.302959 237.114119 
L 635.503604 238.055828 
L 636.70425 236.92579 
L 639.105541 229.831254 
L 642.707477 231.338078 
L 643.908123 227.571114 
L 645.108768 230.019647 
L 646.309414 234.226066 
L 647.510059 233.786611 
L 651.111996 235.921219 
L 652.312641 235.544561 
L 653.513287 231.149749 
L 654.713932 231.777598 
L 655.914578 231.024153 
L 659.516514 233.786611 
L 660.71716 233.661079 
L 661.917805 230.710293 
L 663.118451 235.167839 
L 664.319096 237.114119 
L 667.921033 238.809207 
L 669.121678 237.930297 
L 670.322324 239.248727 
L 671.522969 246.280402 
L 672.723615 246.719857 
L 676.325551 244.208591 
L 677.526197 242.387842 
L 678.726842 242.639033 
L 679.927488 241.822856 
L 681.128133 238.558145 
L 684.73007 239.876576 
L 685.930715 241.195007 
L 687.131361 240.441627 
L 688.332006 237.867499 
L 689.532652 235.73289 
L 693.134588 237.23965 
L 694.335234 237.616372 
L 695.53588 239.750981 
L 696.736525 238.118625 
L 697.937171 239.813778 
L 701.539107 242.764565 
L 702.739753 237.804701 
L 703.940398 239.750981 
L 705.141044 238.495348 
L 706.341689 235.858421 
L 709.943626 235.230637 
L 711.144271 234.163333 
L 712.344917 233.598282 
L 713.545562 232.46818 
L 714.746208 233.786611 
L 718.348144 233.158826 
L 719.54879 234.414459 
L 720.749435 228.701216 
L 726.752663 223.992479 
L 727.953308 225.122581 
L 729.153954 227.508316 
L 730.354599 226.127088 
L 731.555245 224.369137 
L 735.157181 225.436505 
L 736.357827 227.319987 
L 737.558472 226.754936 
L 738.759118 227.759443 
L 739.959763 227.656648 
L 743.5617 228.558359 
L 744.762345 228.171911 
L 745.962991 228.365135 
L 747.163636 229.846518 
L 747.163636 229.846518 
" clip-path="url(#p332ff1dfbd)" style="fill: none; stroke: #9467bd; stroke-width: 1.5; stroke-linecap: square"/>
   </g>
   <g id="line2d_40">
    <path d="M 138.436364 325.898991 
L 139.637009 325.898991 
L 140.837655 324.406435 
L 142.0383 328.205669 
L 143.238946 327.527234 
L 146.840882 327.662921 
L 148.041528 325.49193 
L 149.242173 325.898991 
L 150.442819 328.069982 
L 151.643464 328.748417 
L 157.646692 326.713113 
L 158.847337 328.205669 
L 160.047983 329.155477 
L 163.649919 317.486402 
L 164.850565 314.365603 
L 166.05121 304.053397 
L 167.251856 280.443872 
L 168.452501 229.968337 
L 172.054438 169.45197 
L 181.659602 228.611468 
L 182.860247 237.838179 
L 184.060893 253.306488 
L 185.261538 245.70802 
L 188.863475 255.341792 
L 190.06412 261.447703 
L 191.264766 262.126138 
L 192.465412 240.280543 
L 193.666057 238.787987 
L 197.267994 237.702492 
L 198.468639 239.466422 
L 199.669285 243.537029 
L 200.86993 234.853066 
L 202.070576 235.938562 
L 205.672512 243.129969 
L 206.873158 246.386455 
L 208.073803 244.893899 
L 209.274449 250.050002 
L 210.475094 241.773099 
L 214.077031 227.66166 
L 215.277676 231.18952 
L 216.478322 219.927505 
L 217.678967 223.183991 
L 218.879613 214.092967 
L 222.481549 214.635715 
L 223.682195 210.972168 
L 226.083486 233.767571 
L 227.284131 241.230352 
L 230.886068 232.275015 
L 232.086713 231.18952 
L 233.287359 231.18952 
L 234.488004 242.994282 
L 235.68865 243.537029 
L 239.290586 246.657829 
L 240.491232 239.059361 
L 241.691877 244.079777 
L 242.892523 237.159744 
L 244.093168 232.817763 
L 247.695105 234.581693 
L 248.89575 238.380926 
L 250.096396 237.431118 
L 251.297041 231.053833 
L 252.497687 233.496197 
L 256.099623 231.460893 
L 257.300269 231.867954 
L 258.500914 227.797346 
L 259.70156 235.260127 
L 260.902205 240.009169 
L 264.504142 239.873483 
L 265.704788 240.009169 
L 266.905433 238.245239 
L 268.106079 238.516613 
L 269.306724 241.501726 
L 272.908661 238.380926 
L 274.109306 240.280543 
L 275.309952 238.923674 
L 276.510597 239.330735 
L 277.711243 239.059361 
L 281.313179 247.607637 
L 282.513825 258.869652 
L 284.915116 264.432815 
L 286.115761 264.704189 
L 289.717698 262.804572 
L 290.918343 265.789685 
L 292.118989 265.382624 
L 293.319634 269.860292 
L 294.52028 269.317545 
L 298.122216 256.562974 
L 299.322862 261.58339 
L 300.523507 260.090834 
L 301.724153 257.919843 
L 302.924798 253.035114 
L 306.526735 251.949619 
L 307.72738 253.442175 
L 308.928026 254.391983 
L 310.128671 250.050002 
L 311.329317 257.648469 
L 314.931253 258.191217 
L 325.737063 250.592749 
L 326.937708 243.672716 
L 328.138354 242.18016 
L 331.74029 246.115081 
L 332.940936 241.094665 
L 334.141581 243.129969 
L 335.342227 237.838179 
L 336.542873 236.752683 
L 340.144809 242.451534 
L 341.345455 236.345623 
L 342.5461 236.48131 
L 343.746746 229.018529 
L 344.947391 231.460893 
L 348.549328 234.71738 
L 349.749973 231.18952 
L 350.950619 232.682076 
L 352.151264 244.079777 
L 353.35191 240.551917 
L 356.953846 241.230352 
L 358.154492 241.230352 
L 359.355137 235.531501 
L 360.555783 239.737796 
L 361.756428 239.873483 
L 365.358365 239.873483 
L 366.55901 241.230352 
L 367.759656 244.486838 
L 368.960301 236.209936 
L 370.160947 237.973866 
L 373.762883 236.345623 
L 374.963529 237.295431 
L 376.164174 240.009169 
L 377.36482 246.250768 
L 378.565465 246.250768 
L 382.167402 247.200576 
L 383.368047 248.150385 
L 384.568693 247.47195 
L 385.769338 249.371567 
L 386.969984 252.76374 
L 390.57192 253.035114 
L 391.772566 252.76374 
L 392.973211 257.784156 
L 394.173857 291.977261 
L 398.976439 288.04234 
L 400.177084 285.464288 
L 401.37773 280.036812 
L 402.578375 276.101891 
L 403.779021 275.69483 
L 407.380958 275.966204 
L 408.581603 279.087003 
L 409.782249 278.679942 
L 410.982894 278.001508 
L 412.18354 273.9309 
L 415.785476 275.152082 
L 416.986122 272.438344 
L 418.186767 274.066587 
L 419.387413 272.302657 
L 420.588058 274.202274 
L 424.189995 274.609335 
L 425.39064 272.16697 
L 426.591286 267.146554 
L 433.795159 265.925372 
L 434.995804 261.312016 
L 436.19645 263.618694 
L 437.397095 256.427287 
L 440.999032 257.377096 
L 442.199677 254.120609 
L 443.400323 259.81946 
L 444.600968 260.362208 
L 445.801614 261.176329 
L 449.40355 259.005339 
L 450.604196 256.834348 
L 451.804841 259.276712 
L 453.005487 262.261825 
L 454.206132 264.568502 
L 457.808069 265.925372 
L 459.008714 267.010867 
L 460.20936 262.940259 
L 461.410005 265.246937 
L 462.610651 264.568502 
L 467.413233 261.447703 
L 468.613878 258.326904 
L 469.814524 259.141026 
L 471.015169 256.834348 
L 474.617106 259.81946 
L 475.817751 256.2916 
L 477.018397 256.020226 
L 478.219042 258.733965 
L 479.419688 256.427287 
L 483.021625 257.648469 
L 484.22227 256.834348 
L 485.422916 260.769269 
L 486.623561 263.075946 
L 487.824207 261.719077 
L 491.426143 255.477479 
L 492.626789 246.657829 
L 493.827434 248.828819 
L 495.02808 247.743324 
L 496.228725 243.401343 
L 499.830662 244.351151 
L 501.031307 247.336263 
L 502.231953 242.315847 
L 503.432598 243.401343 
L 504.633244 246.522142 
L 508.23518 239.873483 
L 509.435826 239.330735 
L 510.636471 238.516613 
L 511.837117 236.345623 
L 513.037762 237.431118 
L 516.639699 232.682076 
L 517.840344 233.496197 
L 519.04099 227.933033 
L 520.241635 227.254599 
L 521.442281 224.1338 
L 525.044217 222.234183 
L 526.244863 222.505557 
L 527.445508 217.349453 
L 528.646154 218.299262 
L 529.846799 215.042776 
L 533.448736 209.479612 
L 534.649381 214.635715 
L 535.850027 220.60594 
L 537.050672 220.334566 
L 538.251318 218.977697 
L 541.853254 218.027888 
L 543.0539 215.856897 
L 544.254545 218.027888 
L 545.455191 219.113383 
L 546.655836 213.007472 
L 550.257773 209.208238 
L 551.458419 197.267789 
L 552.659064 200.931336 
L 553.85971 192.38306 
L 555.060355 182.477914 
L 558.662292 183.427723 
L 559.862937 181.663793 
L 561.063583 183.834784 
L 562.264228 171.622961 
L 563.464874 161.446442 
L 567.06681 164.295867 
L 568.267456 167.009605 
L 569.468101 152.084044 
L 571.869392 135.665926 
L 575.471329 146.385193 
L 576.671974 143.400081 
L 577.87262 159.546825 
L 579.073265 133.359249 
L 580.273911 138.243978 
L 583.875847 146.792254 
L 585.076493 142.721646 
L 586.277138 122.368608 
L 587.477784 126.439216 
L 588.678429 120.740365 
L 592.280366 117.755253 
L 593.481011 109.614037 
L 594.681657 116.669757 
L 595.882302 117.348192 
L 597.082948 114.634453 
L 600.684884 113.141897 
L 601.88553 104.050873 
L 603.086175 97.13084 
L 604.286821 108.257168 
L 605.487466 96.859467 
L 609.089403 96.316719 
L 610.290048 93.874354 
L 621.095858 112.870523 
L 625.89844 134.716118 
L 627.099086 125.35372 
L 628.299731 123.861164 
L 629.500377 137.294169 
L 630.701022 129.695702 
L 634.302959 117.348192 
L 635.503604 120.468991 
L 636.70425 120.604678 
L 637.904895 105.814803 
L 639.105541 97.402214 
L 642.707477 97.944962 
L 643.908123 85.054704 
L 645.108768 93.331607 
L 646.309414 103.236752 
L 647.510059 101.879883 
L 651.111996 110.563846 
L 652.312641 106.493238 
L 653.513287 98.48771 
L 654.713932 100.6587 
L 655.914578 104.322247 
L 659.516514 110.428159 
L 660.71716 111.106593 
L 661.917805 101.065761 
L 663.118451 113.141897 
L 664.319096 114.363079 
L 667.921033 118.840748 
L 669.121678 118.026626 
L 670.322324 122.232921 
L 671.522969 138.786725 
L 672.723615 138.243978 
L 676.325551 131.052571 
L 677.526197 122.097234 
L 678.726842 124.132538 
L 679.927488 121.011739 
L 681.128133 115.855636 
L 684.73007 118.705061 
L 685.930715 123.182729 
L 687.131361 118.840748 
L 688.332006 113.684645 
L 689.532652 102.558317 
L 693.134588 100.25164 
L 694.335234 99.708892 
L 695.53588 105.95049 
L 696.736525 102.151256 
L 697.937171 109.47835 
L 701.539107 117.619566 
L 702.739753 103.508126 
L 703.940398 113.277584 
L 705.141044 111.24228 
L 706.341689 102.01557 
L 709.943626 100.6587 
L 711.144271 96.995153 
L 712.344917 95.638284 
L 713.545562 95.095537 
L 714.746208 97.944962 
L 718.348144 94.688476 
L 719.54879 100.523013 
L 720.749435 87.632756 
L 726.752663 84.647644 
L 727.953308 83.562148 
L 729.153954 86.818634 
L 730.354599 83.155087 
L 731.555245 75.420933 
L 735.157181 84.240583 
L 736.357827 80.712723 
L 737.558472 77.998984 
L 738.759118 78.813106 
L 739.959763 82.61234 
L 743.5617 90.07512 
L 744.762345 87.632756 
L 745.962991 83.0194 
L 747.163636 80.034288 
L 747.163636 80.034288 
" clip-path="url(#p332ff1dfbd)" style="fill: none; stroke: #8c564b; stroke-width: 1.5; stroke-linecap: square"/>
   </g>
   <g id="patch_3">
    <path d="M 108 384.48 
L 108 51.84 
" style="fill: none; stroke: #000000; stroke-width: 0.8; stroke-linejoin: miter; stroke-linecap: square"/>
   </g>
   <g id="patch_4">
    <path d="M 777.6 384.48 
L 777.6 51.84 
" style="fill: none; stroke: #000000; stroke-width: 0.8; stroke-linejoin: miter; stroke-linecap: square"/>
   </g>
   <g id="patch_5">
    <path d="M 108 384.48 
L 777.6 384.48 
" style="fill: none; stroke: #000000; stroke-width: 0.8; stroke-linejoin: miter; stroke-linecap: square"/>
   </g>
   <g id="patch_6">
    <path d="M 108 51.84 
L 777.6 51.84 
" style="fill: none; stroke: #000000; stroke-width: 0.8; stroke-linejoin: miter; stroke-linecap: square"/>
   </g>
   <g id="text_18">
    <!-- Backtest Comparison: Curated vs All-Market (2024-09-01 ~ Now) -->
    <g transform="translate(246.882188 45.84) scale(0.12 -0.12)">
     <defs>
      <path id="DejaVuSans-42" d="M 1259 2228 
L 1259 519 
L 2272 519 
Q 2781 519 3026 730 
Q 3272 941 3272 1375 
Q 3272 1813 3026 2020 
Q 2781 2228 2272 2228 
L 1259 2228 
z
M 1259 4147 
L 1259 2741 
L 2194 2741 
Q 2656 2741 2882 2914 
Q 3109 3088 3109 3444 
Q 3109 3797 2882 3972 
Q 2656 4147 2194 4147 
L 1259 4147 
z
M 628 4666 
L 2241 4666 
Q 2963 4666 3353 4366 
Q 3744 4066 3744 3513 
Q 3744 3084 3544 2831 
Q 3344 2578 2956 2516 
Q 3422 2416 3680 2098 
Q 3938 1781 3938 1306 
Q 3938 681 3513 340 
Q 3088 0 2303 0 
L 628 0 
L 628 4666 
z
" transform="scale(0.015625)"/>
      <path id="DejaVuSans-61" d="M 2194 1759 
Q 1497 1759 1228 1600 
Q 959 1441 959 1056 
Q 959 750 1161 570 
Q 1363 391 1709 391 
Q 2188 391 2477 730 
Q 2766 1069 2766 1631 
L 2766 1759 
L 2194 1759 
z
M 3341 1997 
L 3341 0 
L 2766 0 
L 2766 531 
Q 2569 213 2275 61 
Q 1981 -91 1556 -91 
Q 1019 -91 701 211 
Q 384 513 384 1019 
Q 384 1609 779 1909 
Q 1175 2209 1959 2209 
L 2766 2209 
L 2766 2266 
Q 2766 2663 2505 2880 
Q 2244 3097 1772 3097 
Q 1472 3097 1187 3025 
Q 903 2953 641 2809 
L 641 3341 
Q 956 3463 1253 3523 
Q 1550 3584 1831 3584 
Q 2591 3584 2966 3190 
Q 3341 2797 3341 1997 
z
" transform="scale(0.015625)"/>
      <path id="DejaVuSans-63" d="M 3122 3366 
L 3122 2828 
Q 2878 2963 2633 3030 
Q 2388 3097 2138 3097 
Q 1578 3097 1268 2742 
Q 959 2388 959 1747 
Q 959 1106 1268 751 
Q 1578 397 2138 397 
Q 2388 397 2633 464 
Q 2878 531 3122 666 
L 3122 134 
Q 2881 22 2623 -34 
Q 2366 -91 2075 -91 
Q 1284 -91 818 406 
Q 353 903 353 1747 
Q 353 2603 823 3093 
Q 1294 3584 2113 3584 
Q 2378 3584 2631 3529 
Q 2884 3475 3122 3366 
z
" transform="scale(0.015625)"/>
      <path id="DejaVuSans-6b" d="M 581 4863 
L 1159 4863 
L 1159 1991 
L 2875 3500 
L 3609 3500 
L 1753 1863 
L 3688 0 
L 2938 0 
L 1159 1709 
L 1159 0 
L 581 0 
L 581 4863 
z
" transform="scale(0.015625)"/>
      <path id="DejaVuSans-74" d="M 1172 4494 
L 1172 3500 
L 2356 3500 
L 2356 3053 
L 1172 3053 
L 1172 1153 
Q 1172 725 1289 603 
Q 1406 481 1766 481 
L 2356 481 
L 2356 0 
L 1766 0 
Q 1100 0 847 248 
Q 594 497 594 1153 
L 594 3053 
L 172 3053 
L 172 3500 
L 594 3500 
L 594 4494 
L 1172 4494 
z
" transform="scale(0.015625)"/>
      <path id="DejaVuSans-65" d="M 3597 1894 
L 3597 1613 
L 953 1613 
Q 991 1019 1311 708 
Q 1631 397 2203 397 
Q 2534 397 2845 478 
Q 3156 559 3463 722 
L 3463 178 
Q 3153 47 2828 -22 
Q 2503 -91 2169 -91 
Q 1331 -91 842 396 
Q 353 884 353 1716 
Q 353 2575 817 3079 
Q 1281 3584 2069 3584 
Q 2775 3584 3186 3129 
Q 3597 2675 3597 1894 
z
M 3022 2063 
Q 3016 2534 2758 2815 
Q 2500 3097 2075 3097 
Q 1594 3097 1305 2825 
Q 1016 2553 972 2059 
L 3022 2063 
z
" transform="scale(0.015625)"/>
      <path id="DejaVuSans-73" d="M 2834 3397 
L 2834 2853 
Q 2591 2978 2328 3040 
Q 2066 3103 1784 3103 
Q 1356 3103 1142 2972 
Q 928 2841 928 2578 
Q 928 2378 1081 2264 
Q 1234 2150 1697 2047 
L 1894 2003 
Q 2506 1872 2764 1633 
Q 3022 1394 3022 966 
Q 3022 478 2636 193 
Q 2250 -91 1575 -91 
Q 1294 -91 989 -36 
Q 684 19 347 128 
L 347 722 
Q 666 556 975 473 
Q 1284 391 1588 391 
Q 1994 391 2212 530 
Q 2431 669 2431 922 
Q 2431 1156 2273 1281 
Q 2116 1406 1581 1522 
L 1381 1569 
Q 847 1681 609 1914 
Q 372 2147 372 2553 
Q 372 3047 722 3315 
Q 1072 3584 1716 3584 
Q 2034 3584 2315 3537 
Q 2597 3491 2834 3397 
z
" transform="scale(0.015625)"/>
      <path id="DejaVuSans-20" transform="scale(0.015625)"/>
      <path id="DejaVuSans-43" d="M 4122 4306 
L 4122 3641 
Q 3803 3938 3442 4084 
Q 3081 4231 2675 4231 
Q 1875 4231 1450 3742 
Q 1025 3253 1025 2328 
Q 1025 1406 1450 917 
Q 1875 428 2675 428 
Q 3081 428 3442 575 
Q 3803 722 4122 1019 
L 4122 359 
Q 3791 134 3420 21 
Q 3050 -91 2638 -91 
Q 1578 -91 968 557 
Q 359 1206 359 2328 
Q 359 3453 968 4101 
Q 1578 4750 2638 4750 
Q 3056 4750 3426 4639 
Q 3797 4528 4122 4306 
z
" transform="scale(0.015625)"/>
      <path id="DejaVuSans-6f" d="M 1959 3097 
Q 1497 3097 1228 2736 
Q 959 2375 959 1747 
Q 959 1119 1226 758 
Q 1494 397 1959 397 
Q 2419 397 2687 759 
Q 2956 1122 2956 1747 
Q 2956 2369 2687 2733 
Q 2419 3097 1959 3097 
z
M 1959 3584 
Q 2709 3584 3137 3096 
Q 3566 2609 3566 1747 
Q 3566 888 3137 398 
Q 2709 -91 1959 -91 
Q 1206 -91 779 398 
Q 353 888 353 1747 
Q 353 2609 779 3096 
Q 1206 3584 1959 3584 
z
" transform="scale(0.015625)"/>
      <path id="DejaVuSans-6d" d="M 3328 2828 
Q 3544 3216 3844 3400 
Q 4144 3584 4550 3584 
Q 5097 3584 5394 3201 
Q 5691 2819 5691 2113 
L 5691 0 
L 5113 0 
L 5113 2094 
Q 5113 2597 4934 2840 
Q 4756 3084 4391 3084 
Q 3944 3084 3684 2787 
Q 3425 2491 3425 1978 
L 3425 0 
L 2847 0 
L 2847 2094 
Q 2847 2600 2669 2842 
Q 2491 3084 2119 3084 
Q 1678 3084 1418 2786 
Q 1159 2488 1159 1978 
L 1159 0 
L 581 0 
L 581 3500 
L 1159 3500 
L 1159 2956 
Q 1356 3278 1631 3431 
Q 1906 3584 2284 3584 
Q 2666 3584 2933 3390 
Q 3200 3197 3328 2828 
z
" transform="scale(0.015625)"/>
      <path id="DejaVuSans-70" d="M 1159 525 
L 1159 -1331 
L 581 -1331 
L 581 3500 
L 1159 3500 
L 1159 2969 
Q 1341 3281 1617 3432 
Q 1894 3584 2278 3584 
Q 2916 3584 3314 3078 
Q 3713 2572 3713 1747 
Q 3713 922 3314 415 
Q 2916 -91 2278 -91 
Q 1894 -91 1617 61 
Q 1341 213 1159 525 
z
M 3116 1747 
Q 3116 2381 2855 2742 
Q 2594 3103 2138 3103 
Q 1681 3103 1420 2742 
Q 1159 2381 1159 1747 
Q 1159 1113 1420 752 
Q 1681 391 2138 391 
Q 2594 391 2855 752 
Q 3116 1113 3116 1747 
z
" transform="scale(0.015625)"/>
      <path id="DejaVuSans-72" d="M 2631 2963 
Q 2534 3019 2420 3045 
Q 2306 3072 2169 3072 
Q 1681 3072 1420 2755 
Q 1159 2438 1159 1844 
L 1159 0 
L 581 0 
L 581 3500 
L 1159 3500 
L 1159 2956 
Q 1341 3275 1631 3429 
Q 1922 3584 2338 3584 
Q 2397 3584 2469 3576 
Q 2541 3569 2628 3553 
L 2631 2963 
z
" transform="scale(0.015625)"/>
      <path id="DejaVuSans-69" d="M 603 3500 
L 1178 3500 
L 1178 0 
L 603 0 
L 603 3500 
z
M 603 4863 
L 1178 4863 
L 1178 4134 
L 603 4134 
L 603 4863 
z
" transform="scale(0.015625)"/>
      <path id="DejaVuSans-6e" d="M 3513 2113 
L 3513 0 
L 2938 0 
L 2938 2094 
Q 2938 2591 2744 2837 
Q 2550 3084 2163 3084 
Q 1697 3084 1428 2787 
Q 1159 2491 1159 1978 
L 1159 0 
L 581 0 
L 581 3500 
L 1159 3500 
L 1159 2956 
Q 1366 3272 1645 3428 
Q 1925 3584 2291 3584 
Q 2894 3584 3203 3211 
Q 3513 2838 3513 2113 
z
" transform="scale(0.015625)"/>
      <path id="DejaVuSans-3a" d="M 750 794 
L 1409 794 
L 1409 0 
L 750 0 
L 750 794 
z
M 750 3309 
L 1409 3309 
L 1409 2516 
L 750 2516 
L 750 3309 
z
" transform="scale(0.015625)"/>
      <path id="DejaVuSans-75" d="M 544 1381 
L 544 3500 
L 1119 3500 
L 1119 1403 
Q 1119 906 1312 657 
Q 1506 409 1894 409 
Q 2359 409 2629 706 
Q 2900 1003 2900 1516 
L 2900 3500 
L 3475 3500 
L 3475 0 
L 2900 0 
L 2900 538 
Q 2691 219 2414 64 
Q 2138 -91 1772 -91 
Q 1169 -91 856 284 
Q 544 659 544 1381 
z
M 1991 3584 
L 1991 3584 
z
" transform="scale(0.015625)"/>
      <path id="DejaVuSans-64" d="M 2906 2969 
L 2906 4863 
L 3481 4863 
L 3481 0 
L 2906 0 
L 2906 525 
Q 2725 213 2448 61 
Q 2172 -91 1784 -91 
Q 1150 -91 751 415 
Q 353 922 353 1747 
Q 353 2572 751 3078 
Q 1150 3584 1784 3584 
Q 2172 3584 2448 3432 
Q 2725 3281 2906 2969 
z
M 947 1747 
Q 947 1113 1208 752 
Q 1469 391 1925 391 
Q 2381 391 2643 752 
Q 2906 1113 2906 1747 
Q 2906 2381 2643 2742 
Q 2381 3103 1925 3103 
Q 1469 3103 1208 2742 
Q 947 2381 947 1747 
z
" transform="scale(0.015625)"/>
      <path id="DejaVuSans-76" d="M 191 3500 
L 800 3500 
L 1894 563 
L 2988 3500 
L 3597 3500 
L 2284 0 
L 1503 0 
L 191 3500 
z
" transform="scale(0.015625)"/>
      <path id="DejaVuSans-41" d="M 2188 4044 
L 1331 1722 
L 3047 1722 
L 2188 4044 
z
M 1831 4666 
L 2547 4666 
L 4325 0 
L 3669 0 
L 3244 1197 
L 1141 1197 
L 716 0 
L 50 0 
L 1831 4666 
z
" transform="scale(0.015625)"/>
      <path id="DejaVuSans-6c" d="M 603 4863 
L 1178 4863 
L 1178 0 
L 603 0 
L 603 4863 
z
" transform="scale(0.015625)"/>
      <path id="DejaVuSans-4d" d="M 628 4666 
L 1569 4666 
L 2759 1491 
L 3956 4666 
L 4897 4666 
L 4897 0 
L 4281 0 
L 4281 4097 
L 3078 897 
L 2444 897 
L 1241 4097 
L 1241 0 
L 628 0 
L 628 4666 
z
" transform="scale(0.015625)"/>
      <path id="DejaVuSans-28" d="M 1984 4856 
Q 1566 4138 1362 3434 
Q 1159 2731 1159 2009 
Q 1159 1288 1364 580 
Q 1569 -128 1984 -844 
L 1484 -844 
Q 1016 -109 783 600 
Q 550 1309 550 2009 
Q 550 2706 781 3412 
Q 1013 4119 1484 4856 
L 1984 4856 
z
" transform="scale(0.015625)"/>
      <path id="DejaVuSans-7e" d="M 4684 2553 
L 4684 1997 
Q 4356 1750 4076 1644 
Q 3797 1538 3494 1538 
Q 3150 1538 2694 1722 
Q 2659 1734 2644 1741 
Q 2622 1750 2575 1766 
Q 2091 1959 1797 1959 
Q 1522 1959 1253 1839 
Q 984 1719 678 1459 
L 678 2016 
Q 1006 2263 1286 2370 
Q 1566 2478 1869 2478 
Q 2213 2478 2672 2291 
Q 2703 2278 2719 2272 
Q 2744 2263 2788 2247 
Q 3272 2053 3566 2053 
Q 3834 2053 4098 2172 
Q 4363 2291 4684 2553 
z
" transform="scale(0.015625)"/>
      <path id="DejaVuSans-4e" d="M 628 4666 
L 1478 4666 
L 3547 763 
L 3547 4666 
L 4159 4666 
L 4159 0 
L 3309 0 
L 1241 3903 
L 1241 0 
L 628 0 
L 628 4666 
z
" transform="scale(0.015625)"/>
      <path id="DejaVuSans-77" d="M 269 3500 
L 844 3500 
L 1563 769 
L 2278 3500 
L 2956 3500 
L 3675 769 
L 4391 3500 
L 4966 3500 
L 4050 0 
L 3372 0 
L 2619 2869 
L 1863 0 
L 1184 0 
L 269 3500 
z
" transform="scale(0.015625)"/>
      <path id="DejaVuSans-29" d="M 513 4856 
L 1013 4856 
Q 1481 4119 1714 3412 
Q 1947 2706 1947 2009 
Q 1947 1309 1714 600 
Q 1481 -109 1013 -844 
L 513 -844 
Q 928 -128 1133 580 
Q 1338 1288 1338 2009 
Q 1338 2731 1133 3434 
Q 928 4138 513 4856 
z
" transform="scale(0.015625)"/>
     </defs>
     <use xlink:href="#DejaVuSans-42"/>
     <use xlink:href="#DejaVuSans-61" transform="translate(68.603516 0)"/>
     <use xlink:href="#DejaVuSans-63" transform="translate(129.882812 0)"/>
     <use xlink:href="#DejaVuSans-6b" transform="translate(184.863281 0)"/>
     <use xlink:href="#DejaVuSans-74" transform="translate(242.773438 0)"/>
     <use xlink:href="#DejaVuSans-65" transform="translate(281.982422 0)"/>
     <use xlink:href="#DejaVuSans-73" transform="translate(343.505859 0)"/>
     <use xlink:href="#DejaVuSans-74" transform="translate(395.605469 0)"/>
     <use xlink:href="#DejaVuSans-20" transform="translate(434.814453 0)"/>
     <use xlink:href="#DejaVuSans-43" transform="translate(466.601562 0)"/>
     <use xlink:href="#DejaVuSans-6f" transform="translate(536.425781 0)"/>
     <use xlink:href="#DejaVuSans-6d" transform="translate(597.607422 0)"/>
     <use xlink:href="#DejaVuSans-70" transform="translate(695.019531 0)"/>
     <use xlink:href="#DejaVuSans-61" transform="translate(758.496094 0)"/>
     <use xlink:href="#DejaVuSans-72" transform="translate(819.775391 0)"/>
     <use xlink:href="#DejaVuSans-69" transform="translate(860.888672 0)"/>
     <use xlink:href="#DejaVuSans-73" transform="translate(888.671875 0)"/>
     <use xlink:href="#DejaVuSans-6f" transform="translate(940.771484 0)"/>
     <use xlink:href="#DejaVuSans-6e" transform="translate(1001.953125 0)"/>
     <use xlink:href="#DejaVuSans-3a" transform="translate(1065.332031 0)"/>
     <use xlink:href="#DejaVuSans-20" transform="translate(1099.023438 0)"/>
     <use xlink:href="#DejaVuSans-43" transform="translate(1130.810547 0)"/>
     <use xlink:href="#DejaVuSans-75" transform="translate(1200.634766 0)"/>
     <use xlink:href="#DejaVuSans-72" transform="translate(1264.013672 0)"/>
     <use xlink:href="#DejaVuSans-61" transform="translate(1305.126953 0)"/>
     <use xlink:href="#DejaVuSans-74" transform="translate(1366.40625 0)"/>
     <use xlink:href="#DejaVuSans-65" transform="translate(1405.615234 0)"/>
     <use xlink:href="#DejaVuSans-64" transform="translate(1467.138672 0)"/>
     <use xlink:href="#DejaVuSans-20" transform="translate(1530.615234 0)"/>
     <use xlink:href="#DejaVuSans-76" transform="translate(1562.402344 0)"/>
     <use xlink:href="#DejaVuSans-73" transform="translate(1621.582031 0)"/>
     <use xlink:href="#DejaVuSans-20" transform="translate(1673.681641 0)"/>
     <use xlink:href="#DejaVuSans-41" transform="translate(1705.46875 0)"/>
     <use xlink:href="#DejaVuSans-6c" transform="translate(1773.876953 0)"/>
     <use xlink:href="#DejaVuSans-6c" transform="translate(1801.660156 0)"/>
     <use xlink:href="#DejaVuSans-2d" transform="translate(1829.443359 0)"/>
     <use xlink:href="#DejaVuSans-4d" transform="translate(1865.527344 0)"/>
     <use xlink:href="#DejaVuSans-61" transform="translate(1951.806641 0)"/>
     <use xlink:href="#DejaVuSans-72" transform="translate(2013.085938 0)"/>
     <use xlink:href="#DejaVuSans-6b" transform="translate(2054.199219 0)"/>
     <use xlink:href="#DejaVuSans-65" transform="translate(2108.484375 0)"/>
     <use xlink:href="#DejaVuSans-74" transform="translate(2170.007812 0)"/>
     <use xlink:href="#DejaVuSans-20" transform="translate(2209.216797 0)"/>
     <use xlink:href="#DejaVuSans-28" transform="translate(2241.003906 0)"/>
     <use xlink:href="#DejaVuSans-32" transform="translate(2280.017578 0)"/>
     <use xlink:href="#DejaVuSans-30" transform="translate(2343.640625 0)"/>
     <use xlink:href="#DejaVuSans-32" transform="translate(2407.263672 0)"/>
     <use xlink:href="#DejaVuSans-34" transform="translate(2470.886719 0)"/>
     <use xlink:href="#DejaVuSans-2d" transform="translate(2534.509766 0)"/>
     <use xlink:href="#DejaVuSans-30" transform="translate(2570.59375 0)"/>
     <use xlink:href="#DejaVuSans-39" transform="translate(2634.216797 0)"/>
     <use xlink:href="#DejaVuSans-2d" transform="translate(2697.839844 0)"/>
     <use xlink:href="#DejaVuSans-30" transform="translate(2733.923828 0)"/>
     <use xlink:href="#DejaVuSans-31" transform="translate(2797.546875 0)"/>
     <use xlink:href="#DejaVuSans-20" transform="translate(2861.169922 0)"/>
     <use xlink:href="#DejaVuSans-7e" transform="translate(2892.957031 0)"/>
     <use xlink:href="#DejaVuSans-20" transform="translate(2976.746094 0)"/>
     <use xlink:href="#DejaVuSans-4e" transform="translate(3008.533203 0)"/>
     <use xlink:href="#DejaVuSans-6f" transform="translate(3083.337891 0)"/>
     <use xlink:href="#DejaVuSans-77" transform="translate(3144.519531 0)"/>
     <use xlink:href="#DejaVuSans-29" transform="translate(3226.306641 0)"/>
    </g>
   </g>
   <g id="legend_1">
    <g id="patch_7">
     <path d="M 115 149.02125 
L 274.051562 149.02125 
Q 276.051562 149.02125 276.051562 147.02125 
L 276.051562 58.84 
Q 276.051562 56.84 274.051562 56.84 
L 115 56.84 
Q 113 56.84 113 58.84 
L 113 147.02125 
Q 113 149.02125 115 149.02125 
z
" style="fill: #ffffff; opacity: 0.8; stroke: #cccccc; stroke-linejoin: miter"/>
    </g>
    <g id="line2d_41">
     <path d="M 117 64.938437 
L 127 64.938437 
L 137 64.938437 
" style="fill: none; stroke: #1f77b4; stroke-width: 1.5; stroke-linecap: square"/>
    </g>
    <g id="text_19">
     <!-- Curated_Strong (110.0%) -->
     <g transform="translate(145 68.438437) scale(0.1 -0.1)">
      <defs>
       <path id="DejaVuSans-5f" d="M 3263 -1063 
L 3263 -1509 
L -63 -1509 
L -63 -1063 
L 3263 -1063 
z
" transform="scale(0.015625)"/>
       <path id="DejaVuSans-53" d="M 3425 4513 
L 3425 3897 
Q 3066 4069 2747 4153 
Q 2428 4238 2131 4238 
Q 1616 4238 1336 4038 
Q 1056 3838 1056 3469 
Q 1056 3159 1242 3001 
Q 1428 2844 1947 2747 
L 2328 2669 
Q 3034 2534 3370 2195 
Q 3706 1856 3706 1288 
Q 3706 609 3251 259 
Q 2797 -91 1919 -91 
Q 1588 -91 1214 -16 
Q 841 59 441 206 
L 441 856 
Q 825 641 1194 531 
Q 1563 422 1919 422 
Q 2459 422 2753 634 
Q 3047 847 3047 1241 
Q 3047 1584 2836 1778 
Q 2625 1972 2144 2069 
L 1759 2144 
Q 1053 2284 737 2584 
Q 422 2884 422 3419 
Q 422 4038 858 4394 
Q 1294 4750 2059 4750 
Q 2388 4750 2728 4690 
Q 3069 4631 3425 4513 
z
" transform="scale(0.015625)"/>
       <path id="DejaVuSans-67" d="M 2906 1791 
Q 2906 2416 2648 2759 
Q 2391 3103 1925 3103 
Q 1463 3103 1205 2759 
Q 947 2416 947 1791 
Q 947 1169 1205 825 
Q 1463 481 1925 481 
Q 2391 481 2648 825 
Q 2906 1169 2906 1791 
z
M 3481 434 
Q 3481 -459 3084 -895 
Q 2688 -1331 1869 -1331 
Q 1566 -1331 1297 -1286 
Q 1028 -1241 775 -1147 
L 775 -588 
Q 1028 -725 1275 -790 
Q 1522 -856 1778 -856 
Q 2344 -856 2625 -561 
Q 2906 -266 2906 331 
L 2906 616 
Q 2728 306 2450 153 
Q 2172 0 1784 0 
Q 1141 0 747 490 
Q 353 981 353 1791 
Q 353 2603 747 3093 
Q 1141 3584 1784 3584 
Q 2172 3584 2450 3431 
Q 2728 3278 2906 2969 
L 2906 3500 
L 3481 3500 
L 3481 434 
z
" transform="scale(0.015625)"/>
       <path id="DejaVuSans-25" d="M 4653 2053 
Q 4381 2053 4226 1822 
Q 4072 1591 4072 1178 
Q 4072 772 4226 539 
Q 4381 306 4653 306 
Q 4919 306 5073 539 
Q 5228 772 5228 1178 
Q 5228 1588 5073 1820 
Q 4919 2053 4653 2053 
z
M 4653 2450 
Q 5147 2450 5437 2106 
Q 5728 1763 5728 1178 
Q 5728 594 5436 251 
Q 5144 -91 4653 -91 
Q 4153 -91 3862 251 
Q 3572 594 3572 1178 
Q 3572 1766 3864 2108 
Q 4156 2450 4653 2450 
z
M 1428 4353 
Q 1159 4353 1004 4120 
Q 850 3888 850 3481 
Q 850 3069 1003 2837 
Q 1156 2606 1428 2606 
Q 1700 2606 1854 2837 
Q 2009 3069 2009 3481 
Q 2009 3884 1853 4118 
Q 1697 4353 1428 4353 
z
M 4250 4750 
L 4750 4750 
L 1831 -91 
L 1331 -91 
L 4250 4750 
z
M 1428 4750 
Q 1922 4750 2215 4408 
Q 2509 4066 2509 3481 
Q 2509 2891 2217 2550 
Q 1925 2209 1428 2209 
Q 931 2209 642 2551 
Q 353 2894 353 3481 
Q 353 4063 643 4406 
Q 934 4750 1428 4750 
z
" transform="scale(0.015625)"/>
      </defs>
      <use xlink:href="#DejaVuSans-43"/>
      <use xlink:href="#DejaVuSans-75" transform="translate(69.824219 0)"/>
      <use xlink:href="#DejaVuSans-72" transform="translate(133.203125 0)"/>
      <use xlink:href="#DejaVuSans-61" transform="translate(174.316406 0)"/>
      <use xlink:href="#DejaVuSans-74" transform="translate(235.595703 0)"/>
      <use xlink:href="#DejaVuSans-65" transform="translate(274.804688 0)"/>
      <use xlink:href="#DejaVuSans-64" transform="translate(336.328125 0)"/>
      <use xlink:href="#DejaVuSans-5f" transform="translate(399.804688 0)"/>
      <use xlink:href="#DejaVuSans-53" transform="translate(449.804688 0)"/>
      <use xlink:href="#DejaVuSans-74" transform="translate(513.28125 0)"/>
      <use xlink:href="#DejaVuSans-72" transform="translate(552.490234 0)"/>
      <use xlink:href="#DejaVuSans-6f" transform="translate(591.353516 0)"/>
      <use xlink:href="#DejaVuSans-6e" transform="translate(652.535156 0)"/>
      <use xlink:href="#DejaVuSans-67" transform="translate(715.914062 0)"/>
      <use xlink:href="#DejaVuSans-20" transform="translate(779.390625 0)"/>
      <use xlink:href="#DejaVuSans-28" transform="translate(811.177734 0)"/>
      <use xlink:href="#DejaVuSans-31" transform="translate(850.191406 0)"/>
      <use xlink:href="#DejaVuSans-31" transform="translate(913.814453 0)"/>
      <use xlink:href="#DejaVuSans-30" transform="translate(977.4375 0)"/>
      <use xlink:href="#DejaVuSans-2e" transform="translate(1041.060547 0)"/>
      <use xlink:href="#DejaVuSans-30" transform="translate(1072.847656 0)"/>
      <use xlink:href="#DejaVuSans-25" transform="translate(1136.470703 0)"/>
      <use xlink:href="#DejaVuSans-29" transform="translate(1231.490234 0)"/>
     </g>
    </g>
    <g id="line2d_42">
     <path d="M 117 79.894687 
L 127 79.894687 
L 137 79.894687 
" style="fill: none; stroke: #ff7f0e; stroke-width: 1.5; stroke-linecap: square"/>
    </g>
    <g id="text_20">
     <!-- Curated_Weak (114.5%) -->
     <g transform="translate(145 83.394687) scale(0.1 -0.1)">
      <defs>
       <path id="DejaVuSans-57" d="M 213 4666 
L 850 4666 
L 1831 722 
L 2809 4666 
L 3519 4666 
L 4500 722 
L 5478 4666 
L 6119 4666 
L 4947 0 
L 4153 0 
L 3169 4050 
L 2175 0 
L 1381 0 
L 213 4666 
z
" transform="scale(0.015625)"/>
      </defs>
      <use xlink:href="#DejaVuSans-43"/>
      <use xlink:href="#DejaVuSans-75" transform="translate(69.824219 0)"/>
      <use xlink:href="#DejaVuSans-72" transform="translate(133.203125 0)"/>
      <use xlink:href="#DejaVuSans-61" transform="translate(174.316406 0)"/>
      <use xlink:href="#DejaVuSans-74" transform="translate(235.595703 0)"/>
      <use xlink:href="#DejaVuSans-65" transform="translate(274.804688 0)"/>
      <use xlink:href="#DejaVuSans-64" transform="translate(336.328125 0)"/>
      <use xlink:href="#DejaVuSans-5f" transform="translate(399.804688 0)"/>
      <use xlink:href="#DejaVuSans-57" transform="translate(449.804688 0)"/>
      <use xlink:href="#DejaVuSans-65" transform="translate(542.806641 0)"/>
      <use xlink:href="#DejaVuSans-61" transform="translate(604.330078 0)"/>
      <use xlink:href="#DejaVuSans-6b" transform="translate(665.609375 0)"/>
      <use xlink:href="#DejaVuSans-20" transform="translate(723.519531 0)"/>
      <use xlink:href="#DejaVuSans-28" transform="translate(755.306641 0)"/>
      <use xlink:href="#DejaVuSans-31" transform="translate(794.320312 0)"/>
      <use xlink:href="#DejaVuSans-31" transform="translate(857.943359 0)"/>
      <use xlink:href="#DejaVuSans-34" transform="translate(921.566406 0)"/>
      <use xlink:href="#DejaVuSans-2e" transform="translate(985.189453 0)"/>
      <use xlink:href="#DejaVuSans-35" transform="translate(1016.976562 0)"/>
      <use xlink:href="#DejaVuSans-25" transform="translate(1080.599609 0)"/>
      <use xlink:href="#DejaVuSans-29" transform="translate(1175.619141 0)"/>
     </g>
    </g>
    <g id="line2d_43">
     <path d="M 117 94.850937 
L 127 94.850937 
L 137 94.850937 
" style="fill: none; stroke: #2ca02c; stroke-width: 1.5; stroke-linecap: square"/>
    </g>
    <g id="text_21">
     <!-- All_Limit1 (3.7%) -->
     <g transform="translate(145 98.350937) scale(0.1 -0.1)">
      <defs>
       <path id="DejaVuSans-4c" d="M 628 4666 
L 1259 4666 
L 1259 531 
L 3531 531 
L 3531 0 
L 628 0 
L 628 4666 
z
" transform="scale(0.015625)"/>
      </defs>
      <use xlink:href="#DejaVuSans-41"/>
      <use xlink:href="#DejaVuSans-6c" transform="translate(68.408203 0)"/>
      <use xlink:href="#DejaVuSans-6c" transform="translate(96.191406 0)"/>
      <use xlink:href="#DejaVuSans-5f" transform="translate(123.974609 0)"/>
      <use xlink:href="#DejaVuSans-4c" transform="translate(173.974609 0)"/>
      <use xlink:href="#DejaVuSans-69" transform="translate(229.6875 0)"/>
      <use xlink:href="#DejaVuSans-6d" transform="translate(257.470703 0)"/>
      <use xlink:href="#DejaVuSans-69" transform="translate(354.882812 0)"/>
      <use xlink:href="#DejaVuSans-74" transform="translate(382.666016 0)"/>
      <use xlink:href="#DejaVuSans-31" transform="translate(421.875 0)"/>
      <use xlink:href="#DejaVuSans-20" transform="translate(485.498047 0)"/>
      <use xlink:href="#DejaVuSans-28" transform="translate(517.285156 0)"/>
      <use xlink:href="#DejaVuSans-33" transform="translate(556.298828 0)"/>
      <use xlink:href="#DejaVuSans-2e" transform="translate(619.921875 0)"/>
      <use xlink:href="#DejaVuSans-37" transform="translate(651.708984 0)"/>
      <use xlink:href="#DejaVuSans-25" transform="translate(715.332031 0)"/>
      <use xlink:href="#DejaVuSans-29" transform="translate(810.351562 0)"/>
     </g>
    </g>
    <g id="line2d_44">
     <path d="M 117 109.807187 
L 127 109.807187 
L 137 109.807187 
" style="fill: none; stroke: #d62728; stroke-width: 1.5; stroke-linecap: square"/>
    </g>
    <g id="text_22">
     <!-- All_NoLimit (-0.5%) -->
     <g transform="translate(145 113.307187) scale(0.1 -0.1)">
      <use xlink:href="#DejaVuSans-41"/>
      <use xlink:href="#DejaVuSans-6c" transform="translate(68.408203 0)"/>
      <use xlink:href="#DejaVuSans-6c" transform="translate(96.191406 0)"/>
      <use xlink:href="#DejaVuSans-5f" transform="translate(123.974609 0)"/>
      <use xlink:href="#DejaVuSans-4e" transform="translate(173.974609 0)"/>
      <use xlink:href="#DejaVuSans-6f" transform="translate(248.779297 0)"/>
      <use xlink:href="#DejaVuSans-4c" transform="translate(309.960938 0)"/>
      <use xlink:href="#DejaVuSans-69" transform="translate(365.673828 0)"/>
      <use xlink:href="#DejaVuSans-6d" transform="translate(393.457031 0)"/>
      <use xlink:href="#DejaVuSans-69" transform="translate(490.869141 0)"/>
      <use xlink:href="#DejaVuSans-74" transform="translate(518.652344 0)"/>
      <use xlink:href="#DejaVuSans-20" transform="translate(557.861328 0)"/>
      <use xlink:href="#DejaVuSans-28" transform="translate(589.648438 0)"/>
      <use xlink:href="#DejaVuSans-2d" transform="translate(628.662109 0)"/>
      <use xlink:href="#DejaVuSans-30" transform="translate(664.746094 0)"/>
      <use xlink:href="#DejaVuSans-2e" transform="translate(728.369141 0)"/>
      <use xlink:href="#DejaVuSans-35" transform="translate(760.15625 0)"/>
      <use xlink:href="#DejaVuSans-25" transform="translate(823.779297 0)"/>
      <use xlink:href="#DejaVuSans-29" transform="translate(918.798828 0)"/>
     </g>
    </g>
    <g id="line2d_45">
     <path d="M 117 124.763437 
L 127 124.763437 
L 137 124.763437 
" style="fill: none; stroke: #9467bd; stroke-width: 1.5; stroke-linecap: square"/>
    </g>
    <g id="text_23">
     <!-- CSI300 (48.2%) -->
     <g transform="translate(145 128.263437) scale(0.1 -0.1)">
      <defs>
       <path id="DejaVuSans-49" d="M 628 4666 
L 1259 4666 
L 1259 0 
L 628 0 
L 628 4666 
z
" transform="scale(0.015625)"/>
      </defs>
      <use xlink:href="#DejaVuSans-43"/>
      <use xlink:href="#DejaVuSans-53" transform="translate(69.824219 0)"/>
      <use xlink:href="#DejaVuSans-49" transform="translate(133.300781 0)"/>
      <use xlink:href="#DejaVuSans-33" transform="translate(162.792969 0)"/>
      <use xlink:href="#DejaVuSans-30" transform="translate(226.416016 0)"/>
      <use xlink:href="#DejaVuSans-30" transform="translate(290.039062 0)"/>
      <use xlink:href="#DejaVuSans-20" transform="translate(353.662109 0)"/>
      <use xlink:href="#DejaVuSans-28" transform="translate(385.449219 0)"/>
      <use xlink:href="#DejaVuSans-34" transform="translate(424.462891 0)"/>
      <use xlink:href="#DejaVuSans-38" transform="translate(488.085938 0)"/>
      <use xlink:href="#DejaVuSans-2e" transform="translate(551.708984 0)"/>
      <use xlink:href="#DejaVuSans-32" transform="translate(583.496094 0)"/>
      <use xlink:href="#DejaVuSans-25" transform="translate(647.119141 0)"/>
      <use xlink:href="#DejaVuSans-29" transform="translate(742.138672 0)"/>
     </g>
    </g>
    <g id="line2d_46">
     <path d="M 117 139.441562 
L 127 139.441562 
L 137 139.441562 
" style="fill: none; stroke: #8c564b; stroke-width: 1.5; stroke-linecap: square"/>
    </g>
    <g id="text_24">
     <!-- ChiNext (121.4%) -->
     <g transform="translate(145 142.941562) scale(0.1 -0.1)">
      <defs>
       <path id="DejaVuSans-68" d="M 3513 2113 
L 3513 0 
L 2938 0 
L 2938 2094 
Q 2938 2591 2744 2837 
Q 2550 3084 2163 3084 
Q 1697 3084 1428 2787 
Q 1159 2491 1159 1978 
L 1159 0 
L 581 0 
L 581 4863 
L 1159 4863 
L 1159 2956 
Q 1366 3272 1645 3428 
Q 1925 3584 2291 3584 
Q 2894 3584 3203 3211 
Q 3513 2838 3513 2113 
z
" transform="scale(0.015625)"/>
       <path id="DejaVuSans-78" d="M 3513 3500 
L 2247 1797 
L 3578 0 
L 2900 0 
L 1881 1375 
L 863 0 
L 184 0 
L 1544 1831 
L 300 3500 
L 978 3500 
L 1906 2253 
L 2834 3500 
L 3513 3500 
z
" transform="scale(0.015625)"/>
      </defs>
      <use xlink:href="#DejaVuSans-43"/>
      <use xlink:href="#DejaVuSans-68" transform="translate(69.824219 0)"/>
      <use xlink:href="#DejaVuSans-69" transform="translate(133.203125 0)"/>
      <use xlink:href="#DejaVuSans-4e" transform="translate(160.986328 0)"/>
      <use xlink:href="#DejaVuSans-65" transform="translate(235.791016 0)"/>
      <use xlink:href="#DejaVuSans-78" transform="translate(295.564453 0)"/>
      <use xlink:href="#DejaVuSans-74" transform="translate(354.744141 0)"/>
      <use xlink:href="#DejaVuSans-20" transform="translate(393.953125 0)"/>
      <use xlink:href="#DejaVuSans-28" transform="translate(425.740234 0)"/>
      <use xlink:href="#DejaVuSans-31" transform="translate(464.753906 0)"/>
      <use xlink:href="#DejaVuSans-32" transform="translate(528.376953 0)"/>
      <use xlink:href="#DejaVuSans-31" transform="translate(592 0)"/>
      <use xlink:href="#DejaVuSans-2e" transform="translate(655.623047 0)"/>
      <use xlink:href="#DejaVuSans-34" transform="translate(687.410156 0)"/>
      <use xlink:href="#DejaVuSans-25" transform="translate(751.033203 0)"/>
      <use xlink:href="#DejaVuSans-29" transform="translate(846.052734 0)"/>
     </g>
    </g>
   </g>
  </g>
 </g>
 <defs>
  <clipPath id="p332ff1dfbd">
   <rect x="108" y="51.84" width="669.6" height="332.64"/>
  </clipPath>
 </defs>
</svg>
