<?xml version="1.0" encoding="utf-8" standalone="no"?>
<!DOCTYPE svg PUBLIC "-//W3C//DTD SVG 1.1//EN"
  "http://www.w3.org/Graphics/SVG/1.1/DTD/svg11.dtd">
<svg xmlns:xlink="http://www.w3.org/1999/xlink" width="720pt" height="432pt" viewBox="0 0 720 432" xmlns="http://www.w3.org/2000/svg" version="1.1">
 <metadata>
  <rdf:RDF xmlns:dc="http://purl.org/dc/elements/1.1/" xmlns:cc="http://creativecommons.org/ns#" xmlns:rdf="http://www.w3.org/1999/02/22-rdf-syntax-ns#">
   <cc:Work>
    <dc:type rdf:resource="http://purl.org/dc/dcmitype/StillImage"/>
    <dc:date>2026-01-24T23:28:46.221536</dc:date>
    <dc:format>image/svg+xml</dc:format>
    <dc:creator>
     <cc:Agent>
      <dc:title>Matplotlib v3.10.7, https://matplotlib.org/</dc:title>
     </cc:Agent>
    </dc:creator>
   </cc:Work>
  </rdf:RDF>
 </metadata>
 <defs>
  <style type="text/css">*{stroke-linejoin: round; stroke-linecap: butt}</style>
 </defs>
 <g id="figure_1">
  <g id="patch_1">
   <path d="M 0 432 
L 720 432 
L 720 0 
L 0 0 
z
" style="fill: #ffffff"/>
  </g>
  <g id="axes_1">
   <g id="patch_2">
    <path d="M 90 384.48 
L 648 384.48 
L 648 51.84 
L 90 51.84 
z
" style="fill: #ffffff"/>
   </g>
   <g id="matplotlib.axis_1">
    <g id="xtick_1">
     <g id="line2d_1">
      <path d="M 106.765794 384.48 
L 106.765794 51.84 
" clip-path="url(#pb8924bfe3a)" style="fill: none; stroke: #b0b0b0; stroke-opacity: 0.3; stroke-width: 0.8; stroke-linecap: square"/>
     </g>
     <g id="line2d_2">
      <defs>
       <path id="m4d9b997ef5" d="M 0 0 
L 0 3.5 
" style="stroke: #000000; stroke-width: 0.8"/>
      </defs>
      <g>
       <use xlink:href="#m4d9b997ef5" x="106.765794" y="384.48" style="stroke: #000000; stroke-width: 0.8"/>
      </g>
     </g>
     <g id="text_1">
      <!-- 0 -->
      <g transform="translate(103.584544 399.078438) scale(0.1 -0.1)">
       <defs>
        <path id="DejaVuSans-30" d="M 2034 4250 
Q 1547 4250 1301 3770 
Q 1056 3291 1056 2328 
Q 1056 1369 1301 889 
Q 1547 409 2034 409 
Q 2525 409 2770 889 
Q 3016 1369 3016 2328 
Q 3016 3291 2770 3770 
Q 2525 4250 2034 4250 
z
M 2034 4750 
Q 2819 4750 3233 4129 
Q 3647 3509 3647 2328 
Q 3647 1150 3233 529 
Q 2819 -91 2034 -91 
Q 1250 -91 836 529 
Q 422 1150 422 2328 
Q 422 3509 836 4129 
Q 1250 4750 2034 4750 
z
" transform="scale(0.015625)"/>
       </defs>
       <use xlink:href="#DejaVuSans-30"/>
      </g>
     </g>
    </g>
    <g id="xtick_2">
     <g id="line2d_3">
      <path d="M 192.744222 384.48 
L 192.744222 51.84 
" clip-path="url(#pb8924bfe3a)" style="fill: none; stroke: #b0b0b0; stroke-opacity: 0.3; stroke-width: 0.8; stroke-linecap: square"/>
     </g>
     <g id="line2d_4">
      <g>
       <use xlink:href="#m4d9b997ef5" x="192.744222" y="384.48" style="stroke: #000000; stroke-width: 0.8"/>
      </g>
     </g>
     <g id="text_2">
      <!-- 10 -->
      <g transform="translate(186.381722 399.078438) scale(0.1 -0.1)">
       <defs>
        <path id="DejaVuSans-31" d="M 794 531 
L 1825 531 
L 1825 4091 
L 703 3866 
L 703 4441 
L 1819 4666 
L 2450 4666 
L 2450 531 
L 3481 531 
L 3481 0 
L 794 0 
L 794 531 
z
" transform="scale(0.015625)"/>
       </defs>
       <use xlink:href="#DejaVuSans-31"/>
       <use xlink:href="#DejaVuSans-30" transform="translate(63.623047 0)"/>
      </g>
     </g>
    </g>
    <g id="xtick_3">
     <g id="line2d_5">
      <path d="M 278.72265 384.48 
L 278.72265 51.84 
" clip-path="url(#pb8924bfe3a)" style="fill: none; stroke: #b0b0b0; stroke-opacity: 0.3; stroke-width: 0.8; stroke-linecap: square"/>
     </g>
     <g id="line2d_6">
      <g>
       <use xlink:href="#m4d9b997ef5" x="278.72265" y="384.48" style="stroke: #000000; stroke-width: 0.8"/>
      </g>
     </g>
     <g id="text_3">
      <!-- 20 -->
      <g transform="translate(272.36015 399.078438) scale(0.1 -0.1)">
       <defs>
        <path id="DejaVuSans-32" d="M 1228 531 
L 3431 531 
L 3431 0 
L 469 0 
L 469 531 
Q 828 903 1448 1529 
Q 2069 2156 2228 2338 
Q 2531 2678 2651 2914 
Q 2772 3150 2772 3378 
Q 2772 3750 2511 3984 
Q 2250 4219 1831 4219 
Q 1534 4219 1204 4116 
Q 875 4013 500 3803 
L 500 4441 
Q 881 4594 1212 4672 
Q 1544 4750 1819 4750 
Q 2544 4750 2975 4387 
Q 3406 4025 3406 3419 
Q 3406 3131 3298 2873 
Q 3191 2616 2906 2266 
Q 2828 2175 2409 1742 
Q 1991 1309 1228 531 
z
" transform="scale(0.015625)"/>
       </defs>
       <use xlink:href="#DejaVuSans-32"/>
       <use xlink:href="#DejaVuSans-30" transform="translate(63.623047 0)"/>
      </g>
     </g>
    </g>
    <g id="xtick_4">
     <g id="line2d_7">
      <path d="M 364.701079 384.48 
L 364.701079 51.84 
" clip-path="url(#pb8924bfe3a)" style="fill: none; stroke: #b0b0b0; stroke-opacity: 0.3; stroke-width: 0.8; stroke-linecap: square"/>
     </g>
     <g id="line2d_8">
      <g>
       <use xlink:href="#m4d9b997ef5" x="364.701079" y="384.48" style="stroke: #000000; stroke-width: 0.8"/>
      </g>
     </g>
     <g id="text_4">
      <!-- 30 -->
      <g transform="translate(358.338579 399.078438) scale(0.1 -0.1)">
       <defs>
        <path id="DejaVuSans-33" d="M 2597 2516 
Q 3050 2419 3304 2112 
Q 3559 1806 3559 1356 
Q 3559 666 3084 287 
Q 2609 -91 1734 -91 
Q 1441 -91 1130 -33 
Q 819 25 488 141 
L 488 750 
Q 750 597 1062 519 
Q 1375 441 1716 441 
Q 2309 441 2620 675 
Q 2931 909 2931 1356 
Q 2931 1769 2642 2001 
Q 2353 2234 1838 2234 
L 1294 2234 
L 1294 2753 
L 1863 2753 
Q 2328 2753 2575 2939 
Q 2822 3125 2822 3475 
Q 2822 3834 2567 4026 
Q 2313 4219 1838 4219 
Q 1578 4219 1281 4162 
Q 984 4106 628 3988 
L 628 4550 
Q 988 4650 1302 4700 
Q 1616 4750 1894 4750 
Q 2613 4750 3031 4423 
Q 3450 4097 3450 3541 
Q 3450 3153 3228 2886 
Q 3006 2619 2597 2516 
z
" transform="scale(0.015625)"/>
       </defs>
       <use xlink:href="#DejaVuSans-33"/>
       <use xlink:href="#DejaVuSans-30" transform="translate(63.623047 0)"/>
      </g>
     </g>
    </g>
    <g id="xtick_5">
     <g id="line2d_9">
      <path d="M 450.679507 384.48 
L 450.679507 51.84 
" clip-path="url(#pb8924bfe3a)" style="fill: none; stroke: #b0b0b0; stroke-opacity: 0.3; stroke-width: 0.8; stroke-linecap: square"/>
     </g>
     <g id="line2d_10">
      <g>
       <use xlink:href="#m4d9b997ef5" x="450.679507" y="384.48" style="stroke: #000000; stroke-width: 0.8"/>
      </g>
     </g>
     <g id="text_5">
      <!-- 40 -->
      <g transform="translate(444.317007 399.078438) scale(0.1 -0.1)">
       <defs>
        <path id="DejaVuSans-34" d="M 2419 4116 
L 825 1625 
L 2419 1625 
L 2419 4116 
z
M 2253 4666 
L 3047 4666 
L 3047 1625 
L 3713 1625 
L 3713 1100 
L 3047 1100 
L 3047 0 
L 2419 0 
L 2419 1100 
L 313 1100 
L 313 1709 
L 2253 4666 
z
" transform="scale(0.015625)"/>
       </defs>
       <use xlink:href="#DejaVuSans-34"/>
       <use xlink:href="#DejaVuSans-30" transform="translate(63.623047 0)"/>
      </g>
     </g>
    </g>
    <g id="xtick_6">
     <g id="line2d_11">
      <path d="M 536.657935 384.48 
L 536.657935 51.84 
" clip-path="url(#pb8924bfe3a)" style="fill: none; stroke: #b0b0b0; stroke-opacity: 0.3; stroke-width: 0.8; stroke-linecap: square"/>
     </g>
     <g id="line2d_12">
      <g>
       <use xlink:href="#m4d9b997ef5" x="536.657935" y="384.48" style="stroke: #000000; stroke-width: 0.8"/>
      </g>
     </g>
     <g id="text_6">
      <!-- 50 -->
      <g transform="translate(530.295435 399.078438) scale(0.1 -0.1)">
       <defs>
        <path id="DejaVuSans-35" d="M 691 4666 
L 3169 4666 
L 3169 4134 
L 1269 4134 
L 1269 2991 
Q 1406 3038 1543 3061 
Q 1681 3084 1819 3084 
Q 2600 3084 3056 2656 
Q 3513 2228 3513 1497 
Q 3513 744 3044 326 
Q 2575 -91 1722 -91 
Q 1428 -91 1123 -41 
Q 819 9 494 109 
L 494 744 
Q 775 591 1075 516 
Q 1375 441 1709 441 
Q 2250 441 2565 725 
Q 2881 1009 2881 1497 
Q 2881 1984 2565 2268 
Q 2250 2553 1709 2553 
Q 1456 2553 1204 2497 
Q 953 2441 691 2322 
L 691 4666 
z
" transform="scale(0.015625)"/>
       </defs>
       <use xlink:href="#DejaVuSans-35"/>
       <use xlink:href="#DejaVuSans-30" transform="translate(63.623047 0)"/>
      </g>
     </g>
    </g>
    <g id="xtick_7">
     <g id="line2d_13">
      <path d="M 622.636364 384.48 
L 622.636364 51.84 
" clip-path="url(#pb8924bfe3a)" style="fill: none; stroke: #b0b0b0; stroke-opacity: 0.3; stroke-width: 0.8; stroke-linecap: square"/>
     </g>
     <g id="line2d_14">
      <g>
       <use xlink:href="#m4d9b997ef5" x="622.636364" y="384.48" style="stroke: #000000; stroke-width: 0.8"/>
      </g>
     </g>
     <g id="text_7">
      <!-- 60 -->
      <g transform="translate(616.273864 399.078438) scale(0.1 -0.1)">
       <defs>
        <path id="DejaVuSans-36" d="M 2113 2584 
Q 1688 2584 1439 2293 
Q 1191 2003 1191 1497 
Q 1191 994 1439 701 
Q 1688 409 2113 409 
Q 2538 409 2786 701 
Q 3034 994 3034 1497 
Q 3034 2003 2786 2293 
Q 2538 2584 2113 2584 
z
M 3366 4563 
L 3366 3988 
Q 3128 4100 2886 4159 
Q 2644 4219 2406 4219 
Q 1781 4219 1451 3797 
Q 1122 3375 1075 2522 
Q 1259 2794 1537 2939 
Q 1816 3084 2150 3084 
Q 2853 3084 3261 2657 
Q 3669 2231 3669 1497 
Q 3669 778 3244 343 
Q 2819 -91 2113 -91 
Q 1303 -91 875 529 
Q 447 1150 447 2328 
Q 447 3434 972 4092 
Q 1497 4750 2381 4750 
Q 2619 4750 2861 4703 
Q 3103 4656 3366 4563 
z
" transform="scale(0.015625)"/>
       </defs>
       <use xlink:href="#DejaVuSans-36"/>
       <use xlink:href="#DejaVuSans-30" transform="translate(63.623047 0)"/>
      </g>
     </g>
    </g>
    <g id="text_8">
     <!-- Holding Period (Days) -->
     <g transform="translate(314.739062 412.756563) scale(0.1 -0.1)">
      <defs>
       <path id="DejaVuSans-48" d="M 628 4666 
L 1259 4666 
L 1259 2753 
L 3553 2753 
L 3553 4666 
L 4184 4666 
L 4184 0 
L 3553 0 
L 3553 2222 
L 1259 2222 
L 1259 0 
L 628 0 
L 628 4666 
z
" transform="scale(0.015625)"/>
       <path id="DejaVuSans-6f" d="M 1959 3097 
Q 1497 3097 1228 2736 
Q 959 2375 959 1747 
Q 959 1119 1226 758 
Q 1494 397 1959 397 
Q 2419 397 2687 759 
Q 2956 1122 2956 1747 
Q 2956 2369 2687 2733 
Q 2419 3097 1959 3097 
z
M 1959 3584 
Q 2709 3584 3137 3096 
Q 3566 2609 3566 1747 
Q 3566 888 3137 398 
Q 2709 -91 1959 -91 
Q 1206 -91 779 398 
Q 353 888 353 1747 
Q 353 2609 779 3096 
Q 1206 3584 1959 3584 
z
" transform="scale(0.015625)"/>
       <path id="DejaVuSans-6c" d="M 603 4863 
L 1178 4863 
L 1178 0 
L 603 0 
L 603 4863 
z
" transform="scale(0.015625)"/>
       <path id="DejaVuSans-64" d="M 2906 2969 
L 2906 4863 
L 3481 4863 
L 3481 0 
L 2906 0 
L 2906 525 
Q 2725 213 2448 61 
Q 2172 -91 1784 -91 
Q 1150 -91 751 415 
Q 353 922 353 1747 
Q 353 2572 751 3078 
Q 1150 3584 1784 3584 
Q 2172 3584 2448 3432 
Q 2725 3281 2906 2969 
z
M 947 1747 
Q 947 1113 1208 752 
Q 1469 391 1925 391 
Q 2381 391 2643 752 
Q 2906 1113 2906 1747 
Q 2906 2381 2643 2742 
Q 2381 3103 1925 3103 
Q 1469 3103 1208 2742 
Q 947 2381 947 1747 
z
" transform="scale(0.015625)"/>
       <path id="DejaVuSans-69" d="M 603 3500 
L 1178 3500 
L 1178 0 
L 603 0 
L 603 3500 
z
M 603 4863 
L 1178 4863 
L 1178 4134 
L 603 4134 
L 603 4863 
z
" transform="scale(0.015625)"/>
       <path id="DejaVuSans-6e" d="M 3513 2113 
L 3513 0 
L 2938 0 
L 2938 2094 
Q 2938 2591 2744 2837 
Q 2550 3084 2163 3084 
Q 1697 3084 1428 2787 
Q 1159 2491 1159 1978 
L 1159 0 
L 581 0 
L 581 3500 
L 1159 3500 
L 1159 2956 
Q 1366 3272 1645 3428 
Q 1925 3584 2291 3584 
Q 2894 3584 3203 3211 
Q 3513 2838 3513 2113 
z
" transform="scale(0.015625)"/>
       <path id="DejaVuSans-67" d="M 2906 1791 
Q 2906 2416 2648 2759 
Q 2391 3103 1925 3103 
Q 1463 3103 1205 2759 
Q 947 2416 947 1791 
Q 947 1169 1205 825 
Q 1463 481 1925 481 
Q 2391 481 2648 825 
Q 2906 1169 2906 1791 
z
M 3481 434 
Q 3481 -459 3084 -895 
Q 2688 -1331 1869 -1331 
Q 1566 -1331 1297 -1286 
Q 1028 -1241 775 -1147 
L 775 -588 
Q 1028 -725 1275 -790 
Q 1522 -856 1778 -856 
Q 2344 -856 2625 -561 
Q 2906 -266 2906 331 
L 2906 616 
Q 2728 306 2450 153 
Q 2172 0 1784 0 
Q 1141 0 747 490 
Q 353 981 353 1791 
Q 353 2603 747 3093 
Q 1141 3584 1784 3584 
Q 2172 3584 2450 3431 
Q 2728 3278 2906 2969 
L 2906 3500 
L 3481 3500 
L 3481 434 
z
" transform="scale(0.015625)"/>
       <path id="DejaVuSans-20" transform="scale(0.015625)"/>
       <path id="DejaVuSans-50" d="M 1259 4147 
L 1259 2394 
L 2053 2394 
Q 2494 2394 2734 2622 
Q 2975 2850 2975 3272 
Q 2975 3691 2734 3919 
Q 2494 4147 2053 4147 
L 1259 4147 
z
M 628 4666 
L 2053 4666 
Q 2838 4666 3239 4311 
Q 3641 3956 3641 3272 
Q 3641 2581 3239 2228 
Q 2838 1875 2053 1875 
L 1259 1875 
L 1259 0 
L 628 0 
L 628 4666 
z
" transform="scale(0.015625)"/>
       <path id="DejaVuSans-65" d="M 3597 1894 
L 3597 1613 
L 953 1613 
Q 991 1019 1311 708 
Q 1631 397 2203 397 
Q 2534 397 2845 478 
Q 3156 559 3463 722 
L 3463 178 
Q 3153 47 2828 -22 
Q 2503 -91 2169 -91 
Q 1331 -91 842 396 
Q 353 884 353 1716 
Q 353 2575 817 3079 
Q 1281 3584 2069 3584 
Q 2775 3584 3186 3129 
Q 3597 2675 3597 1894 
z
M 3022 2063 
Q 3016 2534 2758 2815 
Q 2500 3097 2075 3097 
Q 1594 3097 1305 2825 
Q 1016 2553 972 2059 
L 3022 2063 
z
" transform="scale(0.015625)"/>
       <path id="DejaVuSans-72" d="M 2631 2963 
Q 2534 3019 2420 3045 
Q 2306 3072 2169 3072 
Q 1681 3072 1420 2755 
Q 1159 2438 1159 1844 
L 1159 0 
L 581 0 
L 581 3500 
L 1159 3500 
L 1159 2956 
Q 1341 3275 1631 3429 
Q 1922 3584 2338 3584 
Q 2397 3584 2469 3576 
Q 2541 3569 2628 3553 
L 2631 2963 
z
" transform="scale(0.015625)"/>
       <path id="DejaVuSans-28" d="M 1984 4856 
Q 1566 4138 1362 3434 
Q 1159 2731 1159 2009 
Q 1159 1288 1364 580 
Q 1569 -128 1984 -844 
L 1484 -844 
Q 1016 -109 783 600 
Q 550 1309 550 2009 
Q 550 2706 781 3412 
Q 1013 4119 1484 4856 
L 1984 4856 
z
" transform="scale(0.015625)"/>
       <path id="DejaVuSans-44" d="M 1259 4147 
L 1259 519 
L 2022 519 
Q 2988 519 3436 956 
Q 3884 1394 3884 2338 
Q 3884 3275 3436 3711 
Q 2988 4147 2022 4147 
L 1259 4147 
z
M 628 4666 
L 1925 4666 
Q 3281 4666 3915 4102 
Q 4550 3538 4550 2338 
Q 4550 1131 3912 565 
Q 3275 0 1925 0 
L 628 0 
L 628 4666 
z
" transform="scale(0.015625)"/>
       <path id="DejaVuSans-61" d="M 2194 1759 
Q 1497 1759 1228 1600 
Q 959 1441 959 1056 
Q 959 750 1161 570 
Q 1363 391 1709 391 
Q 2188 391 2477 730 
Q 2766 1069 2766 1631 
L 2766 1759 
L 2194 1759 
z
M 3341 1997 
L 3341 0 
L 2766 0 
L 2766 531 
Q 2569 213 2275 61 
Q 1981 -91 1556 -91 
Q 1019 -91 701 211 
Q 384 513 384 1019 
Q 384 1609 779 1909 
Q 1175 2209 1959 2209 
L 2766 2209 
L 2766 2266 
Q 2766 2663 2505 2880 
Q 2244 3097 1772 3097 
Q 1472 3097 1187 3025 
Q 903 2953 641 2809 
L 641 3341 
Q 956 3463 1253 3523 
Q 1550 3584 1831 3584 
Q 2591 3584 2966 3190 
Q 3341 2797 3341 1997 
z
" transform="scale(0.015625)"/>
       <path id="DejaVuSans-79" d="M 2059 -325 
Q 1816 -950 1584 -1140 
Q 1353 -1331 966 -1331 
L 506 -1331 
L 506 -850 
L 844 -850 
Q 1081 -850 1212 -737 
Q 1344 -625 1503 -206 
L 1606 56 
L 191 3500 
L 800 3500 
L 1894 763 
L 2988 3500 
L 3597 3500 
L 2059 -325 
z
" transform="scale(0.015625)"/>
       <path id="DejaVuSans-73" d="M 2834 3397 
L 2834 2853 
Q 2591 2978 2328 3040 
Q 2066 3103 1784 3103 
Q 1356 3103 1142 2972 
Q 928 2841 928 2578 
Q 928 2378 1081 2264 
Q 1234 2150 1697 2047 
L 1894 2003 
Q 2506 1872 2764 1633 
Q 3022 1394 3022 966 
Q 3022 478 2636 193 
Q 2250 -91 1575 -91 
Q 1294 -91 989 -36 
Q 684 19 347 128 
L 347 722 
Q 666 556 975 473 
Q 1284 391 1588 391 
Q 1994 391 2212 530 
Q 2431 669 2431 922 
Q 2431 1156 2273 1281 
Q 2116 1406 1581 1522 
L 1381 1569 
Q 847 1681 609 1914 
Q 372 2147 372 2553 
Q 372 3047 722 3315 
Q 1072 3584 1716 3584 
Q 2034 3584 2315 3537 
Q 2597 3491 2834 3397 
z
" transform="scale(0.015625)"/>
       <path id="DejaVuSans-29" d="M 513 4856 
L 1013 4856 
Q 1481 4119 1714 3412 
Q 1947 2706 1947 2009 
Q 1947 1309 1714 600 
Q 1481 -109 1013 -844 
L 513 -844 
Q 928 -128 1133 580 
Q 1338 1288 1338 2009 
Q 1338 2731 1133 3434 
Q 928 4138 513 4856 
z
" transform="scale(0.015625)"/>
      </defs>
      <use xlink:href="#DejaVuSans-48"/>
      <use xlink:href="#DejaVuSans-6f" transform="translate(75.195312 0)"/>
      <use xlink:href="#DejaVuSans-6c" transform="translate(136.376953 0)"/>
      <use xlink:href="#DejaVuSans-64" transform="translate(164.160156 0)"/>
      <use xlink:href="#DejaVuSans-69" transform="translate(227.636719 0)"/>
      <use xlink:href="#DejaVuSans-6e" transform="translate(255.419922 0)"/>
      <use xlink:href="#DejaVuSans-67" transform="translate(318.798828 0)"/>
      <use xlink:href="#DejaVuSans-20" transform="translate(382.275391 0)"/>
      <use xlink:href="#DejaVuSans-50" transform="translate(414.0625 0)"/>
      <use xlink:href="#DejaVuSans-65" transform="translate(470.740234 0)"/>
      <use xlink:href="#DejaVuSans-72" transform="translate(532.263672 0)"/>
      <use xlink:href="#DejaVuSans-69" transform="translate(573.376953 0)"/>
      <use xlink:href="#DejaVuSans-6f" transform="translate(601.160156 0)"/>
      <use xlink:href="#DejaVuSans-64" transform="translate(662.341797 0)"/>
      <use xlink:href="#DejaVuSans-20" transform="translate(725.818359 0)"/>
      <use xlink:href="#DejaVuSans-28" transform="translate(757.605469 0)"/>
      <use xlink:href="#DejaVuSans-44" transform="translate(796.619141 0)"/>
      <use xlink:href="#DejaVuSans-61" transform="translate(873.621094 0)"/>
      <use xlink:href="#DejaVuSans-79" transform="translate(934.900391 0)"/>
      <use xlink:href="#DejaVuSans-73" transform="translate(994.080078 0)"/>
      <use xlink:href="#DejaVuSans-29" transform="translate(1046.179688 0)"/>
     </g>
    </g>
   </g>
   <g id="matplotlib.axis_2">
    <g id="ytick_1">
     <g id="line2d_15">
      <path d="M 90 351.409297 
L 648 351.409297 
" clip-path="url(#pb8924bfe3a)" style="fill: none; stroke: #b0b0b0; stroke-opacity: 0.3; stroke-width: 0.8; stroke-linecap: square"/>
     </g>
     <g id="line2d_16">
      <defs>
       <path id="mcdddb816cd" d="M 0 0 
L -3.5 0 
" style="stroke: #000000; stroke-width: 0.8"/>
      </defs>
      <g>
       <use xlink:href="#mcdddb816cd" x="90" y="351.409297" style="stroke: #000000; stroke-width: 0.8"/>
      </g>
     </g>
     <g id="text_9">
      <!-- 70 -->
      <g style="fill: #0000ff" transform="translate(70.275 355.208515) scale(0.1 -0.1)">
       <defs>
        <path id="DejaVuSans-37" d="M 525 4666 
L 3525 4666 
L 3525 4397 
L 1831 0 
L 1172 0 
L 2766 4134 
L 525 4134 
L 525 4666 
z
" transform="scale(0.015625)"/>
       </defs>
       <use xlink:href="#DejaVuSans-37"/>
       <use xlink:href="#DejaVuSans-30" transform="translate(63.623047 0)"/>
      </g>
     </g>
    </g>
    <g id="ytick_2">
     <g id="line2d_17">
      <path d="M 90 302.870191 
L 648 302.870191 
" clip-path="url(#pb8924bfe3a)" style="fill: none; stroke: #b0b0b0; stroke-opacity: 0.3; stroke-width: 0.8; stroke-linecap: square"/>
     </g>
     <g id="line2d_18">
      <g>
       <use xlink:href="#mcdddb816cd" x="90" y="302.870191" style="stroke: #000000; stroke-width: 0.8"/>
      </g>
     </g>
     <g id="text_10">
      <!-- 80 -->
      <g style="fill: #0000ff" transform="translate(70.275 306.66941) scale(0.1 -0.1)">
       <defs>
        <path id="DejaVuSans-38" d="M 2034 2216 
Q 1584 2216 1326 1975 
Q 1069 1734 1069 1313 
Q 1069 891 1326 650 
Q 1584 409 2034 409 
Q 2484 409 2743 651 
Q 3003 894 3003 1313 
Q 3003 1734 2745 1975 
Q 2488 2216 2034 2216 
z
M 1403 2484 
Q 997 2584 770 2862 
Q 544 3141 544 3541 
Q 544 4100 942 4425 
Q 1341 4750 2034 4750 
Q 2731 4750 3128 4425 
Q 3525 4100 3525 3541 
Q 3525 3141 3298 2862 
Q 3072 2584 2669 2484 
Q 3125 2378 3379 2068 
Q 3634 1759 3634 1313 
Q 3634 634 3220 271 
Q 2806 -91 2034 -91 
Q 1263 -91 848 271 
Q 434 634 434 1313 
Q 434 1759 690 2068 
Q 947 2378 1403 2484 
z
M 1172 3481 
Q 1172 3119 1398 2916 
Q 1625 2713 2034 2713 
Q 2441 2713 2670 2916 
Q 2900 3119 2900 3481 
Q 2900 3844 2670 4047 
Q 2441 4250 2034 4250 
Q 1625 4250 1398 4047 
Q 1172 3844 1172 3481 
z
" transform="scale(0.015625)"/>
       </defs>
       <use xlink:href="#DejaVuSans-38"/>
       <use xlink:href="#DejaVuSans-30" transform="translate(63.623047 0)"/>
      </g>
     </g>
    </g>
    <g id="ytick_3">
     <g id="line2d_19">
      <path d="M 90 254.331085 
L 648 254.331085 
" clip-path="url(#pb8924bfe3a)" style="fill: none; stroke: #b0b0b0; stroke-opacity: 0.3; stroke-width: 0.8; stroke-linecap: square"/>
     </g>
     <g id="line2d_20">
      <g>
       <use xlink:href="#mcdddb816cd" x="90" y="254.331085" style="stroke: #000000; stroke-width: 0.8"/>
      </g>
     </g>
     <g id="text_11">
      <!-- 90 -->
      <g style="fill: #0000ff" transform="translate(70.275 258.130304) scale(0.1 -0.1)">
       <defs>
        <path id="DejaVuSans-39" d="M 703 97 
L 703 672 
Q 941 559 1184 500 
Q 1428 441 1663 441 
Q 2288 441 2617 861 
Q 2947 1281 2994 2138 
Q 2813 1869 2534 1725 
Q 2256 1581 1919 1581 
Q 1219 1581 811 2004 
Q 403 2428 403 3163 
Q 403 3881 828 4315 
Q 1253 4750 1959 4750 
Q 2769 4750 3195 4129 
Q 3622 3509 3622 2328 
Q 3622 1225 3098 567 
Q 2575 -91 1691 -91 
Q 1453 -91 1209 -44 
Q 966 3 703 97 
z
M 1959 2075 
Q 2384 2075 2632 2365 
Q 2881 2656 2881 3163 
Q 2881 3666 2632 3958 
Q 2384 4250 1959 4250 
Q 1534 4250 1286 3958 
Q 1038 3666 1038 3163 
Q 1038 2656 1286 2365 
Q 1534 2075 1959 2075 
z
" transform="scale(0.015625)"/>
       </defs>
       <use xlink:href="#DejaVuSans-39"/>
       <use xlink:href="#DejaVuSans-30" transform="translate(63.623047 0)"/>
      </g>
     </g>
    </g>
    <g id="ytick_4">
     <g id="line2d_21">
      <path d="M 90 205.791979 
L 648 205.791979 
" clip-path="url(#pb8924bfe3a)" style="fill: none; stroke: #b0b0b0; stroke-opacity: 0.3; stroke-width: 0.8; stroke-linecap: square"/>
     </g>
     <g id="line2d_22">
      <g>
       <use xlink:href="#mcdddb816cd" x="90" y="205.791979" style="stroke: #000000; stroke-width: 0.8"/>
      </g>
     </g>
     <g id="text_12">
      <!-- 100 -->
      <g style="fill: #0000ff" transform="translate(63.9125 209.591198) scale(0.1 -0.1)">
       <use xlink:href="#DejaVuSans-31"/>
       <use xlink:href="#DejaVuSans-30" transform="translate(63.623047 0)"/>
       <use xlink:href="#DejaVuSans-30" transform="translate(127.246094 0)"/>
      </g>
     </g>
    </g>
    <g id="ytick_5">
     <g id="line2d_23">
      <path d="M 90 157.252874 
L 648 157.252874 
" clip-path="url(#pb8924bfe3a)" style="fill: none; stroke: #b0b0b0; stroke-opacity: 0.3; stroke-width: 0.8; stroke-linecap: square"/>
     </g>
     <g id="line2d_24">
      <g>
       <use xlink:href="#mcdddb816cd" x="90" y="157.252874" style="stroke: #000000; stroke-width: 0.8"/>
      </g>
     </g>
     <g id="text_13">
      <!-- 110 -->
      <g style="fill: #0000ff" transform="translate(63.9125 161.052092) scale(0.1 -0.1)">
       <use xlink:href="#DejaVuSans-31"/>
       <use xlink:href="#DejaVuSans-31" transform="translate(63.623047 0)"/>
       <use xlink:href="#DejaVuSans-30" transform="translate(127.246094 0)"/>
      </g>
     </g>
    </g>
    <g id="ytick_6">
     <g id="line2d_25">
      <path d="M 90 108.713768 
L 648 108.713768 
" clip-path="url(#pb8924bfe3a)" style="fill: none; stroke: #b0b0b0; stroke-opacity: 0.3; stroke-width: 0.8; stroke-linecap: square"/>
     </g>
     <g id="line2d_26">
      <g>
       <use xlink:href="#mcdddb816cd" x="90" y="108.713768" style="stroke: #000000; stroke-width: 0.8"/>
      </g>
     </g>
     <g id="text_14">
      <!-- 120 -->
      <g style="fill: #0000ff" transform="translate(63.9125 112.512987) scale(0.1 -0.1)">
       <use xlink:href="#DejaVuSans-31"/>
       <use xlink:href="#DejaVuSans-32" transform="translate(63.623047 0)"/>
       <use xlink:href="#DejaVuSans-30" transform="translate(127.246094 0)"/>
      </g>
     </g>
    </g>
    <g id="ytick_7">
     <g id="line2d_27">
      <path d="M 90 60.174662 
L 648 60.174662 
" clip-path="url(#pb8924bfe3a)" style="fill: none; stroke: #b0b0b0; stroke-opacity: 0.3; stroke-width: 0.8; stroke-linecap: square"/>
     </g>
     <g id="line2d_28">
      <g>
       <use xlink:href="#mcdddb816cd" x="90" y="60.174662" style="stroke: #000000; stroke-width: 0.8"/>
      </g>
     </g>
     <g id="text_15">
      <!-- 130 -->
      <g style="fill: #0000ff" transform="translate(63.9125 63.973881) scale(0.1 -0.1)">
       <use xlink:href="#DejaVuSans-31"/>
       <use xlink:href="#DejaVuSans-33" transform="translate(63.623047 0)"/>
       <use xlink:href="#DejaVuSans-30" transform="translate(127.246094 0)"/>
      </g>
     </g>
    </g>
    <g id="text_16">
     <!-- Total Return (%) -->
     <g style="fill: #0000ff" transform="translate(57.832812 258.258437) rotate(-90) scale(0.1 -0.1)">
      <defs>
       <path id="DejaVuSans-54" d="M -19 4666 
L 3928 4666 
L 3928 4134 
L 2272 4134 
L 2272 0 
L 1638 0 
L 1638 4134 
L -19 4134 
L -19 4666 
z
" transform="scale(0.015625)"/>
       <path id="DejaVuSans-74" d="M 1172 4494 
L 1172 3500 
L 2356 3500 
L 2356 3053 
L 1172 3053 
L 1172 1153 
Q 1172 725 1289 603 
Q 1406 481 1766 481 
L 2356 481 
L 2356 0 
L 1766 0 
Q 1100 0 847 248 
Q 594 497 594 1153 
L 594 3053 
L 172 3053 
L 172 3500 
L 594 3500 
L 594 4494 
L 1172 4494 
z
" transform="scale(0.015625)"/>
       <path id="DejaVuSans-52" d="M 2841 2188 
Q 3044 2119 3236 1894 
Q 3428 1669 3622 1275 
L 4263 0 
L 3584 0 
L 2988 1197 
Q 2756 1666 2539 1819 
Q 2322 1972 1947 1972 
L 1259 1972 
L 1259 0 
L 628 0 
L 628 4666 
L 2053 4666 
Q 2853 4666 3247 4331 
Q 3641 3997 3641 3322 
Q 3641 2881 3436 2590 
Q 3231 2300 2841 2188 
z
M 1259 4147 
L 1259 2491 
L 2053 2491 
Q 2509 2491 2742 2702 
Q 2975 2913 2975 3322 
Q 2975 3731 2742 3939 
Q 2509 4147 2053 4147 
L 1259 4147 
z
" transform="scale(0.015625)"/>
       <path id="DejaVuSans-75" d="M 544 1381 
L 544 3500 
L 1119 3500 
L 1119 1403 
Q 1119 906 1312 657 
Q 1506 409 1894 409 
Q 2359 409 2629 706 
Q 2900 1003 2900 1516 
L 2900 3500 
L 3475 3500 
L 3475 0 
L 2900 0 
L 2900 538 
Q 2691 219 2414 64 
Q 2138 -91 1772 -91 
Q 1169 -91 856 284 
Q 544 659 544 1381 
z
M 1991 3584 
L 1991 3584 
z
" transform="scale(0.015625)"/>
       <path id="DejaVuSans-25" d="M 4653 2053 
Q 4381 2053 4226 1822 
Q 4072 1591 4072 1178 
Q 4072 772 4226 539 
Q 4381 306 4653 306 
Q 4919 306 5073 539 
Q 5228 772 5228 1178 
Q 5228 1588 5073 1820 
Q 4919 2053 4653 2053 
z
M 4653 2450 
Q 5147 2450 5437 2106 
Q 5728 1763 5728 1178 
Q 5728 594 5436 251 
Q 5144 -91 4653 -91 
Q 4153 -91 3862 251 
Q 3572 594 3572 1178 
Q 3572 1766 3864 2108 
Q 4156 2450 4653 2450 
z
M 1428 4353 
Q 1159 4353 1004 4120 
Q 850 3888 850 3481 
Q 850 3069 1003 2837 
Q 1156 2606 1428 2606 
Q 1700 2606 1854 2837 
Q 2009 3069 2009 3481 
Q 2009 3884 1853 4118 
Q 1697 4353 1428 4353 
z
M 4250 4750 
L 4750 4750 
L 1831 -91 
L 1331 -91 
L 4250 4750 
z
M 1428 4750 
Q 1922 4750 2215 4408 
Q 2509 4066 2509 3481 
Q 2509 2891 2217 2550 
Q 1925 2209 1428 2209 
Q 931 2209 642 2551 
Q 353 2894 353 3481 
Q 353 4063 643 4406 
Q 934 4750 1428 4750 
z
" transform="scale(0.015625)"/>
      </defs>
      <use xlink:href="#DejaVuSans-54"/>
      <use xlink:href="#DejaVuSans-6f" transform="translate(44.083984 0)"/>
      <use xlink:href="#DejaVuSans-74" transform="translate(105.265625 0)"/>
      <use xlink:href="#DejaVuSans-61" transform="translate(144.474609 0)"/>
      <use xlink:href="#DejaVuSans-6c" transform="translate(205.753906 0)"/>
      <use xlink:href="#DejaVuSans-20" transform="translate(233.537109 0)"/>
      <use xlink:href="#DejaVuSans-52" transform="translate(265.324219 0)"/>
      <use xlink:href="#DejaVuSans-65" transform="translate(330.306641 0)"/>
      <use xlink:href="#DejaVuSans-74" transform="translate(391.830078 0)"/>
      <use xlink:href="#DejaVuSans-75" transform="translate(431.039062 0)"/>
      <use xlink:href="#DejaVuSans-72" transform="translate(494.417969 0)"/>
      <use xlink:href="#DejaVuSans-6e" transform="translate(533.78125 0)"/>
      <use xlink:href="#DejaVuSans-20" transform="translate(597.160156 0)"/>
      <use xlink:href="#DejaVuSans-28" transform="translate(628.947266 0)"/>
      <use xlink:href="#DejaVuSans-25" transform="translate(667.960938 0)"/>
      <use xlink:href="#DejaVuSans-29" transform="translate(762.980469 0)"/>
     </g>
    </g>
   </g>
   <g id="line2d_29">
    <path d="M 115.363636 157.044125 
L 123.961479 186.197881 
L 132.559322 182.924246 
L 141.157165 200.837846 
L 149.755008 286.479198 
L 158.352851 193.056527 
L 166.950693 134.482138 
L 175.548536 138.170026 
L 184.146379 179.219213 
L 192.744222 108.509919 
L 201.342065 239.906871 
L 209.939908 216.713355 
L 218.53775 146.033016 
L 227.135593 175.346953 
L 235.733436 173.248059 
L 244.331279 108.084477 
L 252.929122 212.890142 
L 261.526965 210.584368 
L 270.124807 145.273565 
L 278.72265 66.96 
L 287.320493 132.308559 
L 295.918336 266.373458 
L 304.516179 100.421771 
L 313.114022 208.469368 
L 321.711864 169.207576 
L 330.309707 238.595752 
L 338.90755 209.923841 
L 347.505393 213.717332 
L 356.103236 137.651568 
L 364.701079 173.540853 
L 373.298921 89.790153 
L 381.896764 187.598244 
L 390.494607 283.079255 
L 399.09245 161.582937 
L 407.690293 152.644676 
L 416.288136 264.896184 
L 424.885978 225.428966 
L 433.483821 124.536678 
L 442.081664 155.71641 
L 450.679507 158.232823 
L 459.27735 369.36 
L 467.875193 286.268689 
L 476.473035 181.748686 
L 485.070878 187.184768 
L 493.668721 93.959825 
L 502.266564 119.2592 
L 510.864407 297.495764 
L 519.46225 288.764014 
L 528.060092 312.575642 
L 536.657935 134.636461 
L 545.255778 206.107189 
L 553.853621 199.568143 
L 562.451464 138.051432 
L 571.049307 209.060979 
L 579.647149 291.302461 
L 588.244992 264.03095 
L 596.842835 231.012362 
L 605.440678 245.787925 
L 614.038521 226.471985 
L 622.636364 134.636461 
" clip-path="url(#pb8924bfe3a)" style="fill: none; stroke: #0000ff; stroke-width: 1.5; stroke-linecap: square"/>
    <defs>
     <path id="m0bcde23407" d="M 0 3 
C 0.795609 3 1.55874 2.683901 2.12132 2.12132 
C 2.683901 1.55874 3 0.795609 3 0 
C 3 -0.795609 2.683901 -1.55874 2.12132 -2.12132 
C 1.55874 -2.683901 0.795609 -3 0 -3 
C -0.795609 -3 -1.55874 -2.683901 -2.12132 -2.12132 
C -2.683901 -1.55874 -3 -0.795609 -3 0 
C -3 0.795609 -2.683901 1.55874 -2.12132 2.12132 
C -1.55874 2.683901 -0.795609 3 0 3 
z
" style="stroke: #0000ff"/>
    </defs>
    <g clip-path="url(#pb8924bfe3a)">
     <use xlink:href="#m0bcde23407" x="115.363636" y="157.044125" style="fill: #0000ff; stroke: #0000ff"/>
     <use xlink:href="#m0bcde23407" x="123.961479" y="186.197881" style="fill: #0000ff; stroke: #0000ff"/>
     <use xlink:href="#m0bcde23407" x="132.559322" y="182.924246" style="fill: #0000ff; stroke: #0000ff"/>
     <use xlink:href="#m0bcde23407" x="141.157165" y="200.837846" style="fill: #0000ff; stroke: #0000ff"/>
     <use xlink:href="#m0bcde23407" x="149.755008" y="286.479198" style="fill: #0000ff; stroke: #0000ff"/>
     <use xlink:href="#m0bcde23407" x="158.352851" y="193.056527" style="fill: #0000ff; stroke: #0000ff"/>
     <use xlink:href="#m0bcde23407" x="166.950693" y="134.482138" style="fill: #0000ff; stroke: #0000ff"/>
     <use xlink:href="#m0bcde23407" x="175.548536" y="138.170026" style="fill: #0000ff; stroke: #0000ff"/>
     <use xlink:href="#m0bcde23407" x="184.146379" y="179.219213" style="fill: #0000ff; stroke: #0000ff"/>
     <use xlink:href="#m0bcde23407" x="192.744222" y="108.509919" style="fill: #0000ff; stroke: #0000ff"/>
     <use xlink:href="#m0bcde23407" x="201.342065" y="239.906871" style="fill: #0000ff; stroke: #0000ff"/>
     <use xlink:href="#m0bcde23407" x="209.939908" y="216.713355" style="fill: #0000ff; stroke: #0000ff"/>
     <use xlink:href="#m0bcde23407" x="218.53775" y="146.033016" style="fill: #0000ff; stroke: #0000ff"/>
     <use xlink:href="#m0bcde23407" x="227.135593" y="175.346953" style="fill: #0000ff; stroke: #0000ff"/>
     <use xlink:href="#m0bcde23407" x="235.733436" y="173.248059" style="fill: #0000ff; stroke: #0000ff"/>
     <use xlink:href="#m0bcde23407" x="244.331279" y="108.084477" style="fill: #0000ff; stroke: #0000ff"/>
     <use xlink:href="#m0bcde23407" x="252.929122" y="212.890142" style="fill: #0000ff; stroke: #0000ff"/>
     <use xlink:href="#m0bcde23407" x="261.526965" y="210.584368" style="fill: #0000ff; stroke: #0000ff"/>
     <use xlink:href="#m0bcde23407" x="270.124807" y="145.273565" style="fill: #0000ff; stroke: #0000ff"/>
     <use xlink:href="#m0bcde23407" x="278.72265" y="66.96" style="fill: #0000ff; stroke: #0000ff"/>
     <use xlink:href="#m0bcde23407" x="287.320493" y="132.308559" style="fill: #0000ff; stroke: #0000ff"/>
     <use xlink:href="#m0bcde23407" x="295.918336" y="266.373458" style="fill: #0000ff; stroke: #0000ff"/>
     <use xlink:href="#m0bcde23407" x="304.516179" y="100.421771" style="fill: #0000ff; stroke: #0000ff"/>
     <use xlink:href="#m0bcde23407" x="313.114022" y="208.469368" style="fill: #0000ff; stroke: #0000ff"/>
     <use xlink:href="#m0bcde23407" x="321.711864" y="169.207576" style="fill: #0000ff; stroke: #0000ff"/>
     <use xlink:href="#m0bcde23407" x="330.309707" y="238.595752" style="fill: #0000ff; stroke: #0000ff"/>
     <use xlink:href="#m0bcde23407" x="338.90755" y="209.923841" style="fill: #0000ff; stroke: #0000ff"/>
     <use xlink:href="#m0bcde23407" x="347.505393" y="213.717332" style="fill: #0000ff; stroke: #0000ff"/>
     <use xlink:href="#m0bcde23407" x="356.103236" y="137.651568" style="fill: #0000ff; stroke: #0000ff"/>
     <use xlink:href="#m0bcde23407" x="364.701079" y="173.540853" style="fill: #0000ff; stroke: #0000ff"/>
     <use xlink:href="#m0bcde23407" x="373.298921" y="89.790153" style="fill: #0000ff; stroke: #0000ff"/>
     <use xlink:href="#m0bcde23407" x="381.896764" y="187.598244" style="fill: #0000ff; stroke: #0000ff"/>
     <use xlink:href="#m0bcde23407" x="390.494607" y="283.079255" style="fill: #0000ff; stroke: #0000ff"/>
     <use xlink:href="#m0bcde23407" x="399.09245" y="161.582937" style="fill: #0000ff; stroke: #0000ff"/>
     <use xlink:href="#m0bcde23407" x="407.690293" y="152.644676" style="fill: #0000ff; stroke: #0000ff"/>
     <use xlink:href="#m0bcde23407" x="416.288136" y="264.896184" style="fill: #0000ff; stroke: #0000ff"/>
     <use xlink:href="#m0bcde23407" x="424.885978" y="225.428966" style="fill: #0000ff; stroke: #0000ff"/>
     <use xlink:href="#m0bcde23407" x="433.483821" y="124.536678" style="fill: #0000ff; stroke: #0000ff"/>
     <use xlink:href="#m0bcde23407" x="442.081664" y="155.71641" style="fill: #0000ff; stroke: #0000ff"/>
     <use xlink:href="#m0bcde23407" x="450.679507" y="158.232823" style="fill: #0000ff; stroke: #0000ff"/>
     <use xlink:href="#m0bcde23407" x="459.27735" y="369.36" style="fill: #0000ff; stroke: #0000ff"/>
     <use xlink:href="#m0bcde23407" x="467.875193" y="286.268689" style="fill: #0000ff; stroke: #0000ff"/>
     <use xlink:href="#m0bcde23407" x="476.473035" y="181.748686" style="fill: #0000ff; stroke: #0000ff"/>
     <use xlink:href="#m0bcde23407" x="485.070878" y="187.184768" style="fill: #0000ff; stroke: #0000ff"/>
     <use xlink:href="#m0bcde23407" x="493.668721" y="93.959825" style="fill: #0000ff; stroke: #0000ff"/>
     <use xlink:href="#m0bcde23407" x="502.266564" y="119.2592" style="fill: #0000ff; stroke: #0000ff"/>
     <use xlink:href="#m0bcde23407" x="510.864407" y="297.495764" style="fill: #0000ff; stroke: #0000ff"/>
     <use xlink:href="#m0bcde23407" x="519.46225" y="288.764014" style="fill: #0000ff; stroke: #0000ff"/>
     <use xlink:href="#m0bcde23407" x="528.060092" y="312.575642" style="fill: #0000ff; stroke: #0000ff"/>
     <use xlink:href="#m0bcde23407" x="536.657935" y="134.636461" style="fill: #0000ff; stroke: #0000ff"/>
     <use xlink:href="#m0bcde23407" x="545.255778" y="206.107189" style="fill: #0000ff; stroke: #0000ff"/>
     <use xlink:href="#m0bcde23407" x="553.853621" y="199.568143" style="fill: #0000ff; stroke: #0000ff"/>
     <use xlink:href="#m0bcde23407" x="562.451464" y="138.051432" style="fill: #0000ff; stroke: #0000ff"/>
     <use xlink:href="#m0bcde23407" x="571.049307" y="209.060979" style="fill: #0000ff; stroke: #0000ff"/>
     <use xlink:href="#m0bcde23407" x="579.647149" y="291.302461" style="fill: #0000ff; stroke: #0000ff"/>
     <use xlink:href="#m0bcde23407" x="588.244992" y="264.03095" style="fill: #0000ff; stroke: #0000ff"/>
     <use xlink:href="#m0bcde23407" x="596.842835" y="231.012362" style="fill: #0000ff; stroke: #0000ff"/>
     <use xlink:href="#m0bcde23407" x="605.440678" y="245.787925" style="fill: #0000ff; stroke: #0000ff"/>
     <use xlink:href="#m0bcde23407" x="614.038521" y="226.471985" style="fill: #0000ff; stroke: #0000ff"/>
     <use xlink:href="#m0bcde23407" x="622.636364" y="134.636461" style="fill: #0000ff; stroke: #0000ff"/>
    </g>
   </g>
   <g id="patch_3">
    <path d="M 90 384.48 
L 90 51.84 
" style="fill: none; stroke: #000000; stroke-width: 0.8; stroke-linejoin: miter; stroke-linecap: square"/>
   </g>
   <g id="patch_4">
    <path d="M 648 384.48 
L 648 51.84 
" style="fill: none; stroke: #000000; stroke-width: 0.8; stroke-linejoin: miter; stroke-linecap: square"/>
   </g>
   <g id="patch_5">
    <path d="M 90 384.48 
L 648 384.48 
" style="fill: none; stroke: #000000; stroke-width: 0.8; stroke-linejoin: miter; stroke-linecap: square"/>
   </g>
   <g id="patch_6">
    <path d="M 90 51.84 
L 648 51.84 
" style="fill: none; stroke: #000000; stroke-width: 0.8; stroke-linejoin: miter; stroke-linecap: square"/>
   </g>
  </g>
  <g id="axes_2">
   <g id="matplotlib.axis_3">
    <g id="ytick_8">
     <g id="line2d_30">
      <defs>
       <path id="mbe6389d3e1" d="M 0 0 
L 3.5 0 
" style="stroke: #000000; stroke-width: 0.8"/>
      </defs>
      <g>
       <use xlink:href="#mbe6389d3e1" x="648" y="368.347267" style="stroke: #000000; stroke-width: 0.8"/>
      </g>
     </g>
     <g id="text_17">
      <!-- −26.5 -->
      <g style="fill: #ff0000" transform="translate(655 372.146486) scale(0.1 -0.1)">
       <defs>
        <path id="DejaVuSans-2212" d="M 678 2272 
L 4684 2272 
L 4684 1741 
L 678 1741 
L 678 2272 
z
" transform="scale(0.015625)"/>
        <path id="DejaVuSans-2e" d="M 684 794 
L 1344 794 
L 1344 0 
L 684 0 
L 684 794 
z
" transform="scale(0.015625)"/>
       </defs>
       <use xlink:href="#DejaVuSans-2212"/>
       <use xlink:href="#DejaVuSans-32" transform="translate(83.789062 0)"/>
       <use xlink:href="#DejaVuSans-36" transform="translate(147.412109 0)"/>
       <use xlink:href="#DejaVuSans-2e" transform="translate(211.035156 0)"/>
       <use xlink:href="#DejaVuSans-35" transform="translate(242.822266 0)"/>
      </g>
     </g>
    </g>
    <g id="ytick_9">
     <g id="line2d_31">
      <g>
       <use xlink:href="#mbe6389d3e1" x="648" y="308.456941" style="stroke: #000000; stroke-width: 0.8"/>
      </g>
     </g>
     <g id="text_18">
      <!-- −26.0 -->
      <g style="fill: #ff0000" transform="translate(655 312.25616) scale(0.1 -0.1)">
       <use xlink:href="#DejaVuSans-2212"/>
       <use xlink:href="#DejaVuSans-32" transform="translate(83.789062 0)"/>
       <use xlink:href="#DejaVuSans-36" transform="translate(147.412109 0)"/>
       <use xlink:href="#DejaVuSans-2e" transform="translate(211.035156 0)"/>
       <use xlink:href="#DejaVuSans-30" transform="translate(242.822266 0)"/>
      </g>
     </g>
    </g>
    <g id="ytick_10">
     <g id="line2d_32">
      <g>
       <use xlink:href="#mbe6389d3e1" x="648" y="248.566616" style="stroke: #000000; stroke-width: 0.8"/>
      </g>
     </g>
     <g id="text_19">
      <!-- −25.5 -->
      <g style="fill: #ff0000" transform="translate(655 252.365834) scale(0.1 -0.1)">
       <use xlink:href="#DejaVuSans-2212"/>
       <use xlink:href="#DejaVuSans-32" transform="translate(83.789062 0)"/>
       <use xlink:href="#DejaVuSans-35" transform="translate(147.412109 0)"/>
       <use xlink:href="#DejaVuSans-2e" transform="translate(211.035156 0)"/>
       <use xlink:href="#DejaVuSans-35" transform="translate(242.822266 0)"/>
      </g>
     </g>
    </g>
    <g id="ytick_11">
     <g id="line2d_33">
      <g>
       <use xlink:href="#mbe6389d3e1" x="648" y="188.67629" style="stroke: #000000; stroke-width: 0.8"/>
      </g>
     </g>
     <g id="text_20">
      <!-- −25.0 -->
      <g style="fill: #ff0000" transform="translate(655 192.475509) scale(0.1 -0.1)">
       <use xlink:href="#DejaVuSans-2212"/>
       <use xlink:href="#DejaVuSans-32" transform="translate(83.789062 0)"/>
       <use xlink:href="#DejaVuSans-35" transform="translate(147.412109 0)"/>
       <use xlink:href="#DejaVuSans-2e" transform="translate(211.035156 0)"/>
       <use xlink:href="#DejaVuSans-30" transform="translate(242.822266 0)"/>
      </g>
     </g>
    </g>
    <g id="ytick_12">
     <g id="line2d_34">
      <g>
       <use xlink:href="#mbe6389d3e1" x="648" y="128.785964" style="stroke: #000000; stroke-width: 0.8"/>
      </g>
     </g>
     <g id="text_21">
      <!-- −24.5 -->
      <g style="fill: #ff0000" transform="translate(655 132.585183) scale(0.1 -0.1)">
       <use xlink:href="#DejaVuSans-2212"/>
       <use xlink:href="#DejaVuSans-32" transform="translate(83.789062 0)"/>
       <use xlink:href="#DejaVuSans-34" transform="translate(147.412109 0)"/>
       <use xlink:href="#DejaVuSans-2e" transform="translate(211.035156 0)"/>
       <use xlink:href="#DejaVuSans-35" transform="translate(242.822266 0)"/>
      </g>
     </g>
    </g>
    <g id="ytick_13">
     <g id="line2d_35">
      <g>
       <use xlink:href="#mbe6389d3e1" x="648" y="68.895638" style="stroke: #000000; stroke-width: 0.8"/>
      </g>
     </g>
     <g id="text_22">
      <!-- −24.0 -->
      <g style="fill: #ff0000" transform="translate(655 72.694857) scale(0.1 -0.1)">
       <use xlink:href="#DejaVuSans-2212"/>
       <use xlink:href="#DejaVuSans-32" transform="translate(83.789062 0)"/>
       <use xlink:href="#DejaVuSans-34" transform="translate(147.412109 0)"/>
       <use xlink:href="#DejaVuSans-2e" transform="translate(211.035156 0)"/>
       <use xlink:href="#DejaVuSans-30" transform="translate(242.822266 0)"/>
      </g>
     </g>
    </g>
    <g id="text_23">
     <!-- Max Drawdown (%) -->
     <g style="fill: #ff0000" transform="translate(697.24375 266.877969) rotate(-90) scale(0.1 -0.1)">
      <defs>
       <path id="DejaVuSans-4d" d="M 628 4666 
L 1569 4666 
L 2759 1491 
L 3956 4666 
L 4897 4666 
L 4897 0 
L 4281 0 
L 4281 4097 
L 3078 897 
L 2444 897 
L 1241 4097 
L 1241 0 
L 628 0 
L 628 4666 
z
" transform="scale(0.015625)"/>
       <path id="DejaVuSans-78" d="M 3513 3500 
L 2247 1797 
L 3578 0 
L 2900 0 
L 1881 1375 
L 863 0 
L 184 0 
L 1544 1831 
L 300 3500 
L 978 3500 
L 1906 2253 
L 2834 3500 
L 3513 3500 
z
" transform="scale(0.015625)"/>
       <path id="DejaVuSans-77" d="M 269 3500 
L 844 3500 
L 1563 769 
L 2278 3500 
L 2956 3500 
L 3675 769 
L 4391 3500 
L 4966 3500 
L 4050 0 
L 3372 0 
L 2619 2869 
L 1863 0 
L 1184 0 
L 269 3500 
z
" transform="scale(0.015625)"/>
      </defs>
      <use xlink:href="#DejaVuSans-4d"/>
      <use xlink:href="#DejaVuSans-61" transform="translate(86.279297 0)"/>
      <use xlink:href="#DejaVuSans-78" transform="translate(147.558594 0)"/>
      <use xlink:href="#DejaVuSans-20" transform="translate(206.738281 0)"/>
      <use xlink:href="#DejaVuSans-44" transform="translate(238.525391 0)"/>
      <use xlink:href="#DejaVuSans-72" transform="translate(315.527344 0)"/>
      <use xlink:href="#DejaVuSans-61" transform="translate(356.640625 0)"/>
      <use xlink:href="#DejaVuSans-77" transform="translate(417.919922 0)"/>
      <use xlink:href="#DejaVuSans-64" transform="translate(499.707031 0)"/>
      <use xlink:href="#DejaVuSans-6f" transform="translate(563.183594 0)"/>
      <use xlink:href="#DejaVuSans-77" transform="translate(624.365234 0)"/>
      <use xlink:href="#DejaVuSans-6e" transform="translate(706.152344 0)"/>
      <use xlink:href="#DejaVuSans-20" transform="translate(769.53125 0)"/>
      <use xlink:href="#DejaVuSans-28" transform="translate(801.318359 0)"/>
      <use xlink:href="#DejaVuSans-25" transform="translate(840.332031 0)"/>
      <use xlink:href="#DejaVuSans-29" transform="translate(935.351562 0)"/>
     </g>
    </g>
   </g>
   <g id="line2d_36">
    <path d="M 115.363636 218.16 
L 123.961479 218.16 
L 132.559322 218.16 
L 141.157165 218.16 
L 149.755008 218.16 
L 158.352851 218.16 
L 166.950693 218.16 
L 175.548536 218.16 
L 184.146379 218.16 
L 192.744222 218.16 
L 201.342065 218.16 
L 209.939908 218.16 
L 218.53775 218.16 
L 227.135593 218.16 
L 235.733436 218.16 
L 244.331279 218.16 
L 252.929122 218.16 
L 261.526965 218.16 
L 270.124807 218.16 
L 278.72265 218.16 
L 287.320493 218.16 
L 295.918336 218.16 
L 304.516179 218.16 
L 313.114022 218.16 
L 321.711864 218.16 
L 330.309707 218.16 
L 338.90755 218.16 
L 347.505393 218.16 
L 356.103236 218.16 
L 364.701079 218.16 
L 373.298921 218.16 
L 381.896764 218.16 
L 390.494607 218.16 
L 399.09245 218.16 
L 407.690293 218.16 
L 416.288136 218.16 
L 424.885978 218.16 
L 433.483821 218.16 
L 442.081664 218.16 
L 450.679507 218.16 
L 459.27735 218.16 
L 467.875193 218.16 
L 476.473035 218.16 
L 485.070878 218.16 
L 493.668721 218.16 
L 502.266564 218.16 
L 510.864407 218.16 
L 519.46225 218.16 
L 528.060092 218.16 
L 536.657935 218.16 
L 545.255778 218.16 
L 553.853621 218.16 
L 562.451464 218.16 
L 571.049307 218.16 
L 579.647149 218.16 
L 588.244992 218.16 
L 596.842835 218.16 
L 605.440678 218.16 
L 614.038521 218.16 
L 622.636364 218.16 
" clip-path="url(#pb8924bfe3a)" style="fill: none; stroke-dasharray: 5.55,2.4; stroke-dashoffset: 0; stroke: #ff0000; stroke-width: 1.5"/>
    <defs>
     <path id="mc3d371c981" d="M -3 3 
L 3 3 
L 3 -3 
L -3 -3 
z
" style="stroke: #ff0000; stroke-linejoin: miter"/>
    </defs>
    <g clip-path="url(#pb8924bfe3a)">
     <use xlink:href="#mc3d371c981" x="115.363636" y="218.16" style="fill: #ff0000; stroke: #ff0000; stroke-linejoin: miter"/>
     <use xlink:href="#mc3d371c981" x="123.961479" y="218.16" style="fill: #ff0000; stroke: #ff0000; stroke-linejoin: miter"/>
     <use xlink:href="#mc3d371c981" x="132.559322" y="218.16" style="fill: #ff0000; stroke: #ff0000; stroke-linejoin: miter"/>
     <use xlink:href="#mc3d371c981" x="141.157165" y="218.16" style="fill: #ff0000; stroke: #ff0000; stroke-linejoin: miter"/>
     <use xlink:href="#mc3d371c981" x="149.755008" y="218.16" style="fill: #ff0000; stroke: #ff0000; stroke-linejoin: miter"/>
     <use xlink:href="#mc3d371c981" x="158.352851" y="218.16" style="fill: #ff0000; stroke: #ff0000; stroke-linejoin: miter"/>
     <use xlink:href="#mc3d371c981" x="166.950693" y="218.16" style="fill: #ff0000; stroke: #ff0000; stroke-linejoin: miter"/>
     <use xlink:href="#mc3d371c981" x="175.548536" y="218.16" style="fill: #ff0000; stroke: #ff0000; stroke-linejoin: miter"/>
     <use xlink:href="#mc3d371c981" x="184.146379" y="218.16" style="fill: #ff0000; stroke: #ff0000; stroke-linejoin: miter"/>
     <use xlink:href="#mc3d371c981" x="192.744222" y="218.16" style="fill: #ff0000; stroke: #ff0000; stroke-linejoin: miter"/>
     <use xlink:href="#mc3d371c981" x="201.342065" y="218.16" style="fill: #ff0000; stroke: #ff0000; stroke-linejoin: miter"/>
     <use xlink:href="#mc3d371c981" x="209.939908" y="218.16" style="fill: #ff0000; stroke: #ff0000; stroke-linejoin: miter"/>
     <use xlink:href="#mc3d371c981" x="218.53775" y="218.16" style="fill: #ff0000; stroke: #ff0000; stroke-linejoin: miter"/>
     <use xlink:href="#mc3d371c981" x="227.135593" y="218.16" style="fill: #ff0000; stroke: #ff0000; stroke-linejoin: miter"/>
     <use xlink:href="#mc3d371c981" x="235.733436" y="218.16" style="fill: #ff0000; stroke: #ff0000; stroke-linejoin: miter"/>
     <use xlink:href="#mc3d371c981" x="244.331279" y="218.16" style="fill: #ff0000; stroke: #ff0000; stroke-linejoin: miter"/>
     <use xlink:href="#mc3d371c981" x="252.929122" y="218.16" style="fill: #ff0000; stroke: #ff0000; stroke-linejoin: miter"/>
     <use xlink:href="#mc3d371c981" x="261.526965" y="218.16" style="fill: #ff0000; stroke: #ff0000; stroke-linejoin: miter"/>
     <use xlink:href="#mc3d371c981" x="270.124807" y="218.16" style="fill: #ff0000; stroke: #ff0000; stroke-linejoin: miter"/>
     <use xlink:href="#mc3d371c981" x="278.72265" y="218.16" style="fill: #ff0000; stroke: #ff0000; stroke-linejoin: miter"/>
     <use xlink:href="#mc3d371c981" x="287.320493" y="218.16" style="fill: #ff0000; stroke: #ff0000; stroke-linejoin: miter"/>
     <use xlink:href="#mc3d371c981" x="295.918336" y="218.16" style="fill: #ff0000; stroke: #ff0000; stroke-linejoin: miter"/>
     <use xlink:href="#mc3d371c981" x="304.516179" y="218.16" style="fill: #ff0000; stroke: #ff0000; stroke-linejoin: miter"/>
     <use xlink:href="#mc3d371c981" x="313.114022" y="218.16" style="fill: #ff0000; stroke: #ff0000; stroke-linejoin: miter"/>
     <use xlink:href="#mc3d371c981" x="321.711864" y="218.16" style="fill: #ff0000; stroke: #ff0000; stroke-linejoin: miter"/>
     <use xlink:href="#mc3d371c981" x="330.309707" y="218.16" style="fill: #ff0000; stroke: #ff0000; stroke-linejoin: miter"/>
     <use xlink:href="#mc3d371c981" x="338.90755" y="218.16" style="fill: #ff0000; stroke: #ff0000; stroke-linejoin: miter"/>
     <use xlink:href="#mc3d371c981" x="347.505393" y="218.16" style="fill: #ff0000; stroke: #ff0000; stroke-linejoin: miter"/>
     <use xlink:href="#mc3d371c981" x="356.103236" y="218.16" style="fill: #ff0000; stroke: #ff0000; stroke-linejoin: miter"/>
     <use xlink:href="#mc3d371c981" x="364.701079" y="218.16" style="fill: #ff0000; stroke: #ff0000; stroke-linejoin: miter"/>
     <use xlink:href="#mc3d371c981" x="373.298921" y="218.16" style="fill: #ff0000; stroke: #ff0000; stroke-linejoin: miter"/>
     <use xlink:href="#mc3d371c981" x="381.896764" y="218.16" style="fill: #ff0000; stroke: #ff0000; stroke-linejoin: miter"/>
     <use xlink:href="#mc3d371c981" x="390.494607" y="218.16" style="fill: #ff0000; stroke: #ff0000; stroke-linejoin: miter"/>
     <use xlink:href="#mc3d371c981" x="399.09245" y="218.16" style="fill: #ff0000; stroke: #ff0000; stroke-linejoin: miter"/>
     <use xlink:href="#mc3d371c981" x="407.690293" y="218.16" style="fill: #ff0000; stroke: #ff0000; stroke-linejoin: miter"/>
     <use xlink:href="#mc3d371c981" x="416.288136" y="218.16" style="fill: #ff0000; stroke: #ff0000; stroke-linejoin: miter"/>
     <use xlink:href="#mc3d371c981" x="424.885978" y="218.16" style="fill: #ff0000; stroke: #ff0000; stroke-linejoin: miter"/>
     <use xlink:href="#mc3d371c981" x="433.483821" y="218.16" style="fill: #ff0000; stroke: #ff0000; stroke-linejoin: miter"/>
     <use xlink:href="#mc3d371c981" x="442.081664" y="218.16" style="fill: #ff0000; stroke: #ff0000; stroke-linejoin: miter"/>
     <use xlink:href="#mc3d371c981" x="450.679507" y="218.16" style="fill: #ff0000; stroke: #ff0000; stroke-linejoin: miter"/>
     <use xlink:href="#mc3d371c981" x="459.27735" y="218.16" style="fill: #ff0000; stroke: #ff0000; stroke-linejoin: miter"/>
     <use xlink:href="#mc3d371c981" x="467.875193" y="218.16" style="fill: #ff0000; stroke: #ff0000; stroke-linejoin: miter"/>
     <use xlink:href="#mc3d371c981" x="476.473035" y="218.16" style="fill: #ff0000; stroke: #ff0000; stroke-linejoin: miter"/>
     <use xlink:href="#mc3d371c981" x="485.070878" y="218.16" style="fill: #ff0000; stroke: #ff0000; stroke-linejoin: miter"/>
     <use xlink:href="#mc3d371c981" x="493.668721" y="218.16" style="fill: #ff0000; stroke: #ff0000; stroke-linejoin: miter"/>
     <use xlink:href="#mc3d371c981" x="502.266564" y="218.16" style="fill: #ff0000; stroke: #ff0000; stroke-linejoin: miter"/>
     <use xlink:href="#mc3d371c981" x="510.864407" y="218.16" style="fill: #ff0000; stroke: #ff0000; stroke-linejoin: miter"/>
     <use xlink:href="#mc3d371c981" x="519.46225" y="218.16" style="fill: #ff0000; stroke: #ff0000; stroke-linejoin: miter"/>
     <use xlink:href="#mc3d371c981" x="528.060092" y="218.16" style="fill: #ff0000; stroke: #ff0000; stroke-linejoin: miter"/>
     <use xlink:href="#mc3d371c981" x="536.657935" y="218.16" style="fill: #ff0000; stroke: #ff0000; stroke-linejoin: miter"/>
     <use xlink:href="#mc3d371c981" x="545.255778" y="218.16" style="fill: #ff0000; stroke: #ff0000; stroke-linejoin: miter"/>
     <use xlink:href="#mc3d371c981" x="553.853621" y="218.16" style="fill: #ff0000; stroke: #ff0000; stroke-linejoin: miter"/>
     <use xlink:href="#mc3d371c981" x="562.451464" y="218.16" style="fill: #ff0000; stroke: #ff0000; stroke-linejoin: miter"/>
     <use xlink:href="#mc3d371c981" x="571.049307" y="218.16" style="fill: #ff0000; stroke: #ff0000; stroke-linejoin: miter"/>
     <use xlink:href="#mc3d371c981" x="579.647149" y="218.16" style="fill: #ff0000; stroke: #ff0000; stroke-linejoin: miter"/>
     <use xlink:href="#mc3d371c981" x="588.244992" y="218.16" style="fill: #ff0000; stroke: #ff0000; stroke-linejoin: miter"/>
     <use xlink:href="#mc3d371c981" x="596.842835" y="218.16" style="fill: #ff0000; stroke: #ff0000; stroke-linejoin: miter"/>
     <use xlink:href="#mc3d371c981" x="605.440678" y="218.16" style="fill: #ff0000; stroke: #ff0000; stroke-linejoin: miter"/>
     <use xlink:href="#mc3d371c981" x="614.038521" y="218.16" style="fill: #ff0000; stroke: #ff0000; stroke-linejoin: miter"/>
     <use xlink:href="#mc3d371c981" x="622.636364" y="218.16" style="fill: #ff0000; stroke: #ff0000; stroke-linejoin: miter"/>
    </g>
   </g>
   <g id="patch_7">
    <path d="M 90 384.48 
L 90 51.84 
" style="fill: none; stroke: #000000; stroke-width: 0.8; stroke-linejoin: miter; stroke-linecap: square"/>
   </g>
   <g id="patch_8">
    <path d="M 648 384.48 
L 648 51.84 
" style="fill: none; stroke: #000000; stroke-width: 0.8; stroke-linejoin: miter; stroke-linecap: square"/>
   </g>
   <g id="patch_9">
    <path d="M 90 384.48 
L 648 384.48 
" style="fill: none; stroke: #000000; stroke-width: 0.8; stroke-linejoin: miter; stroke-linecap: square"/>
   </g>
   <g id="patch_10">
    <path d="M 90 51.84 
L 648 51.84 
" style="fill: none; stroke: #000000; stroke-width: 0.8; stroke-linejoin: miter; stroke-linecap: square"/>
   </g>
   <g id="text_24">
    <!-- Impact of Holding Period (Rebalance Frequency) -->
    <g transform="translate(224.395313 45.84) scale(0.12 -0.12)">
     <defs>
      <path id="DejaVuSans-49" d="M 628 4666 
L 1259 4666 
L 1259 0 
L 628 0 
L 628 4666 
z
" transform="scale(0.015625)"/>
      <path id="DejaVuSans-6d" d="M 3328 2828 
Q 3544 3216 3844 3400 
Q 4144 3584 4550 3584 
Q 5097 3584 5394 3201 
Q 5691 2819 5691 2113 
L 5691 0 
L 5113 0 
L 5113 2094 
Q 5113 2597 4934 2840 
Q 4756 3084 4391 3084 
Q 3944 3084 3684 2787 
Q 3425 2491 3425 1978 
L 3425 0 
L 2847 0 
L 2847 2094 
Q 2847 2600 2669 2842 
Q 2491 3084 2119 3084 
Q 1678 3084 1418 2786 
Q 1159 2488 1159 1978 
L 1159 0 
L 581 0 
L 581 3500 
L 1159 3500 
L 1159 2956 
Q 1356 3278 1631 3431 
Q 1906 3584 2284 3584 
Q 2666 3584 2933 3390 
Q 3200 3197 3328 2828 
z
" transform="scale(0.015625)"/>
      <path id="DejaVuSans-70" d="M 1159 525 
L 1159 -1331 
L 581 -1331 
L 581 3500 
L 1159 3500 
L 1159 2969 
Q 1341 3281 1617 3432 
Q 1894 3584 2278 3584 
Q 2916 3584 3314 3078 
Q 3713 2572 3713 1747 
Q 3713 922 3314 415 
Q 2916 -91 2278 -91 
Q 1894 -91 1617 61 
Q 1341 213 1159 525 
z
M 3116 1747 
Q 3116 2381 2855 2742 
Q 2594 3103 2138 3103 
Q 1681 3103 1420 2742 
Q 1159 2381 1159 1747 
Q 1159 1113 1420 752 
Q 1681 391 2138 391 
Q 2594 391 2855 752 
Q 3116 1113 3116 1747 
z
" transform="scale(0.015625)"/>
      <path id="DejaVuSans-63" d="M 3122 3366 
L 3122 2828 
Q 2878 2963 2633 3030 
Q 2388 3097 2138 3097 
Q 1578 3097 1268 2742 
Q 959 2388 959 1747 
Q 959 1106 1268 751 
Q 1578 397 2138 397 
Q 2388 397 2633 464 
Q 2878 531 3122 666 
L 3122 134 
Q 2881 22 2623 -34 
Q 2366 -91 2075 -91 
Q 1284 -91 818 406 
Q 353 903 353 1747 
Q 353 2603 823 3093 
Q 1294 3584 2113 3584 
Q 2378 3584 2631 3529 
Q 2884 3475 3122 3366 
z
" transform="scale(0.015625)"/>
      <path id="DejaVuSans-66" d="M 2375 4863 
L 2375 4384 
L 1825 4384 
Q 1516 4384 1395 4259 
Q 1275 4134 1275 3809 
L 1275 3500 
L 2222 3500 
L 2222 3053 
L 1275 3053 
L 1275 0 
L 697 0 
L 697 3053 
L 147 3053 
L 147 3500 
L 697 3500 
L 697 3744 
Q 697 4328 969 4595 
Q 1241 4863 1831 4863 
L 2375 4863 
z
" transform="scale(0.015625)"/>
      <path id="DejaVuSans-62" d="M 3116 1747 
Q 3116 2381 2855 2742 
Q 2594 3103 2138 3103 
Q 1681 3103 1420 2742 
Q 1159 2381 1159 1747 
Q 1159 1113 1420 752 
Q 1681 391 2138 391 
Q 2594 391 2855 752 
Q 3116 1113 3116 1747 
z
M 1159 2969 
Q 1341 3281 1617 3432 
Q 1894 3584 2278 3584 
Q 2916 3584 3314 3078 
Q 3713 2572 3713 1747 
Q 3713 922 3314 415 
Q 2916 -91 2278 -91 
Q 1894 -91 1617 61 
Q 1341 213 1159 525 
L 1159 0 
L 581 0 
L 581 4863 
L 1159 4863 
L 1159 2969 
z
" transform="scale(0.015625)"/>
      <path id="DejaVuSans-46" d="M 628 4666 
L 3309 4666 
L 3309 4134 
L 1259 4134 
L 1259 2759 
L 3109 2759 
L 3109 2228 
L 1259 2228 
L 1259 0 
L 628 0 
L 628 4666 
z
" transform="scale(0.015625)"/>
      <path id="DejaVuSans-71" d="M 947 1747 
Q 947 1113 1208 752 
Q 1469 391 1925 391 
Q 2381 391 2643 752 
Q 2906 1113 2906 1747 
Q 2906 2381 2643 2742 
Q 2381 3103 1925 3103 
Q 1469 3103 1208 2742 
Q 947 2381 947 1747 
z
M 2906 525 
Q 2725 213 2448 61 
Q 2172 -91 1784 -91 
Q 1150 -91 751 415 
Q 353 922 353 1747 
Q 353 2572 751 3078 
Q 1150 3584 1784 3584 
Q 2172 3584 2448 3432 
Q 2725 3281 2906 2969 
L 2906 3500 
L 3481 3500 
L 3481 -1331 
L 2906 -1331 
L 2906 525 
z
" transform="scale(0.015625)"/>
     </defs>
     <use xlink:href="#DejaVuSans-49"/>
     <use xlink:href="#DejaVuSans-6d" transform="translate(29.492188 0)"/>
     <use xlink:href="#DejaVuSans-70" transform="translate(126.904297 0)"/>
     <use xlink:href="#DejaVuSans-61" transform="translate(190.380859 0)"/>
     <use xlink:href="#DejaVuSans-63" transform="translate(251.660156 0)"/>
     <use xlink:href="#DejaVuSans-74" transform="translate(306.640625 0)"/>
     <use xlink:href="#DejaVuSans-20" transform="translate(345.849609 0)"/>
     <use xlink:href="#DejaVuSans-6f" transform="translate(377.636719 0)"/>
     <use xlink:href="#DejaVuSans-66" transform="translate(438.818359 0)"/>
     <use xlink:href="#DejaVuSans-20" transform="translate(474.023438 0)"/>
     <use xlink:href="#DejaVuSans-48" transform="translate(505.810547 0)"/>
     <use xlink:href="#DejaVuSans-6f" transform="translate(581.005859 0)"/>
     <use xlink:href="#DejaVuSans-6c" transform="translate(642.1875 0)"/>
     <use xlink:href="#DejaVuSans-64" transform="translate(669.970703 0)"/>
     <use xlink:href="#DejaVuSans-69" transform="translate(733.447266 0)"/>
     <use xlink:href="#DejaVuSans-6e" transform="translate(761.230469 0)"/>
     <use xlink:href="#DejaVuSans-67" transform="translate(824.609375 0)"/>
     <use xlink:href="#DejaVuSans-20" transform="translate(888.085938 0)"/>
     <use xlink:href="#DejaVuSans-50" transform="translate(919.873047 0)"/>
     <use xlink:href="#DejaVuSans-65" transform="translate(976.550781 0)"/>
     <use xlink:href="#DejaVuSans-72" transform="translate(1038.074219 0)"/>
     <use xlink:href="#DejaVuSans-69" transform="translate(1079.1875 0)"/>
     <use xlink:href="#DejaVuSans-6f" transform="translate(1106.970703 0)"/>
     <use xlink:href="#DejaVuSans-64" transform="translate(1168.152344 0)"/>
     <use xlink:href="#DejaVuSans-20" transform="translate(1231.628906 0)"/>
     <use xlink:href="#DejaVuSans-28" transform="translate(1263.416016 0)"/>
     <use xlink:href="#DejaVuSans-52" transform="translate(1302.429688 0)"/>
     <use xlink:href="#DejaVuSans-65" transform="translate(1367.412109 0)"/>
     <use xlink:href="#DejaVuSans-62" transform="translate(1428.935547 0)"/>
     <use xlink:href="#DejaVuSans-61" transform="translate(1492.412109 0)"/>
     <use xlink:href="#DejaVuSans-6c" transform="translate(1553.691406 0)"/>
     <use xlink:href="#DejaVuSans-61" transform="translate(1581.474609 0)"/>
     <use xlink:href="#DejaVuSans-6e" transform="translate(1642.753906 0)"/>
     <use xlink:href="#DejaVuSans-63" transform="translate(1706.132812 0)"/>
     <use xlink:href="#DejaVuSans-65" transform="translate(1761.113281 0)"/>
     <use xlink:href="#DejaVuSans-20" transform="translate(1822.636719 0)"/>
     <use xlink:href="#DejaVuSans-46" transform="translate(1854.423828 0)"/>
     <use xlink:href="#DejaVuSans-72" transform="translate(1904.693359 0)"/>
     <use xlink:href="#DejaVuSans-65" transform="translate(1943.556641 0)"/>
     <use xlink:href="#DejaVuSans-71" transform="translate(2005.080078 0)"/>
     <use xlink:href="#DejaVuSans-75" transform="translate(2068.556641 0)"/>
     <use xlink:href="#DejaVuSans-65" transform="translate(2131.935547 0)"/>
     <use xlink:href="#DejaVuSans-6e" transform="translate(2193.458984 0)"/>
     <use xlink:href="#DejaVuSans-63" transform="translate(2256.837891 0)"/>
     <use xlink:href="#DejaVuSans-79" transform="translate(2311.818359 0)"/>
     <use xlink:href="#DejaVuSans-29" transform="translate(2370.998047 0)"/>
    </g>
   </g>
  </g>
 </g>
 <defs>
  <clipPath id="pb8924bfe3a">
   <rect x="90" y="51.84" width="558" height="332.64"/>
  </clipPath>
 </defs>
</svg>
